<svg width="283" height="62" viewBox="0 0 283 62" fill="none" xmlns="http://www.w3.org/2000/svg">
<path d="M32.6894 27.7505L30.9241 29.0866C29.1587 26.9002 26.8861 25.807 24.1062 25.807C21.6915 25.807 19.6218 26.6674 17.897 28.3882C16.1925 30.0887 15.3403 32.1435 15.3403 34.5526C15.3403 36.9616 16.1925 39.0265 17.897 40.7473C19.6218 42.4478 21.6915 43.2981 24.1062 43.2981C25.4657 43.2981 26.7339 43.0045 27.9108 42.4174C29.108 41.8303 30.1226 41.0206 30.9545 39.9881L32.659 41.4153C31.6444 42.6907 30.3864 43.6928 28.8848 44.4216C27.3832 45.1302 25.7904 45.4844 24.1062 45.4844C21.0828 45.4844 18.4956 44.4216 16.3447 42.296C14.2141 40.1501 13.1488 37.5689 13.1488 34.5526C13.1488 31.5362 14.2141 28.9651 16.3447 26.8395C18.4956 24.6936 21.0828 23.6207 24.1062 23.6207C25.8107 23.6207 27.4137 23.9952 28.9152 24.7442C30.4168 25.473 31.6749 26.4751 32.6894 27.7505ZM36.0984 25.0175L34.3635 26.3536C33.146 24.8151 31.6343 23.6105 29.8284 22.74C28.0427 21.8695 26.1353 21.4343 24.1062 21.4343C20.474 21.4343 17.3694 22.7198 14.7924 25.2908C12.2357 27.8618 10.9574 30.9491 10.9574 34.5526C10.9574 38.156 12.2357 41.2433 14.7924 43.8143C17.3694 46.3853 20.474 47.6708 24.1062 47.6708C26.1353 47.6708 28.0529 47.2356 29.8588 46.3651C31.6647 45.4743 33.1764 44.2597 34.3939 42.7211L36.068 44.1179C34.6476 45.8994 32.8924 47.3064 30.8023 48.3389C28.7123 49.3511 26.4803 49.8572 24.1062 49.8572C21.3263 49.8572 18.7594 49.179 16.4056 47.8226C14.0518 46.446 12.185 44.5836 10.8052 42.2352C9.44564 39.8869 8.76588 37.326 8.76588 34.5526C8.76588 31.7791 9.44564 29.2182 10.8052 26.8699C12.185 24.5215 14.0518 22.6692 16.4056 21.3128C18.7594 19.9362 21.3263 19.2479 24.1062 19.2479C26.4803 19.2479 28.7123 19.7641 30.8023 20.7966C32.9126 21.8088 34.678 23.2158 36.0984 25.0175ZM39.5378 22.2846L37.8333 23.651C36.1897 21.6064 34.1707 19.997 31.7763 18.8228C29.3819 17.6486 26.8252 17.0615 24.1062 17.0615C21.7321 17.0615 19.4594 17.5272 17.2883 18.4584C15.1374 19.3694 13.2706 20.6144 11.6878 22.1935C10.1254 23.7523 8.87749 25.6147 7.94408 27.7809C7.03097 29.9267 6.57441 32.184 6.57441 34.5526C6.57441 36.9211 7.03097 39.1885 7.94408 41.3546C8.87749 43.5005 10.1254 45.363 11.6878 46.942C13.2706 48.5008 15.1374 49.7458 17.2883 50.6771C19.4594 51.5881 21.7321 52.0436 24.1062 52.0436C26.8252 52.0436 29.3819 51.4565 31.7763 50.2823C34.1707 49.1081 36.1897 47.4987 37.8333 45.4541L39.4769 46.8813C37.6304 49.1689 35.3679 50.9706 32.6894 52.2865C30.011 53.5821 27.1499 54.2299 24.1062 54.2299C21.4277 54.2299 18.871 53.7137 16.436 52.6813C14.0011 51.6286 11.9009 50.2317 10.1356 48.4907C8.39049 46.7295 6.99039 44.6342 5.93523 42.2049C4.90037 39.7756 4.38294 37.2248 4.38294 34.5526C4.38294 31.8803 4.90037 29.3295 5.93523 26.9002C6.99039 24.4709 8.39049 22.3858 10.1356 20.6448C11.9009 18.8835 14.0011 17.4867 16.436 16.4542C18.871 15.4015 21.4277 14.8752 24.1062 14.8752C27.1702 14.8752 30.0414 15.5331 32.7199 16.849C35.4186 18.1649 37.6913 19.9767 39.5378 22.2846ZM42.9467 19.5516L41.1814 20.8573C39.132 18.3268 36.6158 16.3328 33.633 14.8752C30.6704 13.4176 27.4948 12.6888 24.1062 12.6888C21.1436 12.6888 18.3028 13.2658 15.5838 14.4197C12.885 15.5736 10.5515 17.1324 8.58326 19.0961C6.63529 21.0395 5.08299 23.3676 3.92638 26.0803C2.76978 28.7728 2.19147 31.5969 2.19147 34.5526C2.19147 37.5082 2.76978 40.3424 3.92638 43.0551C5.08299 45.7476 6.63529 48.0757 8.58326 50.0394C10.5515 51.9828 12.885 53.5315 15.5838 54.6854C18.3028 55.8394 21.1436 56.4163 24.1062 56.4163C27.4948 56.4163 30.6704 55.6875 33.633 54.2299C36.6158 52.7724 39.132 50.7783 41.1814 48.2478L42.9163 49.5839C40.664 52.3776 37.8942 54.5842 34.607 56.2038C31.3401 57.803 27.8398 58.6027 24.1062 58.6027C20.8393 58.6027 17.7144 57.965 14.7316 56.6896C11.769 55.4142 9.21229 53.7036 7.06141 51.5577C4.91052 49.4118 3.19589 46.861 1.91754 43.9054C0.639179 40.9295 0 37.8119 0 34.5526C0 31.2932 0.639179 28.1857 1.91754 25.2301C3.19589 22.2542 4.91052 19.6933 7.06141 17.5474C9.21229 15.4015 11.769 13.6909 14.7316 12.4155C17.7144 11.1401 20.8393 10.5024 24.1062 10.5024C27.8398 10.5024 31.3502 11.3122 34.6374 12.9317C37.9246 14.531 40.6944 16.7376 42.9467 19.5516Z" fill="#2A1A6E"/>
<path d="M58.8702 28.3882C57.1657 30.0887 56.3135 32.1435 56.3135 34.5526C56.3135 36.9616 57.1657 39.0265 58.8702 40.7473C60.595 42.4478 62.6647 43.2981 65.0794 43.2981C67.4941 43.2981 69.5536 42.4478 71.2581 40.7473C72.9829 39.0265 73.8453 36.9616 73.8453 34.5526C73.8453 32.1435 72.9829 30.0887 71.2581 28.3882C69.5536 26.6674 67.4941 25.807 65.0794 25.807C62.6647 25.807 60.595 26.6674 58.8702 28.3882ZM57.3179 42.296C55.1873 40.1501 54.122 37.5689 54.122 34.5526C54.122 31.5362 55.1873 28.9651 57.3179 26.8395C59.4688 24.6936 62.056 23.6207 65.0794 23.6207C68.1028 23.6207 70.6798 24.6936 72.8104 26.8395C74.9613 28.9651 76.0367 31.5362 76.0367 34.5526C76.0367 37.5689 74.9613 40.1501 72.8104 42.296C70.6798 44.4216 68.1028 45.4844 65.0794 45.4844C62.056 45.4844 59.4688 44.4216 57.3179 42.296ZM55.7656 25.2908C53.2089 27.8618 51.9306 30.9491 51.9306 34.5526C51.9306 38.156 53.2089 41.2433 55.7656 43.8143C58.3426 46.3853 61.4472 47.6708 65.0794 47.6708C68.7115 47.6708 71.806 46.3853 74.3627 43.8143C76.9397 41.2433 78.2282 38.156 78.2282 34.5526C78.2282 30.9491 76.9397 27.8618 74.3627 25.2908C71.806 22.7198 68.7115 21.4343 65.0794 21.4343C61.4472 21.4343 58.3426 22.7198 55.7656 25.2908ZM51.7784 42.2352C50.4188 39.8869 49.7391 37.326 49.7391 34.5526C49.7391 31.7791 50.4188 29.2182 51.7784 26.8699C53.1582 24.5215 55.025 22.6692 57.3788 21.3128C59.7326 19.9362 62.2995 19.2479 65.0794 19.2479C67.8593 19.2479 70.4262 19.9362 72.78 21.3128C75.1338 22.6692 76.9904 24.5215 78.3499 26.8699C79.7298 29.2182 80.4197 31.7791 80.4197 34.5526C80.4197 37.326 79.7298 39.8869 78.3499 42.2352C76.9904 44.5836 75.1338 46.446 72.78 47.8226C70.4262 49.179 67.8593 49.8572 65.0794 49.8572C62.2995 49.8572 59.7326 49.179 57.3788 47.8226C55.025 46.446 53.1582 44.5836 51.7784 42.2352ZM48.9173 27.7809C48.0042 29.9267 47.5476 32.184 47.5476 34.5526C47.5476 36.9211 48.0042 39.1885 48.9173 41.3546C49.8507 43.5005 51.0986 45.363 52.661 46.942C54.2438 48.5008 56.1106 49.7458 58.2615 50.6771C60.4326 51.5881 62.7053 52.0436 65.0794 52.0436C67.4535 52.0436 69.716 51.5881 71.8668 50.6771C74.038 49.7458 75.9048 48.5008 77.4673 46.942C79.05 45.363 80.2979 43.5005 81.211 41.3546C82.1444 39.1885 82.6111 36.9211 82.6111 34.5526C82.6111 32.184 82.1444 29.9267 81.211 27.7809C80.2979 25.6147 79.05 23.7523 77.4673 22.1935C75.9048 20.6144 74.038 19.3694 71.8668 18.4584C69.716 17.5272 67.4535 17.0615 65.0794 17.0615C62.7053 17.0615 60.4326 17.5272 58.2615 18.4584C56.1106 19.3694 54.2438 20.6144 52.661 22.1935C51.0986 23.7523 49.8507 25.6147 48.9173 27.7809ZM46.9084 42.2049C45.8736 39.7756 45.3561 37.2248 45.3561 34.5526C45.3561 31.8803 45.8736 29.3295 46.9084 26.9002C47.9636 24.4709 49.3637 22.3858 51.1087 20.6448C52.8741 18.8835 54.9743 17.4867 57.4092 16.4542C59.8442 15.4015 62.4009 14.8752 65.0794 14.8752C67.7578 14.8752 70.3146 15.4015 72.7495 16.4542C75.1845 17.4867 77.2745 18.8835 79.0196 20.6448C80.7849 22.3858 82.185 24.4709 83.2199 26.9002C84.275 29.3295 84.8026 31.8803 84.8026 34.5526C84.8026 37.2248 84.275 39.7756 83.2199 42.2049C82.185 44.6342 80.7849 46.7295 79.0196 48.4907C77.2745 50.2317 75.1845 51.6286 72.7495 52.6813C70.3146 53.7137 67.7578 54.2299 65.0794 54.2299C62.4009 54.2299 59.8442 53.7137 57.4092 52.6813C54.9743 51.6286 52.8741 50.2317 51.1087 48.4907C49.3637 46.7295 47.9636 44.6342 46.9084 42.2049ZM44.8996 26.0803C43.743 28.7728 43.1647 31.5969 43.1647 34.5526C43.1647 37.5082 43.743 40.3424 44.8996 43.0551C46.0562 45.7476 47.6085 48.0757 49.5565 50.0394C51.5247 51.9828 53.8582 53.5315 56.557 54.6854C59.276 55.8394 62.1168 56.4163 65.0794 56.4163C68.0419 56.4163 70.8726 55.8394 73.5713 54.6854C76.2904 53.5315 78.6239 51.9828 80.5719 50.0394C82.5401 48.0757 84.1026 45.7476 85.2592 43.0551C86.4158 40.3424 86.9941 37.5082 86.9941 34.5526C86.9941 31.5969 86.4158 28.7728 85.2592 26.0803C84.1026 23.3676 82.5401 21.0395 80.5719 19.0961C78.6239 17.1324 76.2904 15.5736 73.5713 14.4197C70.8726 13.2658 68.0419 12.6888 65.0794 12.6888C62.1168 12.6888 59.276 13.2658 56.557 14.4197C53.8582 15.5736 51.5247 17.1324 49.5565 19.0961C47.6085 21.0395 46.0562 23.3676 44.8996 26.0803ZM42.8907 43.9054C41.6124 40.9295 40.9732 37.8119 40.9732 34.5526C40.9732 31.2932 41.6124 28.1857 42.8907 25.2301C44.1691 22.2542 45.8837 19.6933 48.0346 17.5474C50.1855 15.4015 52.7422 13.6909 55.7048 12.4155C58.6876 11.1401 61.8125 10.5024 65.0794 10.5024C68.3463 10.5024 71.461 11.1401 74.4236 12.4155C77.4064 13.6909 79.9733 15.4015 82.1241 17.5474C84.275 19.6933 85.9897 22.2542 87.268 25.2301C88.5464 28.1857 89.1856 31.2932 89.1856 34.5526C89.1856 37.8119 88.5464 40.9295 87.268 43.9054C85.9897 46.861 84.275 49.4118 82.1241 51.5577C79.9733 53.7036 77.4064 55.4142 74.4236 56.6896C71.461 57.965 68.3463 58.6027 65.0794 58.6027C61.8125 58.6027 58.6876 57.965 55.7048 56.6896C52.7422 55.4142 50.1855 53.7036 48.0346 51.5577C45.8837 49.4118 44.1691 46.861 42.8907 43.9054Z" fill="#2A1A6E"/>
<path d="M113.995 23.6157C109.437 23.6157 106.375 25.0964 104.812 28.0579C103.937 29.7237 103.5 32.2885 103.5 35.7523V56.4163H92.0903V13.1846H102.904V20.7204C104.653 17.8383 106.177 15.8684 107.475 14.8107C109.596 13.0391 112.352 12.1534 115.744 12.1534C115.956 12.1534 116.129 12.1666 116.261 12.193C116.42 12.193 116.751 12.2062 117.255 12.2327V23.814C116.539 23.7347 115.903 23.6818 115.347 23.6554C114.79 23.6289 114.34 23.6157 113.995 23.6157Z" fill="#C8251A"/>
<path d="M145.4 48.3649V56.8129L140.033 57.0112C134.679 57.1963 131.022 56.2709 129.061 54.2349C127.788 52.9393 127.152 50.9429 127.152 48.2459V21.6326H121.11V13.5812H127.152V1.52389H138.363V13.5812H145.4V21.6326H138.363V44.478C138.363 46.2496 138.588 47.3601 139.039 47.8096C139.489 48.2327 140.868 48.4442 143.173 48.4442C143.518 48.4442 143.876 48.4442 144.247 48.4442C144.644 48.4178 145.029 48.3913 145.4 48.3649Z" fill="#C8251A"/>
<path d="M168.801 44.4225H173.476V48.0873C173.476 50.9747 172.585 53.2624 170.804 54.9504C169.023 56.594 166.263 57.4158 162.523 57.4158C158.783 57.4158 156 56.594 154.174 54.9504C152.349 53.2624 151.436 50.9747 151.436 48.0873V21.4343C151.436 18.5469 152.326 16.2814 154.107 14.6378C155.888 12.9498 158.649 12.1058 162.389 12.1058C166.129 12.1058 168.912 12.9498 170.738 14.6378C172.563 16.2814 173.476 18.5469 173.476 21.4343V36.0934H156.111V48.0873C156.111 49.7309 156.623 51.0413 157.647 52.0186C158.716 52.9514 160.341 53.4179 162.523 53.4179C164.66 53.4179 166.241 52.9514 167.265 52.0186C168.289 51.0413 168.801 49.7309 168.801 48.0873V44.4225ZM156.111 32.0955H168.801V21.4343C168.801 19.7463 168.266 18.4358 167.198 17.503C166.174 16.5701 164.571 16.1037 162.389 16.1037C160.252 16.1037 158.671 16.5701 157.647 17.503C156.623 18.4358 156.111 19.7463 156.111 21.4343V32.0955Z" fill="#3A8A3A"/>
<path d="M201.794 56.4163L194.247 39.5583L186.7 56.4163H181.824L191.843 34.0945L182.492 13.1052H187.368L194.514 29.2303L201.794 13.1052H206.669L196.985 34.6941L206.669 56.4163H201.794Z" fill="#3A8A3A"/>
<path d="M218.374 55.7315C216.315 56.785 215.048 57.2591 213.833 57.2591C212.936 57.2591 212.091 56.9958 210.929 56.5743C208.395 55.5735 207.022 52.887 207.022 48.989V48.0935C207.233 44.3008 207.656 41.6669 208.184 40.6661C208.395 40.2447 208.553 39.5072 208.553 39.0331C208.553 37.8216 211.035 31.8692 211.88 31.0263C212.196 30.763 212.355 30.5523 212.355 30.4469C212.355 30.3942 212.302 30.3942 212.249 30.3942C212.249 30.3942 212.196 30.3415 212.196 30.2889C212.196 30.0255 212.619 29.13 213.252 27.9711C213.886 26.8649 214.784 25.4427 215.681 24.1257C218.374 20.2804 219.06 19.5429 220.592 19.5429H221.12C221.542 19.5956 221.753 19.859 221.753 20.3857C221.753 21.1232 221.331 22.3348 220.433 23.915C215.417 33.3968 212.196 42.3517 211.827 47.8828V48.9363C211.827 51.6228 212.513 53.2557 213.728 53.2557C215.1 53.2557 217.476 52.0442 219.641 50.2532C220.803 49.2523 221.964 48.3042 222.175 48.1461C223.548 46.9873 230.412 38.6117 232.26 35.8726C232.788 35.1351 233.422 34.5556 233.686 34.5556H233.738C233.844 34.6083 233.897 34.6083 233.95 34.6083C234.002 34.6083 234.002 34.6083 234.002 34.5556C234.002 34.503 234.002 34.4503 233.95 34.3976C233.95 34.3449 233.897 34.2923 233.897 34.1869C233.897 33.2387 236.114 30.0782 238.015 27.9711C239.018 26.8649 239.969 26.0748 240.391 26.0748C240.708 26.0748 240.866 26.1274 240.866 26.2328C240.866 26.3381 240.761 26.4435 240.55 26.7069C240.338 26.9703 240.233 27.2336 240.233 27.4444C240.233 27.5497 240.233 27.6024 240.286 27.6551C240.338 27.7077 240.391 27.7077 240.444 27.7077C240.497 27.7077 240.55 27.6024 240.55 27.4444C240.55 27.181 240.761 26.9176 240.972 26.9176C241.13 26.9176 241.183 27.0229 241.183 27.2336C241.183 27.8131 240.761 29.0246 240.074 30.7103C239.23 32.712 232.419 41.7196 231.785 41.7196C231.679 41.667 231.627 41.667 231.627 41.667C231.574 41.667 231.574 41.667 231.574 41.7196L231.627 41.9303C231.679 41.983 231.679 41.983 231.679 42.0884C231.679 43.7213 221.595 54.1512 218.374 55.7315ZM226.769 6.0051C225.555 7.21665 224.551 7.84877 223.759 7.84877C223.073 7.84877 222.545 7.32201 222.281 6.32116V6.11045C222.281 4.68819 225.132 0.368734 226.03 0.368734H226.083C226.188 0.42141 226.294 0.42141 226.399 0.42141C226.611 0.42141 226.769 0.368734 226.822 0.210705C226.875 0.0526763 227.139 0 227.508 0C227.719 0 227.878 0 228.089 0.0526763C229.092 0.263381 229.62 0.790144 229.62 1.58029C229.62 2.63381 228.67 4.2141 226.769 6.0051Z" fill="#C08830"/>
<path d="M258.29 60.3144C257.287 61.2625 255.28 62 254.119 62C253.802 62 253.538 61.9473 253.38 61.842C253.169 61.7366 252.905 61.6839 252.641 61.6839C252.482 61.6839 252.324 61.6839 252.218 61.7366C252.165 61.7893 252.06 61.7893 252.007 61.7893C251.796 61.7893 251.637 61.6839 251.637 61.4732C251.637 61.2099 251.373 60.9991 251.057 60.9991C250.687 60.9991 250.317 60.6304 250.159 60.1563C250.001 59.6822 249.631 59.2608 249.367 59.2608C249.261 59.2608 249.156 59.2082 249.156 59.1555C249.156 59.1028 249.261 58.9975 249.473 58.8394C249.789 58.6814 249.895 58.576 249.895 58.4707C249.895 58.418 249.737 58.418 249.42 58.418C248.681 58.418 248.258 56.3636 248.258 53.8352C248.258 52.1495 248.417 50.2532 248.786 48.5149C250.001 42.9312 252.799 34.3976 254.225 31.7638C254.541 31.1844 254.7 30.763 254.7 30.5523C254.7 30.3942 254.647 30.2889 254.541 30.2889C254.225 30.2889 253.591 30.921 252.852 32.0799C251.479 34.4503 247.044 40.8241 246.146 41.825C245.724 42.2991 245.09 43.1419 244.668 43.774C242.45 47.2506 237.646 51.8335 235.692 52.3602C235.322 52.4656 234.953 52.5183 234.636 52.5183C232.999 52.5183 231.627 51.4121 230.835 49.3577C230.518 48.4095 230.307 47.5667 230.307 46.4605C230.307 45.1963 230.571 43.616 231.099 41.1929C231.468 39.3492 233.58 34.5556 234.002 34.3449C234.214 34.2396 234.372 33.9762 234.372 33.7655C234.372 33.5021 235.27 31.9218 236.378 30.2362C236.748 29.6568 237.118 28.8666 237.857 27.9711C240.972 24.3364 246.516 18.8581 247.149 18.8581H247.255C247.466 18.8581 247.994 18.5421 248.522 18.068C249.103 17.4885 249.895 17.0144 250.212 17.0144C250.529 17.0144 251.321 16.6984 251.901 16.3297C252.746 15.8029 254.753 15.4868 256.336 15.4868C257.128 15.4868 257.815 15.5395 258.184 15.7502C258.343 15.8029 258.448 15.8556 258.554 15.8556C259.082 15.8556 259.663 15.2761 260.983 13.5905C262.725 11.4308 263.359 10.746 264.256 10.746C264.468 10.746 264.732 10.7986 264.996 10.8513C265.84 11.062 266.368 12.0629 266.579 13.7485V13.8012C266.579 14.9074 263.464 23.5463 262.936 23.915C262.725 24.0204 262.461 24.7579 262.303 25.548C262.197 26.3381 261.458 28.1291 260.719 29.5514C260.032 31.0263 259.452 32.3959 259.452 32.6066C259.452 32.87 259.135 33.7655 258.765 34.661C256.759 39.1385 253.538 49.305 253.116 52.3076C252.957 53.4138 252.799 54.678 252.693 55.0467V55.3101C252.693 55.7842 252.799 56.4163 252.905 56.9958C253.116 57.7859 253.274 58.102 254.119 58.102C254.541 58.102 255.175 57.9966 256.072 57.8913C256.495 57.8386 256.864 57.6279 256.864 57.4698C256.864 57.2591 257.181 56.9958 257.604 56.8377C258.026 56.6797 258.712 56.1529 259.135 55.6788C259.452 55.3101 259.716 55.0994 259.821 55.0994C259.874 55.0994 259.874 55.1521 259.874 55.2048C259.874 55.2574 259.927 55.2574 259.927 55.2574C260.032 55.2574 260.455 54.836 260.877 54.2039C261.458 53.4138 262.989 51.6754 264.256 50.2532C267.16 47.0399 267.635 46.4605 267.635 46.0918C267.635 45.9337 268.058 45.4596 268.533 45.0382C269.008 44.6168 269.378 44.1954 269.378 44.0374V43.9847C269.378 43.8267 270.381 42.2464 271.701 40.4027C273.813 37.4002 276.295 33.1334 278.67 28.4452C278.776 28.2345 278.882 28.0765 278.987 27.9184C279.41 27.2863 279.832 26.8649 280.096 26.8649H280.149C280.254 26.8649 280.36 26.9176 280.413 26.9176C280.518 26.9176 280.571 26.8649 280.571 26.8122C280.571 26.7069 280.466 26.6015 280.254 26.3381C280.096 26.1274 279.99 25.9694 279.99 25.8114C279.99 25.6007 280.202 25.4427 280.624 25.2319C280.941 25.0739 281.416 24.9686 281.838 24.9686C282.05 24.9686 282.208 24.9686 282.366 25.0212C282.789 25.1266 283 25.2846 283 25.4953C283 25.6534 282.894 25.8641 282.736 26.1274C282.578 26.4435 282.472 26.8122 282.472 27.0229C282.472 27.1283 282.472 27.181 282.525 27.2336C282.578 27.2863 282.578 27.339 282.578 27.4444C282.578 27.7077 282.472 28.1291 282.208 28.6032C281.891 29.2353 281.152 30.7103 280.571 31.9218C279.99 33.0807 279.462 34.1342 279.304 34.2923C278.987 34.6083 278.037 36.1359 277.72 36.8734C277.614 37.1895 276.981 38.1903 276.347 39.0331C275.714 39.8233 275.239 40.6661 275.239 40.7715C275.239 41.1402 271.173 46.9346 269.431 49.0943C268.691 49.9898 267.847 50.7799 267.583 50.7799H267.53L267.424 50.7273C267.371 50.7273 267.371 50.78 267.371 50.8326C267.371 50.8853 267.371 50.938 267.424 51.0433V51.096C267.424 51.7281 260.455 59.2608 259.821 59.2608C259.557 59.2608 258.871 59.7349 258.29 60.3144ZM235.006 48.1461H235.111C235.692 48.1461 238.596 45.1963 241.078 42.141C242.345 40.5081 243.559 39.4545 244.087 39.4019C244.404 39.4019 244.562 39.3492 244.562 39.2965C244.562 39.2438 244.509 39.1912 244.404 39.1385C244.245 39.0858 244.14 38.9805 244.14 38.7698C244.14 38.559 244.298 38.1903 244.562 37.6636C244.879 37.0841 245.301 36.61 245.565 36.61L245.618 36.6627C245.724 36.7154 245.829 36.7681 245.882 36.7681C245.988 36.7681 246.041 36.7154 246.041 36.61L245.988 36.5574V36.1359C245.988 35.4511 246.357 34.8717 247.361 33.6602C248.1 32.87 248.628 32.0799 248.628 31.9218C248.628 31.6058 249.473 30.1835 251.743 26.8122C252.641 25.4427 253.38 24.1257 253.38 23.915C253.38 23.7043 253.802 23.2302 254.33 22.8615C254.911 22.4928 255.28 22.0714 255.28 21.9133V21.8607C255.28 21.7026 255.703 20.9652 256.231 20.2277C256.864 19.3849 257.234 18.9108 257.234 18.6474C257.234 18.5947 257.128 18.5421 257.023 18.5421C256.812 18.5421 256.442 18.6474 255.808 18.9108C255.228 19.1742 254.647 19.3322 254.33 19.3322C254.225 19.3322 254.119 19.3322 254.066 19.2795C254.013 19.2268 254.013 19.2268 253.961 19.2268C253.855 19.2268 253.802 19.3322 253.802 19.4902C253.802 19.7009 253.327 20.1223 252.693 20.3857C251.532 20.9125 251.057 21.2812 248.945 23.1776C248.153 23.8624 247.361 24.5472 247.097 24.7052C246.621 25.0212 242.028 30.7103 240.55 32.7647C237.646 36.9261 234.794 44.3534 234.794 47.198C234.794 47.6194 234.847 47.9881 235.006 48.1461Z" fill="#C08830"/>
</svg>
