<svg width="220" height="248" viewBox="0 0 220 248" fill="none" xmlns="http://www.w3.org/2000/svg">
<path d="M54.0436 98.3666L93.0686 132.759L134.592 88.4229L129.736 38.9787L205.62 -29.9406L259.288 23.5662L225.735 60.7922L223.936 109.037L124.807 171.3L133.601 186.692L83.6028 247.705L77.6563 236.384L95.7226 191.805L69.2591 181.732L29.528 226.97L21.3035 212.742L42.3678 177.882L41.6356 176.886L13.9241 198.658L8.84702 186.475L32.2843 159.091L31.5572 157.594L4.968 178.753L-3.69612e-05 167.933L14.3954 152.595L12.8233 113.066L54.0436 98.3666ZM39.8362 120.738L25.8721 123.501L26.2954 136.202L39.8409 120.743L39.8362 120.738Z" fill="#011310"/>
</svg>
