<svg width="1011" height="625" viewBox="0 0 1011 625" fill="none" xmlns="http://www.w3.org/2000/svg">
<g clip-path="url(#clip0_158_87)">
<path d="M721.207 521.775C729.093 522.151 737.504 523.403 745.33 521.64C755.812 519.257 768.224 509.665 778.185 506.671C780.701 506.095 781.896 507.257 783.326 509.099C796.723 527.823 841.945 591.837 854.622 609.645C857.057 613.44 859.577 614.386 864.608 612.789C870.049 610.802 885.281 607.667 886.326 602.471C886.501 599.867 884.976 597.459 883.751 595.066C878.355 585.313 869.059 568.727 863.163 558.078C858.142 550.558 859.022 543.168 860.237 534.732C861.718 521.22 845.86 515.813 837.599 507.917C832.923 504.378 830.813 499.727 830.988 493.509C830.903 487.486 831.063 481.283 831.088 475.16C831.238 469.597 831.088 462.593 831.328 457.762C831.358 452.335 832.703 449.571 836.539 446.362C851.481 432.254 901.653 384.672 924.927 362.653C930.168 358.903 929.463 352.565 928.477 346.862C926.147 318.285 909.7 330.466 905.509 311.496C903.664 302.064 907.954 292.652 915.476 287.019C919.831 283.319 922.792 279.414 923.202 273.296C924.377 260.845 925.522 239.798 926.562 227.101C926.292 214.43 933.583 210.144 942.234 202.284C947.685 197.608 953.446 191.415 960.232 189.557C968.803 186.638 980.66 190.944 986.596 182.558C990.592 176.761 990.247 167.498 985.251 161.976C981.9 157.816 977.305 154.451 976.09 148.979C974.674 141.119 974.134 125.889 978.63 118.91C984.911 110.239 993.462 101.693 1000.55 93.2567C1006.46 86.0623 1013.17 81.241 1010.34 72.4545C1006.47 62.4215 995.892 56.4587 990.902 47.2967C987.741 41.2238 986.261 31.6013 981.215 27.4509C974.539 23.3555 964.318 32.3773 958.737 36.6679C954.406 40.2726 952.236 44.1576 951.971 50.2256C951.706 57.1246 951.921 65.2051 951.916 71.9539C951.631 78.1119 952.841 84.295 947.345 87.5342C927.882 100.366 882.356 130.36 856.507 147.117C852.596 149.5 848.021 149.795 843.525 150.366C817.191 152.309 820.331 159.012 816.961 181.281C814.446 193.838 798.933 185.432 790.387 187.985C780.671 189.883 778.925 201.923 771.689 206.95C766.989 210.364 760.253 208.106 757.812 203.075C755.962 199.425 757.107 195.29 757.867 191.425C760.008 181.652 763.388 166.277 765.538 156.514C766.613 152.394 767.154 146.786 771.944 145.725C778.46 144.854 786.056 147.252 792.497 144.358C803.239 140.508 798.743 129.689 792.772 122.655C789.112 117.819 784.886 110.86 780.015 108.587C777.295 107.175 772.774 108.061 768.889 109.127C761.118 110.925 751.121 115.386 743.38 115.586C740.105 115.406 738.039 113.007 735.779 110.77C724.042 98.6787 695.613 68.8198 683.071 55.903C680.931 53.7151 678.81 51.9278 675.85 51.2369C672.389 50.4509 668.584 50.531 664.973 50.551C659.468 50.7613 654.332 50.526 649.571 52.5786C643.78 55.167 640.46 62.7369 637.119 68.2841C632.964 74.9628 629.808 84.0847 620.602 84.4151C613.316 84.8157 605.339 84.2299 597.938 83.9345C581.531 84.4402 581.726 66.5218 574.6 56.7791C458.828 41.9498 134.705 4.59105 100.005 0.0901841C97.6492 -0.590704 97.0841 2.69358 96.344 4.44086C90.8732 19.5556 84.7173 22.0388 72.5604 10.4787C65.7894 4.14547 52.6025 4.62109 49.242 14.2887C48.0818 18.1487 48.2718 22.5845 48.6369 26.7299C50.2921 43.4818 52.4025 63.1774 54.1727 76.6049C54.5578 79.6489 54.5778 81.8768 53.5326 84.7255C42.0259 113.688 10.9163 196.036 1.70493 219.196C0.124699 223.507 -1.00047 225.599 1.34488 230.34C16.7722 272.901 53.5326 371.289 62.604 396.412C63.6741 398.795 63.8942 400.923 66.6146 401.964C84.9323 407.602 111.036 413.76 131.269 419.367C139.44 421.56 140.941 421.94 146.136 428.459C158.843 444.169 172.21 461.402 185.132 477.147C187.768 480.136 189.158 480.747 192.358 480.692C224.613 478.88 286.497 474.284 309.261 473.167C312.441 472.902 313.891 475.515 314.846 478.98C316.497 484.487 317.712 488.908 319.547 495.391C322.418 505.459 325.448 516.308 328.313 526.391C330.064 531.909 330.914 539.338 336.115 542.052C341.32 544.795 347.141 546.167 352.817 548.11C357.933 549.757 364.874 552.36 369.48 551.91C378.036 550.523 382.061 539.303 388.152 534.422C395.508 527.518 408.54 534.878 417.242 536.48C423.293 538.612 429.078 538.662 432.624 543.554C438.95 558.643 444.796 577.829 452.167 598.44C454.682 605.675 456.883 612.073 458.418 616.444C459.623 620.189 461.403 624.164 465.844 624.484C472.82 625.356 480.191 624.84 487.332 624.955C494.833 624.95 500.924 624.464 500.779 615.743C501.154 602.921 497.168 592.688 508.1 583.01C519.007 571.641 532.389 555.62 543.84 545.056C549.156 542.172 555.047 543.934 562.403 543.429C589.077 543.253 636.869 543.253 655.872 543.068C657.942 543.043 659.828 542.778 661.168 541.231C664.803 536.224 663.988 527.208 667.724 522.146C670.444 518.286 676.46 519.152 680.811 519.292C693.898 520.028 708.085 520.994 721.127 521.77H721.212L721.207 521.775Z" fill="#A6A6A6"/>
<path d="M96.9346 443.293C118.261 443.293 135.55 425.984 135.55 404.633C135.55 383.281 118.261 365.972 96.9346 365.972C75.6077 365.972 58.3188 383.281 58.3188 404.633C58.3188 425.984 75.6077 443.293 96.9346 443.293Z" fill="#882F8E"/>
<path d="M925.897 288.606C947.224 288.606 964.513 271.297 964.513 249.946C964.513 228.594 947.224 211.286 925.897 211.286C904.571 211.286 887.282 228.594 887.282 249.946C887.282 271.297 904.571 288.606 925.897 288.606Z" fill="black"/>
<path d="M879.016 612.749C891.877 612.749 902.304 602.31 902.304 589.434C902.304 576.557 891.877 566.118 879.016 566.118C866.154 566.118 855.727 576.557 855.727 589.434C855.727 602.31 866.154 612.749 879.016 612.749Z" fill="#882F8E"/>
<path d="M38.5206 336.664C52.211 336.664 63.3093 325.553 63.3093 311.847C63.3093 298.14 52.211 287.029 38.5206 287.029C24.8302 287.029 13.7319 298.14 13.7319 311.847C13.7319 325.553 24.8302 336.664 38.5206 336.664Z" fill="#882F8E"/>
<path d="M741.94 235.642C759.102 235.642 773.014 221.714 773.014 204.532C773.014 187.35 759.102 173.421 741.94 173.421C724.778 173.421 710.865 187.35 710.865 204.532C710.865 221.714 724.778 235.642 741.94 235.642Z" fill="#882F8E"/>
<path d="M671.415 432.409C687.254 432.409 700.094 419.554 700.094 403.696C700.094 387.839 687.254 374.984 671.415 374.984C655.575 374.984 642.735 387.839 642.735 403.696C642.735 419.554 655.575 432.409 671.415 432.409Z" fill="#882F8E"/>
<path d="M962.478 200.602C978.317 200.602 991.157 187.747 991.157 171.889C991.157 156.032 978.317 143.177 962.478 143.177C946.639 143.177 933.798 156.032 933.798 171.889C933.798 187.747 946.639 200.602 962.478 200.602Z" fill="#882F8E"/>
</g>
<defs>
<clipPath id="clip0_158_87">
<rect width="1011" height="625" fill="white"/>
</clipPath>
</defs>
</svg>
