<svg width="284" height="177" viewBox="0 0 284 177" fill="none" xmlns="http://www.w3.org/2000/svg">
<g clip-path="url(#clip0_574_84)">
<path d="M277.739 30.8482C275.628 31.1976 274.006 31.3968 272.337 32.9072C268.821 36.0925 266.458 43.1938 268.795 47.6006C269.486 48.8973 270.724 49.8561 270.701 51.4502C270.678 53.2378 269.425 54.5835 268.023 55.5163C265.082 57.4771 261.38 57.7486 258.306 59.386C258.116 59.4871 257.925 59.5939 257.74 59.7066C257.676 59.7441 257.615 59.7845 257.557 59.8279C256.884 60.313 256.502 61.0494 256.334 61.936C256.279 62.2075 256.248 62.4962 256.236 62.7937C256.184 63.79 256.334 64.9105 256.595 66.0454C257.271 69.7303 255.672 73.2189 254.755 74.6195C254.533 74.9603 254.348 75.1768 254.249 75.2433C254.209 75.2721 254.16 75.2952 254.108 75.3184C253.515 75.5783 252.283 75.5378 251.731 75.5118C250.883 75.4512 251.459 76.2049 251.788 76.8634C252.731 78.5123 256.392 79.2314 257.407 79.6213H257.41C257.575 79.6848 257.67 79.7397 257.67 79.7888C257.67 79.8927 257.659 80.1469 257.546 80.4645C257.277 81.2154 256.438 82.3128 253.833 82.538C250.126 82.8557 247.76 78.8993 247.76 78.1976C247.76 77.4958 247.121 74.1777 246.93 73.8571C246.739 73.5394 246.546 73.2824 245.843 73.7936C245.348 74.1517 244.889 77.9059 244.654 80.2248C244.608 80.7013 244.57 81.1172 244.544 81.4291C244.516 81.7612 244.501 81.9778 244.501 82.0269C244.501 82.3445 245.843 83.2398 247.185 84.4527C248.784 86.2374 247.746 88.4379 247.3 89.7259C246.838 91.4528 250.276 90.2226 251.039 90.2255C252.5 90.2342 253.697 91.089 254.053 92.4347C254.105 92.6311 254.139 92.8361 254.154 93.0498C254.16 93.1336 254.151 93.2173 254.128 93.2982C253.752 94.5775 249.839 95.285 249.137 95.3312C248.393 95.3803 247.746 95.828 247.994 96.6712C248.243 97.5145 250.924 97.0668 252.416 97.2661C253.905 97.4625 254.452 98.2076 254.154 99.845C253.856 101.482 248.74 100.937 247.647 101.133C246.554 101.332 246.852 102.077 247.251 102.424C248.087 103.154 249.605 102.369 250.545 102.303C252.124 102.196 251.979 103.102 251.82 104.307C251.519 106.539 247.037 107.81 247.037 107.81C247.04 107.934 247.034 108.061 247.023 108.182C246.76 110.877 244.643 113.184 242.957 115.185C242.908 115.246 242.859 115.304 242.809 115.361C242.673 115.526 242.535 115.688 242.396 115.85C240.664 117.9 238.798 119.901 236.925 121.755C234.605 124.054 231.722 126.125 229.695 128.634C229.501 128.871 229.316 129.113 229.143 129.359C227.758 131.297 226.922 133.512 227.223 136.284C227.252 136.564 227.298 136.841 227.359 137.113C227.419 137.399 227.494 137.682 227.584 137.962C228.229 139.995 229.524 141.846 230.571 143.665C231.881 145.938 233.316 148.127 234.773 150.31C237.833 154.899 240.976 159.56 242.587 164.891C243.339 167.378 243.555 170.491 240.774 171.756C238.934 172.593 236.745 171.493 235.45 170.167C234.091 168.772 233.246 166.988 231.945 165.555C230.62 164.097 228.966 162.841 227.581 161.512C226.422 160.401 226.433 159.297 226.514 157.799C226.531 157.507 226.488 155.511 226.557 155.445C224.828 157.539 223.515 157.12 222.729 156.438C221.425 155.63 222.205 152.566 222.457 151.414C222.862 149.568 223.229 147.879 221.656 146.449C220.571 145.459 219.224 144.751 217.914 144.11C216.494 143.414 214.797 142.871 213.333 143.697C212.13 144.379 211.355 145.618 210.132 146.276C208.331 147.246 206.379 147.053 204.586 146.152C202 144.849 199.577 142.389 196.541 142.256C195.974 142.233 195.396 142.256 194.826 142.328C194.479 142.372 194.135 142.432 193.796 142.513C192.481 142.816 191.228 143.394 190.208 144.257C190.051 144.39 189.921 144.54 189.788 144.685C189.548 144.956 189.311 145.216 188.941 145.332C188.912 145.343 188.883 145.349 188.854 145.358C188.021 145.56 187.232 144.901 186.503 144.592C185.749 144.272 184.849 143.885 184.022 143.816C182.906 143.723 182.001 143.784 181.266 143.951C180.945 144.023 180.659 144.116 180.399 144.226C178.967 144.826 178.412 145.932 178.166 146.917C177.967 147.717 178.484 148.237 179.167 148.563C180.063 148.994 180.864 149.147 181.755 148.624C182.591 148.133 184.034 147.772 184.979 148.078C185.537 148.257 185.821 148.682 185.711 149.274C185.566 150.048 184.777 150.417 184.297 150.96C183.317 152.069 184.505 152.814 185.312 153.501C186.671 154.665 185.879 155.809 184.256 156.242C183.892 156.337 183.516 156.404 183.14 156.372C181.032 156.193 180.023 153.328 178.383 152.329C176.648 151.581 175.381 152.751 174.352 153.08C172.585 153.487 171.116 152.367 169.696 151.518C168.32 150.694 166.721 150.261 165.162 150.105C163.603 149.952 161.961 149.837 160.399 149.97C159.349 150.059 158.473 150.342 157.629 150.778C157.345 150.925 157.062 151.09 156.781 151.269C156.619 151.373 156.458 151.48 156.296 151.593C155.278 152.3 153.864 153.247 152.609 152.531C152.166 152.277 151.915 151.792 151.767 151.307C151.513 150.469 150.417 146.438 148.864 148.217C148.242 148.927 148.398 150.4 148.777 151.188C149.13 151.922 149.679 152.676 149.644 153.522C149.616 154.206 149.289 154.919 148.956 155.506C148.306 156.649 147.186 157.929 145.81 158.134C143.959 158.411 141.088 157.764 139.607 157.949C134.327 158.226 134.604 163.961 134.604 165.163C134.604 166.364 136.088 169.139 135.995 171.73C135.995 175.152 132.013 176.908 129.327 177C122.658 176.63 119.602 166.179 118.861 163.592C117.473 156.285 113.118 152.401 111.915 151.105C108.303 148.422 106.175 151.289 104.507 152.863C101.913 155.358 98.8588 155.728 95.5246 155.174C90.7069 154.527 89.9666 144.445 89.2263 142.227C88.3154 139.741 86.0511 137.812 84.183 136.593C83.7781 136.333 83.3935 136.102 83.0436 135.909C82.5434 135.628 82.1183 135.421 81.8175 135.291C80.6984 134.803 74.5851 135.051 69.2209 134.924C68.9288 134.918 68.6367 134.909 68.3504 134.901C66.919 134.855 65.5656 134.777 64.406 134.644C53.663 133.896 43.1918 126.849 38.0126 122.957C37.7032 122.723 37.4112 122.503 37.1422 122.295C35.7744 121.241 34.9184 120.531 34.7102 120.418C33.7704 119.916 30.3812 120.346 28.7213 119.699C25.095 118.359 22.0933 113.025 20.5491 109.724C18.2819 104.884 14.1843 102.923 10.584 99.175C7.23241 95.6865 5.10984 91.4644 4.49099 86.6503C4.24808 84.7588 4.15265 82.7662 4.38978 80.8659C4.68185 78.5008 5.91086 75.5061 4.48232 73.2824C3.94155 72.442 3.16077 73.7618 2.68073 74.4809C2.01851 75.3184 0.997709 75.3184 0.399108 74.6599C-0.800985 73.5799 1.05844 71.2349 1.36786 70.3079C1.67728 68.9968 1.36786 68.2258 1.21459 67.6078C0.196683 63.9373 0.225601 59.978 0.90228 56.2469C1.46907 53.128 2.78484 50.2113 3.5714 47.1501C3.64081 46.87 3.70732 46.5899 3.77094 46.3069C3.84323 45.9661 3.90974 45.6253 3.96758 45.2788C4.54883 41.7643 4.75126 38.166 7.11385 35.2868C9.034 32.9505 11.1855 30.8308 11.4689 27.6513C11.7002 25.0464 11.4024 23.0654 12.4145 20.524C12.5215 20.2555 12.6372 19.9869 12.7557 19.7212C12.8743 19.4469 13.0015 19.1696 13.1288 18.8953C13.8922 17.2377 14.699 15.5858 14.8899 13.7491C15.8933 8.96393 12.8801 2.55865 12.6921 1.68651C12.5041 0.81149 12.6921 0.187711 13.8806 0C15.3208 0.0606451 17.0703 3.37302 17.4462 4.80829C17.906 6.567 19.9332 5.63133 20.8152 6.58721C21.515 7.34672 20.9742 8.89751 20.6474 9.71477C20.2831 10.6244 20.5578 13.7145 21.7405 13.1687C23.8342 12.1695 23.0129 2.08215 23.0129 2.08215C31.0637 5.16639 39.4238 7.42181 47.8563 9.23827C48.1397 9.30181 48.4231 9.35956 48.7036 9.42021C49.9962 9.69456 51.2918 9.96024 52.5873 10.2144C52.9227 10.2808 53.2582 10.3472 53.5936 10.4107C54.198 10.5291 54.7995 10.6447 55.4039 10.7573C68.6714 13.2524 82.0951 14.8898 95.542 16.0652C99.1856 16.3828 102.832 16.6659 106.482 16.9142C106.771 16.9344 107.06 16.9546 107.349 16.972C114.703 17.4687 122.065 17.8239 129.431 18.0549C132.019 18.1387 134.607 18.2051 137.195 18.2484C137.493 18.2571 137.788 18.26 138.083 18.2657C139.003 18.2802 139.925 18.2946 140.845 18.3033C142.857 18.3264 147.239 17.6333 148.67 19.1725C149.882 20.4721 151.278 23.0423 152.912 23.7671C154.665 24.5468 157.452 22.8401 159.196 22.7246C161.027 22.6062 160.995 24.6826 162.542 24.9858C163.453 25.1677 170.679 24.3562 170.769 25.6644C170.859 26.9726 166.428 28.2808 164.303 29.41C162.88 30.2908 162.218 31.9744 162.935 33.1931C163.097 33.4761 163.334 33.7331 163.655 33.9468C163.788 34.0392 163.939 34.123 164.101 34.1981C166.246 35.1915 168.901 34.9056 171.064 34.328C173.418 33.7014 174.713 32.1217 176.237 30.3312C176.804 29.667 179.337 26.7156 179.893 28.8324C180.052 29.4389 179.774 30.0944 179.942 30.6951C180.789 33.7418 185.425 33.9699 186.388 33.7418C189.459 33.0198 192.741 31.007 195.841 32.7541C196.72 33.248 198.475 35.0125 197.307 36.0723C196.468 36.8318 195.297 36.6325 194.276 36.6239C192.825 36.6152 191.361 36.7019 189.942 37.0282C188.539 37.3516 187.232 37.9407 185.827 38.2526C184.864 38.4634 183.178 38.6194 182.822 39.7543C181.952 42.5498 183.603 56.5241 185.185 61.523C185.289 61.858 185.396 62.1497 185.5 62.3981C185.561 62.5482 185.624 62.6782 185.685 62.7937C186.382 64.0875 187.382 64.7517 188.444 64.9798C188.73 65.0433 189.025 65.0722 189.317 65.0722C190.023 65.0722 190.725 64.9076 191.359 64.6333C191.778 64.4513 192.165 64.2174 192.504 63.9517C192.564 63.9055 192.622 63.8593 192.677 63.8102C194.777 61.9995 192.66 56.5184 192.056 54.4016C191.223 51.479 188.791 46.2809 191.876 43.8869C192.136 43.6847 195.3 42.8934 195.3 43.3324C195.575 39.8352 198.86 37.9003 202.133 39.4482C205.028 40.8199 205.407 44.5799 204.383 47.2714C203.851 48.6778 203.897 50.7629 204.675 51.1989C206.338 51.6523 206.925 48.9608 208.782 49.5384C210.609 50.1044 211.922 52.4003 211.974 54.2572C212.026 56.2036 210.47 57.9594 209.259 59.2503C209.548 58.9413 214.99 60.1686 215.812 60.2293C218.958 60.4661 222.648 60.6451 225.542 59.1203C225.777 58.9962 226.005 58.8633 226.228 58.716C226.604 58.4706 226.902 58.2193 227.133 57.9652C228.978 55.9668 226.861 53.72 226.803 51.2134C226.719 47.6671 231.841 49.0937 233.914 49.1832C236.083 49.2785 238.926 49.3478 240.325 47.3465C241.476 45.6975 241.297 43.3179 241.274 41.4148C241.242 38.914 242.167 36.8434 244.293 35.4543C246.439 34.0537 249.087 33.4934 251.78 33.3144C252.078 33.2913 252.378 33.2768 252.679 33.2653C254.66 33.1902 256.635 33.2913 258.416 33.3866C263.463 33.6552 264.573 26.8051 265.01 23.1058C265.519 18.8144 264.755 11.8258 270.834 11.5688C273.908 11.4417 276.93 13.4632 277.664 16.4955C278.222 18.8029 277.673 21.5059 279.177 23.5245C280.151 24.8327 281.392 25.5605 282.054 27.2152C282.693 29.6612 279.538 30.5536 277.739 30.8482Z" fill="#E8C8A0"/>
<path d="M104.903 44.1785L105.284 39.9247L138.577 40.4619C138.216 41.2618 137.811 42.1686 137.895 43.0754C137.967 43.8782 138.499 44.2883 138.968 44.6493C139.084 44.7388 139.202 44.8283 139.312 44.9236C139.902 45.4463 140.417 46.073 140.795 46.7372C141.646 48.2215 141.967 50.1304 141.698 52.1202C141.585 53.1858 141.322 54.3207 140.897 55.5914C140.842 55.7589 140.784 55.9206 140.726 56.0823C140.405 56.9602 140.075 57.867 140.495 58.9528C141.047 60.3852 141.657 61.9822 141.469 63.5012C140.512 62.4125 139.271 61.37 138.65 61.0234C137.834 60.5729 136.174 60.9801 134.087 61.5606C133.419 61.7454 132.73 61.9389 132.502 61.9389C132.106 61.9302 130.197 60.8819 129.058 60.2553C127.927 59.6344 126.952 59.1001 126.461 58.9355C125.397 58.5803 108.341 59.0193 103.778 59.1434L104.903 44.1785ZM45.9736 97.0957C45.7943 97.321 45.028 97.2373 44.5162 97.1795C44.0564 97.1304 43.6226 97.0813 43.2814 97.1564C42.3242 97.3614 41.4827 97.9101 40.8523 98.7332C40.511 99.1779 40.2537 99.6631 40.0686 100.168C39.8083 100.024 39.5654 99.8306 39.3138 99.6255L39.2676 99.588C35.1352 96.2294 32.0323 90.7367 29.2938 85.8879C28.8051 85.0216 28.325 84.1726 27.8537 83.3582C27.6252 82.9654 27.3939 82.5698 27.1625 82.1741C25.4824 79.295 23.7473 76.3176 22.4663 73.2766C21.0117 69.8199 20.682 65.8693 21.4252 60.8415C21.8474 58.0027 22.4287 55.1062 23.1516 52.2241C32.5094 54.5864 43.5156 57.2692 52.3616 59.1492C50.6294 69.7304 46.3178 95.8511 45.9736 97.0957ZM73.3358 95.1435L47.7868 91.9236C49.3773 82.6997 52.3327 64.6997 53.2118 59.3283C59.0474 60.5556 63.8536 61.4018 66.488 61.5346L66.2971 70.0278L76.9447 70.539L73.3358 95.1435ZM111.23 99.149L74.1975 95.2417L77.9424 69.7188L67.1849 69.2019L67.3642 61.1563C67.4654 60.4863 69.6632 46.1336 69.9003 44.5857C71.7106 42.6104 73.8765 40.6236 74.4173 40.6438C75.4352 40.7911 100.498 44.0544 104.006 44.5135L102.841 60.0358L103.321 60.0214C112.016 59.7817 125.284 59.5131 126.186 59.7586C126.603 59.8972 127.638 60.4632 128.638 61.0148C130.666 62.1266 131.935 62.8053 132.502 62.8053C132.831 62.8053 133.378 62.6551 134.321 62.3952C135.57 62.0486 137.661 61.4682 138.228 61.783C139.324 62.3894 141.692 64.7343 141.889 65.722C141.938 65.9732 142.036 66.7212 142.158 67.6713C143.011 74.3163 143.687 78.29 144.61 78.9369C144.772 79.0495 144.968 79.1852 145.185 79.3325C145.654 79.653 146.654 80.3346 147.464 80.9728L111.852 79.2141L111.23 99.149ZM150.226 99.3194L150.116 99.4234L112.097 99.1432L112.693 80.1238L148.479 81.8911C148.586 82.0182 148.652 82.128 148.664 82.2088C148.664 82.437 148.563 82.8961 148.456 83.3842C148.178 84.6635 147.863 86.1103 148.366 86.916C148.485 87.1066 148.676 87.2943 148.936 87.5542C150.145 88.7527 152.95 91.5366 151.987 99.4349L150.312 99.4234C150.283 99.3858 150.255 99.3512 150.226 99.3194ZM150.787 100.293L152.747 100.307L152.799 99.9287C153.956 91.3142 150.868 88.2473 149.549 86.9391C149.344 86.737 149.167 86.5608 149.101 86.4569C148.785 85.9515 149.098 84.5162 149.306 83.569C149.43 82.9885 149.532 82.5294 149.532 82.2088C149.532 81.3973 148.233 80.3606 145.674 78.6163C145.46 78.4719 145.266 78.3391 145.107 78.2264C144.312 77.62 143.337 70.0509 143.016 67.5616C142.889 66.5566 142.797 65.8317 142.739 65.5516C142.672 65.2108 142.461 64.8094 142.172 64.3878C142.75 62.4067 141.984 60.4083 141.302 58.6352C141.125 58.1789 141.137 57.763 141.238 57.3299L166.599 57.4136C167.261 58.6698 167.967 59.9405 168.852 61.113C169.294 61.6963 169.823 62.2566 170.381 62.8457C171.61 64.1452 172.88 65.491 173.137 67.0793C173.51 69.3809 171.275 70.9288 170.298 71.4862L170.251 71.5179C168.36 72.9474 165.876 75.1942 166.107 78.1485C166.339 81.071 168.178 84.3834 169.791 86.2201C170.526 87.0575 171.506 87.3232 172.371 87.5542C173.12 87.7564 173.828 87.947 174.308 88.4726C174.598 88.7902 174.708 89.4256 174.803 89.9829C174.846 90.24 174.887 90.4796 174.945 90.702C175.196 91.6839 175.511 92.9083 176.11 93.9971C176.657 94.9963 177.437 95.8106 178.192 96.5961C178.857 97.2921 179.485 97.9477 179.971 98.7216C181.124 100.561 180.587 101.413 179.606 102.961C179.401 103.284 179.19 103.617 178.976 103.995C178.264 105.225 177.9 106.533 177.663 107.847L174.355 104.307L151.643 104.18C151.426 102.557 151.145 101.205 150.787 100.293ZM177.339 110.106C177.134 111.778 176.92 113.505 176.237 115.107C175.676 116.43 174.812 117.556 173.898 118.746C173.111 119.768 172.299 120.825 171.703 122.018C170.465 124.487 171.078 126.382 171.723 128.386C171.726 128.394 171.729 128.406 171.732 128.415L156.414 128.562C156.426 128.394 156.44 128.227 156.452 128.068L156.489 127.609L152.238 127.514C152.325 124.539 152.603 112.488 151.75 105.046L173.976 105.17L177.446 108.884L177.507 108.829C177.446 109.257 177.394 109.684 177.339 110.106ZM215.493 103.807C215.1 104.119 209.742 108.387 208.194 111.163C205.002 111.697 201.809 112.358 201.11 112.505L188.368 113.201C188.201 113.207 179.907 113.519 177.643 113.585C177.92 112.462 178.062 111.324 178.201 110.212C178.455 108.156 178.695 106.216 179.728 104.425C179.933 104.064 180.141 103.738 180.341 103.423C180.601 103.013 180.844 102.626 181.041 102.236C183.918 102.106 208.009 101.009 210.219 100.489C211.396 100.212 215.73 99.2154 220.727 98.1036C218.423 100.896 215.71 103.593 215.493 103.807ZM257.41 79.6213H257.407C255.131 79.8408 251.323 79.1621 250.461 77.8135C249.955 77.0222 249.724 76.0952 249.478 75.1133C249.252 74.2181 249.021 73.2969 248.564 72.4623C248.879 72.3179 249.313 72.0926 249.764 71.7865C250.386 73.7993 252.957 74.9112 254.107 75.3184C254.16 75.2953 254.209 75.2722 254.249 75.2433C254.347 75.1769 254.533 74.9603 254.755 74.6195C254.041 74.3943 250.822 73.2766 250.516 71.1974C251.221 70.5592 251.82 69.7072 251.881 68.633C251.942 67.5385 251.794 66.1783 251.638 64.7372C251.476 63.2355 251.311 61.6905 251.404 60.5094C253.084 61.6501 254.801 62.606 256.236 62.7937C256.247 62.4963 256.279 62.2075 256.334 61.936C254.35 61.6646 251.473 59.5333 250.201 58.589C248.5 57.327 245.929 55.4239 243.156 55.5769C241.557 55.6665 239.943 55.9697 238.382 56.2642C237.922 56.3509 237.465 56.4375 237.008 56.5184C234.524 56.9573 230.586 57.4078 227.133 57.9652C226.901 58.2193 226.604 58.4706 226.228 58.716C226.005 58.8633 225.777 58.9962 225.542 59.1203C229.325 58.4186 234.247 57.8872 237.162 57.3703C237.618 57.2894 238.078 57.2028 238.541 57.1162C240.076 56.8274 241.664 56.527 243.205 56.4433C245.663 56.3076 248.081 58.098 249.683 59.2849C249.984 59.5073 250.287 59.7297 250.597 59.9492C250.397 61.2805 250.588 63.0825 250.776 64.8296C250.929 66.2332 251.071 67.5616 251.013 68.5868C250.918 70.305 248.844 71.388 248.072 71.7316C247.054 70.5649 245.574 70.8104 244.368 71.0097C244.116 71.053 243.868 71.0934 243.622 71.1223C241.193 71.4198 238.758 71.9251 236.271 72.4623C234.938 72.7482 233.593 73.0601 232.289 73.3604C230.982 73.6636 229.628 73.9755 228.295 74.2614C223.602 75.2722 220.534 78.5874 217.827 81.5128C217.269 82.1135 216.835 82.8384 216.413 83.5372C215.768 84.6086 215.161 85.6223 214.163 86.197C212.995 86.8698 211.352 87.4936 210.251 87.2164C209.62 87.0575 208.99 86.3413 208.435 85.7118C208.163 85.3999 207.905 85.1082 207.645 84.8743C206.717 84.0282 205.213 82.668 203.354 82.9914L201.355 65.3726L200.988 65.3552C200.624 65.335 196.243 64.5957 192.504 63.9517C192.165 64.2174 191.778 64.4513 191.358 64.6333C193.669 65.0318 199.056 65.9559 200.575 66.1754L202.509 83.2427C200.867 83.9242 199.502 85.4403 198.744 86.685C198.539 87.0258 198.331 87.3781 198.119 87.7391C196.277 90.8666 194.19 94.4129 190.393 94.6671C190.063 94.6786 188.201 94.514 187.564 94.3407C187.695 93.2173 187.721 92.0391 187.744 90.8984C187.781 89.157 187.819 87.3579 188.235 85.7724C188.368 85.2671 188.652 84.7819 188.95 84.2707C189.314 83.6441 189.693 82.9972 189.817 82.2579C189.944 81.5071 189.456 68.6907 189.317 65.0722C189.025 65.0722 188.73 65.0433 188.444 64.9798C188.71 71.7663 189.048 81.4897 188.961 82.1164C188.863 82.6969 188.542 83.2484 188.201 83.8347C187.885 84.3747 187.559 84.9321 187.397 85.553C186.951 87.2366 186.914 89.0906 186.876 90.8811C186.85 92.0911 186.824 93.3444 186.671 94.4967C186.651 94.644 186.7 94.7941 186.807 94.9068C187.281 95.415 190.367 95.5334 190.445 95.5334H190.448C194.704 95.2475 197.012 91.3287 198.866 88.178C199.077 87.8199 199.285 87.4705 199.487 87.1355C200.181 85.9919 201.546 84.47 203.117 83.9386C204.603 83.4362 205.881 84.4411 207.061 85.5154C207.284 85.7176 207.526 85.9919 207.781 86.2836C208.42 87.0084 209.146 87.8344 210.039 88.0567C211.694 88.4726 213.779 87.4185 214.597 86.9478C215.788 86.2605 216.485 85.1024 217.159 83.982C217.575 83.2889 217.969 82.6362 218.463 82.0991C221.737 78.5643 224.368 75.9941 228.478 75.1104C228.908 75.018 229.339 74.9198 229.773 74.8245C229.874 75.7198 230.276 76.8258 230.938 77.4525C232.04 78.4892 233.582 77.3428 234.709 76.5082C235.129 76.1963 235.528 75.8988 235.785 75.7978C236.615 75.4714 237.454 75.5436 238.512 76.0548C237.604 76.8865 235.146 78.7896 233.576 80.0025C232.639 80.7273 231.829 81.354 231.384 81.7179C229.75 83.0521 225.094 91.0861 223.466 94.2223C223.032 95.054 222.361 96.0244 221.589 97.0236C215.47 98.3837 210.135 99.6197 210.022 99.6457C207.989 100.122 185.462 101.168 181.388 101.352C181.613 100.486 181.503 99.5302 180.705 98.2596C180.173 97.4105 179.485 96.6943 178.82 95.9984C178.071 95.2158 177.365 94.4793 176.871 93.5812C176.365 92.66 176.09 91.6752 175.783 90.4854C175.737 90.3006 175.697 90.0753 175.656 89.8385C175.543 89.1628 175.41 88.3946 174.95 87.8892C174.3 87.1759 173.432 86.942 172.597 86.7197C171.778 86.4973 171.003 86.2894 170.442 85.6511C168.875 83.8607 167.177 80.6869 166.972 78.0792C166.775 75.5609 169.028 73.5337 170.754 72.2226C171.9 71.5641 174.45 69.7592 173.993 66.9407C173.695 65.0896 172.33 63.6456 171.012 62.2508C170.963 62.1988 170.913 62.1468 170.864 62.0948L185.5 62.3981C185.396 62.1497 185.289 61.858 185.184 61.523L170.058 61.2112C169.875 61.0032 169.702 60.7982 169.546 60.5903C168.525 59.2416 167.735 57.7255 166.972 56.2585C166.009 54.4102 165.014 52.4985 163.531 50.8437C163.12 50.3846 162.689 49.9283 162.276 49.4864C160.951 48.0772 159.583 46.6217 158.638 44.9236C158.033 43.8349 158.45 42.4949 159.881 40.9384C160.162 40.6294 160.555 40.3348 160.969 40.0229C161.683 39.4886 162.423 38.9342 162.773 38.1804C163.14 37.395 163.323 36.1849 163.372 35.5929C163.415 35.0644 163.531 34.5215 163.655 33.9468C163.334 33.7331 163.097 33.4761 162.935 33.1931C162.903 33.3317 162.874 33.4703 162.843 33.6061C162.704 34.2385 162.559 34.8883 162.507 35.5207C162.446 36.2369 162.25 37.2534 161.987 37.8137C161.726 38.371 161.079 38.8591 160.448 39.3327C160.02 39.6533 159.578 39.9854 159.239 40.3521C157.111 42.6711 157.325 44.346 157.88 45.3452C158.878 47.1386 160.283 48.6316 161.642 50.0784C162.053 50.5174 162.481 50.9708 162.886 51.4213C164.265 52.9634 165.222 54.7799 166.145 56.5444L141.51 56.4635C141.518 56.4346 141.53 56.4058 141.542 56.3769C141.602 56.2094 141.663 56.039 141.721 55.8657C142.166 54.5373 142.441 53.3417 142.559 52.2241C142.852 50.0582 142.493 47.9559 141.55 46.3069C141.122 45.5618 140.547 44.8601 139.885 44.2738C139.76 44.1641 139.63 44.063 139.5 43.9619C139.049 43.6183 138.794 43.4017 138.757 42.9945C138.696 42.313 139.055 41.513 139.37 40.8084C139.457 40.6178 139.54 40.433 139.613 40.2539C139.882 39.8756 141.651 37.2246 140.998 33.6205C140.44 30.5565 138.641 21.1825 138.083 18.2657C137.788 18.26 137.493 18.2571 137.195 18.2484C137.713 20.937 139.572 30.6489 140.142 33.7765C140.674 36.6903 139.407 38.9688 139.005 39.6013L105.362 39.0584L107.349 16.972C107.06 16.9547 106.771 16.9344 106.481 16.9142L104.078 43.6472C100.412 43.1707 75.548 39.9305 74.5387 39.7861C73.3763 39.6186 70.4179 42.7173 69.0848 44.1901C68.1305 44.5597 62.3383 43.6183 61.7079 43.1274C60.9444 42.4776 61.1671 41.669 61.6269 40.4128C61.7108 40.1788 61.7946 39.9507 61.864 39.7255C61.9132 39.5666 61.9884 39.3616 62.0751 39.1219C62.6246 37.5884 63.4574 35.2695 62.4048 34.2789C61.6327 33.5541 60.3256 33.7938 59.059 34.0219C58.2464 34.1721 57.4078 34.3223 56.9248 34.1634L56.7803 34.1143C56.0515 33.8775 55.6293 33.7158 55.4385 33.1527C55.0943 32.1448 55.5946 31.3131 56.173 30.3486C56.5055 29.7999 56.8468 29.2338 57.0318 28.6014C57.6362 26.5539 56.1788 24.5786 55.0047 22.9903C54.7097 22.5918 54.435 22.2192 54.2066 21.8669L53.9781 21.5175C53.1626 20.2786 51.8006 18.2022 51.5374 16.8796C51.2598 15.4934 51.6068 12.2965 53.5935 10.4108C53.2581 10.3472 52.9226 10.2808 52.5872 10.2144C50.722 12.3658 50.3952 15.5916 50.6872 17.05C50.9851 18.5372 52.35 20.6165 53.2523 21.994L53.4778 22.3405C53.7207 22.7131 54.0041 23.0971 54.3078 23.5043C55.4211 25.0118 56.6848 26.7214 56.199 28.3559C56.0457 28.8815 55.7479 29.3782 55.4298 29.9038C54.8283 30.9059 54.1429 32.0437 54.6172 33.4328C54.9584 34.432 55.7826 34.7006 56.5113 34.9374L56.653 34.9865C57.347 35.2146 58.2551 35.05 59.2151 34.8767C60.2186 34.6919 61.358 34.484 61.8091 34.9085C62.4511 35.5121 61.6153 37.8368 61.2567 38.8302C61.1671 39.0815 61.089 39.3009 61.037 39.4655C60.9705 39.6792 60.8895 39.8958 60.8114 40.1153C60.3892 41.2676 59.8687 42.7028 61.1469 43.7858C61.864 44.3951 67.0172 45.299 68.946 45.0853C68.4949 48.0338 66.8871 58.5341 66.5603 60.6711C62.0404 60.4516 50.6121 57.9825 38.7066 55.1466C39.4122 52.9114 42.249 43.754 41.8066 41.9867C41.3612 40.2106 41.8499 37.9725 42.4023 36.595C42.9633 35.1944 44.8487 33.7302 44.8661 33.7158L45.0049 33.6118L48.7035 9.42022C48.423 9.35957 48.1396 9.30181 47.8562 9.23828L44.4178 31.703C41.8123 30.4987 38.8887 29.1876 35.7396 28.4917C33.3799 27.9892 30.624 27.6138 28.192 27.2817L28.1486 27.2759C27.819 27.2297 27.4835 27.1864 27.1481 27.143C25.6154 26.9409 24.0278 26.7301 22.5906 26.268C20.0111 25.3612 17.4721 22.9585 15.231 20.8359C14.5052 20.1486 13.8082 19.4873 13.1287 18.8953C13.0014 19.1696 12.8742 19.4469 12.7556 19.7212C13.36 20.2584 13.9846 20.8504 14.6353 21.4655C16.9372 23.6458 19.5484 26.1178 22.313 27.0882C23.837 27.5791 25.4622 27.7928 27.0353 28.0007C27.3678 28.044 27.7004 28.0874 28.0301 28.1336L28.0734 28.1393C30.491 28.4686 33.2295 28.8411 35.5574 29.3378C38.7037 30.0338 41.6562 31.3795 44.2819 32.5953L44.1981 33.1411C43.7209 33.531 42.1536 34.8767 41.5955 36.2716C40.9679 37.8426 40.4706 40.2222 40.965 42.1975C41.2716 43.4161 39.2647 50.5203 37.8593 54.9445C22.2465 51.2076 6.07558 46.9191 3.77082 46.3069C3.7072 46.5899 3.64069 46.87 3.57129 47.1502C5.30058 47.6122 12.8915 49.6279 22.313 52.0133C21.5814 54.9214 20.9943 57.8468 20.5692 60.7144C19.8 65.9039 20.147 70.0018 21.6652 73.6116C22.9694 76.7045 24.719 79.7079 26.4136 82.6102C26.6449 83.0059 26.8733 83.4015 27.1018 83.7943C27.5732 84.6029 28.0503 85.449 28.539 86.3154C31.3151 91.2276 34.4585 96.7983 38.7181 100.258L38.7644 100.295C39.0854 100.558 39.4179 100.824 39.8228 101.017C39.5423 102.291 39.6377 103.608 39.9038 104.642C40.0715 105.286 40.3838 105.875 40.6845 106.447C40.9911 107.03 41.2831 107.582 41.3988 108.145C41.6735 109.473 40.7366 110.669 39.8286 111.824C39.5076 112.234 39.2039 112.621 38.9495 113.019C38.1398 114.276 37.7754 115.743 37.5498 116.878C37.2491 118.368 37.1479 120.646 37.1421 122.295C37.411 122.503 37.7031 122.723 38.0125 122.957C37.9836 121.068 38.1022 118.532 38.4 117.048C38.6111 115.985 38.9495 114.622 39.6782 113.487C39.9124 113.123 40.2045 112.754 40.5139 112.358C41.4942 111.111 42.6047 109.693 42.249 107.969C42.1073 107.287 41.7747 106.655 41.4509 106.042C41.1617 105.491 40.887 104.971 40.7453 104.425C40.3578 102.935 40.3636 100.798 41.5405 99.2588C42.0466 98.6003 42.7117 98.1643 43.4636 98.0025C43.6689 97.9592 44.0506 97.9996 44.4207 98.0401C45.2651 98.1354 46.3149 98.2509 46.7428 97.5029L46.766 97.4567C46.8354 97.2921 47.165 95.5045 47.6364 92.7784L73.2201 96.0012L68.3503 134.901C68.6366 134.909 68.9287 134.918 69.2207 134.924L74.0818 96.1023L111.62 100.062L111.626 100.007L149.853 100.287C151.651 103.628 151.576 120.49 151.371 127.508C150.677 127.508 149.971 127.528 149.28 127.551C147.328 127.615 145.307 127.681 143.465 127.291C142.372 127.063 141.276 126.659 140.217 126.272L140.026 126.2C136.889 125.05 134.162 123.514 131.273 121.888C130.113 121.235 128.913 120.56 127.687 119.913C126.097 119.075 124.515 118.264 122.979 117.498L123.994 104.116L123.41 104.263C122.485 104.494 111.854 104.235 104.937 104.006L104.503 103.992L103.431 134.26L83.0348 135.813L83.0435 135.909C83.3934 136.102 83.778 136.333 84.1829 136.593L104.272 135.065L105.339 104.887C108.153 104.977 120.079 105.349 123.043 105.167L122.071 118.015L122.331 118.145C123.942 118.945 125.608 119.797 127.282 120.678C128.497 121.319 129.691 121.992 130.848 122.642C133.768 124.285 136.524 125.839 139.726 127.014L139.916 127.083C141.007 127.485 142.131 127.898 143.285 128.14C145.231 128.55 147.305 128.484 149.309 128.418C150.13 128.392 150.977 128.363 151.787 128.371L155.552 128.455C155.399 130.491 155.321 133.029 155.801 135.403C156.009 136.437 156.411 137.445 156.802 138.415C157.438 140.007 158.036 141.511 157.863 143.128C157.791 143.804 157.588 144.451 157.377 145.135C157.172 145.791 156.961 146.464 156.868 147.18C156.692 148.517 156.718 149.88 156.781 151.269C157.062 151.09 157.345 150.926 157.629 150.778C157.579 149.562 157.577 148.428 157.727 147.295C157.811 146.651 158.002 146.042 158.204 145.395C158.421 144.699 158.644 143.98 158.727 143.221C158.921 141.387 158.253 139.715 157.605 138.095C157.215 137.116 156.845 136.192 156.651 135.233C156.261 133.295 156.261 131.225 156.359 129.428L172.004 129.278C172.183 129.873 172.348 130.491 172.452 131.149C172.724 132.902 172.082 134.473 171.399 136.134C171.182 136.662 170.96 137.208 170.769 137.76C170.26 139.227 169.867 140.76 169.488 142.242L169.196 143.382L180.399 142.839V144.226C180.659 144.116 180.945 144.024 181.266 143.951V141.93L170.326 142.461V142.455C170.702 140.991 171.093 139.475 171.587 138.043C171.772 137.514 171.989 136.98 172.203 136.463C172.897 134.765 173.617 133.009 173.308 131.017C173.143 129.957 172.842 129.024 172.55 128.12C171.934 126.208 171.399 124.559 172.478 122.405C173.039 121.287 173.826 120.262 174.586 119.272C175.494 118.091 176.431 116.872 177.035 115.445C177.174 115.119 177.29 114.79 177.397 114.46C178.993 114.42 186.101 114.154 187.969 114.082L188.941 145.332C189.311 145.216 189.548 144.956 189.788 144.685L188.837 114.042L201.032 113.378C206.624 117.758 207.087 135.961 207.125 139.207C204.927 138.9 202.515 138.828 199.58 138.981C196.659 139.14 194.58 140.417 193.796 142.513C194.135 142.432 194.479 142.372 194.826 142.328C195.861 140.359 198.212 139.923 199.626 139.848C202.723 139.683 205.222 139.775 207.495 140.134C208.666 140.318 209.849 140.596 210.994 140.864C212.396 141.193 213.845 141.534 215.314 141.716C216.821 141.904 218.564 142.071 220.213 141.722C221.523 141.445 222.668 140.625 223.775 139.83C225.022 138.938 226.205 138.092 227.584 137.962C227.494 137.682 227.419 137.399 227.358 137.113C225.808 137.306 224.522 138.23 223.269 139.126C222.188 139.903 221.164 140.633 220.033 140.876C218.515 141.196 216.858 141.035 215.421 140.856C213.998 140.682 212.573 140.347 211.19 140.021C210.149 139.778 209.076 139.53 207.995 139.342C207.978 136.466 207.654 118.619 202.116 113.181C205.742 112.445 213.021 111.087 214.715 111.344C219.874 117.38 227.844 127.023 229.143 129.359C229.316 129.113 229.501 128.871 229.695 128.634C227.292 124.753 216.61 112.228 215.276 110.666L215.187 110.562L215.054 110.527C214.218 110.319 211.876 110.582 209.334 110.981C210.919 108.719 214.582 105.661 215.713 104.743C216.508 105.43 218.842 106.447 224.976 108.575C225.629 108.8 226.144 108.979 226.271 109.034C227.743 109.664 229.368 109.612 230.944 109.563C232.486 109.516 233.943 109.47 235.189 110.036C237.864 111.249 240.27 113.675 242.396 115.85C242.535 115.688 242.673 115.526 242.809 115.361C242.858 115.304 242.908 115.246 242.957 115.185C240.791 112.973 238.347 110.516 235.548 109.245C234.117 108.598 232.491 108.65 230.918 108.699C229.368 108.745 227.908 108.792 226.612 108.237C226.465 108.174 226.069 108.035 225.259 107.755C220.091 105.964 217.107 104.76 216.355 104.171C217.223 103.305 219.958 100.515 222.087 97.8004C229.328 96.1976 237.459 94.462 239.365 94.3147C242.216 94.0953 251.005 93.4859 254.128 93.2982C254.151 93.2173 254.16 93.1336 254.154 93.0499C254.139 92.8361 254.105 92.6311 254.053 92.4347C250.82 92.6282 241.968 93.2462 239.299 93.4513C237.387 93.5985 229.842 95.1984 222.891 96.7348C223.431 95.9897 223.9 95.2677 224.235 94.6208C226.343 90.5605 230.6 83.4795 231.933 82.3879C232.37 82.0327 233.174 81.4089 234.108 80.6869C236.982 78.4632 238.648 77.1464 239.301 76.4908C241.32 77.7182 242.971 79.5693 244.544 81.4291C244.57 81.1172 244.608 80.7013 244.654 80.2248C243.148 78.4806 241.453 76.7074 239.429 75.5581C238.399 74.9747 237.014 74.3798 235.467 74.992C235.103 75.1364 234.68 75.4483 234.192 75.8122C233.049 76.6583 232.063 77.3196 231.534 76.8229C231.022 76.3378 230.687 75.3703 230.626 74.6311C231.251 74.4895 231.872 74.3452 232.486 74.2037C233.784 73.9033 235.129 73.5943 236.456 73.3084C238.923 72.777 241.334 72.2746 243.729 71.9829C243.983 71.9511 244.246 71.9078 244.51 71.8645C245.979 71.6219 246.918 71.541 247.578 72.5027C248.133 73.32 248.379 74.2932 248.636 75.3241C248.888 76.3291 249.148 77.3688 249.729 78.2784C250.866 80.0631 255.07 80.7071 257.546 80.4645C257.659 80.1469 257.67 79.8927 257.67 79.7888C257.67 79.7397 257.575 79.6848 257.41 79.6213Z" fill="white"/>
<path d="M258.306 59.386C258.115 59.4871 257.924 59.5939 257.739 59.7065C257.676 59.7441 257.615 59.7845 257.557 59.8278C256.36 57.8987 256.166 54.7769 256.022 52.4002C255.993 51.9122 255.964 51.4588 255.929 51.0632C255.542 46.6187 254.954 43.2775 254.026 40.2308C253.352 38.0158 252.615 35.7488 251.779 33.3144C252.077 33.2912 252.378 33.2768 252.679 33.2653C253.488 35.6189 254.2 37.8252 254.856 39.9795C255.805 43.0869 256.4 46.483 256.794 50.9881C256.828 51.3895 256.857 51.8487 256.889 52.3483C257.022 54.5113 257.213 57.6359 258.306 59.386Z" fill="white"/>
<path d="M113.228 125.405L113.344 135.923H116.892V129.521C116.892 129.521 117.334 129.365 117.36 129.353C119.359 128.441 119.567 126.194 119.483 124.271C119.463 123.808 119.541 123.153 119.176 122.801C118.87 122.506 118.468 122.581 118.237 122.925C118.023 123.242 118.13 123.797 118.104 124.175C118.075 124.62 118.031 125.068 117.959 125.509C117.887 125.951 117.803 126.364 117.629 126.754C117.563 126.901 117.485 127.06 117.372 127.179C117.352 127.199 117.062 127.401 117.062 127.378C117.062 125.036 117.025 122.691 116.993 120.349C116.976 119.145 117.132 117.363 116.351 116.343C115.972 115.85 115.434 115.936 114.957 116.254C114.269 116.716 114.116 117.704 114.072 118.463C113.977 120.144 113.87 121.822 113.737 123.502C113.737 123.505 113.737 123.511 113.737 123.514C113.722 123.699 113.028 123.176 113 123.133C112.236 122.053 112.985 120.716 112.589 119.563C112.274 118.651 111.351 119.067 111.218 119.867C111.036 120.952 110.871 122.113 111.076 123.214C111.178 123.748 111.374 124.282 111.756 124.683C111.95 124.886 112.181 125.044 112.436 125.16C112.517 125.198 113.234 125.457 113.234 125.405H113.228Z" fill="#4B7D77"/>
<path d="M125.943 115.844L125.856 123.687H123.21V118.913C123.21 118.913 122.88 118.798 122.86 118.789C121.368 118.108 121.215 116.433 121.278 114.998C121.293 114.654 121.235 114.163 121.507 113.9C121.735 113.681 122.036 113.736 122.207 113.993C122.366 114.229 122.287 114.642 122.305 114.925C122.325 115.257 122.36 115.59 122.412 115.919C122.464 116.248 122.527 116.554 122.658 116.846C122.707 116.956 122.765 117.074 122.851 117.161C122.866 117.178 123.083 117.325 123.083 117.308C123.083 115.561 123.112 113.814 123.135 112.066C123.146 111.168 123.031 109.84 123.615 109.077C123.898 108.711 124.3 108.774 124.653 109.011C125.168 109.358 125.28 110.091 125.315 110.66C125.387 111.913 125.466 113.167 125.564 114.417C125.564 114.417 125.564 114.423 125.564 114.426C125.575 114.564 126.093 114.172 126.113 114.143C126.683 113.337 126.125 112.341 126.42 111.48C126.654 110.799 127.342 111.108 127.444 111.708C127.579 112.517 127.701 113.383 127.548 114.206C127.472 114.605 127.325 115.003 127.042 115.304C126.897 115.454 126.726 115.572 126.536 115.659C126.475 115.685 125.94 115.878 125.94 115.844H125.943Z" fill="#4B7D77"/>
<path d="M25.2973 30.8395H23.6143V34.8478H25.2973V30.8395Z" fill="#7A3A2A"/>
<path d="M20.0634 27.7783C20.0634 27.7783 24.1379 22.4907 24.2189 21.1045C24.2189 21.1045 26.6422 26.4644 27.8741 27.4405C27.8741 27.4405 26.4369 27.2874 25.5636 26.6723C25.5636 26.6723 26.7434 29.0317 27.7209 29.5428C27.7209 29.5428 26.6422 29.7998 26.1795 29.5428C26.1795 29.5428 26.7434 31.7982 27.5647 32.2603C27.5647 32.2603 25.3062 32.5693 24.4821 31.3362C24.4821 31.3362 22.2236 32.6704 20.2196 32.6184C20.2196 32.6184 21.9662 30.7731 22.0674 29.9009C22.0674 29.9009 20.9888 30.259 20.2687 30.054C20.2687 30.054 22.6834 27.5935 22.8366 26.9264C22.8366 26.9264 21.1305 27.9603 20.0576 27.7783H20.0634Z" fill="#53847F"/>
<path d="M31.1472 40.1558H29.4121V44.2854H31.1472V40.1558Z" fill="#7A3A2A"/>
<path d="M25.751 37.0051C25.751 37.0051 29.947 31.5557 30.0308 30.132C30.0308 30.132 32.5264 35.6536 33.7959 36.6585C33.7959 36.6585 32.3153 36.4997 31.416 35.8673C31.416 35.8673 32.6334 38.2988 33.6369 38.8273C33.6369 38.8273 32.5264 39.0901 32.0493 38.8273C32.0493 38.8273 32.6305 41.152 33.4778 41.6285C33.4778 41.6285 31.15 41.9462 30.3027 40.6784C30.3027 40.6784 27.9748 42.0531 25.9129 41.9982C25.9129 41.9982 27.7116 40.0951 27.8186 39.197C27.8186 39.197 26.7082 39.5666 25.9679 39.3558C25.9679 39.3558 28.4548 36.8203 28.6138 36.1329C28.6138 36.1329 26.8556 37.1986 25.751 37.008V37.0051Z" fill="#53847F"/>
<path d="M36.1015 29.5948H34.8262V32.63H36.1015V29.5948Z" fill="#7A3A2A"/>
<path d="M32.1367 27.2788C32.1367 27.2788 35.2194 23.2762 35.283 22.2279C35.283 22.2279 37.1164 26.2854 38.0504 27.0218C38.0504 27.0218 36.9631 26.9062 36.3009 26.4384C36.3009 26.4384 37.1945 28.2231 37.9348 28.613C37.9348 28.613 37.1193 28.8065 36.7694 28.613C36.7694 28.613 37.1974 30.3226 37.8191 30.6691C37.8191 30.6691 36.1071 30.903 35.4854 29.9703C35.4854 29.9703 33.7735 30.981 32.2582 30.9406C32.2582 30.9406 33.5797 29.5429 33.6578 28.8844C33.6578 28.8844 32.8423 29.1559 32.2958 28.9999C32.2958 28.9999 34.1234 27.1373 34.2391 26.6319C34.2391 26.6319 32.9493 27.4145 32.1367 27.2759V27.2788Z" fill="#53847F"/>
<path d="M170.17 47.0548H168.973V49.9051H170.17V47.0548Z" fill="#7A3A2A"/>
<path d="M166.445 44.8803C166.445 44.8803 169.343 41.1174 169.401 40.1355C169.401 40.1355 171.124 43.9475 172 44.6406C172 44.6406 170.977 44.5308 170.358 44.0948C170.358 44.0948 171.197 45.7726 171.891 46.1365C171.891 46.1365 171.124 46.3184 170.795 46.1365C170.795 46.1365 171.197 47.7421 171.781 48.0685C171.781 48.0685 170.173 48.2879 169.589 47.4129C169.589 47.4129 167.981 48.3601 166.558 48.3255C166.558 48.3255 167.799 47.0115 167.874 46.3935C167.874 46.3935 167.108 46.6476 166.596 46.5032C166.596 46.5032 168.313 44.7532 168.423 44.2796C168.423 44.2796 167.212 45.016 166.448 44.8831L166.445 44.8803Z" fill="#53847F"/>
<path d="M174.655 43.0032H173.684V45.3192H174.655V43.0032Z" fill="#7A3A2A"/>
<path d="M171.631 41.2358C171.631 41.2358 173.985 38.1804 174.031 37.3805C174.031 37.3805 175.431 40.4763 176.142 41.0394C176.142 41.0394 175.312 40.9499 174.806 40.5947C174.806 40.5947 175.488 41.9578 176.052 42.2523C176.052 42.2523 175.431 42.3996 175.162 42.2523C175.162 42.2523 175.488 43.5547 175.963 43.8233C175.963 43.8233 174.659 44.0024 174.181 43.2891C174.181 43.2891 172.877 44.0601 171.72 44.0284C171.72 44.0284 172.73 42.9627 172.788 42.4574C172.788 42.4574 172.166 42.6653 171.749 42.5469C171.749 42.5469 173.143 41.1261 173.233 40.7391C173.233 40.7391 172.247 41.3369 171.628 41.23L171.631 41.2358Z" fill="#53847F"/>
<path d="M180.012 49.6193H178.832V52.4263H180.012V49.6193Z" fill="#7A3A2A"/>
<path d="M176.342 47.4765C176.342 47.4765 179.196 43.7713 179.254 42.801C179.254 42.801 180.951 46.5552 181.816 47.2397C181.816 47.2397 180.81 47.1328 180.197 46.6996C180.197 46.6996 181.024 48.3515 181.709 48.7125C181.709 48.7125 180.954 48.8915 180.63 48.7125C180.63 48.7125 181.027 50.2921 181.602 50.6156C181.602 50.6156 180.02 50.8322 179.442 49.9687C179.442 49.9687 177.86 50.9015 176.455 50.8668C176.455 50.8668 177.678 49.5731 177.75 48.9637C177.75 48.9637 176.995 49.215 176.492 49.0706C176.492 49.0706 178.184 47.3465 178.291 46.8787C178.291 46.8787 177.097 47.6035 176.345 47.4736L176.342 47.4765Z" fill="#53847F"/>
<path d="M92.2888 28.252H90.5537V32.3816H92.2888V28.252Z" fill="#7A3A2A"/>
<path d="M86.8926 25.1013C86.8926 25.1013 91.0886 19.6519 91.1724 18.2281C91.1724 18.2281 93.668 23.7497 94.9375 24.7547C94.9375 24.7547 93.4569 24.5959 92.5576 23.9634C92.5576 23.9634 93.775 26.395 94.7785 26.9235C94.7785 26.9235 93.668 27.1863 93.1909 26.9235C93.1909 26.9235 93.7722 29.2482 94.6194 29.7247C94.6194 29.7247 92.2916 30.0424 91.4443 28.7746C91.4443 28.7746 89.1164 30.1492 87.0545 30.0944C87.0545 30.0944 88.8532 28.1913 88.9602 27.2932C88.9602 27.2932 87.8498 27.6628 87.1095 27.452C87.1095 27.452 89.5964 24.9164 89.7555 24.2291C89.7555 24.2291 87.9972 25.2948 86.8926 25.1042V25.1013Z" fill="#53847F"/>
<path d="M133.069 157.241H130.481C129.295 155.627 129.186 148.676 129.186 148.676L129.741 148.722L130.536 148.786C130.05 150.293 133.069 157.241 133.069 157.241Z" fill="#956F5F"/>
<path d="M133.069 157.241H132.551C130.544 155.933 129.844 149.77 129.74 148.722L130.535 148.786C130.05 150.293 133.069 157.241 133.069 157.241Z" fill="#7A3A2A"/>
<path d="M130.255 148.959C130.255 148.959 131.608 150.01 131.811 150.461L132.713 150.261L132.412 151.211C132.412 151.211 133.717 152.161 133.766 152.364L134.668 151.962L134.367 152.863C134.367 152.863 136.073 153.813 136.073 154.365C136.073 154.365 137.227 149.958 131.559 148.407L132.863 148.257L133.014 147.056L133.566 148.208L135.472 147.807V146.556L136.024 147.656C136.024 147.656 137.528 147.056 138.129 147.307C138.129 147.307 136.976 144.353 131.059 146.507L131.311 145.805L130.608 144.904L131.912 145.054L132.664 143.902L131.762 143.2L133.216 143.151C133.216 143.151 133.667 141.95 134.269 141.549C134.269 141.549 130.056 140.396 129.104 145.606C129.104 145.606 126.597 142.903 123.688 143.151C123.688 143.151 124.338 143.703 124.639 144.203L125.591 144.252L125.391 144.953C125.391 144.953 126.244 145.303 126.395 145.603H127.447L127.045 146.354C127.045 146.354 128.098 146.755 128.147 147.255C128.147 147.255 122.28 146.906 121.328 150.209C121.328 150.209 122.982 149.86 123.433 149.71L123.934 148.809L124.084 149.661L125.689 149.409L125.935 148.982L126.238 148.456L126.739 149.207L127.742 149.057C127.742 149.057 123.378 152.312 125.886 156.519L126.987 154.567L126.487 153.467L127.288 153.617L128.19 152.014L127.288 151.312H128.04C128.04 151.312 128.39 149.559 129.142 149.158L130.244 148.959H130.255Z" fill="#4B7D77"/>
<path d="M278.942 27.5675H276.354C275.168 25.9532 275.059 19.0021 275.059 19.0021L275.614 19.0483L276.409 19.1118C275.923 20.6193 278.942 27.5675 278.942 27.5675Z" fill="#956F5F"/>
<path d="M278.942 27.5675H278.424C276.417 26.2593 275.717 20.0966 275.613 19.0483L276.409 19.1119C275.923 20.6193 278.942 27.5675 278.942 27.5675Z" fill="#7A3A2A"/>
<path d="M276.128 19.2851C276.128 19.2851 277.481 20.3363 277.684 20.7868L278.586 20.5875L278.285 21.5376C278.285 21.5376 279.59 22.4878 279.639 22.6899L280.541 22.2885L280.24 23.1895C280.24 23.1895 281.946 24.1396 281.946 24.6912C281.946 24.6912 283.1 20.2843 277.432 18.7335L278.737 18.5834L278.887 17.382L279.439 18.5343L281.345 18.1329V16.8824L281.897 17.9827C281.897 17.9827 283.401 17.382 284.002 17.6333C284.002 17.6333 282.849 14.679 276.932 16.8333L277.184 16.1316L276.481 15.2306L277.785 15.3807L278.537 14.2285L277.635 13.5267L279.089 13.4776C279.089 13.4776 279.54 12.2763 280.142 11.8749C280.142 11.8749 275.929 10.7226 274.977 15.9323C274.977 15.9323 272.47 13.2293 269.561 13.4776C269.561 13.4776 270.212 14.0292 270.512 14.5288L271.464 14.5779L271.264 15.2796C271.264 15.2796 272.117 15.6291 272.268 15.9294H273.32L272.918 16.6803C272.918 16.6803 273.971 17.0817 274.02 17.5813C274.02 17.5813 268.153 17.2318 267.201 20.5356C267.201 20.5356 268.855 20.1861 269.306 20.036L269.807 19.1349L269.957 19.9869L271.562 19.7356L271.808 19.3082L272.111 18.7826L272.612 19.5335L273.615 19.3833C273.615 19.3833 269.251 22.6379 271.759 26.8455L272.86 24.8933L272.36 23.7931L273.161 23.9432L274.063 22.3405L273.161 21.6387H273.913C273.913 21.6387 274.263 19.8858 275.015 19.4844L276.117 19.2851H276.128Z" fill="#4B7D77"/>
<path d="M235.88 163.13H234.148C233.355 162.05 233.28 157.4 233.28 157.4L233.65 157.432L234.183 157.475C233.859 158.483 235.877 163.133 235.877 163.133L235.88 163.13Z" fill="#956F5F"/>
<path d="M235.88 163.13H235.533C234.191 162.255 233.723 158.131 233.653 157.429L234.185 157.472C233.862 158.48 235.88 163.13 235.88 163.13Z" fill="#7A3A2A"/>
<path d="M233.998 157.588C233.998 157.588 234.903 158.292 235.039 158.593L235.643 158.46L235.441 159.095C235.441 159.095 236.314 159.731 236.346 159.866L236.95 159.598L236.748 160.201C236.748 160.201 237.887 160.837 237.887 161.206C237.887 161.206 238.659 158.258 234.868 157.221L235.742 157.12L235.843 156.317L236.213 157.088L237.488 156.82V155.982L237.858 156.719C237.858 156.719 238.865 156.317 239.267 156.485C239.267 156.485 238.495 154.509 234.536 155.947L234.704 155.48L234.235 154.876L235.108 154.977L235.612 154.206L235.007 153.738L235.979 153.704C235.979 153.704 236.28 152.901 236.684 152.632C236.684 152.632 233.868 151.861 233.229 155.347C233.229 155.347 231.551 153.539 229.605 153.707C229.605 153.707 230.042 154.076 230.241 154.411L230.878 154.446L230.745 154.914C230.745 154.914 231.314 155.148 231.416 155.35H232.121L231.852 155.852C231.852 155.852 232.558 156.121 232.59 156.456C232.59 156.456 228.665 156.222 228.026 158.431C228.026 158.431 229.134 158.197 229.435 158.096L229.77 157.492L229.871 158.061L230.944 157.894L231.109 157.608L231.311 157.256L231.647 157.758L232.318 157.657C232.318 157.657 229.4 159.835 231.077 162.647L231.815 161.342L231.479 160.606L232.017 160.707L232.621 159.635L232.017 159.167H232.52C232.52 159.167 232.754 157.995 233.258 157.726L233.995 157.594L233.998 157.588Z" fill="#4B7D77"/>
<path d="M212.839 142.66H211.107C210.314 141.58 210.239 136.931 210.239 136.931L210.609 136.963L211.141 137.006C210.818 138.014 212.836 142.663 212.836 142.663L212.839 142.66Z" fill="#956F5F"/>
<path d="M212.838 142.66H212.491C211.149 141.785 210.681 137.661 210.611 136.96L211.143 137.003C210.82 138.011 212.838 142.66 212.838 142.66Z" fill="#7A3A2A"/>
<path d="M210.956 137.119C210.956 137.119 211.861 137.823 211.997 138.124L212.601 137.991L212.399 138.626C212.399 138.626 213.272 139.261 213.304 139.397L213.908 139.129L213.706 139.732C213.706 139.732 214.845 140.367 214.845 140.737C214.845 140.737 215.618 137.789 211.826 136.752L212.7 136.651L212.801 135.848L213.171 136.619L214.446 136.35V135.513L214.816 136.249C214.816 136.249 215.823 135.848 216.225 136.015C216.225 136.015 215.453 134.04 211.494 135.478L211.662 135.01L211.193 134.407L212.066 134.508L212.57 133.737L211.965 133.269L212.937 133.234C212.937 133.234 213.238 132.432 213.642 132.163C213.642 132.163 210.826 131.392 210.187 134.878C210.187 134.878 208.509 133.07 206.563 133.237C206.563 133.237 207 133.607 207.199 133.942L207.836 133.977L207.703 134.444C207.703 134.444 208.272 134.678 208.374 134.88H209.079L208.81 135.383C208.81 135.383 209.516 135.652 209.548 135.987C209.548 135.987 205.623 135.753 204.984 137.962C204.984 137.962 206.092 137.728 206.393 137.627L206.728 137.023L206.829 137.592L207.902 137.425L208.067 137.139L208.269 136.786L208.605 137.289L209.276 137.188C209.276 137.188 206.358 139.365 208.035 142.178L208.773 140.873L208.437 140.136L208.975 140.237L209.579 139.166L208.975 138.698H209.478C209.478 138.698 209.712 137.526 210.216 137.257L210.953 137.124L210.956 137.119Z" fill="#4B7D77"/>
<path d="M83.4426 127.485L83.2922 127.225C82.8816 126.52 82.4074 126.148 81.8868 126.116C80.9007 126.058 80.0216 127.225 80.0129 127.236L79.8828 127.413L79.7729 127.222C79.3739 126.535 78.8967 126.165 78.3531 126.116C77.2629 126.021 76.2392 127.228 76.2305 127.242L76.0078 127.057C76.0541 127.002 77.1472 125.723 78.3762 125.83C78.969 125.882 79.4866 126.24 79.9146 126.901C80.2183 126.552 80.9962 125.775 81.9042 125.827C82.4681 125.859 82.9713 126.203 83.405 126.852C83.5901 126.517 84.0007 125.943 84.6919 125.784C85.4148 125.619 86.2361 125.957 87.1268 126.786L86.9301 126.997C86.1146 126.234 85.383 125.922 84.7584 126.064C83.9342 126.252 83.5583 127.193 83.5554 127.202L83.4455 127.482L83.4426 127.485Z" fill="#996B3B"/>
<path d="M90.3137 123.448L90.1633 123.188C89.7527 122.483 89.2813 122.11 88.7579 122.079C87.7689 122.021 86.8927 123.188 86.884 123.199L86.7539 123.375L86.644 123.185C86.2449 122.497 85.7678 122.128 85.2241 122.079C84.1397 121.986 83.1102 123.19 83.0986 123.205L82.876 123.02C82.9222 122.965 84.0096 121.686 85.2444 121.793C85.8372 121.845 86.3548 122.203 86.7828 122.864C87.0864 122.515 87.8672 121.738 88.7723 121.79C89.3362 121.822 89.8394 122.165 90.2732 122.815C90.4583 122.48 90.8689 121.905 91.56 121.747C92.283 121.582 93.1042 121.92 93.9949 122.749L93.7983 122.959C92.9828 122.197 92.2512 121.885 91.6265 122.027C90.8024 122.214 90.4264 123.156 90.4236 123.164L90.3137 123.445V123.448Z" fill="#996B3B"/>
<path d="M149.928 143.429L149.778 143.169C149.367 142.464 148.896 142.092 148.372 142.06C147.383 142.005 146.507 143.169 146.498 143.18L146.368 143.356L146.258 143.166C145.859 142.479 145.382 142.109 144.835 142.06C143.754 141.967 142.722 143.172 142.713 143.186L142.49 143.001C142.537 142.946 143.624 141.667 144.859 141.774C145.451 141.826 145.969 142.184 146.397 142.845C146.701 142.496 147.479 141.719 148.387 141.771C148.951 141.803 149.454 142.146 149.887 142.796C150.073 142.461 150.483 141.887 151.174 141.728C151.897 141.563 152.719 141.898 153.609 142.73L153.413 142.941C152.597 142.178 151.865 141.866 151.241 142.008C150.417 142.196 150.041 143.137 150.038 143.146L149.928 143.426V143.429Z" fill="#996B3B"/>
<path d="M144.676 140.399L144.526 140.139C144.115 139.435 143.644 139.062 143.12 139.03C142.131 138.973 141.255 140.139 141.246 140.151L141.116 140.327L141.006 140.136C140.607 139.449 140.13 139.079 139.586 139.03C138.502 138.938 137.473 140.142 137.464 140.157L137.241 139.972C137.287 139.917 138.375 138.638 139.61 138.744C140.202 138.796 140.72 139.155 141.148 139.816C141.452 139.466 142.232 138.69 143.138 138.742C143.701 138.773 144.205 139.117 144.638 139.767C144.823 139.432 145.234 138.857 145.925 138.698C146.648 138.534 147.469 138.869 148.36 139.7L148.164 139.911C147.348 139.149 146.616 138.837 145.992 138.978C145.168 139.166 144.792 140.108 144.789 140.116L144.679 140.396L144.676 140.399Z" fill="#996B3B"/>
<path d="M140.431 91.3604L140.281 91.1005C139.87 90.3959 139.399 90.0233 138.875 89.9916C137.889 89.9338 137.01 91.1005 137.001 91.1121L136.871 91.2882L136.761 91.0976C136.362 90.4103 135.885 90.0407 135.341 89.9916C134.26 89.8992 133.227 91.1034 133.219 91.1178L132.996 90.933C133.042 90.8781 134.13 89.5988 135.364 89.7057C135.957 89.7577 136.475 90.1157 136.903 90.7771C137.207 90.4276 137.987 89.6508 138.892 89.7028C139.456 89.7345 139.96 90.0782 140.393 90.728C140.578 90.393 140.989 89.8183 141.68 89.6595C142.403 89.4949 143.224 89.8298 144.115 90.6616L143.918 90.8724C143.103 90.11 142.371 89.7981 141.747 89.9396C140.922 90.1273 140.547 91.0687 140.544 91.0774L140.434 91.3575L140.431 91.3604Z" fill="#996B3B"/>
<path d="M145.484 94.1848L145.333 93.9248C144.923 93.2202 144.451 92.8477 143.928 92.8159C142.942 92.7581 142.063 93.9248 142.054 93.9364L141.924 94.1126L141.814 93.922C141.415 93.2347 140.938 92.865 140.394 92.8159C139.313 92.7235 138.28 93.9277 138.271 93.9422L138.049 93.7574C138.095 93.7025 139.182 92.4232 140.417 92.53C141.01 92.582 141.528 92.9401 141.956 93.6014C142.259 93.252 143.04 92.4751 143.945 92.5271C144.509 92.5589 145.012 92.9025 145.446 93.5523C145.631 93.2173 146.042 92.6426 146.733 92.4838C147.456 92.3192 148.277 92.6542 149.168 93.4859L148.971 93.6967C148.156 92.9343 147.424 92.6224 146.799 92.7639C145.975 92.9516 145.599 93.8931 145.596 93.9017L145.487 94.1819L145.484 94.1848Z" fill="#996B3B"/>
<path d="M53.7355 41.3109L53.5852 41.0509C53.1745 40.3463 52.7003 39.9738 52.1798 39.942C51.1937 39.8871 50.3146 41.0509 50.3059 41.0625L50.1757 41.2387L50.0659 41.0481C49.6668 40.3607 49.1896 39.9911 48.646 39.942C47.5616 39.8496 46.5321 41.0538 46.5205 41.0683L46.2979 40.8835C46.3441 40.8286 47.4343 39.5493 48.6662 39.6561C49.259 39.7081 49.7767 40.0662 50.2047 40.7275C50.5083 40.3781 51.2862 39.6012 52.1942 39.6532C52.7581 39.685 53.2613 40.0286 53.6951 40.6784C53.8801 40.3434 54.2908 39.7687 54.9819 39.6099C55.7049 39.4453 56.5261 39.7803 57.4168 40.612L57.2201 40.8228C56.4047 40.0604 55.673 39.7485 55.0484 39.89C54.2243 40.0777 53.8483 41.0192 53.8454 41.0278L53.7355 41.308V41.3109Z" fill="#996B3B"/>
<path d="M86.6555 52.9432L86.5051 52.6833C86.0945 51.9786 85.6231 51.6061 85.0997 51.5743C84.1136 51.5166 83.2345 52.6833 83.2258 52.6948L83.0957 52.871L82.9858 52.6804C82.5867 51.9931 82.1096 51.6234 81.5659 51.5743C80.4815 51.4819 79.452 52.6862 79.4404 52.7006L79.2178 52.5158C79.264 52.4609 80.3542 51.1816 81.5862 51.2884C82.179 51.3404 82.6966 51.6985 83.1246 52.3598C83.4282 52.0104 84.2119 51.2336 85.1141 51.2855C85.678 51.3173 86.1812 51.661 86.615 52.3107C86.8 51.9757 87.2107 51.4011 87.9018 51.2422C88.6248 51.0776 89.446 51.4126 90.3367 52.2443L90.1401 52.4551C89.3246 51.6927 88.593 51.3808 87.9683 51.5224C87.1442 51.7101 86.7682 52.6515 86.7654 52.6602L86.6555 52.9403V52.9432Z" fill="#996B3B"/>
<path d="M22.8166 89.1397L22.6662 88.8798C22.2556 88.1723 21.7813 87.7997 21.2579 87.7709C20.2689 87.716 19.3927 88.8798 19.384 88.8914L19.2539 89.0675L19.144 88.8769C18.745 88.1896 18.2678 87.82 17.7241 87.7709C16.6426 87.6785 15.6102 88.8827 15.6016 88.8971L15.3789 88.7123C15.4252 88.6574 16.5125 87.3781 17.7473 87.485C18.3401 87.5369 18.8577 87.895 19.2857 88.5564C19.5894 88.2069 20.3672 87.4301 21.2753 87.4821C21.8392 87.5138 22.3423 87.8575 22.7761 88.5073C22.9612 88.1723 23.3718 87.5976 24.063 87.4388C24.7859 87.2742 25.6072 87.6091 26.4978 88.4408L26.3012 88.6517C25.4857 87.8893 24.7541 87.5774 24.1295 87.7189C23.3053 87.9066 22.9294 88.848 22.9265 88.8567L22.8166 89.1368V89.1397Z" fill="#E2A650"/>
<path d="M163.268 63.3077L163.117 63.0478C162.707 62.3431 162.235 61.9706 161.712 61.9388C160.723 61.8811 159.847 63.0478 159.838 63.0593L159.708 63.2355L159.598 63.0449C159.199 62.3576 158.722 61.9879 158.178 61.9388C157.097 61.8464 156.064 63.0507 156.056 63.0651L155.833 62.8803C155.879 62.8254 156.969 61.5461 158.201 61.6529C158.794 61.7049 159.312 62.063 159.74 62.7243C160.043 62.3749 160.821 61.5981 161.729 61.65C162.293 61.6818 162.796 62.0255 163.23 62.6752C163.415 62.3402 163.826 61.7656 164.517 61.6067C165.24 61.4421 166.061 61.7771 166.952 62.6088L166.755 62.8196C165.94 62.0572 165.208 61.7453 164.584 61.8869C163.759 62.0746 163.383 63.016 163.381 63.0247L163.271 63.3048L163.268 63.3077Z" fill="#996B3B"/>
<path d="M218.438 123.043L218.287 122.783C217.877 122.079 217.402 121.706 216.882 121.674C215.896 121.619 215.017 122.783 215.008 122.795L214.878 122.971L214.768 122.78C214.369 122.093 213.892 121.723 213.348 121.674C212.258 121.582 211.234 122.786 211.226 122.801L211.003 122.616C211.049 122.561 212.142 121.282 213.371 121.388C213.964 121.44 214.482 121.799 214.91 122.46C215.213 122.11 215.991 121.334 216.899 121.386C217.463 121.417 217.966 121.761 218.4 122.411C218.585 122.076 218.996 121.501 219.687 121.342C220.41 121.178 221.231 121.516 222.122 122.344L221.925 122.555C221.11 121.793 220.378 121.481 219.753 121.622C218.929 121.81 218.553 122.752 218.551 122.76L218.441 123.04L218.438 123.043Z" fill="#996B3B"/>
<path d="M223.891 72.7944L223.74 72.5345C223.33 71.8298 222.858 71.4573 222.335 71.4255C221.346 71.3678 220.47 72.5345 220.461 72.546L220.331 72.7222L220.221 72.5316C219.822 71.8443 219.345 71.4746 218.801 71.4255C217.72 71.3331 216.687 72.5374 216.679 72.5518L216.456 72.367C216.502 72.3121 217.59 71.0328 218.824 71.1396C219.417 71.1916 219.935 71.5497 220.363 72.211C220.667 71.8616 221.447 71.0848 222.352 71.1367C222.916 71.1685 223.419 71.5122 223.853 72.1619C224.038 71.8269 224.449 71.2523 225.14 71.0934C225.863 70.9288 226.684 71.2638 227.575 72.0955L227.378 72.3063C226.563 71.5439 225.831 71.232 225.207 71.3735C224.382 71.5613 224.007 72.5027 224.004 72.5114L223.894 72.7915L223.891 72.7944Z" fill="#996B3B"/>
<path d="M174.54 97.191C175.234 98.7187 174.289 100.174 173.262 101.402L169.355 101.384C168.392 100.639 168.554 99.4782 168.788 98.7533C169.029 99.7352 169.59 100.321 170.457 100.503C170.477 100.506 170.498 100.5 170.509 100.483C170.521 100.466 170.521 100.443 170.509 100.425C169.309 98.5743 168.942 96.9398 169.416 95.5709C170.379 96.2293 170.567 97.1332 170.764 98.0862C170.873 98.6147 170.986 99.1605 171.235 99.6948C171.247 99.7179 171.273 99.7294 171.296 99.7208C171.322 99.7121 171.333 99.689 171.33 99.663C170.804 97.0697 171.218 95.6113 171.877 93.8844C172.817 96.1225 172.695 98.1758 172.45 100.093C172.432 100.171 172.421 100.252 172.418 100.336C172.418 100.362 172.438 100.385 172.464 100.388C172.49 100.388 172.516 100.371 172.519 100.345C172.53 100.267 172.539 100.189 172.551 100.111C172.649 99.6601 172.97 99.2732 173.389 98.7678C173.728 98.3606 174.144 97.8581 174.54 97.1881V97.191Z" fill="#4B7D77"/>
<path d="M100.771 149.025C101.465 150.553 100.519 152.008 99.4926 153.236L95.5857 153.218C94.6228 152.473 94.7847 151.312 95.019 150.588C95.259 151.569 95.82 152.156 96.6875 152.338C96.7078 152.341 96.728 152.335 96.7396 152.317C96.7511 152.3 96.7511 152.277 96.7396 152.26C95.5395 150.409 95.1722 148.774 95.6465 147.405C96.6094 148.064 96.7974 148.967 96.9941 149.92C97.1039 150.449 97.2167 150.995 97.4654 151.529C97.477 151.552 97.503 151.564 97.5261 151.555C97.5522 151.546 97.5637 151.523 97.5608 151.497C97.0345 148.904 97.4481 147.446 98.1074 145.719C99.0472 147.957 98.9258 150.01 98.68 151.928C98.6626 152.006 98.651 152.086 98.6482 152.17C98.6482 152.196 98.6684 152.219 98.6944 152.222C98.7205 152.222 98.7465 152.205 98.7494 152.179C98.7609 152.101 98.7696 152.023 98.7812 151.945C98.8795 151.494 99.2005 151.107 99.6198 150.602C99.9581 150.195 100.375 149.692 100.771 149.022V149.025Z" fill="#4B7D77"/>
<path d="M74.7844 69.1701C75.4784 70.6978 74.5328 72.1533 73.5062 73.3806L69.5994 73.3633C68.6364 72.6182 68.7984 71.4573 69.0326 70.7325C69.2726 71.7143 69.8337 72.3006 70.7012 72.4825C70.7214 72.4854 70.7417 72.4796 70.7532 72.4623C70.7648 72.445 70.7648 72.4219 70.7532 72.4045C69.5531 70.5534 69.1859 68.9189 69.6601 67.55C70.6231 68.2085 70.8111 69.1124 71.0077 70.0654C71.1176 70.5938 71.2304 71.1396 71.4791 71.6739C71.4906 71.697 71.5167 71.7086 71.5398 71.6999C71.5658 71.6912 71.5774 71.6681 71.5745 71.6421C71.0482 69.0488 71.4617 67.5905 72.1211 65.8635C73.0609 68.1016 72.9394 70.1549 72.6936 72.0724C72.6763 72.1504 72.6647 72.2313 72.6618 72.315C72.6618 72.341 72.6821 72.3641 72.7081 72.367C72.7341 72.367 72.7601 72.3497 72.763 72.3237C72.7746 72.2457 72.7833 72.1677 72.7948 72.0898C72.8932 71.6393 73.2142 71.2523 73.6335 70.7469C73.9718 70.3397 74.3882 69.8372 74.7844 69.1672V69.1701Z" fill="#4B7D77"/>
<path d="M12.6975 46.8354C13.3915 48.3631 12.4459 49.8186 11.4193 51.0459L7.5125 51.0286C6.54954 50.2835 6.71148 49.1226 6.94571 48.3977C7.18573 49.3796 7.74674 49.9659 8.61428 50.1478C8.63452 50.1507 8.65476 50.1449 8.66633 50.1276C8.67789 50.1102 8.67789 50.0871 8.66633 50.0698C7.46623 48.2187 7.09898 46.5842 7.57323 45.2153C8.5362 45.8738 8.72416 46.7777 8.92081 47.7306C9.03069 48.2591 9.14347 48.8049 9.39217 49.3392C9.40373 49.3623 9.42976 49.3738 9.45289 49.3652C9.47892 49.3565 9.49049 49.3334 9.4876 49.3074C8.96129 46.7141 9.37482 45.2558 10.0341 43.5288C10.974 45.7669 10.8525 47.8202 10.6067 49.7377C10.5894 49.8157 10.5778 49.8965 10.5749 49.9803C10.5749 50.0063 10.5952 50.0294 10.6212 50.0323C10.6472 50.0323 10.6732 50.015 10.6761 49.989C10.6877 49.911 10.6964 49.833 10.7079 49.755C10.8063 49.3045 11.1272 48.9176 11.5466 48.4122C11.8849 48.005 12.3013 47.5025 12.6975 46.8325V46.8354Z" fill="#4B7D77"/>
<path d="M114.789 21.3558C115.483 22.8835 114.538 24.339 113.511 25.5663L109.604 25.549C108.641 24.8039 108.803 23.643 109.038 22.9181C109.278 23.9 109.839 24.4862 110.706 24.6682C110.726 24.6711 110.747 24.6653 110.758 24.648C110.77 24.6306 110.77 24.6075 110.758 24.5902C109.558 22.7391 109.191 21.1046 109.665 19.7357C110.628 20.3941 110.816 21.298 111.013 22.251C111.122 22.7795 111.235 23.3253 111.484 23.8596C111.496 23.8827 111.522 23.8942 111.545 23.8856C111.571 23.8769 111.582 23.8538 111.579 23.8278C111.053 21.2345 111.467 19.7761 112.126 18.0492C113.066 20.2873 112.944 22.3406 112.699 24.2581C112.681 24.3361 112.67 24.4169 112.667 24.5007C112.667 24.5267 112.687 24.5498 112.713 24.5527C112.739 24.5527 112.765 24.5353 112.768 24.5093C112.779 24.4314 112.788 24.3534 112.8 24.2754C112.898 23.8249 113.219 23.4379 113.638 22.9326C113.977 22.5254 114.393 22.0229 114.789 21.3529V21.3558Z" fill="#4B7D77"/>
<path d="M199.508 49.446C200.202 50.9737 199.256 52.4292 198.23 53.6565L194.323 53.6392C193.36 52.8941 193.522 51.7332 193.756 51.0083C193.996 51.9902 194.557 52.5765 195.425 52.7584C195.445 52.7613 195.465 52.7555 195.477 52.7382C195.488 52.7208 195.488 52.6977 195.477 52.6804C194.277 50.8293 193.91 49.1948 194.384 47.8259C195.347 48.4843 195.535 49.3883 195.731 50.3412C195.841 50.8697 195.954 51.4155 196.203 51.9498C196.214 51.9729 196.24 51.9844 196.263 51.9758C196.289 51.9671 196.301 51.944 196.298 51.918C195.772 49.3247 196.185 47.8663 196.845 46.1394C197.785 48.3775 197.663 50.4308 197.417 52.3483C197.4 52.4263 197.388 52.5071 197.385 52.5909C197.385 52.6169 197.406 52.64 197.432 52.6429C197.458 52.6429 197.484 52.6255 197.487 52.5996C197.498 52.5216 197.507 52.4436 197.518 52.3656C197.617 51.9151 197.938 51.5282 198.357 51.0228C198.695 50.6156 199.112 50.1131 199.508 49.4431V49.446Z" fill="#4B7D77"/>
<path d="M255.811 71.0212C259.786 71.0212 263.009 67.803 263.009 63.8333C263.009 59.8635 259.786 56.6454 255.811 56.6454C251.836 56.6454 248.613 59.8635 248.613 63.8333C248.613 67.803 251.836 71.0212 255.811 71.0212Z" fill="#7A3A2A"/>
<path d="M232.696 127.534C236.229 127.534 239.093 124.674 239.093 121.146C239.093 117.618 236.229 114.758 232.696 114.758C229.164 114.758 226.3 117.618 226.3 121.146C226.3 124.674 229.164 127.534 232.696 127.534Z" fill="#7A3A2A"/>
<path d="M49.4174 138.202C53.8446 138.202 57.4335 134.618 57.4335 130.196C57.4335 125.775 53.8446 122.191 49.4174 122.191C44.9903 122.191 41.4014 125.775 41.4014 130.196C41.4014 134.618 44.9903 138.202 49.4174 138.202Z" fill="#7A3A2A"/>
<path d="M128.645 56.4433C132.177 56.4433 135.041 53.5833 135.041 50.0553C135.041 46.5273 132.177 43.6674 128.645 43.6674C125.112 43.6674 122.248 46.5273 122.248 50.0553C122.248 53.5833 125.112 56.4433 128.645 56.4433Z" fill="#7A3A2A"/>
<path d="M239.212 174.072C241.673 174.072 243.668 172.079 243.668 169.622C243.668 167.164 241.673 165.171 239.212 165.171C236.751 165.171 234.756 167.164 234.756 169.622C234.756 172.079 236.751 174.072 239.212 174.072Z" fill="#7A3A2A"/>
</g>
<defs>
<clipPath id="clip0_574_84">
<rect width="284" height="177" fill="white"/>
</clipPath>
</defs>
</svg>
