<svg width="831" height="2024" viewBox="0 0 831 2024" fill="none" xmlns="http://www.w3.org/2000/svg">
<path d="M799.482 1992.98C801.412 1989.61 802.78 1985.65 803.469 1981.07C805.575 1966.99 802 1952.58 797.794 1939.3C759.317 1817.74 668.295 1736.59 574.519 1684.81C480.743 1633.04 379.967 1603.39 288.307 1545.7C237.256 1513.57 185.793 1466.76 170.701 1396.29C158.026 1337.06 174.839 1271.81 205.905 1225.16C236.97 1178.5 280.576 1148.3 325.517 1127.49C455.234 1067.42 603.52 1076.55 722.787 987.597C743.319 972.289 764.186 951.259 768.517 921.247C775.098 875.657 741.111 838.066 709.131 816.659C574.989 726.839 411.964 727.94 279.913 633.133C270.319 626.245 259.843 616.713 259.121 602.603C258.19 584.444 273.508 572.774 286.737 566.319C428.248 497.183 586.95 513.798 732.004 458.092C780.226 439.567 834.962 396.622 830.774 332.118C827.962 288.795 797.878 256.106 766.435 240.15C734.992 224.194 700.594 219.865 668.983 204.449C651.994 196.168 634.031 181.324 631.74 158.146C628.777 128.167 653.387 104.848 656.812 74.9441C659.926 47.7067 643.902 21.6029 624.361 10.3538C604.821 -0.895263 582.594 -0.582189 561.206 0.497375C594.471 9.68447 636.13 32.5172 633.099 76.0993C630.522 113.064 594.454 137.397 596.301 174.437C598.097 210.462 632.134 225.036 658.835 236.166C690.798 249.499 720.848 270.345 747.071 297.367C759.225 309.89 771.539 326.85 769.986 346.778C767.736 375.538 740.263 386.744 718.07 391.31C554.5 424.95 391.542 463.544 229.382 507.061C209.245 512.47 188.613 518.202 171.314 532.539C154.014 546.865 140.517 571.857 142.355 598.209C144.554 629.721 166.731 652.198 188.202 667.647C319.196 761.828 487.903 742.32 613.542 847.869C635.047 865.941 657.047 898.706 645.447 928.189C637.599 948.139 618.284 954.605 601.228 958.967C517.945 980.245 434.67 1001.53 351.386 1022.81C275.901 1042.1 198.955 1062.08 131.98 1110.84C65.0062 1159.59 8.49064 1242.95 0.894238 1341.45C-9.47212 1475.84 71.8807 1595.06 162.324 1663.67C252.776 1732.28 356.733 1769.43 443.173 1846.11C491.412 1888.9 535.572 1949.24 543.017 2024C541.238 2009.83 539.45 1995.66 537.67 1981.49C539.156 1993.3 669.31 2001.75 683.227 2003.02C707.494 2005.24 780.579 2026.02 799.473 1993L799.482 1992.98Z" fill="#E8C8A0"/>
</svg>
