<svg width="1099" height="882" viewBox="0 0 1099 882" fill="none" xmlns="http://www.w3.org/2000/svg">
<path d="M977.745 5.83778C976.806 6.85592 977.877 8.24643 979.219 8.2819C979.88 8.29188 980.69 8.00496 981.275 7.3146L983.339 7.70889C982.657 8.60164 983.761 9.3939 984.837 9.29728C985.262 9.26226 985.951 9.12643 985.821 8.40416C1007.89 14.8409 1028.28 26.2595 1046.46 40.9064C1066.71 57.2152 1081.13 77.0389 1089.64 101.72C1099.8 131.19 1100.46 161.939 1093.37 192.754C1085.12 228.66 1066.97 260.29 1042.42 287.372C1015.64 316.89 995.272 340.771 1001.13 383.105C1006.33 420.721 1014.32 434.385 1014.05 475.733C1013.54 553.18 980.406 618.942 903.065 642.04C882.539 648.174 862.293 651.444 840.893 653.819C823.068 655.795 805.924 658.89 789.587 665.732C740.55 686.275 740.334 738.318 718.887 781.514C704.127 811.247 676.282 839.502 648.066 856.746C603.86 883.758 550.927 890.314 502.657 868.825C453.732 847.048 415.183 800.723 381.692 760.039C369.91 745.719 357.42 733.404 342.924 721.973C317.368 701.813 283.734 694.49 251.582 689.381C224.744 685.113 199.9 677.959 174.358 668.556C137.914 655.128 104.556 636.5 75.3457 611.073C60.6254 598.261 48.3561 584.547 36.4793 569.082C4.1505 527.003 -15.9903 461.351 16.5521 414.473C39.1849 381.863 78.0536 361.248 117.123 364.947C116.623 365.863 117.814 366.625 118.769 366.494C119.306 366.422 119.702 365.87 119.618 365.214C123.703 365.309 129.002 365.926 133.075 366.995C132.479 367.684 132.75 368.817 133.395 369.277C134.039 369.737 134.696 369.526 135.15 369.031C135.554 368.62 135.819 368.089 135.587 367.475C140.482 368.016 145.016 369.835 149.692 371.217C146.52 374.134 159.213 375.896 158.676 374.027C160.182 374.779 163.493 375.761 165.13 376.202C165.155 379.473 173.249 381.218 172.73 378.944C203.698 390.431 237.287 387.653 266.123 370.33C278.637 362.816 288.405 352.696 297.086 340.845C322.752 305.803 328.167 276.308 358.238 238.957C378.678 213.565 406.198 197.595 439.207 195.602C472.216 193.608 501.607 211.944 530.447 227.813C569.069 249.063 603.6 254.801 643.197 232.199C657.588 223.985 670.384 214.502 681.441 202.082C727.702 150.142 759.571 81.6045 811.029 39.76C850.596 7.58324 895.383 -2.70402 945.075 0.583133C945.421 1.02135 946.042 1.84912 946.53 1.54705L947.637 0.863396C949.495 1.11389 952.644 1.18081 954.326 1.99048C955.014 2.34288 954.979 4.5335 956.596 3.79617C957.234 3.49953 957.725 2.81445 957.985 2.06195L977.745 5.83778Z" fill="#C8251A"/>
</svg>
