<svg width="1024" height="941" viewBox="0 0 1024 941" fill="none" xmlns="http://www.w3.org/2000/svg">
<path d="M875.207 0C874.477 1.17619 875.79 2.34097 877.114 2.124C877.765 2.00981 878.507 1.57587 878.952 0.787935H881.053C880.551 1.79284 881.784 2.36381 882.823 2.0669C883.234 1.95271 883.884 1.69006 883.622 1.0049C906.502 3.186 928.674 10.5743 949.282 21.5483C972.231 33.767 990.122 50.5306 1003.11 73.1752C1018.62 100.216 1025.04 130.295 1023.86 161.892C1022.5 198.708 1010.6 233.183 991.572 264.392C970.815 298.41 955.288 325.691 968.988 366.173C981.159 402.144 991.572 414.066 999.061 454.73C1013.09 530.897 992.896 601.708 921.264 638.912C902.255 648.79 882.982 655.802 862.409 662.151C845.271 667.438 829.013 673.696 814.251 683.482C769.94 712.864 779.497 764.023 766.538 810.477C757.621 842.451 735.575 875.43 711.096 897.664C672.746 932.493 621.984 948.868 570.538 936.821C518.396 924.613 471.837 886.347 431.305 852.671C417.045 840.818 402.465 831.066 386.082 822.558C357.196 807.553 322.785 806.674 290.245 807.691C263.084 808.536 237.338 806.172 210.485 801.73C172.168 795.38 135.907 783.344 102.443 763.852C85.5802 754.031 70.9547 742.863 56.3863 729.902C16.7343 694.639 -15.3709 633.934 7.79461 581.782C23.9043 545.502 58.2131 517.959 97.2829 514.259C96.9632 515.252 98.2762 515.778 99.1895 515.469C99.7033 515.298 99.9887 514.681 99.7832 514.053C103.814 513.38 109.134 512.991 113.335 513.277C112.879 514.065 113.358 515.127 114.078 515.458C114.797 515.789 115.402 515.458 115.756 514.887C116.076 514.407 116.235 513.836 115.893 513.277C120.802 512.889 125.598 513.825 130.45 514.305C127.881 517.765 140.68 517.114 139.801 515.378C141.422 515.835 144.858 516.177 146.548 516.303C147.188 519.512 155.465 519.706 154.529 517.571C187.102 523.04 219.573 514.008 244.645 491.58C255.526 481.851 263.221 470.077 269.523 456.808C288.156 417.571 287.939 387.584 310.465 345.253C325.776 316.476 349.809 295.624 381.857 287.471C413.905 279.317 446.216 291.81 477.522 301.985C519.446 315.608 554.44 314.763 589.092 285.13C601.685 274.361 612.474 262.645 621.003 248.371C656.693 188.67 675.132 115.37 717.821 64.6107C750.645 25.5793 792.706 7.06858 842.132 0.970645C842.554 1.33606 843.319 2.03264 843.741 1.64439L844.701 0.765096C846.573 0.662322 849.678 0.137032 851.482 0.616645C852.224 0.833612 852.601 2.99187 854.051 1.96413C854.622 1.55303 854.976 0.787935 855.09 0H875.207Z" fill="#C8251A"/>
</svg>
