<svg width="321" height="874" viewBox="0 0 321 874" fill="none" xmlns="http://www.w3.org/2000/svg">
<path d="M305.677 940.936C306.616 939.295 307.281 937.376 307.615 935.148C308.64 928.311 306.901 921.311 304.857 914.862C286.151 855.825 241.899 816.412 196.309 791.266C150.719 766.12 101.725 751.722 57.1636 723.703C32.3445 708.099 7.32543 685.365 -0.0117569 651.138C-6.17368 622.374 2.00005 590.684 17.1029 568.023C32.2057 545.362 53.4052 530.697 75.2535 520.589C138.317 491.416 210.408 495.852 268.391 452.648C278.373 445.213 288.517 435 290.623 420.424C293.822 398.282 277.299 380.025 261.752 369.628C196.537 326.005 117.281 326.54 53.0828 280.495C48.4185 277.15 43.3258 272.52 42.9748 265.667C42.5219 256.848 49.9692 251.18 56.4005 248.045C125.198 214.468 202.352 222.537 272.872 195.483C296.316 186.485 322.926 165.628 320.89 134.3C319.523 113.26 304.898 97.3834 289.611 89.634C274.325 81.8847 257.602 79.7822 242.234 72.295C233.974 68.2735 225.241 61.0642 224.127 49.8071C222.687 35.2469 234.652 23.9217 236.317 9.39825C237.83 -3.83019 230.04 -16.5081 220.54 -21.9715C211.04 -27.4348 200.235 -27.2828 189.837 -26.7584C206.009 -22.2965 226.262 -11.2073 224.788 9.95927C223.536 27.9118 206.001 39.7298 206.898 57.719C207.772 75.2154 224.319 82.2936 237.3 87.6993C252.839 94.1746 267.449 104.299 280.197 117.423C286.106 123.505 292.092 131.742 291.337 141.421C290.244 155.388 276.887 160.831 266.098 163.048C186.576 179.386 107.353 198.13 28.5167 219.265C18.727 221.892 8.69656 224.676 0.28614 231.639C-8.12428 238.597 -14.6861 250.735 -13.7924 263.533C-12.7233 278.838 -1.94195 289.754 8.4966 297.257C72.1807 342.998 154.2 333.524 215.28 384.786C225.735 393.563 236.431 409.476 230.791 423.795C226.976 433.484 217.586 436.625 209.294 438.743C168.805 449.077 128.32 459.417 87.8304 469.751C51.1322 479.121 13.724 488.82 -18.8362 512.504C-51.3965 536.182 -78.8722 576.664 -82.5653 624.502C-87.605 689.774 -48.0544 747.674 -4.08434 781C39.8898 814.32 90.4298 832.362 132.453 869.604C155.905 890.387 177.374 919.691 180.994 956C180.129 949.116 179.26 942.237 178.394 935.352C179.117 941.088 242.393 945.194 249.159 945.813C260.956 946.887 296.487 956.98 305.673 940.942L305.677 940.936Z" fill="#E8C8A0"/>
</svg>
