<svg width="897" height="824" viewBox="0 0 897 824" fill="none" xmlns="http://www.w3.org/2000/svg">
<path d="M765.718 0.278291C792.668 1.40829 819.538 10.2683 842.158 25.1583C879.378 49.2783 897.898 94.5583 896.808 137.848C896.328 171.198 885.908 202.158 869.068 230.448C864.278 238.678 859.208 247.038 855.228 255.138C842.478 279.678 841.748 302.128 851.528 327.758C859.038 348.568 867.658 364.858 872.428 386.008C888.558 449.368 874.918 520.058 815.648 554.398C762.938 588.098 694.268 577.528 681.288 652.958C677.748 671.078 676.488 690.458 671.528 708.468C652.308 776.788 583.488 834.178 510.158 822.378C471.908 816.558 438.558 794.848 408.328 771.708C377.308 747.828 347.748 717.758 307.738 710.598C283.688 705.678 258.668 707.998 234.278 707.348C170.358 705.078 105.078 687.418 55.9281 645.158C14.6781 611.908 -18.5219 550.388 11.6981 499.838C20.0081 485.438 31.5281 473.498 45.5381 464.838C62.2681 454.418 82.9581 449.088 102.758 450.018C124.048 451.798 145.898 456.568 167.328 452.858C189.488 448.988 210.298 436.838 224.048 418.958C241.138 396.338 247.388 368.288 255.588 341.828C267.768 301.708 289.588 263.368 333.108 252.298C392.478 236.808 441.738 295.958 501.808 259.328C513.948 251.858 524.388 242.358 533.358 231.628C570.768 181.978 584.968 114.438 620.888 66.4983C653.798 19.9083 709.228 -2.76171 765.548 0.268291H765.718V0.278291Z" fill="#C8251A"/>
</svg>
