<svg width="198" height="198" viewBox="0 0 198 198" fill="none" xmlns="http://www.w3.org/2000/svg">
<path d="M99 198C153.676 198 198 153.676 198 99C198 44.3238 153.676 0 99 0C44.3238 0 0 44.3238 0 99C0 153.676 44.3238 198 99 198Z" fill="#3A8A3A"/>
<path d="M98.9997 188.435C148.393 188.435 188.435 148.394 188.435 98.9999C188.435 49.6062 148.393 9.5647 98.9997 9.5647C49.606 9.5647 9.56445 49.6062 9.56445 98.9999C9.56445 148.394 49.606 188.435 98.9997 188.435Z" fill="white"/>
<path d="M98.9997 188.435C148.393 188.435 188.435 148.394 188.435 98.9999C188.435 49.6062 148.393 9.5647 98.9997 9.5647C49.606 9.5647 9.56445 49.6062 9.56445 98.9999C9.56445 148.394 49.606 188.435 98.9997 188.435Z" fill="#080F0C"/>
<path d="M98.9996 132.382C117.436 132.382 132.382 117.436 132.382 98.9998C132.382 80.5632 117.436 65.6174 98.9996 65.6174C80.563 65.6174 65.6172 80.5632 65.6172 98.9998C65.6172 117.436 80.563 132.382 98.9996 132.382Z" fill="#617181"/>
<path d="M136.997 124.012C140.694 124.012 143.691 121.014 143.691 117.317C143.691 113.62 140.694 110.623 136.997 110.623C133.3 110.623 130.303 113.62 130.303 117.317C130.303 121.014 133.3 124.012 136.997 124.012Z" fill="#617181"/>
<path d="M122.749 140.558C126.446 140.558 129.443 137.561 129.443 133.864C129.443 130.167 126.446 127.17 122.749 127.17C119.052 127.17 116.055 130.167 116.055 133.864C116.055 137.561 119.052 140.558 122.749 140.558Z" fill="#617181"/>
<path d="M102.138 147.762C105.835 147.762 108.832 144.764 108.832 141.067C108.832 137.37 105.835 134.373 102.138 134.373C98.4405 134.373 95.4434 137.37 95.4434 141.067C95.4434 144.764 98.4405 147.762 102.138 147.762Z" fill="#617181"/>
<path d="M80.6826 143.691C84.3797 143.691 87.3769 140.694 87.3769 136.997C87.3769 133.3 84.3797 130.303 80.6826 130.303C76.9854 130.303 73.9883 133.3 73.9883 136.997C73.9883 140.694 76.9854 143.691 80.6826 143.691Z" fill="#617181"/>
<path d="M64.1357 129.444C67.8328 129.444 70.83 126.447 70.83 122.75C70.83 119.053 67.8328 116.056 64.1357 116.056C60.4385 116.056 57.4414 119.053 57.4414 122.75C57.4414 126.447 60.4385 129.444 64.1357 129.444Z" fill="#617181"/>
<path d="M56.9326 108.826C60.6297 108.826 63.6269 105.829 63.6269 102.132C63.6269 98.4346 60.6297 95.4375 56.9326 95.4375C53.2354 95.4375 50.2383 98.4346 50.2383 102.132C50.2383 105.829 53.2354 108.826 56.9326 108.826Z" fill="#617181"/>
<path d="M61.0029 87.3764C64.7 87.3764 67.6972 84.3792 67.6972 80.6821C67.6972 76.9849 64.7 73.9878 61.0029 73.9878C57.3057 73.9878 54.3086 76.9849 54.3086 80.6821C54.3086 84.3792 57.3057 87.3764 61.0029 87.3764Z" fill="#617181"/>
<path d="M75.249 70.829C78.9461 70.829 81.9433 67.8319 81.9433 64.1347C81.9433 60.4376 78.9461 57.4404 75.249 57.4404C71.5518 57.4404 68.5547 60.4376 68.5547 64.1347C68.5547 67.8319 71.5518 70.829 75.249 70.829Z" fill="#617181"/>
<path d="M95.8623 63.6278C99.5594 63.6278 102.557 60.6307 102.557 56.9335C102.557 53.2364 99.5594 50.2393 95.8623 50.2393C92.1651 50.2393 89.168 53.2364 89.168 56.9335C89.168 60.6307 92.1651 63.6278 95.8623 63.6278Z" fill="#617181"/>
<path d="M117.319 67.6972C121.016 67.6972 124.014 64.7 124.014 61.0029C124.014 57.3057 121.016 54.3086 117.319 54.3086C113.622 54.3086 110.625 57.3057 110.625 61.0029C110.625 64.7 113.622 67.6972 117.319 67.6972Z" fill="#617181"/>
<path d="M133.866 81.9452C137.563 81.9452 140.56 78.9481 140.56 75.2509C140.56 71.5538 137.563 68.5566 133.866 68.5566C130.169 68.5566 127.172 71.5538 127.172 75.2509C127.172 78.9481 130.169 81.9452 133.866 81.9452Z" fill="#617181"/>
<path d="M141.067 102.557C144.764 102.557 147.762 99.5601 147.762 95.863C147.762 92.1658 144.764 89.1687 141.067 89.1687C137.37 89.1687 134.373 92.1658 134.373 95.863C134.373 99.5601 137.37 102.557 141.067 102.557Z" fill="#617181"/>
<path d="M141.093 70.3371C135.593 74.9099 120.24 85.7057 115.971 94.1704C116.411 95.7104 116.641 97.329 116.641 98.9999C116.641 108.743 108.742 116.642 98.9993 116.642C89.2565 116.642 81.3574 108.743 81.3574 98.9999C81.3574 89.2571 89.2565 81.358 98.9993 81.358C99.9317 81.358 100.848 81.4314 101.739 81.5728C105.379 76.6961 114.63 64.2871 117.38 60.5838C118.207 59.5099 118.564 58.7399 118.956 57.3833C119.789 54.1357 122.545 49.5523 126.274 48.5519C128.846 47.7504 131.648 48.4785 133.419 50.3695C134.336 51.5271 133.602 52.3599 132.104 54.5285C128.815 59.2533 125.111 64.4076 121.921 69.0747C120.276 71.2433 121.612 73.548 123.917 72.4061C128.238 69.2371 135.399 62.1761 139.306 58.8761C139.94 58.3471 140.548 57.6923 141.302 57.5142C143.439 57.4776 144.864 61.579 144.89 63.5957C145.032 66.6023 143.298 68.6661 141.093 70.3371Z" fill="#1A3A5A"/>
<path d="M173.252 5.73884L163.777 16.4634L171.032 22.8725L180.507 12.1479L173.252 5.73884Z" fill="#1A3A5A"/>
<path d="M161.852 25.955L163.779 16.4531L171.039 22.8698L161.852 25.955Z" fill="#1A3A5A"/>
</svg>
