<svg width="163" height="198" viewBox="0 0 163 198" fill="none" xmlns="http://www.w3.org/2000/svg">
<path d="M99 198C44.3238 198 0 153.676 0 99C0 44.3238 44.3238 0 99 0C153.676 0 198 44.3238 198 99C198 153.676 153.676 198 99 198Z" fill="#3A8A3A"/>
<path d="M99.0003 188.435C49.6066 188.435 9.56508 148.394 9.56508 98.9999C9.56508 49.6062 49.6066 9.5647 99.0003 9.5647C148.394 9.5647 188.436 49.6062 188.436 98.9999C188.436 148.394 148.394 188.435 99.0003 188.435Z" fill="white"/>
<path d="M99.0003 188.435C49.6066 188.435 9.56508 148.394 9.56508 98.9999C9.56508 49.6062 49.6066 9.5647 99.0003 9.5647C148.394 9.5647 188.436 49.6062 188.436 98.9999C188.436 148.394 148.394 188.435 99.0003 188.435Z" fill="#080F0C"/>
<path d="M99.0004 132.382C80.5638 132.382 65.618 117.436 65.618 98.9998C65.618 80.5632 80.5638 65.6174 99.0004 65.6174C117.437 65.6174 132.383 80.5632 132.383 98.9998C132.383 117.436 117.437 132.382 99.0004 132.382Z" fill="#617181"/>
<path d="M61.003 124.012C57.3058 124.012 54.3087 121.014 54.3087 117.317C54.3087 113.62 57.3058 110.623 61.003 110.623C64.7001 110.623 67.6973 113.62 67.6973 117.317C67.6973 121.014 64.7001 124.012 61.003 124.012Z" fill="#617181"/>
<path d="M75.251 140.558C71.5539 140.558 68.5567 137.561 68.5567 133.864C68.5567 130.167 71.5539 127.17 75.251 127.17C78.9482 127.17 81.9453 130.167 81.9453 133.864C81.9453 137.561 78.9482 140.558 75.251 140.558Z" fill="#617181"/>
<path d="M95.8624 147.762C92.1652 147.762 89.1681 144.764 89.1681 141.067C89.1681 137.37 92.1652 134.373 95.8624 134.373C99.5595 134.373 102.557 137.37 102.557 141.067C102.557 144.764 99.5595 147.762 95.8624 147.762Z" fill="#617181"/>
<path d="M117.317 143.691C113.62 143.691 110.623 140.694 110.623 136.997C110.623 133.3 113.62 130.303 117.317 130.303C121.015 130.303 124.012 133.3 124.012 136.997C124.012 140.694 121.015 143.691 117.317 143.691Z" fill="#617181"/>
<path d="M133.864 129.444C130.167 129.444 127.17 126.447 127.17 122.75C127.17 119.053 130.167 116.056 133.864 116.056C137.561 116.056 140.559 119.053 140.559 122.75C140.559 126.447 137.561 129.444 133.864 129.444Z" fill="#617181"/>
<path d="M141.067 108.826C137.37 108.826 134.373 105.829 134.373 102.132C134.373 98.4346 137.37 95.4375 141.067 95.4375C144.765 95.4375 147.762 98.4346 147.762 102.132C147.762 105.829 144.765 108.826 141.067 108.826Z" fill="#617181"/>
<path d="M136.997 87.3764C133.3 87.3764 130.303 84.3792 130.303 80.6821C130.303 76.9849 133.3 73.9878 136.997 73.9878C140.694 73.9878 143.691 76.9849 143.691 80.6821C143.691 84.3792 140.694 87.3764 136.997 87.3764Z" fill="#617181"/>
<path d="M122.751 70.829C119.054 70.829 116.057 67.8319 116.057 64.1347C116.057 60.4376 119.054 57.4404 122.751 57.4404C126.448 57.4404 129.445 60.4376 129.445 64.1347C129.445 67.8319 126.448 70.829 122.751 70.829Z" fill="#617181"/>
<path d="M102.138 63.6278C98.4406 63.6278 95.4435 60.6307 95.4435 56.9335C95.4435 53.2364 98.4406 50.2393 102.138 50.2393C105.835 50.2393 108.832 53.2364 108.832 56.9335C108.832 60.6307 105.835 63.6278 102.138 63.6278Z" fill="#617181"/>
<path d="M80.6807 67.6972C76.9836 67.6972 73.9864 64.7 73.9864 61.0029C73.9864 57.3057 76.9836 54.3086 80.6807 54.3086C84.3779 54.3086 87.375 57.3057 87.375 61.0029C87.375 64.7 84.3779 67.6972 80.6807 67.6972Z" fill="#617181"/>
<path d="M64.1338 81.9452C60.4367 81.9452 57.4396 78.9481 57.4396 75.2509C57.4396 71.5538 60.4367 68.5566 64.1338 68.5566C67.831 68.5566 70.8281 71.5538 70.8281 75.2509C70.8281 78.9481 67.831 81.9452 64.1338 81.9452Z" fill="#617181"/>
<path d="M56.9327 102.558C53.2355 102.558 50.2384 99.5604 50.2384 95.8632C50.2384 92.1661 53.2355 89.1689 56.9327 89.1689C60.6298 89.1689 63.627 92.1661 63.627 95.8632C63.627 99.5604 60.6298 102.558 56.9327 102.558Z" fill="#617181"/>
<path d="M56.9073 70.3371C62.4073 74.9099 77.7602 85.7057 82.0293 94.1704C81.5892 95.7104 81.3588 97.329 81.3588 98.9999C81.3588 108.743 89.2578 116.642 99.0007 116.642C108.744 116.642 116.643 108.743 116.643 98.9999C116.643 89.2571 108.744 81.358 99.0007 81.358C98.0683 81.358 97.1516 81.4314 96.2612 81.5728C92.6207 76.6961 83.3702 64.2871 80.6202 60.5838C79.7926 59.5099 79.4364 58.7399 79.0435 57.3833C78.2107 54.1357 75.4554 49.5523 71.7259 48.5519C69.154 47.7504 66.3516 48.4785 64.5811 50.3695C63.6645 51.5271 64.3978 52.3599 65.8959 54.5285C69.1854 59.2533 72.8888 64.4076 76.0788 69.0747C77.7235 71.2433 76.3878 73.548 74.0831 72.4061C69.7616 69.2371 62.6011 62.1761 58.6935 58.8761C58.0597 58.3471 57.4521 57.6923 56.6978 57.5142C54.5607 57.4776 53.1359 61.579 53.1097 63.5957C52.9683 66.6023 54.7021 68.6661 56.9073 70.3371Z" fill="#1A3A5A"/>
<path d="M24.7477 5.73884L34.2227 16.4634L26.9683 22.8725L17.4934 12.1479L24.7477 5.73884Z" fill="#1A3A5A"/>
<path d="M36.1484 25.955L34.2208 16.4531L26.9608 22.8698L36.1484 25.955Z" fill="#1A3A5A"/>
</svg>
