<svg width="125" height="198" viewBox="0 0 125 198" fill="none" xmlns="http://www.w3.org/2000/svg">
<path d="M26 198C80.6762 198 125 153.676 125 99C125 44.3238 80.6762 0 26 0C-28.6762 0 -73 44.3238 -73 99C-73 153.676 -28.6762 198 26 198Z" fill="#3A8A3A"/>
<path d="M25.9997 188.435C75.3934 188.435 115.435 148.394 115.435 98.9999C115.435 49.6062 75.3934 9.5647 25.9997 9.5647C-23.394 9.5647 -63.4355 49.6062 -63.4355 98.9999C-63.4355 148.394 -23.394 188.435 25.9997 188.435Z" fill="white"/>
<path d="M25.9997 188.435C75.3934 188.435 115.435 148.394 115.435 98.9999C115.435 49.6062 75.3934 9.5647 25.9997 9.5647C-23.394 9.5647 -63.4355 49.6062 -63.4355 98.9999C-63.4355 148.394 -23.394 188.435 25.9997 188.435Z" fill="#080F0C"/>
<path d="M25.9996 132.382C44.4362 132.382 59.382 117.436 59.382 98.9998C59.382 80.5632 44.4362 65.6174 25.9996 65.6174C7.56299 65.6174 -7.38281 80.5632 -7.38281 98.9998C-7.38281 117.436 7.56299 132.382 25.9996 132.382Z" fill="#617181"/>
<path d="M63.997 124.012C67.6942 124.012 70.6913 121.014 70.6913 117.317C70.6913 113.62 67.6942 110.623 63.997 110.623C60.2999 110.623 57.3027 113.62 57.3027 117.317C57.3027 121.014 60.2999 124.012 63.997 124.012Z" fill="#617181"/>
<path d="M49.749 140.558C53.4461 140.558 56.4433 137.561 56.4433 133.864C56.4433 130.167 53.4461 127.17 49.749 127.17C46.0518 127.17 43.0547 130.167 43.0547 133.864C43.0547 137.561 46.0518 140.558 49.749 140.558Z" fill="#617181"/>
<path d="M29.1376 147.762C32.8348 147.762 35.8319 144.764 35.8319 141.067C35.8319 137.37 32.8348 134.373 29.1376 134.373C25.4405 134.373 22.4434 137.37 22.4434 141.067C22.4434 144.764 25.4405 147.762 29.1376 147.762Z" fill="#617181"/>
<path d="M7.68257 143.691C11.3797 143.691 14.3769 140.694 14.3769 136.997C14.3769 133.3 11.3797 130.303 7.68257 130.303C3.98541 130.303 0.988281 133.3 0.988281 136.997C0.988281 140.694 3.98541 143.691 7.68257 143.691Z" fill="#617181"/>
<path d="M2.24897 70.829C5.94612 70.829 8.94326 67.8319 8.94326 64.1347C8.94326 60.4376 5.94612 57.4404 2.24897 57.4404C-1.44818 57.4404 -4.44531 60.4376 -4.44531 64.1347C-4.44531 67.8319 -1.44818 70.829 2.24897 70.829Z" fill="#617181"/>
<path d="M22.8623 63.6278C26.5594 63.6278 29.5565 60.6307 29.5565 56.9335C29.5565 53.2364 26.5594 50.2393 22.8623 50.2393C19.1651 50.2393 16.168 53.2364 16.168 56.9335C16.168 60.6307 19.1651 63.6278 22.8623 63.6278Z" fill="#617181"/>
<path d="M44.3193 67.6972C48.0164 67.6972 51.0136 64.7 51.0136 61.0029C51.0136 57.3057 48.0164 54.3086 44.3193 54.3086C40.6221 54.3086 37.625 57.3057 37.625 61.0029C37.625 64.7 40.6221 67.6972 44.3193 67.6972Z" fill="#617181"/>
<path d="M60.8662 81.9452C64.5633 81.9452 67.5604 78.9481 67.5604 75.2509C67.5604 71.5538 64.5633 68.5566 60.8662 68.5566C57.169 68.5566 54.1719 71.5538 54.1719 75.2509C54.1719 78.9481 57.169 81.9452 60.8662 81.9452Z" fill="#617181"/>
<path d="M68.0673 102.558C71.7645 102.558 74.7616 99.5604 74.7616 95.8632C74.7616 92.1661 71.7645 89.1689 68.0673 89.1689C64.3702 89.1689 61.373 92.1661 61.373 95.8632C61.373 99.5604 64.3702 102.558 68.0673 102.558Z" fill="#617181"/>
<path d="M68.0927 70.3371C62.5927 74.9099 47.2398 85.7057 42.9707 94.1704C43.4108 95.7104 43.6412 97.329 43.6412 98.9999C43.6412 108.743 35.7422 116.642 25.9993 116.642C16.2565 116.642 8.35742 108.743 8.35742 98.9999C8.35742 89.2571 16.2565 81.358 25.9993 81.358C26.9317 81.358 27.8484 81.4314 28.7388 81.5728C32.3793 76.6961 41.6298 64.2871 44.3798 60.5838C45.2074 59.5099 45.5636 58.7399 45.9565 57.3833C46.7893 54.1357 49.5446 49.5523 53.2741 48.5519C55.846 47.7504 58.6484 48.4785 60.4189 50.3695C61.3355 51.5271 60.6022 52.3599 59.1041 54.5285C55.8146 59.2533 52.1112 64.4076 48.9212 69.0747C47.2765 71.2433 48.6122 73.548 50.9169 72.4061C55.2384 69.2371 62.3989 62.1761 66.3065 58.8761C66.9403 58.3471 67.5479 57.6923 68.3022 57.5142C70.4393 57.4776 71.8641 61.579 71.8903 63.5957C72.0317 66.6023 70.2979 68.6661 68.0927 70.3371Z" fill="#1A3A5A"/>
<path d="M100.252 5.73884L90.7773 16.4634L98.0317 22.8725L107.507 12.1479L100.252 5.73884Z" fill="#1A3A5A"/>
<path d="M88.8516 25.955L90.7792 16.4531L98.0392 22.8698L88.8516 25.955Z" fill="#1A3A5A"/>
</svg>
