<svg width="214" height="424" viewBox="0 0 214 424" fill="none" xmlns="http://www.w3.org/2000/svg">
<path d="M214 428C95.8111 428 0 332.189 0 214C0 95.8111 95.8111 0 214 0C332.189 0 428 95.8111 428 214C428 332.189 332.189 428 214 428Z" fill="#C88010"/>
<path d="M214.002 407.324C107.231 407.324 20.6769 320.77 20.6769 213.999C20.6769 107.229 107.231 20.6748 214.002 20.6748C320.772 20.6748 407.326 107.229 407.326 213.999C407.326 320.77 320.772 407.324 214.002 407.324Z" fill="white"/>
<path d="M214.002 407.324C107.231 407.324 20.6769 320.77 20.6769 213.999C20.6769 107.229 107.231 20.6748 214.002 20.6748C320.772 20.6748 407.326 107.229 407.326 213.999C407.326 320.77 320.772 407.324 214.002 407.324Z" fill="#080F0C"/>
<path d="M214 286.159C174.147 286.159 141.84 253.852 141.84 213.999C141.84 174.146 174.147 141.839 214 141.839C253.853 141.839 286.16 174.146 286.16 213.999C286.16 253.852 253.853 286.159 214 286.159Z" fill="#617181"/>
<path d="M131.865 268.067C123.874 268.067 117.395 261.588 117.395 253.596C117.395 245.605 123.874 239.126 131.865 239.126C139.857 239.126 146.336 245.605 146.336 253.596C146.336 261.588 139.857 268.067 131.865 268.067Z" fill="#617181"/>
<path d="M162.664 303.835C154.672 303.835 148.194 297.357 148.194 289.365C148.194 281.373 154.672 274.895 162.664 274.895C170.656 274.895 177.135 281.373 177.135 289.365C177.135 297.357 170.656 303.835 162.664 303.835Z" fill="#617181"/>
<path d="M207.217 319.404C199.225 319.404 192.747 312.926 192.747 304.934C192.747 296.942 199.225 290.463 207.217 290.463C215.209 290.463 221.688 296.942 221.688 304.934C221.688 312.926 215.209 319.404 207.217 319.404Z" fill="#617181"/>
<path d="M220.783 137.537C212.792 137.537 206.313 131.059 206.313 123.067C206.313 115.075 212.792 108.596 220.783 108.596C228.775 108.596 235.254 115.075 235.254 123.067C235.254 131.059 228.775 137.537 220.783 137.537Z" fill="#617181"/>
<path d="M174.405 146.335C166.413 146.335 159.934 139.857 159.934 131.865C159.934 123.873 166.413 117.395 174.405 117.395C182.396 117.395 188.875 123.873 188.875 131.865C188.875 139.857 182.396 146.335 174.405 146.335Z" fill="#617181"/>
<path d="M138.635 177.131C130.643 177.131 124.165 170.653 124.165 162.661C124.165 154.669 130.643 148.19 138.635 148.19C146.627 148.19 153.105 154.669 153.105 162.661C153.105 170.653 146.627 177.131 138.635 177.131Z" fill="#617181"/>
<path d="M123.067 221.688C115.075 221.688 108.596 215.209 108.596 207.218C108.596 199.226 115.075 192.747 123.067 192.747C131.058 192.747 137.537 199.226 137.537 207.218C137.537 215.209 131.058 221.688 123.067 221.688Z" fill="#617181"/>
<path d="M123.01 152.041C134.899 161.926 168.086 185.262 177.314 203.56C176.363 206.888 175.865 210.387 175.865 213.999C175.865 235.059 192.939 252.134 214 252.134C235.06 252.134 252.135 235.059 252.135 213.999C252.135 192.939 235.06 175.864 214 175.864C211.984 175.864 210.003 176.023 208.078 176.328C200.209 165.787 180.213 138.963 174.268 130.958C172.479 128.637 171.709 126.972 170.86 124.04C169.06 117.02 163.104 107.112 155.042 104.95C149.483 103.217 143.425 104.791 139.598 108.879C137.616 111.381 139.202 113.181 142.44 117.869C149.551 128.082 157.556 139.224 164.451 149.312C168.007 154 165.119 158.982 160.137 156.513C150.796 149.663 135.318 134.4 126.871 127.267C125.501 126.123 124.188 124.708 122.557 124.323C117.938 124.244 114.858 133.109 114.801 137.469C114.495 143.968 118.243 148.429 123.01 152.041Z" fill="#1A3A5A"/>
<path d="M53.4974 12.4046L73.9785 35.5869L58.2974 49.4409L37.8162 26.2586L53.4974 12.4046Z" fill="#1A3A5A"/>
<path d="M78.1406 56.1049L73.9738 35.5654L58.2805 49.4358L78.1406 56.1049Z" fill="#1A3A5A"/>
</svg>
