<svg width="271" height="66" viewBox="0 0 271 66" fill="none" xmlns="http://www.w3.org/2000/svg">
<path d="M0.000390768 63.8401V1.44008H27.3604V7.20008H6.72039V29.2801H23.5204V35.0401H6.72039V58.0801H28.3204V63.8401H0.000390768ZM42.7504 63.8401V1.44008H45.6304L48.0304 7.68008C49.3744 5.44009 51.1344 3.61609 53.3104 2.20809C55.5504 0.736086 58.0464 8.58307e-05 60.7984 8.58307e-05C64.3184 8.58307e-05 67.1024 0.608086 69.1504 1.82409C71.1984 2.97609 72.6704 4.57609 73.5664 6.62409C74.4624 8.60809 74.9104 10.8801 74.9104 13.4401V63.8401H68.1904V13.4401C68.1904 11.2641 67.7104 9.44009 66.7504 7.96809C65.8544 6.49609 63.9024 5.76009 60.8944 5.76009C58.9104 5.76009 57.0224 6.30409 55.2304 7.39209C53.5024 8.41609 52.0944 9.69608 51.0064 11.2321C49.9824 12.7041 49.4704 14.0801 49.4704 15.3601V63.8401H42.7504ZM93.1879 63.8401V1.44008H99.9079V63.8401H93.1879ZM131.831 32.1601H149.303V51.8401C149.303 56.0001 148.023 59.2961 145.463 61.7281C142.903 64.0961 138.935 65.2801 133.559 65.2801C128.183 65.2801 124.183 64.0961 121.559 61.7281C118.935 59.2961 117.623 56.0001 117.623 51.8401V13.4401C117.623 9.28008 118.903 6.01608 121.463 3.64808C124.023 1.21609 127.991 8.58307e-05 133.367 8.58307e-05C138.743 8.58307e-05 142.743 1.21609 145.367 3.64808C147.991 6.01608 149.303 9.28008 149.303 13.4401V18.7201H142.583V13.4401C142.583 11.0081 141.815 9.12008 140.279 7.77608C138.807 6.43209 136.503 5.76009 133.367 5.76009C130.295 5.76009 128.023 6.43209 126.551 7.77608C125.079 9.12008 124.343 11.0081 124.343 13.4401V51.8401C124.343 54.2081 125.079 56.0961 126.551 57.5041C128.087 58.8481 130.423 59.5201 133.559 59.5201C136.631 59.5201 138.903 58.8481 140.375 57.5041C141.847 56.0961 142.583 54.2081 142.583 51.8401V37.9201H131.831V32.1601ZM167.063 63.8401V1.44008H169.943L172.343 7.58409C173.623 5.34408 175.351 3.52008 177.527 2.11209C179.703 0.704086 182.103 8.58307e-05 184.727 8.58307e-05C188.183 8.58307e-05 190.903 0.640085 192.887 1.92008C194.871 3.20009 196.279 4.89609 197.111 7.00809C198.455 4.96009 200.151 3.29609 202.199 2.01608C204.311 0.672085 206.647 8.58307e-05 209.207 8.58307e-05C212.599 8.58307e-05 215.255 0.608086 217.175 1.82409C219.159 2.97609 220.567 4.57609 221.399 6.62409C222.295 8.60809 222.743 10.8801 222.743 13.4401V63.8401H216.023V13.4401C216.023 11.2641 215.575 9.44009 214.679 7.96809C213.783 6.49609 211.927 5.76009 209.111 5.76009C207.255 5.76009 205.495 6.30409 203.831 7.39209C202.167 8.41609 200.823 9.69608 199.799 11.2321C198.775 12.7041 198.263 14.0801 198.263 15.3601V63.8401H191.543V13.4401C191.543 11.2641 191.095 9.44009 190.199 7.96809C189.303 6.49609 187.447 5.76009 184.631 5.76009C182.775 5.76009 181.015 6.27209 179.351 7.29608C177.687 8.32009 176.343 9.56809 175.319 11.0401C174.295 12.4481 173.783 13.7921 173.783 15.0721V63.8401H167.063ZM267.818 63.8401L265.322 57.6961C264.042 59.9361 262.314 61.7601 260.138 63.1681C257.962 64.5761 255.53 65.2801 252.842 65.2801C249.45 65.2801 246.73 64.7041 244.682 63.5521C242.634 62.3361 241.162 60.7041 240.266 58.6561C239.434 56.6081 239.018 54.3361 239.018 51.8401V42.2401C239.018 39.6801 239.434 37.4081 240.266 35.4241C241.162 33.3761 242.634 31.7761 244.682 30.6241C246.73 29.4081 249.45 28.8001 252.842 28.8001H263.978V13.0561C263.978 10.8161 263.242 9.05609 261.77 7.77608C260.362 6.43209 258.186 5.76009 255.242 5.76009C252.362 5.76009 250.218 6.43209 248.81 7.77608C247.402 9.05609 246.698 10.8161 246.698 13.0561V18.7201H239.978V13.4401C239.978 9.21609 241.226 5.92009 243.722 3.55209C246.218 1.18409 250.058 8.58307e-05 255.242 8.58307e-05C260.426 8.58307e-05 264.298 1.18409 266.858 3.55209C269.418 5.92009 270.698 9.21609 270.698 13.4401V63.8401H267.818ZM263.978 34.5601H252.842C249.962 34.5601 248.042 35.2961 247.082 36.7681C246.186 38.2401 245.738 40.0641 245.738 42.2401V51.8401C245.738 54.0161 246.186 55.8401 247.082 57.3121C248.042 58.7841 249.962 59.5201 252.842 59.5201C254.762 59.5201 256.522 59.0081 258.122 57.9841C259.786 56.9601 261.162 55.7441 262.25 54.3361C263.338 52.8641 263.914 51.4881 263.978 50.2081V34.5601Z" fill="black"/>
</svg>
