<svg width="812" height="66" viewBox="0 0 812 66" fill="none" xmlns="http://www.w3.org/2000/svg">
<path d="M0.000390768 1.43984H6.72039V58.0798H24.2884V63.8398H0.000390768V1.43984ZM62.6929 63.8398L60.1969 57.6958C58.9169 59.9358 57.1889 61.7598 55.0129 63.1678C52.8369 64.5758 50.4049 65.2798 47.7169 65.2798C44.3249 65.2798 41.6049 64.7038 39.5569 63.5518C37.5089 62.3358 36.0369 60.7038 35.1409 58.6558C34.3089 56.6078 33.8929 54.3358 33.8929 51.8398V42.2398C33.8929 39.6798 34.3089 37.4078 35.1409 35.4238C36.0369 33.3758 37.5089 31.7758 39.5569 30.6238C41.6049 29.4078 44.3249 28.7998 47.7169 28.7998H58.8529V13.0558C58.8529 10.8158 58.1169 9.05584 56.6449 7.77584C55.2369 6.43184 53.0609 5.75984 50.1169 5.75984C47.2369 5.75984 45.0929 6.43184 43.6849 7.77584C42.2769 9.05584 41.5729 10.8158 41.5729 13.0558V18.7198H34.8529V13.4398C34.8529 9.21584 36.1009 5.91984 38.5969 3.55184C41.0929 1.18384 44.9329 -0.00015831 50.1169 -0.00015831C55.3009 -0.00015831 59.1729 1.18384 61.7329 3.55184C64.2929 5.91984 65.5729 9.21584 65.5729 13.4398V63.8398H62.6929ZM58.8529 34.5598H47.7169C44.8369 34.5598 42.9169 35.2958 41.9569 36.7678C41.0609 38.2398 40.6129 40.0638 40.6129 42.2398V51.8398C40.6129 54.0158 41.0609 55.8398 41.9569 57.3118C42.9169 58.7838 44.8369 59.5198 47.7169 59.5198C49.6369 59.5198 51.3969 59.0078 52.9969 57.9838C54.6609 56.9598 56.0369 55.7438 57.1249 54.3358C58.2129 52.8638 58.7889 51.4878 58.8529 50.2078V34.5598ZM105.938 63.8398V1.43984H115.346L127.058 43.5838L138.674 1.43984H148.082V63.8398H141.362V12.1918L130.13 52.3198H123.89L112.658 12.1918V63.8398H105.938ZM194.13 63.8398L191.634 57.6958C190.354 59.9358 188.626 61.7598 186.45 63.1678C184.274 64.5758 181.842 65.2798 179.154 65.2798C175.762 65.2798 173.042 64.7038 170.994 63.5518C168.946 62.3358 167.474 60.7038 166.578 58.6558C165.746 56.6078 165.33 54.3358 165.33 51.8398V42.2398C165.33 39.6798 165.746 37.4078 166.578 35.4238C167.474 33.3758 168.946 31.7758 170.994 30.6238C173.042 29.4078 175.762 28.7998 179.154 28.7998H190.29V13.0558C190.29 10.8158 189.554 9.05584 188.082 7.77584C186.674 6.43184 184.498 5.75984 181.554 5.75984C178.674 5.75984 176.53 6.43184 175.122 7.77584C173.714 9.05584 173.01 10.8158 173.01 13.0558V18.7198H166.29V13.4398C166.29 9.21584 167.538 5.91984 170.034 3.55184C172.53 1.18384 176.37 -0.00015831 181.554 -0.00015831C186.738 -0.00015831 190.61 1.18384 193.17 3.55184C195.73 5.91984 197.01 9.21584 197.01 13.4398V63.8398H194.13ZM190.29 34.5598H179.154C176.274 34.5598 174.354 35.2958 173.394 36.7678C172.498 38.2398 172.05 40.0638 172.05 42.2398V51.8398C172.05 54.0158 172.498 55.8398 173.394 57.3118C174.354 58.7838 176.274 59.5198 179.154 59.5198C181.074 59.5198 182.834 59.0078 184.434 57.9838C186.098 56.9598 187.474 55.7438 188.562 54.3358C189.65 52.8638 190.226 51.4878 190.29 50.2078V34.5598ZM238.77 46.5598H245.49V51.8398C245.49 55.9998 244.21 59.2958 241.65 61.7278C239.09 64.0958 235.122 65.2798 229.746 65.2798C224.37 65.2798 220.37 64.0958 217.746 61.7278C215.122 59.2958 213.81 55.9998 213.81 51.8398V13.4398C213.81 9.27984 215.09 6.01584 217.65 3.64784C220.21 1.21584 224.178 -0.00015831 229.554 -0.00015831C234.93 -0.00015831 238.93 1.21584 241.554 3.64784C244.178 6.01584 245.49 9.27984 245.49 13.4398V22.5598H238.77V13.4398C238.77 11.0078 238.002 9.11984 236.466 7.77584C234.994 6.43184 232.69 5.75984 229.554 5.75984C226.482 5.75984 224.21 6.43184 222.738 7.77584C221.266 9.11984 220.53 11.0078 220.53 13.4398V51.8398C220.53 54.2078 221.266 56.0958 222.738 57.5038C224.274 58.8478 226.61 59.5198 229.746 59.5198C232.818 59.5198 235.09 58.8478 236.562 57.5038C238.034 56.0958 238.77 54.2078 238.77 51.8398V46.5598ZM262.313 63.8398V1.43984H269.033V29.2798H287.945V1.43984H294.665V63.8398H287.945V35.0398H269.033V63.8398H262.313ZM313.875 63.8398V1.43984H320.595V63.8398H313.875ZM339.75 63.8398V1.43984H342.63L345.03 7.67984C346.374 5.43984 348.134 3.61584 350.31 2.20784C352.55 0.735842 355.046 -0.00015831 357.798 -0.00015831C361.318 -0.00015831 364.102 0.607841 366.15 1.82384C368.198 2.97584 369.67 4.57584 370.566 6.62384C371.462 8.60784 371.91 10.8798 371.91 13.4398V63.8398H365.19V13.4398C365.19 11.2638 364.71 9.43984 363.75 7.96784C362.854 6.49584 360.902 5.75984 357.894 5.75984C355.91 5.75984 354.022 6.30384 352.23 7.39184C350.502 8.41584 349.094 9.69584 348.006 11.2318C346.982 12.7038 346.47 14.0798 346.47 15.3598V63.8398H339.75ZM413.708 46.5598H420.428V51.8398C420.428 55.9998 419.148 59.2958 416.588 61.7278C414.028 64.0958 410.06 65.2798 404.684 65.2798C399.308 65.2798 395.308 64.0958 392.684 61.7278C390.06 59.2958 388.748 55.9998 388.748 51.8398V13.4398C388.748 9.27984 390.028 6.01584 392.588 3.64784C395.148 1.21584 399.116 -0.00015831 404.492 -0.00015831C409.868 -0.00015831 413.868 1.21584 416.492 3.64784C419.116 6.01584 420.428 9.27984 420.428 13.4398V34.5598H395.468V51.8398C395.468 54.2078 396.204 56.0958 397.676 57.5038C399.212 58.8478 401.548 59.5198 404.684 59.5198C407.756 59.5198 410.028 58.8478 411.5 57.5038C412.972 56.0958 413.708 54.2078 413.708 51.8398V46.5598ZM395.468 28.7998H413.708V13.4398C413.708 11.0078 412.94 9.11984 411.404 7.77584C409.932 6.43184 407.628 5.75984 404.492 5.75984C401.42 5.75984 399.148 6.43184 397.676 7.77584C396.204 9.11984 395.468 11.0078 395.468 13.4398V28.7998ZM460.313 63.8398V1.43984H475.769C480.889 1.43984 484.697 2.65584 487.193 5.08784C489.753 7.45584 491.033 10.7198 491.033 14.8798V50.3998C491.033 54.5598 489.785 57.8558 487.289 60.2878C484.793 62.6558 480.953 63.8398 475.769 63.8398H460.313ZM484.313 14.8798C484.313 13.0238 483.577 11.2958 482.105 9.69584C480.697 8.03184 478.585 7.19984 475.769 7.19984H467.033V58.0798H475.769C478.649 58.0798 480.793 57.2798 482.201 55.6798C483.609 54.0798 484.313 52.3198 484.313 50.3998V14.8798ZM532.302 46.5598H539.022V51.8398C539.022 55.9998 537.742 59.2958 535.182 61.7278C532.622 64.0958 528.654 65.2798 523.278 65.2798C517.902 65.2798 513.902 64.0958 511.278 61.7278C508.654 59.2958 507.342 55.9998 507.342 51.8398V13.4398C507.342 9.27984 508.622 6.01584 511.182 3.64784C513.742 1.21584 517.71 -0.00015831 523.086 -0.00015831C528.462 -0.00015831 532.462 1.21584 535.086 3.64784C537.71 6.01584 539.022 9.27984 539.022 13.4398V34.5598H514.062V51.8398C514.062 54.2078 514.798 56.0958 516.27 57.5038C517.806 58.8478 520.142 59.5198 523.278 59.5198C526.35 59.5198 528.622 58.8478 530.094 57.5038C531.566 56.0958 532.302 54.2078 532.302 51.8398V46.5598ZM514.062 28.7998H532.302V13.4398C532.302 11.0078 531.534 9.11984 529.998 7.77584C528.526 6.43184 526.222 5.75984 523.086 5.75984C520.014 5.75984 517.742 6.43184 516.27 7.77584C514.798 9.11984 514.062 11.0078 514.062 13.4398V28.7998ZM603.867 7.19984H591.387V63.8398H584.667V7.19984H572.187V1.43984H603.867V7.19984ZM615.353 1.43984H622.073V51.8398C622.073 54.0158 622.553 55.8398 623.513 57.3118C624.473 58.7838 626.425 59.5198 629.369 59.5198C631.417 59.5198 633.305 59.0078 635.033 57.9838C636.761 56.8958 638.137 55.6158 639.161 54.1438C640.249 52.6078 640.793 51.1998 640.793 49.9198V1.43984H647.513V63.8398H644.633L642.137 57.6958C640.793 59.8718 639.001 61.6958 636.761 63.1678C634.585 64.5758 632.153 65.2798 629.465 65.2798C626.009 65.2798 623.225 64.7038 621.113 63.5518C619.065 62.3358 617.593 60.7038 616.697 58.6558C615.801 56.6078 615.353 54.3358 615.353 51.8398V1.43984ZM666.75 63.8398V1.43984H669.63L672.414 8.54384C673.31 6.11184 674.526 4.09584 676.062 2.49584C677.598 0.831841 679.646 -0.00015831 682.206 -0.00015831C685.918 -0.00015831 688.734 1.05584 690.654 3.16784C692.638 5.21584 693.63 8.31984 693.63 12.4798V18.7198H687.198V12.0958C687.198 10.2398 686.782 8.73584 685.95 7.58384C685.118 6.36784 683.774 5.75984 681.918 5.75984C680.702 5.75984 679.422 6.23984 678.078 7.19984C676.798 8.15984 675.71 9.69584 674.814 11.8078C673.918 13.8558 673.47 16.5758 673.47 19.9678V63.8398H666.75ZM705.188 63.8398V1.43984H711.908V63.8398H705.188ZM731.063 63.8398V1.43984H733.943L736.343 7.67984C737.687 5.43984 739.447 3.61584 741.623 2.20784C743.863 0.735842 746.359 -0.00015831 749.111 -0.00015831C752.631 -0.00015831 755.415 0.607841 757.463 1.82384C759.511 2.97584 760.983 4.57584 761.879 6.62384C762.775 8.60784 763.223 10.8798 763.223 13.4398V63.8398H756.503V13.4398C756.503 11.2638 756.023 9.43984 755.063 7.96784C754.167 6.49584 752.215 5.75984 749.207 5.75984C747.223 5.75984 745.335 6.30384 743.543 7.39184C741.815 8.41584 740.407 9.69584 739.319 11.2318C738.295 12.7038 737.783 14.0798 737.783 15.3598V63.8398H731.063ZM794.268 32.1598H811.74V51.8398C811.74 55.9998 810.46 59.2958 807.9 61.7278C805.34 64.0958 801.372 65.2798 795.996 65.2798C790.62 65.2798 786.62 64.0958 783.996 61.7278C781.372 59.2958 780.06 55.9998 780.06 51.8398V13.4398C780.06 9.27984 781.34 6.01584 783.9 3.64784C786.46 1.21584 790.428 -0.00015831 795.804 -0.00015831C801.18 -0.00015831 805.18 1.21584 807.804 3.64784C810.428 6.01584 811.74 9.27984 811.74 13.4398V18.7198H805.02V13.4398C805.02 11.0078 804.252 9.11984 802.716 7.77584C801.244 6.43184 798.94 5.75984 795.804 5.75984C792.732 5.75984 790.46 6.43184 788.988 7.77584C787.516 9.11984 786.78 11.0078 786.78 13.4398V51.8398C786.78 54.2078 787.516 56.0958 788.988 57.5038C790.524 58.8478 792.86 59.5198 795.996 59.5198C799.068 59.5198 801.34 58.8478 802.812 57.5038C804.284 56.0958 805.02 54.2078 805.02 51.8398V37.9198H794.268V32.1598Z" fill="black"/>
</svg>
