<svg width="650" height="66" viewBox="0 0 650 66" fill="none" xmlns="http://www.w3.org/2000/svg">
<path d="M0.000390768 1.44008H6.72039V58.0801H24.2884V63.8401H0.000390768V1.44008ZM59.3329 46.5601H66.0529V51.8401C66.0529 56.0001 64.7729 59.2961 62.2129 61.7281C59.6529 64.0961 55.6849 65.2801 50.3089 65.2801C44.9329 65.2801 40.9329 64.0961 38.3089 61.7281C35.6849 59.2961 34.3729 56.0001 34.3729 51.8401V13.4401C34.3729 9.28008 35.6529 6.01608 38.2129 3.64808C40.7729 1.21609 44.7409 8.58307e-05 50.1169 8.58307e-05C55.4929 8.58307e-05 59.4929 1.21609 62.1169 3.64808C64.7409 6.01608 66.0529 9.28008 66.0529 13.4401V34.5601H41.0929V51.8401C41.0929 54.2081 41.8289 56.0961 43.3009 57.5041C44.8369 58.8481 47.1729 59.5201 50.3089 59.5201C53.3809 59.5201 55.6529 58.8481 57.1249 57.5041C58.5969 56.0961 59.3329 54.2081 59.3329 51.8401V46.5601ZM41.0929 28.8001H59.3329V13.4401C59.3329 11.0081 58.5649 9.12008 57.0289 7.77608C55.5569 6.43209 53.2529 5.76009 50.1169 5.76009C47.0449 5.76009 44.7729 6.43209 43.3009 7.77608C41.8289 9.12008 41.0929 11.0081 41.0929 13.4401V28.8001ZM130.898 7.20008H118.418V63.8401H111.698V7.20008H99.2179V1.44008H130.898V7.20008ZM166.864 46.5601H173.584V51.8401C173.584 56.0001 172.304 59.2961 169.744 61.7281C167.184 64.0961 163.216 65.2801 157.84 65.2801C152.464 65.2801 148.464 64.0961 145.84 61.7281C143.216 59.2961 141.904 56.0001 141.904 51.8401V13.4401C141.904 9.28008 143.184 6.01608 145.744 3.64808C148.304 1.21609 152.272 8.58307e-05 157.648 8.58307e-05C163.024 8.58307e-05 167.024 1.21609 169.648 3.64808C172.272 6.01608 173.584 9.28008 173.584 13.4401V34.5601H148.624V51.8401C148.624 54.2081 149.36 56.0961 150.832 57.5041C152.368 58.8481 154.704 59.5201 157.84 59.5201C160.912 59.5201 163.184 58.8481 164.656 57.5041C166.128 56.0961 166.864 54.2081 166.864 51.8401V46.5601ZM148.624 28.8001H166.864V13.4401C166.864 11.0081 166.096 9.12008 164.56 7.77608C163.088 6.43209 160.784 5.76009 157.648 5.76009C154.576 5.76009 152.304 6.43209 150.832 7.77608C149.36 9.12008 148.624 11.0081 148.624 13.4401V28.8001ZM216.976 38.7841C218.896 40.8321 220.176 42.8161 220.816 44.7361C221.52 46.6561 221.872 49.0241 221.872 51.8401C221.872 56.0001 220.592 59.2961 218.032 61.7281C215.472 64.0961 211.344 65.2801 205.648 65.2801C200.016 65.2801 195.888 64.0961 193.264 61.7281C190.704 59.2961 189.424 56.0001 189.424 51.8401V43.6801H196.144V52.2241C196.144 54.4001 196.912 56.1601 198.448 57.5041C200.048 58.8481 202.448 59.5201 205.648 59.5201C208.848 59.5201 211.216 58.8481 212.752 57.5041C214.352 56.1601 215.152 54.4001 215.152 52.2241C215.152 50.2401 214.928 48.5761 214.48 47.2321C214.096 45.8881 213.104 44.4481 211.504 42.9121L194.608 26.4001C192.624 24.3521 191.248 22.3681 190.48 20.4481C189.776 18.5281 189.424 16.1921 189.424 13.4401C189.424 9.28008 190.736 6.01608 193.36 3.64808C195.984 1.21609 200.016 8.58307e-05 205.456 8.58307e-05C210.832 8.58307e-05 214.736 1.21609 217.168 3.64808C219.664 6.01608 220.912 9.28008 220.912 13.4401V21.6001H214.192V13.0561C214.192 10.8161 213.456 9.05609 211.984 7.77608C210.512 6.43209 208.24 5.76009 205.168 5.76009C202.096 5.76009 199.824 6.43209 198.352 7.77608C196.88 9.05609 196.144 10.8161 196.144 13.0561C196.144 15.0401 196.336 16.7041 196.72 18.0481C197.168 19.3921 198.192 20.8001 199.792 22.2721L216.976 38.7841ZM259.317 1.44008V7.20008H244.917V53.1841C244.917 54.9121 245.365 56.4161 246.261 57.6961C247.157 58.9121 248.501 59.5201 250.293 59.5201C252.021 59.5201 253.301 58.9121 254.133 57.6961C255.029 56.4161 255.477 54.9121 255.477 53.1841V41.7601H262.197V52.8001C262.197 56.9601 261.077 60.0961 258.837 62.2081C256.661 64.2561 253.813 65.2801 250.293 65.2801C246.773 65.2801 243.861 64.2561 241.557 62.2081C239.317 60.0961 238.197 56.9601 238.197 52.8001V1.44008H259.317ZM297.75 63.8401V1.44008H313.206C318.326 1.44008 322.134 2.65608 324.63 5.08808C327.19 7.45608 328.47 10.7201 328.47 14.8801V50.4001C328.47 54.5601 327.222 57.8561 324.726 60.2881C322.23 62.6561 318.39 63.8401 313.206 63.8401H297.75ZM321.75 14.8801C321.75 13.0241 321.014 11.2961 319.542 9.69609C318.134 8.03209 316.022 7.20008 313.206 7.20008H304.47V58.0801H313.206C316.086 58.0801 318.23 57.2801 319.638 55.6801C321.046 54.0801 321.75 52.3201 321.75 50.4001V14.8801ZM369.739 46.5601H376.459V51.8401C376.459 56.0001 375.179 59.2961 372.619 61.7281C370.059 64.0961 366.091 65.2801 360.715 65.2801C355.339 65.2801 351.339 64.0961 348.715 61.7281C346.091 59.2961 344.779 56.0001 344.779 51.8401V13.4401C344.779 9.28008 346.059 6.01608 348.619 3.64808C351.179 1.21609 355.147 8.58307e-05 360.523 8.58307e-05C365.899 8.58307e-05 369.899 1.21609 372.523 3.64808C375.147 6.01608 376.459 9.28008 376.459 13.4401V34.5601H351.499V51.8401C351.499 54.2081 352.235 56.0961 353.707 57.5041C355.243 58.8481 357.579 59.5201 360.715 59.5201C363.787 59.5201 366.059 58.8481 367.531 57.5041C369.003 56.0961 369.739 54.2081 369.739 51.8401V46.5601ZM351.499 28.8001H369.739V13.4401C369.739 11.0081 368.971 9.12008 367.435 7.77608C365.963 6.43209 363.659 5.76009 360.523 5.76009C357.451 5.76009 355.179 6.43209 353.707 7.77608C352.235 9.12008 351.499 11.0081 351.499 13.4401V28.8001ZM441.304 7.20008H428.824V63.8401H422.104V7.20008H409.624V1.44008H441.304V7.20008ZM452.79 1.44008H459.51V51.8401C459.51 54.0161 459.99 55.8401 460.95 57.3121C461.91 58.7841 463.862 59.5201 466.806 59.5201C468.854 59.5201 470.742 59.0081 472.47 57.9841C474.198 56.8961 475.574 55.6161 476.598 54.1441C477.686 52.6081 478.23 51.2001 478.23 49.9201V1.44008H484.95V63.8401H482.07L479.574 57.6961C478.23 59.8721 476.438 61.6961 474.198 63.1681C472.022 64.5761 469.59 65.2801 466.902 65.2801C463.446 65.2801 460.662 64.7041 458.55 63.5521C456.502 62.3361 455.03 60.7041 454.134 58.6561C453.238 56.6081 452.79 54.3361 452.79 51.8401V1.44008ZM504.188 63.8401V1.44008H507.068L509.852 8.54408C510.748 6.11209 511.964 4.09608 513.5 2.49608C515.036 0.832085 517.084 8.58307e-05 519.644 8.58307e-05C523.356 8.58307e-05 526.172 1.05609 528.092 3.16809C530.076 5.21609 531.068 8.32009 531.068 12.4801V18.7201H524.636V12.0961C524.636 10.2401 524.22 8.73609 523.388 7.58409C522.556 6.36809 521.212 5.76009 519.356 5.76009C518.14 5.76009 516.86 6.24009 515.516 7.20008C514.236 8.16008 513.148 9.69608 512.252 11.8081C511.356 13.8561 510.908 16.5761 510.908 19.9681V63.8401H504.188ZM542.625 63.8401V1.44008H549.345V63.8401H542.625ZM568.5 63.8401V1.44008H571.38L573.78 7.68008C575.124 5.44009 576.884 3.61609 579.06 2.20809C581.3 0.736086 583.796 8.58307e-05 586.548 8.58307e-05C590.068 8.58307e-05 592.852 0.608086 594.9 1.82409C596.948 2.97609 598.42 4.57609 599.316 6.62409C600.212 8.60809 600.66 10.8801 600.66 13.4401V63.8401H593.94V13.4401C593.94 11.2641 593.46 9.44009 592.5 7.96809C591.604 6.49609 589.652 5.76009 586.644 5.76009C584.66 5.76009 582.772 6.30409 580.98 7.39209C579.252 8.41609 577.844 9.69608 576.756 11.2321C575.732 12.7041 575.22 14.0801 575.22 15.3601V63.8401H568.5ZM631.706 32.1601H649.178V51.8401C649.178 56.0001 647.898 59.2961 645.338 61.7281C642.778 64.0961 638.81 65.2801 633.434 65.2801C628.058 65.2801 624.058 64.0961 621.434 61.7281C618.81 59.2961 617.498 56.0001 617.498 51.8401V13.4401C617.498 9.28008 618.778 6.01608 621.338 3.64808C623.898 1.21609 627.866 8.58307e-05 633.242 8.58307e-05C638.618 8.58307e-05 642.618 1.21609 645.242 3.64808C647.866 6.01608 649.178 9.28008 649.178 13.4401V18.7201H642.458V13.4401C642.458 11.0081 641.69 9.12008 640.154 7.77608C638.682 6.43209 636.378 5.76009 633.242 5.76009C630.17 5.76009 627.898 6.43209 626.426 7.77608C624.954 9.12008 624.218 11.0081 624.218 13.4401V51.8401C624.218 54.2081 624.954 56.0961 626.426 57.5041C627.962 58.8481 630.298 59.5201 633.434 59.5201C636.506 59.5201 638.778 58.8481 640.25 57.5041C641.722 56.0961 642.458 54.2081 642.458 51.8401V37.9201H631.706V32.1601Z" fill="black"/>
</svg>
