<svg width="685" height="98" viewBox="0 0 685 98" fill="none" xmlns="http://www.w3.org/2000/svg">
<path d="M36.2882 2.16L57.4562 95.76H47.3762L42.4802 74.16H14.9762L10.0802 95.76H0.000234783L21.1682 2.16H36.2882ZM16.8482 65.52H40.4642L28.6562 13.392L16.8482 65.52ZM77.5465 2.16H87.6265V87.12H113.978V95.76H77.5465V2.16ZM158.913 2.16L180.081 95.76H170.001L165.105 74.16H137.601L132.705 95.76H122.625L143.793 2.16H158.913ZM139.473 65.52H163.089L151.281 13.392L139.473 65.52ZM200.171 95.76V2.16H209.819L241.499 74.16V2.16H251.579V95.76H241.931L210.251 23.76V95.76H200.171ZM350.955 10.8H332.235V95.76H322.155V10.8H303.435V2.16H350.955V10.8ZM407.065 2.16H417.145V77.76C417.145 84 415.129 88.944 411.097 92.592C407.161 96.144 401.065 97.92 392.809 97.92C384.553 97.92 378.361 96.144 374.233 92.592C370.201 88.944 368.185 84 368.185 77.76V2.16H378.265V77.76C378.265 81.312 379.465 84.144 381.865 86.256C384.265 88.272 387.913 89.28 392.809 89.28C397.609 89.28 401.161 88.272 403.465 86.256C405.865 84.144 407.065 81.312 407.065 77.76V2.16ZM444.437 95.76V2.16H466.181C473.861 2.16 479.573 3.984 483.317 7.632C487.157 11.184 489.077 16.08 489.077 22.32V42.48C489.077 47.184 488.021 51.168 485.909 54.432C483.797 57.6 480.629 59.856 476.405 61.2L494.117 95.76H483.029L466.181 62.64H454.517V95.76H444.437ZM478.997 22.32C478.997 18.768 477.893 15.984 475.685 13.968C473.573 11.856 470.405 10.8 466.181 10.8H454.517V54H466.181C470.501 54 473.717 52.992 475.829 50.976C477.941 48.864 478.997 46.032 478.997 42.48V22.32ZM534.488 95.76H510.008V87.12H517.208V10.8H510.008V2.16H534.488V10.8H527.288V87.12H534.488V95.76ZM558.906 95.76V2.16H568.554L600.234 74.16V2.16H610.314V95.76H600.666L568.986 23.76V95.76H558.906ZM658.214 48.24H684.422V95.76H680.102L676.358 86.544C674.438 89.808 671.846 92.544 668.582 94.752C665.318 96.864 661.718 97.92 657.782 97.92C652.598 97.92 648.47 97.056 645.398 95.328C642.326 93.504 640.118 91.056 638.774 87.984C637.526 84.912 636.902 81.504 636.902 77.76V20.16C636.902 13.92 638.822 9.024 642.662 5.472C646.502 1.82401 652.454 6.67572e-06 660.518 6.67572e-06C668.582 6.67572e-06 674.582 1.82401 678.518 5.472C682.454 9.024 684.422 13.92 684.422 20.16V28.08H674.342V20.16C674.342 16.512 673.19 13.68 670.886 11.664C668.678 9.64801 665.222 8.64001 660.518 8.64001C655.91 8.64001 652.502 9.64801 650.294 11.664C648.086 13.68 646.982 16.512 646.982 20.16V77.76C646.982 81.024 647.654 83.76 648.998 85.968C650.438 88.176 653.318 89.28 657.638 89.28C660.614 89.28 663.35 88.512 665.846 86.976C668.342 85.344 670.358 83.424 671.894 81.216C673.526 78.912 674.342 76.8 674.342 74.88V56.88H658.214V48.24Z" fill="black"/>
</svg>
