<svg width="1080" height="1583" viewBox="0 0 1080 1583" fill="none" xmlns="http://www.w3.org/2000/svg">
<path d="M518.757 9283.6C440.187 9330.13 358.307 9370.71 276.457 9411.08L276.397 9411.1C265.087 9416.68 252.607 9413.87 245.617 9403.03C239.347 9393.32 243.107 9377.47 253.687 9372.25C328.947 9335.13 404.197 9297.84 476.927 9255.91C516.037 9233.36 554.407 9209.48 591.407 9183.6C600.607 9177.16 609.737 9170.6 618.757 9163.91C623.267 9160.57 627.747 9157.2 632.207 9153.79C632.576 9153.5 633.799 9152.57 634.498 9152.04C634.882 9151.74 635.265 9151.44 635.647 9151.14C637.857 9149.41 640.057 9147.68 642.257 9145.94C659.837 9132.02 676.977 9117.55 693.567 9102.47C710.197 9087.36 726.277 9071.64 741.697 9055.29C749.337 9047.18 756.837 9038.93 764.087 9030.47C767.707 9026.25 771.267 9021.98 774.767 9017.66C776.517 9015.5 778.257 9013.32 779.977 9011.13C780.117 9010.95 783.457 9006.58 781.297 9009.44C779.137 9012.3 782.457 9007.91 782.587 9007.73C795.977 8990 808.277 8971.39 818.797 8951.8C821.397 8946.95 823.897 8942.05 826.277 8937.08C827.457 8934.61 828.617 8932.12 829.737 8929.62C830.284 8928.4 830.803 8927.17 831.347 8925.95C835.427 8915.86 839.097 8905.58 842.047 8895.14C844.997 8884.7 847.207 8874.12 848.867 8863.4C849.737 8857.83 848.337 8868.55 848.917 8862.93C849.057 8861.58 849.227 8860.23 849.357 8858.88C849.597 8856.44 849.807 8854 849.967 8851.56C850.327 8846.1 850.497 8840.62 850.457 8835.15C850.427 8830.27 850.227 8825.39 849.867 8820.53C849.697 8818.12 849.477 8815.71 849.217 8813.31L849.142 8812.64C849.05 8811.85 848.95 8811.06 848.859 8810.27C847.408 8801 845.507 8791.81 842.967 8782.78C841.687 8778.21 840.267 8773.69 838.717 8769.21C837.937 8766.97 837.127 8764.75 836.287 8762.53C835.657 8760.85 833.784 8757.81 833.671 8756C833.2 8754.93 832.718 8753.87 832.237 8752.81C831.347 8750.87 830.437 8748.93 829.497 8747.01C827.407 8742.73 825.197 8738.5 822.877 8734.33C818.207 8725.93 813.097 8717.78 807.617 8709.88C806.097 8707.7 804.547 8705.53 802.977 8703.38C802.007 8702.05 800.527 8698.89 799.047 8698.13C801.077 8700.75 801.357 8701.12 799.877 8699.22L798.967 8698.07C798.357 8697.3 797.747 8696.54 797.137 8695.78C795.607 8693.87 794.047 8691.99 792.467 8690.12C779.677 8674.98 765.597 8660.95 750.607 8647.98C746.627 8644.54 742.577 8641.17 738.477 8637.88C736.747 8636.49 735.037 8634.88 733.157 8633.68C738.637 8637.16 731.817 8632.68 730.507 8631.71C722.437 8625.69 714.157 8619.93 705.717 8614.44C688.917 8603.52 671.447 8593.63 653.467 8584.8C644.5 8580.4 635.408 8576.1 626.157 8572.31C625.364 8571.99 623.821 8571.37 623.267 8571.14C621.607 8570.45 619.947 8569.77 618.287 8569.1C615.797 8568.09 613.297 8567.1 610.797 8566.11C605.517 8564.03 600.207 8562 594.887 8560.02C503.857 8526.09 408.507 8505.22 319.037 8466.88C241.227 8433.54 160.717 8381.33 132.037 8297.3C118.327 8257.11 120.817 8212.55 137.027 8173.51C154.277 8132 183.157 8097.61 218.857 8070.63C255.447 8042.97 299.757 8026.12 344.217 8016.09C391.807 8005.35 440.787 8001.75 489.407 7999.4C513.497 7998.24 537.597 7997.34 561.667 7995.85C573.777 7995.09 585.867 7994.2 597.937 7993.05C604.557 7992.42 611.177 7991.72 617.777 7990.92C618.967 7990.78 620.167 7990.63 621.367 7990.48L622 7990.4C622.409 7990.34 622.96 7990.27 623.476 7990.2C624.51 7990.06 626.056 7989.85 626.137 7989.84C627.337 7989.67 628.527 7989.5 629.717 7989.32C653.727 7985.74 677.557 7980.7 700.717 7973.36C706.717 7971.46 712.667 7969.41 718.557 7967.19C721.367 7966.13 724.147 7965 726.947 7963.9C727.289 7963.76 727.552 7963.66 727.749 7963.59C727.992 7963.48 728.292 7963.35 728.657 7963.19C731.117 7962.12 733.557 7961 735.987 7959.84C754.587 7950.98 772.297 7940.18 788.937 7928.04C790.457 7926.93 791.967 7925.81 793.467 7924.68C793.714 7924.5 793.958 7924.31 794.201 7924.12C796.806 7922.06 799.4 7919.98 801.957 7917.86C807.847 7912.95 813.577 7907.85 819.117 7902.56C825.027 7896.92 830.727 7891.06 836.197 7884.98C839.187 7881.66 842.117 7878.26 844.967 7874.81C846.347 7873.13 847.717 7871.44 849.067 7869.73C849.607 7869.05 850.127 7868.33 850.687 7867.66C850.515 7867.86 850.355 7868.05 850.206 7868.23C850.133 7868.32 850.06 7868.42 849.987 7868.52C849.098 7869.7 846.956 7872.06 850.206 7868.23C861.296 7853.35 871.091 7837.56 879.237 7820.88C880.427 7818.44 881.587 7815.99 882.707 7813.52C883.283 7812.25 886.315 7804.42 884.085 7810.5C885.744 7805.98 887.673 7801.57 889.297 7797.05C893.247 7786.04 896.537 7774.8 899.137 7763.4C900.497 7757.45 901.667 7751.45 902.647 7745.43C902.907 7743.82 904.739 7735.08 903.318 7741.23C903.868 7738.83 903.909 7736.2 904.157 7733.76C905.247 7722.94 905.737 7712.06 905.637 7701.18C905.537 7690.84 904.917 7680.51 903.807 7670.23C903.67 7668.97 903.517 7667.71 903.367 7666.46C902.536 7664.73 902.541 7663.7 902.737 7663.66C902.561 7662.11 902.514 7660.42 902.327 7659.29C901.597 7654.79 900.777 7650.31 899.867 7645.84C896.367 7628.67 891.537 7611.78 885.507 7595.33C884.107 7591.5 882.637 7587.7 881.107 7583.92C880.896 7583.39 880.679 7582.87 880.465 7582.35L880.242 7581.83C879.726 7580.64 879.21 7579.45 878.677 7578.27C876.037 7572.37 873.247 7566.55 870.267 7560.82C866.047 7552.7 861.517 7544.67 856.307 7537.14C855.527 7536.01 854.687 7534.92 853.897 7533.79C860.047 7542.6 854.427 7534.74 852.527 7532.54C845.027 7523.85 837.427 7515.25 829.717 7506.75C799.117 7473 766.727 7440.82 731.947 7411.36C723.237 7403.99 714.357 7396.82 705.387 7389.77C705.24 7389.65 705.11 7389.55 704.995 7389.46C704.854 7389.35 704.692 7389.23 704.507 7389.09C703.597 7388.4 702.687 7387.7 701.777 7387.01C699.487 7385.28 697.197 7383.56 694.897 7381.85C690.287 7378.43 685.627 7375.05 680.937 7371.73C662.257 7358.5 643.037 7345.62 622.877 7334.73C618.067 7332.13 613.197 7329.66 608.257 7327.31C605.787 7326.14 603.307 7324.99 600.807 7323.88C599.807 7323.44 598.797 7323.01 597.797 7322.56C597.667 7322.5 597.546 7322.45 597.434 7322.4C597.335 7322.36 597.229 7322.31 597.117 7322.27C586.897 7318.16 576.587 7314.37 566.067 7311.09C544.727 7304.43 522.847 7299.56 500.777 7296.02C497.987 7295.57 495.187 7295.15 492.387 7294.74C491.339 7294.59 490.294 7294.43 489.248 7294.28C488.989 7294.25 488.657 7294.21 488.237 7294.16C482.577 7293.46 476.917 7292.79 471.247 7292.22C459.837 7291.07 448.397 7290.21 436.947 7289.59C413.927 7288.35 390.857 7288.06 367.807 7288.38C347.737 7288.65 327.667 7289.86 307.597 7289.48C288.317 7289.12 269.167 7287.41 250.067 7284.81C213.907 7279.9 178.567 7270.4 145.577 7254.61C113.807 7239.4 85.3874 7216.97 65.6974 7187.56C43.5074 7154.43 35.8474 7113.92 41.8474 7074.81C47.9474 7035.03 70.7173 6998.57 98.6073 6970.29C128.547 6939.93 165.827 6917.24 205.827 6902.8C251.847 6886.18 302.667 6882.83 351.217 6882.52C402.477 6882.19 453.677 6886.14 504.947 6885.36C517.727 6885.16 530.507 6884.67 543.257 6883.74C548.727 6883.34 554.197 6882.86 559.657 6882.25C561.687 6882.02 563.717 6881.66 565.747 6881.51C558.267 6882.05 566.077 6881.44 567.907 6881.16C586.207 6878.35 604.287 6874.13 621.927 6868.51C630.682 6865.73 639.299 6862.56 647.799 6859.09C647.802 6859.09 647.805 6859.09 647.807 6859.09C649.077 6858.53 650.347 6857.98 651.607 6857.41C653.497 6856.56 655.377 6855.69 657.247 6854.8C661.177 6852.94 665.067 6850.99 668.917 6848.95C676.927 6844.71 684.727 6840.08 692.267 6835.06C695.926 6832.62 699.496 6830.08 703.021 6827.46C706.137 6824.22 705.519 6825.34 704.348 6826.42C704.563 6826.26 704.773 6826.1 704.967 6825.95C706.687 6824.57 708.377 6823.16 710.057 6821.73C716.687 6816.07 722.977 6810 728.817 6803.53C730.547 6801.61 732.247 6799.65 733.897 6797.66C734.184 6797.32 734.95 6796.37 735.641 6795.51C736.262 6794.67 737.838 6792.58 738.247 6792.01C739.487 6790.26 740.697 6788.5 741.877 6786.71C746.519 6779.66 750.626 6772.26 754.103 6764.57C754.502 6763.12 755.046 6762.06 755.02 6762.3C755.176 6761.95 755.327 6761.59 755.457 6761.25C756.147 6759.43 756.807 6757.59 757.427 6755.74C758.757 6751.8 759.927 6747.81 760.927 6743.77C761.567 6741.19 762.137 6738.58 762.647 6735.97C763.001 6734.18 762.853 6730.73 763.769 6729.21C763.84 6728.57 763.908 6727.94 763.967 6727.3C764.177 6725.18 764.337 6723.06 764.447 6720.94C764.727 6715.82 764.737 6710.69 764.487 6705.57C764.387 6703.5 764.247 6701.43 764.057 6699.36C763.986 6698.61 763.906 6697.87 763.829 6697.13C761.73 6688.46 760.615 6679.71 757.867 6671.13C757.037 6668.52 756.127 6665.92 755.167 6663.35L754.873 6662.58C754.644 6661.97 754.416 6661.37 754.177 6660.78C754.174 6660.77 754.171 6660.76 754.168 6660.75C753.886 6660.04 753.355 6659.14 753.026 6658.65C751.598 6655.75 750.477 6652.56 749.047 6649.76C744.797 6641.41 739.927 6633.39 734.577 6625.7C733.213 6623.73 731.791 6621.79 730.366 6619.86C729.884 6619.4 727.967 6616.79 727.777 6616.56C725.047 6613.19 722.217 6609.9 719.317 6606.68C712.767 6599.42 705.807 6592.54 698.527 6586.02C694.477 6582.39 690.317 6578.87 686.067 6575.47C685.409 6574.94 684.75 6574.43 684.092 6573.91C682.311 6572.59 680.549 6571.24 678.747 6569.94C662.557 6558.19 645.277 6547.93 627.257 6539.25C624.567 6537.96 621.857 6536.69 619.137 6535.47C618.237 6535.06 617.327 6534.66 616.417 6534.26C615.507 6533.87 614.597 6533.47 613.687 6533.08L616.327 6534.19C613.197 6531.84 607.617 6530.66 603.957 6529.3C593.957 6525.58 583.777 6522.42 573.507 6519.54C480.587 6493.46 382.377 6492.62 290.277 6463.1C268.627 6456.17 247.297 6447.78 227.337 6436.84C208.437 6426.49 190.777 6413.91 174.347 6399.99C143.907 6374.19 117.427 6341.55 101.537 6304.76C85.1173 6266.74 78.9973 6224.86 90.3873 6184.44C101.177 6146.15 125.577 6114.51 157.497 6091.37C186.947 6070.01 222.937 6057.15 258.607 6051.07C298.507 6044.27 338.177 6044.92 378.037 6051.66C426.157 6059.8 472.627 6075.08 519.297 6088.94C542.467 6095.82 565.747 6102.38 589.367 6107.57C601.137 6110.15 612.977 6112.39 624.897 6114.15C626.187 6114.34 631.597 6115.45 626.077 6114.34C627.237 6114.57 628.487 6114.65 629.667 6114.79C632.667 6115.16 635.667 6115.49 638.667 6115.79C643.177 6116.24 647.697 6116.59 652.227 6116.81C661.067 6117.25 669.917 6117.25 678.757 6116.84C683.217 6116.63 687.677 6116.32 692.117 6115.9C694.337 6115.69 696.567 6115.45 698.787 6115.19C699.206 6115.14 699.636 6115.07 700.067 6115.01C698.217 6115.17 695.576 6115.15 701.184 6114.87C718.702 6112.28 735.99 6108.04 752.657 6102.05C754.727 6101.31 756.797 6100.53 758.847 6099.73C760.597 6099.04 767.037 6095.7 760.777 6099C764.617 6096.98 768.747 6095.44 772.637 6093.5C780.317 6089.67 787.777 6085.38 794.917 6080.61C796.687 6079.43 798.427 6078.23 800.147 6076.99C801.667 6075.91 806.957 6071.21 801.667 6075.96C804.777 6073.17 808.157 6070.68 811.257 6067.87C817.285 6062.39 822.783 6056.44 827.959 6050.16C828.373 6049.6 828.797 6049.03 829.207 6048.46C830.407 6046.78 831.567 6045.08 832.697 6043.36C834.957 6039.91 837.057 6036.35 838.997 6032.7C839.967 6030.86 840.897 6029.01 841.787 6027.13C842.737 6025.14 844.387 6018.97 842.547 6025.62C843.667 6021.58 845.527 6017.73 846.757 6013.64C847.987 6009.55 849.017 6005.4 849.857 6001.21C850.277 5999.14 850.647 5997.06 850.977 5994.98C851.107 5994.16 851.187 5993.29 851.357 5992.47C851.306 5992.72 851.258 5992.95 851.214 5993.17C851.205 5993.25 851.196 5993.33 851.187 5993.41C851.004 5995.05 850.012 5999.06 851.214 5993.17C852.133 5984.72 852.415 5976.43 852.207 5967.72C851.997 5958.93 851.277 5950.16 850.207 5941.43C850.011 5939.83 849.283 5935.41 850.265 5941.76C850.149 5940.99 850.051 5940.21 849.937 5939.44C849.617 5937.22 849.267 5935 848.907 5932.78C848.177 5928.31 847.377 5923.85 846.517 5919.41C843.215 5902.33 839.107 5885.41 835.003 5868.5L834.377 5865.93L834.361 5865.86C818.473 5800.41 798.517 5718.2 856.057 5666.5C882.207 5643 915.577 5633.29 950.317 5633.47C984.017 5633.64 1017.41 5641.34 1050.25 5648.11C1058.3 5649.76 1066.35 5651.4 1074.43 5652.89C1078.42 5653.62 1082.41 5654.33 1086.41 5654.98C1088.39 5655.3 1090.37 5655.61 1092.36 5655.91C1093.32 5656.05 1096.09 5656.37 1096.93 5656.46C1110.97 5657.93 1124.93 5659.04 1139.08 5657.91C1140.87 5657.76 1142.67 5657.51 1144.46 5657.33C1144.8 5657.28 1145.14 5657.23 1145.49 5657.17C1148.83 5656.59 1152.15 5655.88 1155.42 5655.01C1158.51 5654.19 1161.56 5653.24 1164.57 5652.14C1164.85 5652.01 1165.54 5651.73 1166.85 5651.23C1168.19 5650.6 1169.53 5649.97 1170.85 5649.28C1174.21 5647.52 1177.47 5645.55 1180.6 5643.4C1180.99 5643.13 1181.38 5642.85 1181.77 5642.57C1182.93 5641.58 1184.17 5640.66 1185.31 5639.65C1188.28 5637.01 1191.09 5634.21 1193.7 5631.22C1193.4 5631.4 1193.68 5630.84 1195.7 5628.77C1196.46 5627.69 1197.21 5626.61 1197.92 5625.5C1199.85 5622.45 1201.38 5619.25 1203.01 5616.06C1203.12 5615.78 1203.23 5615.5 1203.33 5615.22C1203.94 5613.54 1204.48 5611.85 1204.97 5610.13C1205.55 5608.08 1206.05 5606 1206.47 5603.91C1206.55 5603.51 1206.71 5602.57 1206.85 5601.7C1206.95 5600.78 1207.06 5599.74 1207.09 5599.31C1207.22 5597.52 1207.29 5595.72 1207.31 5593.93C1207.35 5590.14 1207.07 5586.39 1206.75 5582.62C1206.74 5582.56 1206.73 5582.5 1206.72 5582.44C1206.41 5580.6 1206.06 5578.76 1205.66 5576.93C1204 5569.28 1201.22 5562.2 1198.68 5554.84C1201.17 5562.07 1198.37 5554.31 1197.53 5552.54C1196.74 5550.89 1195.92 5549.26 1195.08 5547.64C1193.27 5544.16 1191.34 5540.75 1189.31 5537.41C1187.02 5533.64 1184.58 5529.95 1182.03 5526.35C1180.98 5524.86 1179.89 5523.42 1178.82 5521.95C1178.34 5521.36 1177.87 5520.75 1177.39 5520.16C1171.89 5513.39 1165.97 5506.96 1159.7 5500.89C1156.37 5497.67 1152.94 5494.55 1149.42 5491.54C1147.91 5490.25 1146.38 5488.97 1144.83 5487.72C1143.97 5487.02 1142.99 5486.38 1142.14 5485.64C1135.33 5480.67 1128.37 5475.95 1121.06 5471.74C1117.09 5469.45 1113.05 5467.29 1108.93 5465.28C1107.18 5464.42 1105.42 5463.59 1103.64 5462.79C1102.88 5462.45 1102.1 5462.14 1101.33 5461.81C1083.7 5455.11 1065.4 5451.24 1046.82 5448.17C1041.5 5447.3 1036.16 5446.52 1030.82 5445.76C1029.84 5445.63 1028.86 5445.5 1027.87 5445.38C1025.26 5445.05 1022.64 5444.73 1020.02 5444.42C1009.52 5443.18 998.987 5442.09 988.467 5441.04L986.972 5440.89C965.031 5438.7 943.101 5436.51 921.247 5433.53C879.687 5427.87 838.127 5418.34 801.297 5397.49C767.187 5378.18 739.267 5349.35 719.697 5315.5C682.637 5251.41 673.707 5175.91 657.907 5104.85C653.897 5086.85 649.487 5068.93 644.117 5051.28C641.467 5042.58 638.587 5033.94 635.397 5025.42C634.447 5022.88 633.477 5020.35 632.467 5017.83C631.797 5016.16 628.367 5009.37 631.637 5015.7C629.797 5012.12 628.387 5008.26 626.667 5004.62C619.197 4988.81 610.297 4973.7 599.967 4959.58C598.887 4958.1 593.317 4951.63 598.207 4957.16C596.847 4955.61 595.637 4953.91 594.327 4952.32C591.987 4949.47 589.587 4946.66 587.127 4943.91C581.587 4937.71 575.567 4931.59 569.687 4926.09C563.807 4920.59 557.657 4915.42 551.377 4910.39C551.353 4910.37 551.329 4910.35 551.306 4910.33C550.78 4909.93 550.253 4909.53 549.727 4909.14C548.117 4907.94 546.497 4906.75 544.867 4905.58C541.767 4903.35 538.617 4901.18 535.437 4899.07C521.907 4890.08 507.727 4882.1 493.147 4874.95C485.888 4871.39 478.505 4868.11 471.1 4864.86L470.797 4864.74L469.995 4864.41C469.489 4864.2 468.981 4863.99 468.477 4863.79C466.537 4863 464.597 4862.23 462.647 4861.46C458.927 4859.99 455.197 4858.57 451.447 4857.18C435.377 4851.24 419.067 4845.97 402.637 4841.14C333.957 4820.98 263.387 4808.29 194.147 4790.35C122.717 4771.84 50.7274 4747.56 -9.85266 4704.32C-77.1527 4656.28 -131.133 4589.89 -163.953 4513.94C-180.413 4475.86 -192.063 4437.8 -197.863 4395.12C-203.663 4352.44 -203.223 4310.1 -196.473 4267.55C-183.653 4186.71 -146.823 4110.57 -94.6927 4047.83C-68.5927 4016.42 -38.0927 3988.84 -4.53265 3965.59C31.4273 3940.67 71.4673 3921.97 113.037 3908.51C202.417 3879.58 297.877 3876.2 391.057 3876.24C438.177 3876.26 485.307 3877.2 532.427 3876.4C555.847 3876 579.257 3875.17 602.627 3873.57C613.967 3872.79 625.307 3871.86 636.607 3870.64C639.287 3870.35 641.957 3870.04 644.627 3869.7C645.527 3869.59 646.417 3869.47 647.307 3869.36C646.933 3869.4 646.592 3869.44 646.282 3869.48C646.194 3869.49 646.106 3869.51 646.017 3869.52C644.529 3869.73 641.229 3870.08 646.282 3869.48C650.463 3868.88 654.625 3868.23 658.787 3867.53C695.377 3861.33 731.277 3850.99 765.707 3837.16C768.191 3836.16 770.655 3834.95 773.181 3834.06C773.867 3833.76 774.554 3833.47 775.237 3833.17C779.317 3831.39 783.367 3829.55 787.397 3827.67C795.857 3823.72 804.207 3819.53 812.437 3815.12C828.707 3806.41 844.507 3796.79 859.667 3786.26C863.597 3783.53 867.477 3780.74 871.307 3777.89C872.927 3776.69 874.477 3775.28 876.187 3774.21C870.337 3777.88 876.627 3773.85 878.027 3772.73C885.017 3767.16 891.817 3761.37 898.407 3755.35C911.257 3743.61 923.307 3730.99 934.247 3717.46C935.047 3716.47 935.837 3715.46 936.637 3714.46C936.639 3714.46 936.64 3714.45 936.641 3714.45C937.652 3713.11 938.667 3711.76 939.667 3710.4C942.027 3707.17 944.317 3703.89 946.547 3700.57C951.177 3693.65 955.497 3686.53 959.467 3679.21C961.537 3675.41 963.497 3671.55 965.357 3667.65C966.157 3665.99 966.927 3664.31 967.687 3662.63C968.114 3661.68 968.482 3660.68 968.929 3659.74C971.733 3652.66 974.288 3645.5 976.407 3638.2C978.677 3630.38 980.517 3622.44 981.877 3614.41C982.207 3612.5 982.997 3603.91 982.337 3611.9C982.507 3609.86 982.827 3607.82 983.027 3605.78C983.387 3602.08 983.647 3598.37 983.807 3594.66C984.177 3586.28 984.027 3577.87 983.377 3569.5C983.187 3566.94 982.937 3564.38 982.647 3561.83C982.608 3561.49 982.558 3561.15 982.51 3560.81C982.677 3562.65 982.671 3565.23 982.358 3559.63C981.784 3555.88 981.116 3552.14 980.347 3548.42C978.637 3540.12 976.467 3531.91 973.837 3523.86C972.437 3519.57 970.907 3515.32 969.237 3511.12C969.066 3510.68 968.891 3510.25 968.716 3509.82C968.032 3508.32 967.394 3506.81 966.707 3505.32C960.069 3490.97 951.796 3477.56 942.382 3464.88C942.361 3464.85 942.339 3464.82 942.317 3464.8C941.697 3464.04 941.087 3463.26 940.457 3462.49C939.197 3460.95 937.927 3459.43 936.637 3457.93C934.307 3455.22 931.917 3452.57 929.477 3449.96C924.007 3444.13 918.267 3438.57 912.287 3433.27C908.967 3430.33 905.577 3427.47 902.127 3424.69C901.793 3424.42 900.891 3423.71 900.076 3423.06C899.169 3422.38 897.528 3421.13 897.037 3420.77C890.437 3415.89 883.637 3411.27 876.677 3406.9C862.407 3397.94 847.497 3390.05 832.177 3383.05C829.837 3381.99 827.487 3380.94 825.127 3379.91L823.367 3379.15C823.323 3379.13 823.279 3379.11 823.234 3379.09C819.669 3377.63 816.103 3376.18 812.507 3374.8C804.347 3371.65 796.107 3368.72 787.797 3366C753.897 3354.89 718.927 3347.12 683.657 3341.9C680.997 3341.5 678.327 3341.19 675.677 3340.76C683.167 3341.99 675.417 3340.74 673.677 3340.52C669.477 3339.99 665.267 3339.5 661.057 3339.04C652.247 3338.08 643.417 3337.28 634.577 3336.62C617.157 3335.32 599.707 3334.64 582.237 3334.46C501.227 3333.63 419.827 3336.03 339.207 3326.35C298.847 3321.5 258.667 3314.2 220.127 3300.98C181.147 3287.61 144.887 3268.84 112.367 3243.51C51.7373 3196.28 12.3973 3126.55 0.0973511 3050.95C-12.3627 2974.39 -1.74265 2895.02 26.4073 2822.96C40.7173 2786.33 58.7874 2751.27 81.4973 2719.12C105.947 2684.51 134.927 2653.23 166.487 2625.02C231.877 2566.57 307.647 2521.24 386.197 2482.86C465.33 2444.19 547.434 2412.17 628.586 2378.1C628.815 2378 629.233 2377.82 629.907 2377.54C631.147 2377.02 632.377 2376.49 633.617 2375.97C635.847 2375.02 638.077 2374.08 640.297 2373.13C645.247 2371.02 650.187 2368.9 655.127 2366.76C665.017 2362.49 674.877 2358.16 684.717 2353.76C704.397 2344.96 723.957 2335.9 743.337 2326.44C781.837 2307.65 819.627 2287.33 855.937 2264.57C873.887 2253.32 891.467 2241.46 908.547 2228.91C912.835 2225.75 917.086 2222.55 921.318 2219.32C921.419 2219.24 921.529 2219.15 921.647 2219.06L924.137 2217.11C926.207 2215.48 928.267 2213.84 930.317 2212.19C938.507 2205.59 946.547 2198.81 954.427 2191.84C970.187 2177.9 985.267 2163.19 999.517 2147.71C1006.68 2139.94 1013.62 2131.96 1020.33 2123.8C1022.35 2121.34 1024.35 2118.86 1026.33 2116.37C1026.99 2115.54 1027.64 2114.7 1028.3 2113.87C1028.36 2113.79 1028.41 2113.72 1028.47 2113.65C1031.07 2110.23 1033.64 2106.81 1036.15 2103.33C1046.58 2088.82 1056.02 2073.6 1064.48 2057.86C1068.74 2049.93 1072.75 2041.86 1076.51 2033.68C1077.64 2031.22 1078.75 2028.75 1079.83 2026.27C1080.16 2025.5 1080.5 2024.73 1080.84 2023.95C1082.36 2020.26 1083.85 2016.57 1085.28 2012.85C1091.76 1995.97 1097.22 1978.69 1101.62 1961.15C1103.81 1952.4 1105.74 1943.59 1107.4 1934.72C1108.27 1930.07 1109.06 1925.42 1109.78 1920.75C1110.06 1918.9 1110.32 1917.05 1110.59 1915.2L1110.9 1912.73C1113.03 1895.06 1114.06 1877.24 1113.89 1859.44C1113.81 1850.64 1113.43 1841.84 1112.75 1833.07C1112.4 1828.49 1111.96 1823.92 1111.43 1819.36C1111.22 1817.51 1110.94 1815.67 1110.74 1813.82C1111.49 1821.01 1110.68 1813.55 1110.41 1811.76C1107.78 1794.74 1103.91 1777.91 1098.69 1761.5C1096.13 1753.48 1093.22 1745.63 1090.07 1737.84C1090.04 1737.76 1090 1737.68 1089.97 1737.6C1089.53 1736.63 1089.11 1735.66 1088.68 1734.69C1087.81 1732.76 1086.92 1730.83 1086.01 1728.92C1084.37 1725.47 1082.67 1722.06 1080.89 1718.69C1076.94 1711.2 1072.65 1703.88 1068.03 1696.78C1065.48 1692.86 1062.83 1689.01 1060.08 1685.24C1059.14 1683.95 1058.17 1682.68 1057.22 1681.4C1056.75 1680.82 1056.29 1680.23 1055.82 1679.65C1044.95 1666.16 1032.73 1653.76 1019.39 1642.7C1002.96 1629.07 986.127 1615.88 969.447 1602.56C961.067 1595.87 952.667 1589.19 944.237 1582.56C939.617 1578.93 934.997 1575.31 930.367 1571.71C928.579 1570.31 926.774 1568.92 924.975 1567.52C924.931 1567.49 924.885 1567.45 924.837 1567.42C923.997 1566.77 923.157 1566.13 922.317 1565.48C856.817 1515.15 788.287 1467.62 712.677 1433.68C709.897 1432.43 707.097 1431.2 704.297 1429.99C703.392 1429.59 702.486 1429.21 701.59 1428.82C701.482 1428.78 701.364 1428.73 701.237 1428.68C696.987 1426.95 692.747 1425.21 688.477 1423.54C678.957 1419.82 669.347 1416.34 659.647 1413.11C639.767 1406.49 619.527 1400.94 599.027 1396.56C588.697 1394.35 578.297 1392.44 567.857 1390.84C564.988 1390.39 562.08 1390.08 559.219 1389.58C565.765 1390.73 556.871 1389.3 555.507 1389.14C550.387 1388.53 545.257 1388 540.127 1387.53C519.097 1385.62 498.167 1385.65 477.087 1385.21C457.307 1384.8 437.197 1383.21 417.767 1379.46C396.137 1375.29 378.177 1362.76 366.427 1344.13C354.827 1325.73 350.367 1301.51 358.287 1280.39C366.207 1259.27 382.667 1245.01 403.097 1236.39C421.697 1228.54 441.587 1225.51 461.587 1223.64C487.017 1221.26 512.467 1219.14 537.887 1216.55C563.857 1213.91 589.797 1211.02 615.707 1207.9C628.667 1206.34 641.617 1204.72 654.557 1203.04C658.059 1202.58 661.57 1202.12 665.081 1201.66L665.227 1201.64L665.78 1201.56C667.214 1201.37 668.642 1201.17 670.077 1200.99C673.947 1200.48 664.427 1201.76 670.887 1200.88C677.347 1200 683.817 1199.11 690.277 1198.21C793.667 1183.74 896.517 1165.45 998.557 1143.39C1010.53 1140.8 1022.53 1138.29 1034.4 1135.28C1040.07 1133.84 1045.72 1132.28 1051.29 1130.48C1054.06 1129.59 1056.82 1128.64 1059.55 1127.62C1060.64 1127.22 1061.72 1126.78 1062.81 1126.37C1063.01 1126.29 1063.19 1126.22 1063.36 1126.16C1063.5 1126.09 1063.67 1126.01 1063.85 1125.93C1069.1 1123.41 1074.26 1120.85 1079.2 1117.74C1080.34 1117.02 1082.32 1116.02 1083.85 1114.94C1083.97 1114.72 1084.25 1114.38 1084.68 1114C1085.82 1112.98 1087 1112.02 1088.13 1110.98C1090.01 1109.26 1091.81 1107.46 1093.54 1105.58C1094.57 1104.46 1095.54 1103.28 1096.55 1102.13C1097.04 1101.58 1097.34 1101.33 1097.49 1101.29C1098.52 1099.73 1099.53 1097.66 1100.06 1096.8C1101.33 1094.67 1102.42 1092.46 1103.56 1090.25C1103.58 1090.19 1103.6 1090.12 1103.63 1090.05C1103.95 1089.11 1104.29 1088.19 1104.59 1087.24C1105.31 1084.97 1105.83 1082.67 1106.33 1080.35C1106.39 1079.29 1106.5 1078.23 1106.53 1077.18C1106.55 1076.42 1106.19 1073.23 1106.11 1071.28C1106.03 1070.8 1105.98 1070.27 1106.08 1069.96C1106.07 1069.95 1106.07 1069.93 1106.07 1069.92C1105.86 1068.98 1105.63 1068.03 1105.37 1067.09C1105.08 1066.03 1104.72 1065 1104.38 1063.96C1103.83 1063.01 1103.24 1060.15 1104.06 1062.92C1104.16 1063.27 1104.27 1063.61 1104.38 1063.96C1104.5 1064.17 1104.62 1064.28 1104.72 1064.23C1105.37 1063.88 1098.67 1053.44 1097.52 1051.7C1097.43 1051.61 1097.34 1051.51 1097.25 1051.4C1096.59 1050.66 1095.95 1049.9 1095.28 1049.16C1093.6 1047.31 1091.83 1045.54 1089.99 1043.85C1089.07 1043.01 1088.15 1042.2 1087.2 1041.41C1084.88 1040.18 1084.85 1040 1085.5 1040.31C1084.13 1039.34 1082.8 1038.24 1081.39 1037.35C1079.28 1036.02 1077.12 1034.78 1074.91 1033.62C1073.41 1032.84 1071.87 1032.15 1070.36 1031.38C1070 1031.2 1069.3 1030.86 1068.87 1030.65C1064.05 1028.65 1058.98 1027.19 1053.89 1025.8C1048.11 1024.22 1042.25 1022.96 1036.36 1021.89C1033.4 1021.36 1030.43 1020.87 1027.46 1020.42C1026.26 1020.24 1025.07 1020.08 1023.88 1019.9C1023.67 1019.87 1023.49 1019.84 1023.32 1019.81C1023.14 1019.79 1022.93 1019.77 1022.7 1019.74C1009.95 1018.17 997.177 1016.68 984.417 1015.17L905.157 1005.81C852.327 999.568 799.487 993.328 746.647 987.088C651.063 975.809 555.487 964.522 459.904 953.234L429.617 949.658C376.787 943.418 323.947 937.178 271.107 930.938C219.897 924.888 168.257 920.218 117.417 911.448C71.5273 903.528 24.2473 890.258 -14.3427 863.258C-50.8026 837.758 -80.9827 801.358 -93.1027 757.978C-105.433 713.848 -95.1027 667.008 -67.8527 630.538C-53.4227 611.218 -37.1026 595.668 -16.5226 581.338C4.05734 567.008 26.7673 556.388 49.8773 546.848C95.3052 528.099 142.684 513.369 189.588 498.787L190.647 498.458C239.087 483.398 274.5 473.5 274.5 473.5C274.5 473.5 279.5 478.5 288 494.5C292 507 294 517 294 517C194.85 539.92 216.627 535.708 120.387 568.778C108.877 572.728 97.3773 576.718 85.9573 580.918C80.1073 583.078 74.2773 585.288 68.4774 587.588C65.7723 588.66 63.0093 589.674 60.3595 590.878C61.2776 590.464 64.3247 589.166 60.6873 590.748C59.3373 591.338 57.9773 591.928 56.6173 592.528C45.8073 597.298 35.1873 602.528 24.9373 608.408C19.5674 611.488 14.2974 614.748 9.15735 618.208C6.70734 619.858 4.28735 621.548 1.89734 623.298C1.49777 623.587 1.05399 623.976 0.605225 624.336C1.87259 623.617 2.81 623.498 -0.52887 625.117C-8.79907 631.747 -16.5555 639.037 -23.5927 646.958C-25.3226 648.908 -27.0027 650.888 -28.6427 652.908C-29.1623 653.555 -29.682 654.203 -30.1965 654.856C-30.4304 655.218 -30.6389 655.554 -30.7927 655.768C-33.8127 659.948 -36.6926 664.398 -39.2126 668.758C-41.2581 672.297 -42.7568 676.403 -44.7247 680.043C-44.7008 680.116 -45.0276 680.741 -46.0631 682.308C-46.5005 683.421 -46.9203 684.536 -47.3227 685.668C-48.1827 688.088 -48.9726 690.518 -49.6826 692.978C-50.8172 696.909 -51.307 701.057 -52.2078 705.044C-52.2148 705.257 -52.3899 706.034 -52.8961 707.73C-53.0074 708.829 -53.1029 709.93 -53.1826 711.038C-53.3526 713.508 -53.4527 715.998 -53.4626 718.478C-53.4925 723.416 -52.779 728.255 -52.6148 733.163C-52.8398 726.318 -52.3816 734.223 -52.0427 735.978C-51.5727 738.388 -51.0426 740.788 -50.4326 743.168C-49.2126 747.938 -47.7226 752.648 -45.9926 757.268C-45.8896 757.544 -45.731 758.121 -45.5387 758.761C-45.4619 758.896 -45.2576 759.31 -44.8627 760.148C-43.8027 762.398 -42.7727 764.668 -41.6427 766.888C-37.6141 774.807 -32.9595 783.724 -27.072 790.644C-26.5486 791.18 -25.6035 792.185 -25.2327 792.638C-24.4227 793.628 -23.6026 794.598 -22.7726 795.568C-21.2726 797.308 -19.7527 799.028 -18.1927 800.718C-14.7227 804.478 -11.0926 808.098 -7.33264 811.568C-4.26317 814.391 -0.806946 818.235 2.84558 820.624C3.45987 820.947 4.23557 821.384 4.67734 821.708C5.49734 822.308 6.32736 822.908 7.15735 823.498C9.22736 824.968 11.3273 826.408 13.4573 827.798C22.7073 833.838 32.4873 839.048 42.5173 843.648C44.1073 844.378 45.7073 845.068 47.2973 845.778C47.4466 845.845 47.5841 845.906 47.7106 845.963C47.8952 846.034 48.1066 846.115 48.3474 846.208C50.7874 847.148 53.2073 848.138 55.6573 849.048C60.8373 850.978 66.0573 852.758 71.3273 854.418C82.4673 857.918 93.7874 860.828 105.197 863.328C116.687 865.848 128.267 867.928 139.877 869.758C145.987 870.718 152.117 871.578 158.247 872.438C161.877 872.948 152.637 871.708 158.397 872.458C159.567 872.618 160.737 872.768 161.907 872.918C164.827 873.288 167.747 873.658 170.667 874.018C196.207 877.168 221.787 880.088 247.357 883.108C300.517 889.378 353.687 895.658 406.857 901.938C512.867 914.458 618.867 926.968 724.877 939.488C777.078 945.654 829.289 951.819 881.5 957.985L883.387 958.208L962.647 967.568C989.427 970.728 1016.4 973.238 1043.02 977.558C1066.59 981.378 1091.2 988.548 1110.33 1002.74C1129.46 1016.93 1145.81 1036.75 1150.04 1060.84C1154.7 1087.41 1146.06 1112.14 1129.36 1132.78C1113.55 1152.32 1090.49 1164.52 1067.43 1172.51C1044.37 1180.5 1020.01 1184.83 996.187 1189.89C970.347 1195.39 944.447 1200.64 918.497 1205.65C867.247 1215.55 815.807 1224.5 764.227 1232.5C711.307 1240.7 658.227 1247.94 605.037 1254.21C579.117 1257.26 553.167 1260.08 527.197 1262.66C502.977 1265.06 478.607 1266.6 454.427 1269.42C454.382 1269.42 454.337 1269.43 454.294 1269.43C452.958 1269.66 452.052 1269.75 452.333 1269.69C451.929 1269.75 451.527 1269.8 451.127 1269.87C449.127 1270.18 447.127 1270.52 445.137 1270.89C440.957 1271.66 436.797 1272.57 432.677 1273.67C428.282 1274.84 423.811 1277.17 419.401 1278.1C418.913 1278.33 418.426 1278.56 417.947 1278.8C416.267 1279.64 414.627 1280.53 413.017 1281.49C411.977 1282.1 410.98 1282.79 409.966 1283.45C408.415 1285.08 407.877 1285.39 407.958 1285.16C407.318 1285.69 406.682 1286.23 406.107 1286.81C405.754 1287.17 404.846 1288.22 404.125 1289.05C403.495 1289.98 402.635 1291.23 402.367 1291.69C401.847 1292.58 401.431 1293.52 400.969 1294.44L400.868 1294.8C400.482 1296.19 400.099 1297.57 399.744 1298.96C399.967 1300.72 399.648 1301.65 399.432 1301.72C399.391 1303.49 399.511 1305.22 399.59 1306.98C399.612 1307.06 399.634 1307.15 399.657 1307.24C399.937 1308.3 400.127 1309.39 400.407 1310.45C400.846 1312.11 402.339 1314.68 402.471 1316.39C402.739 1316.93 403.009 1317.48 403.297 1318.01C404.247 1319.77 405.287 1321.48 406.407 1323.14C406.49 1323.26 406.574 1323.38 406.658 1323.51C407.387 1324.21 408.007 1325.1 408.697 1325.84C409.854 1327.08 411.087 1328.21 412.337 1329.34C413.62 1329.68 414.467 1330.62 414.513 1330.92C414.603 1330.99 414.688 1331.05 414.767 1331.1C416.059 1331.91 418.484 1332.6 419.67 1333.65C419.985 1333.75 420.301 1333.85 420.617 1333.95C421.257 1334.15 421.897 1334.33 422.547 1334.5C424.347 1334.98 426.157 1335.39 427.977 1335.77C430.017 1336.19 432.067 1336.56 434.117 1336.9C434.777 1337.01 437.124 1337.35 438.337 1337.53C439.245 1337.64 440.176 1337.76 440.437 1337.79C441.397 1337.9 442.347 1338.01 443.307 1338.11C445.727 1338.37 448.147 1338.6 450.567 1338.81C455.097 1339.2 459.627 1339.52 464.167 1339.77C484.017 1340.86 503.887 1340.14 523.737 1341.35C547.017 1342.77 570.257 1345.62 593.207 1349.73C633.887 1357.01 673.637 1368.99 711.817 1384.77C789.697 1416.95 860.237 1462.72 927.367 1513.23C962.687 1539.81 997.207 1567.44 1031.65 1595.15C1046.55 1607.14 1061.45 1618.91 1074.58 1632.87C1087.26 1646.34 1098.72 1661.18 1108.64 1676.81C1147.49 1738.04 1162.36 1809.93 1158.37 1884.78C1154.38 1959.63 1131.99 2033.89 1093.39 2098.19C1049.75 2170.89 985.427 2230.18 916.477 2278.48C845.987 2327.86 768.367 2366.12 689.707 2400.55C648.997 2418.37 607.847 2435.16 566.777 2452.12C556.717 2456.27 546.657 2460.44 536.617 2464.64C533.597 2465.9 530.587 2467.16 527.567 2468.43C526.684 2468.8 525.808 2469.17 524.927 2469.54C524.846 2469.57 524.753 2469.61 524.647 2469.66L524.547 2469.7C524.674 2469.65 524.801 2469.59 524.927 2469.54C527.304 2468.53 519.722 2471.73 524.547 2469.7L521.452 2471.01C517.741 2472.59 514.034 2474.16 510.327 2475.75C490.237 2484.35 470.227 2493.13 450.357 2502.22C410.817 2520.32 371.807 2539.66 334.047 2561.25C315.117 2572.07 296.507 2583.46 278.347 2595.53C269.427 2601.46 260.607 2607.56 251.917 2613.83C247.367 2617.12 242.847 2620.45 238.367 2623.84C237.181 2624.74 230.409 2629.73 235.125 2626.29C233.243 2627.66 231.435 2629.17 229.607 2630.62C196.057 2657.19 164.677 2686.82 137.307 2719.77C134.327 2723.36 131.467 2727.03 128.557 2730.67C132.947 2725.19 127.827 2731.69 126.987 2732.81C125.587 2734.68 124.207 2736.57 122.837 2738.47C117.337 2746.09 112.087 2753.89 107.087 2761.85C97.0173 2777.86 87.9474 2794.5 79.9073 2811.62C77.8919 2815.9 75.9461 2820.21 74.0701 2824.55C72.8976 2829.3 73.2031 2827.16 73.7562 2825.41C73.5106 2825.99 73.2106 2826.58 73.0074 2827.07C72.0974 2829.27 71.2173 2831.46 70.3474 2833.67C66.8673 2842.48 63.6573 2851.4 60.7274 2860.41C54.8974 2878.34 50.1473 2896.63 46.5773 2915.14C45.6473 2919.97 44.8073 2924.81 44.0374 2929.67C43.7237 2931.64 43.4281 2933.61 43.142 2935.59C42.9161 2941.12 42.8768 2938.61 43.0121 2936.75C42.9402 2937.25 42.856 2937.75 42.7973 2938.23C41.6673 2947.44 40.8474 2956.68 40.3373 2965.94C39.3373 2984.22 39.5974 3002.58 41.2574 3020.82C41.4973 3023.52 41.7773 3026.23 42.0873 3028.93C42.3073 3030.76 43.7274 3038.44 42.3073 3031.02C43.0674 3034.99 43.4873 3039.05 44.1873 3043.04C45.7373 3051.88 47.6474 3060.7 49.9174 3069.32C52.1873 3077.94 54.8173 3086.47 57.8273 3094.87C59.4242 3099.33 61.5614 3103.69 63.0113 3108.19C63.3537 3108.97 63.6964 3109.75 64.0473 3110.53C64.8673 3112.35 65.7074 3114.17 66.5674 3115.98C74.2574 3132.16 83.4973 3147.6 94.1974 3161.98C94.3492 3162.18 94.5542 3162.43 94.7803 3162.68C96.0688 3164.14 98.0435 3165.96 94.7803 3162.68C94.6569 3162.56 94.526 3162.43 94.3873 3162.29C94.9973 3162.9 95.5573 3163.77 96.0773 3164.43C97.4973 3166.21 98.9474 3167.97 100.407 3169.72C103.217 3173.06 106.097 3176.33 109.057 3179.53C115.607 3186.61 122.527 3193.35 129.757 3199.73C133.557 3203.09 137.437 3206.34 141.407 3209.5C141.791 3209.8 142.175 3210.11 142.56 3210.41L143.677 3211.25C145.587 3212.68 147.517 3214.08 149.457 3215.47C157.187 3220.98 165.207 3226.14 173.387 3230.9C181.567 3235.66 189.967 3240.05 198.517 3244.1C202.797 3246.13 207.157 3247.99 211.487 3249.92C205.007 3247.03 212.697 3250.38 214.017 3250.91C216.227 3251.79 218.447 3252.65 220.677 3253.49C238.697 3260.28 257.197 3265.75 275.937 3270.16C285.467 3272.41 295.067 3274.39 304.707 3276.13C309.567 3277.01 314.447 3277.83 319.327 3278.6C321.777 3278.99 324.227 3279.36 326.687 3279.72C327.794 3279.87 333.324 3280.59 332.29 3280.48C412.109 3290.13 492.353 3288.79 572.607 3289.39C645.797 3289.93 719.527 3297.91 789.717 3319.42C855.727 3339.64 919.677 3369.89 967.707 3425.24C1015.74 3480.59 1037.62 3553.89 1025.31 3626.39C1013.36 3696.75 967.347 3757.86 913.037 3802.03C853.277 3850.64 781.887 3884.92 707.167 3903.36C666.607 3913.37 625.077 3917.58 583.437 3919.73C536.447 3922.15 489.377 3921.84 442.337 3921.51L438.76 3921.48C392.781 3921.15 346.766 3920.82 300.817 3923.05C277.767 3924.17 254.737 3925.94 231.827 3928.72C229.837 3928.96 227.847 3929.22 225.857 3929.47C225.488 3929.51 224.899 3929.58 224.445 3929.63C222.376 3929.91 220.307 3930.24 218.237 3930.55C212.587 3931.39 206.957 3932.3 201.327 3933.28C190.107 3935.24 178.927 3937.49 167.837 3940.07C145.627 3945.25 123.727 3951.77 102.407 3959.88C99.7173 3960.9 97.0473 3961.94 94.3873 3963.01C92.7873 3963.66 91.1974 3964.32 89.5974 3964.97C89.2118 3965.13 88.5273 3965.38 88.0961 3965.53C83.4396 3967.41 78.882 3969.72 74.3773 3971.87C65.4774 3976.11 56.7273 3980.68 48.1773 3985.57C39.6273 3990.46 31.2674 3995.65 23.0974 4001.14C19.0174 4003.89 14.9774 4006.7 10.9973 4009.59C9.00735 4011.03 7.03735 4012.49 5.06735 4013.97C4.29187 4014.55 3.52866 4015.13 2.76337 4015.72C2.71036 4015.76 2.65503 4015.8 2.59735 4015.85C-12.8226 4028.11 -27.4827 4041.26 -41.1526 4055.45C-47.9926 4062.55 -54.5826 4069.87 -60.9326 4077.41C-64.1813 4081.26 -67.3542 4085.17 -70.4607 4089.12C-72.9933 4092.75 -72.1707 4091.45 -71.2952 4090.23C-71.5863 4090.6 -71.8802 4090.97 -72.1627 4091.35C-73.6527 4093.32 -75.1227 4095.3 -76.5727 4097.29C-88.1927 4113.23 -98.7527 4129.93 -108.163 4147.26C-112.873 4155.92 -117.283 4164.74 -121.403 4173.69C-122.633 4176.37 -123.843 4179.07 -125.023 4181.78C-125.046 4181.83 -125.104 4181.95 -125.183 4182.1C-125.282 4182.33 -125.435 4182.7 -125.643 4183.2L-126.203 4184.57C-127.883 4188.67 -129.513 4192.79 -131.073 4196.94C-138.013 4215.36 -143.693 4234.25 -148.023 4253.45C-150.193 4263.05 -152.013 4272.72 -153.483 4282.45C-153.681 4283.75 -153.868 4285.05 -154.052 4286.35C-154.064 4286.46 -154.078 4286.57 -154.093 4286.7C-154.373 4289.14 -154.683 4291.58 -154.943 4294.03C-155.433 4298.68 -155.853 4303.34 -156.183 4308.01C-157.593 4327.84 -157.493 4347.78 -155.913 4367.6C-155.493 4372.82 -154.983 4378.02 -154.363 4383.22C-154.253 4384.21 -154.123 4385.2 -154.003 4386.19C-154.001 4386.2 -153.999 4386.22 -153.997 4386.24C-153.682 4388.42 -153.367 4390.6 -153.023 4392.78C-151.433 4402.86 -149.473 4412.89 -147.153 4422.84C-142.623 4442.27 -136.723 4461.37 -129.563 4479.98C-128.663 4482.31 -127.753 4484.63 -126.813 4486.94C-126.343 4488.11 -125.903 4490.11 -125.113 4491.09C-125.383 4490.75 -127.233 4486.16 -125.633 4489.85C-123.653 4494.43 -121.633 4498.99 -119.513 4503.51C-115.283 4512.55 -110.733 4521.45 -105.903 4530.19C-96.2327 4547.66 -85.3927 4564.49 -73.4727 4580.51C-72.5827 4581.71 -71.6726 4582.9 -70.7726 4584.1C-70.7411 4584.14 -70.7106 4584.18 -70.6808 4584.22C-69.4296 4585.81 -68.1833 4587.4 -66.9127 4588.98C-63.7927 4592.86 -60.6026 4596.7 -57.3427 4600.48C-50.8327 4608.03 -44.0626 4615.37 -37.0526 4622.46C-30.0426 4629.55 -22.7926 4636.39 -15.3026 4642.97C-11.3727 4646.42 -7.38266 4649.8 -3.32266 4653.1C-1.58267 4654.51 0.167328 4655.91 1.92734 4657.3C2.16589 4657.49 2.43808 4657.74 2.70557 4658.01C3.29187 4658.47 4.01996 4658.92 4.47736 4659.26C20.4073 4671.27 37.2273 4682.1 54.7673 4691.6C62.4273 4695.75 70.2173 4699.66 78.1073 4703.37C82.2373 4705.32 86.3874 4707.2 90.5674 4709.03C92.3574 4709.81 94.1974 4710.53 95.9673 4711.36C89.3273 4708.25 96.2173 4711.45 97.8474 4712.12C130.697 4725.56 164.707 4735.99 198.997 4745.07C268.657 4763.52 339.737 4776.22 409.027 4796.11C475.487 4815.18 541.187 4841.59 593.957 4887.39C620.187 4910.16 642.527 4938.06 658.947 4968.67C676.867 5002.07 688.437 5038.54 697.307 5075.26C706.057 5111.49 712.397 5148.23 720.657 5184.57C724.697 5202.34 729.197 5220.03 734.767 5237.39C737.447 5245.74 740.367 5254.01 743.617 5262.15C743.909 5262.88 744.207 5263.61 744.507 5264.34C745.4 5266.15 746.102 5268.07 746.937 5269.91C748.717 5273.82 750.577 5277.69 752.527 5281.51C756.407 5289.1 760.667 5296.5 765.337 5303.63C767.616 5307.09 769.989 5310.49 772.457 5313.82C776.006 5317.55 774.29 5316 773.13 5314.67C773.374 5314.99 773.612 5315.31 773.847 5315.61C775.187 5317.28 776.557 5318.93 777.957 5320.55C783.627 5327.13 789.747 5333.34 796.267 5339.09C798.097 5340.7 799.967 5342.28 801.857 5343.83C802.231 5344.13 802.644 5344.54 803.072 5344.92C803.28 5345.03 803.515 5345.17 803.757 5345.35C807.877 5348.33 812.017 5351.26 816.327 5353.97C824.817 5359.3 833.707 5363.97 842.877 5368.02C843.222 5368.18 843.569 5368.33 843.917 5368.48C845.447 5369.13 846.028 5369.38 845.66 5369.22C845.982 5369.32 846.273 5369.41 846.497 5369.5C848.597 5370.32 850.697 5371.11 852.817 5371.88C857.537 5373.59 862.307 5375.16 867.117 5376.6C886.727 5382.49 906.887 5386.33 927.127 5389.25C928.297 5389.42 929.52 5389.69 930.723 5389.82C931.214 5389.85 931.686 5389.88 931.997 5389.92C934.337 5390.22 936.667 5390.51 939.007 5390.79C943.967 5391.39 948.927 5391.95 953.887 5392.49C964.387 5393.63 974.907 5394.65 985.417 5395.7C1007.9 5397.93 1030.37 5400.34 1052.7 5403.77C1071.73 5406.7 1091.06 5410.07 1109.18 5416.76C1127.19 5423.4 1144.33 5432.14 1160.04 5443.18C1190.51 5464.59 1217.57 5492.61 1234.61 5525.99C1250.22 5556.59 1259.2 5592.75 1246.83 5627.16C1234.46 5661.57 1205.39 5687.2 1170.54 5697.52C1138.19 5707.1 1103.63 5703.31 1070.96 5697.74C1054.76 5694.98 1038.69 5691.5 1022.6 5688.2C1014.55 5686.55 1006.49 5684.94 998.407 5683.48C994.027 5682.68 989.627 5681.94 985.227 5681.26C983.84 5681.05 982.446 5680.84 981.056 5680.64C976.707 5680.19 977.199 5680.18 978.413 5680.29C963.599 5678.52 948.581 5677.71 933.707 5679.13C932.863 5679.21 932.023 5679.31 931.184 5679.41C929.703 5679.65 928.218 5679.9 926.747 5680.19C923.407 5680.85 920.087 5681.64 916.817 5682.59C913.258 5683.62 909.854 5684.96 906.373 5686.22C913.39 5683.68 907.473 5685.79 905.687 5686.67C904.227 5687.39 902.787 5688.14 901.367 5688.93C897.987 5690.81 894.727 5692.88 891.607 5695.15C891.543 5695.19 891.482 5695.24 891.423 5695.28C891.249 5695.43 891.042 5695.6 890.797 5695.81C889.367 5697.01 887.967 5698.25 886.597 5699.52C883.537 5702.36 880.657 5705.39 877.987 5708.6C874.227 5713.12 880.737 5704.67 877.307 5709.49C876.327 5710.86 875.387 5712.26 874.487 5713.69C872.427 5716.96 870.577 5720.36 868.947 5723.87C866.507 5729.12 870.757 5719.05 868.667 5724.54C868.087 5726.07 867.537 5727.62 867.037 5729.18C865.857 5732.84 864.887 5736.56 864.117 5740.33C863.761 5742.02 863.484 5743.74 863.188 5745.44C863.144 5745.79 863.102 5746.14 863.067 5746.49C862.277 5754.18 862.157 5761.93 862.487 5769.65C862.657 5773.67 862.947 5777.68 863.337 5781.69C863.537 5783.73 863.757 5785.77 864.007 5787.81C864.049 5788.15 864.095 5788.49 864.141 5788.83C863.925 5787.05 863.688 5783.82 864.26 5789.68C866.79 5806.85 870.62 5823.81 874.637 5840.68C891.577 5911.77 914.927 5991.6 875.517 6059.7C837.027 6126.22 756.917 6156.89 683.517 6161.52C638.947 6164.33 594.067 6155.68 551.107 6144.54C504.207 6132.37 458.397 6116.31 411.367 6104.57C399.637 6101.65 387.847 6098.99 375.977 6096.74C370.047 6095.62 364.087 6094.59 358.117 6093.69C356.874 6093.5 355.602 6093.37 354.357 6093.16L354.274 6093.15C352.558 6092.95 350.846 6092.75 349.127 6092.57C331.177 6090.71 313.067 6090.38 295.067 6091.6C290.307 6091.92 285.567 6092.35 280.827 6092.89C280.218 6092.95 279.612 6093.03 279.005 6093.1C276.938 6093.53 274.768 6093.7 272.677 6094.04C263.797 6095.48 254.987 6097.35 246.287 6099.65C237.717 6101.92 229.257 6104.62 220.977 6107.8C219.85 6108.24 218.715 6108.68 217.587 6109.14C213.719 6111.26 214.537 6110.67 215.859 6109.95C214.728 6110.44 213.569 6110.88 212.467 6111.4C208.747 6113.13 205.067 6114.96 201.447 6116.91C193.937 6120.95 186.677 6125.48 179.787 6130.51C179.706 6130.57 179.557 6130.68 179.366 6130.82C179.504 6130.73 177.674 6132.12 177.317 6132.41C175.687 6133.74 174.077 6135.1 172.497 6136.49C169.667 6138.98 166.917 6141.58 164.267 6144.27C161.037 6147.56 157.947 6151 155.027 6154.57C154.972 6154.64 154.917 6154.71 154.863 6154.77C155.839 6153.69 156.752 6153.12 153.779 6156.2C152.838 6157.51 151.886 6158.81 150.977 6160.15C146.151 6167.23 142.164 6174.7 138.554 6182.45C138.503 6182.58 138.447 6182.73 138.387 6182.88C137.947 6183.99 137.527 6185.11 137.117 6186.23C136.307 6188.45 135.557 6190.69 134.857 6192.95C133.627 6196.95 132.567 6201.01 131.697 6205.1C131.232 6207.26 130.85 6209.43 130.484 6211.61C130.509 6212.8 130.138 6214.22 130.037 6215.37C129.647 6219.65 129.457 6223.94 129.457 6228.24C129.457 6232.98 129.687 6237.72 130.147 6242.43C130.223 6243.26 130.324 6244.11 130.411 6244.96C130.723 6246.82 131.015 6248.69 131.367 6250.55C133.077 6259.54 135.547 6268.37 138.657 6276.98C139.44 6279.16 140.282 6281.32 141.143 6283.48C141.585 6284.47 142.013 6285.47 142.467 6286.45C144.337 6290.52 146.337 6294.52 148.457 6298.46C153.007 6306.9 158.107 6315.03 163.667 6322.84C165.207 6325.01 166.937 6327.08 168.417 6329.29C164.697 6323.74 169.427 6330.51 170.347 6331.64C173.457 6335.45 176.677 6339.17 179.987 6342.8C186.677 6350.13 193.757 6357.09 201.177 6363.68C204.907 6366.99 208.717 6370.2 212.607 6373.32C212.947 6373.6 216.697 6376.78 213.857 6374.34C211.017 6371.9 214.787 6375.04 215.147 6375.31C217.137 6376.81 219.147 6378.28 221.177 6379.73C229.257 6385.49 237.627 6390.84 246.257 6395.75C254.776 6400.59 263.544 6404.89 272.482 6408.88C272.487 6408.88 272.492 6408.89 272.497 6408.89C273.677 6409.36 274.847 6409.84 276.027 6410.3C278.547 6411.29 281.077 6412.25 283.617 6413.19C289.247 6415.27 294.917 6417.24 300.627 6419.09C392.637 6448.95 490.847 6449.85 583.827 6475.6C624.407 6486.84 663.417 6504.11 697.897 6528.42C732.077 6552.51 762.857 6582.47 783.697 6619.03C804.727 6655.93 813.567 6697.53 807.517 6739.63C802.107 6777.25 783.257 6811.77 757.197 6839.11C703.487 6895.45 623.167 6922.34 547.177 6928.41C496.027 6932.5 444.697 6929.35 393.507 6928C367.677 6927.32 341.817 6927.08 316.007 6928.49C303.393 6929.17 290.839 6930.35 278.294 6931.86C277.392 6931.99 276.492 6932.12 275.587 6932.26L275.443 6932.28C274.231 6932.46 273.019 6932.65 271.817 6932.84C268.677 6933.33 265.547 6933.87 262.417 6934.44C256.687 6935.49 250.977 6936.65 245.307 6937.98C235.777 6940.22 226.387 6943.05 217.187 6946.4C214.627 6947.33 212.087 6948.3 209.557 6949.31C209.221 6949.44 208.822 6949.56 208.43 6949.65C207.793 6949.94 207.122 6950.31 206.687 6950.5C202.117 6952.51 197.607 6954.64 193.167 6956.9C184.257 6961.42 175.597 6966.44 167.247 6971.92C163.077 6974.66 158.987 6977.51 154.987 6980.47C154.197 6981.05 153.414 6981.65 152.631 6982.24C152.573 6982.29 152.512 6982.34 152.447 6982.39C150.517 6983.94 148.597 6985.49 146.707 6987.09C139.237 6993.4 132.117 7000.15 125.477 7007.34C122.207 7010.88 119.047 7014.52 116.017 7018.27C115.367 7019.07 113.797 7022.47 115.107 7019.37C116.417 7016.27 114.827 7019.75 114.267 7020.51C112.857 7022.42 111.477 7024.35 110.137 7026.3C104.847 7034 100.107 7042.07 96.0873 7050.5C95.6274 7051.47 95.1797 7052.45 94.7298 7053.43L94.3474 7054.26L94.3306 7054.29C94.329 7054.3 94.3274 7054.3 94.3258 7054.31C94.3329 7054.29 94.3401 7054.27 94.3474 7054.26L94.7173 7053.32C95.8931 7050.38 92.373 7058.54 94.3258 7054.31C94.3274 7054.3 94.329 7054.3 94.3306 7054.29L94.3474 7054.26C94.3401 7054.27 94.3329 7054.29 94.3258 7054.31C93.695 7055.89 93.0656 7057.48 92.4774 7059.08C90.9073 7063.35 89.5273 7067.71 88.3673 7072.1C87.23 7076.4 86.285 7080.75 85.5605 7085.15C85.7446 7089.92 85.324 7088.2 85.4245 7086.31C85.3584 7086.74 85.284 7087.17 85.2473 7087.53C85.0074 7089.8 84.8373 7092.07 84.7274 7094.35C84.4973 7098.94 84.5073 7103.54 84.7673 7108.13C84.8961 7110.43 85.1131 7112.71 85.331 7115.01L85.3318 7115.02C85.4604 7115.84 85.5865 7116.66 85.7274 7117.49C87.2274 7126.04 89.5573 7134.46 92.6273 7142.58C92.8051 7143.05 93.0017 7143.51 93.1974 7143.98C92.6467 7142.4 92.3493 7140.93 93.7925 7145.43C94.4872 7146.94 95.2003 7148.44 95.9474 7149.93C97.6374 7153.31 99.4673 7156.61 101.427 7159.83C103.469 7163.17 105.689 7166.38 107.953 7169.56C110.427 7172.41 109.942 7172.03 109.155 7171.13C110.273 7172.5 111.423 7173.86 112.597 7175.19C117.817 7181.12 123.507 7186.64 129.557 7191.73C130.967 7192.91 137.857 7197.81 131.557 7193.46C133.047 7194.49 134.457 7195.64 135.927 7196.69C139.057 7198.94 142.257 7201.09 145.517 7203.15C152.517 7207.56 159.777 7211.55 167.217 7215.16C169.487 7216.26 171.777 7217.33 174.077 7218.36C174.845 7218.71 175.622 7219.04 176.39 7219.38C179.732 7220.74 183.078 7222.06 186.467 7223.3C194.627 7226.28 202.787 7228.87 211.297 7231.2C219.807 7233.53 228.407 7235.54 237.067 7237.25C241.867 7238.19 246.677 7239.05 251.507 7239.82C253.487 7240.13 255.467 7240.43 257.447 7240.72C257.527 7240.73 257.607 7240.74 257.687 7240.75C256.58 7240.57 255.981 7240.4 259.886 7241.04C277.259 7243.1 294.7 7244.33 312.207 7244.49C332.777 7244.67 353.337 7243.44 373.897 7243.25C466.197 7242.42 563.057 7251.16 645.627 7295.81C686.927 7318.14 725.327 7347.15 761.197 7377.28C796.097 7406.6 828.587 7438.67 859.277 7472.34C871.217 7485.45 883.817 7498.47 894.177 7512.91C899.267 7520.01 903.647 7527.66 907.747 7535.37C922.837 7563.69 934.327 7594.32 941.517 7625.59C961.377 7711.95 947.837 7804.49 897.907 7878.52C864.937 7927.41 818.867 7967.9 766.397 7994.85C691.737 8033.19 605.917 8039.02 523.557 8042.8C499.737 8043.89 475.917 8044.84 452.137 8046.5C440.287 8047.33 428.447 8048.33 416.637 8049.59C411.569 8050.13 406.216 8050.37 401.138 8051.27C400.53 8051.41 399.451 8051.64 398.817 8051.73C397.347 8051.94 395.887 8052.15 394.427 8052.37C391.507 8052.81 388.587 8053.26 385.677 8053.74C362.527 8057.54 339.567 8062.78 317.297 8070.22C311.747 8072.07 306.247 8074.06 300.807 8076.19C299.167 8076.83 297.547 8077.5 295.917 8078.15C295.623 8078.27 295.138 8078.45 294.731 8078.59C292.595 8079.49 290.486 8080.53 288.407 8081.5C278.767 8085.98 269.347 8090.94 260.317 8096.56C256.027 8099.23 251.827 8102.03 247.717 8104.95C246.008 8106.16 244.348 8107.61 242.594 8108.8C243.96 8107.94 245.279 8107.24 241.865 8109.28C241.668 8109.41 241.492 8109.54 241.357 8109.65C240.567 8110.28 239.777 8110.92 238.997 8111.56C231.157 8117.97 223.717 8124.87 216.737 8132.21C213.087 8136.05 209.567 8140.01 206.187 8144.09C204.787 8145.78 203.057 8147.49 201.937 8149.38C205.227 8143.83 201.027 8150.69 200.057 8152.05C194.267 8160.13 189.037 8168.61 184.467 8177.44C183.107 8180.07 181.807 8182.73 180.577 8185.41C180.199 8186.24 179.829 8187.06 179.46 8187.89C177.837 8192.08 176.24 8196.25 174.877 8200.54C173.247 8205.64 171.867 8210.81 170.737 8216.04C170.277 8218.17 169.857 8220.32 169.487 8222.47C169.37 8223.14 169.262 8223.81 169.156 8224.48C169.798 8226.06 168.436 8231.34 168.327 8233.14C168.177 8235.58 168.077 8238.02 168.047 8240.46C167.987 8244.88 168.127 8249.31 168.467 8253.72C168.595 8255.29 168.746 8256.85 168.916 8258.42C169.705 8261.61 169.612 8261.69 169.38 8260.89C169.621 8262.41 169.811 8263.95 170.107 8265.44C170.977 8269.77 172.027 8274.07 173.257 8278.31C174.641 8283.06 176.306 8287.7 178.071 8292.32C178.245 8292.66 178.533 8293.38 178.739 8293.93C179.055 8294.64 179.36 8295.33 179.427 8295.48C180.337 8297.47 181.287 8299.44 182.277 8301.39C186.697 8310.11 191.847 8318.46 197.547 8326.4C198.467 8327.69 199.429 8328.95 200.372 8330.22L201.252 8331.31C202.486 8332.83 203.723 8334.36 204.997 8335.86C208.067 8339.47 211.247 8342.99 214.527 8346.42C221.507 8353.72 228.917 8360.61 236.647 8367.11C238.787 8368.91 240.957 8370.69 243.147 8372.43C243.218 8372.48 243.492 8372.7 243.831 8372.97C244.487 8373.47 245.693 8374.41 245.857 8374.53C249.747 8377.45 253.687 8380.28 257.687 8383.03C266.087 8388.81 274.737 8394.23 283.567 8399.33C293.007 8404.77 302.667 8409.81 312.467 8414.58C317.837 8417.19 323.237 8419.73 328.677 8422.19C331.387 8423.42 334.117 8424.63 336.847 8425.83L338.064 8426.36C338.749 8426.66 339.436 8426.96 340.127 8427.26C340.629 8427.48 342.9 8428.46 343.408 8428.68C430.881 8465.96 524.838 8485.25 613.587 8519.1C692.927 8549.35 768.877 8592.6 824.327 8658.25C851.167 8690.04 872.867 8726.01 885.007 8766C897.817 8808.21 898.447 8853.23 888.347 8896.06C867.287 8985.36 805.337 9058.87 739.007 9121.67C672.677 9184.47 597.217 9237.15 518.757 9283.6Z" fill="#88C890"/>
<path d="M862.517 414.968C836.747 419.098 794.24 424.54 769 427C769 427 770 415.968 768 404.5C766 393.032 758 387 758 387C777 383 799.43 379.33 811.5 378C823.57 376.67 832.6 374.77 838 374C843.4 373.23 856.13 370.47 861.5 369.5C873.37 367.36 882.247 365.348 893.777 361.808C900.127 359.858 906.337 357.588 912.517 355.158C912.793 355.051 913.075 354.967 913.333 354.907C913.988 354.583 914.641 354.193 915.217 353.928C917.237 352.988 919.247 352.018 921.227 350.998C926.107 348.508 930.867 345.778 935.477 342.828C938.817 340.688 943.957 338.188 946.507 335.118C943.927 337.118 943.587 337.368 945.477 335.868C946.057 335.398 946.637 334.928 947.207 334.448C948.167 333.648 949.117 332.848 950.047 332.028C951.907 330.398 953.737 328.718 955.517 326.998C958.707 323.918 961.757 320.688 964.637 317.318C965.267 316.578 969.317 312.918 966.587 315.038C964.007 317.038 966.897 314.608 967.477 313.808C968.907 311.838 970.277 309.828 971.587 307.778C973.927 304.108 976.067 300.308 977.977 296.388C978.277 295.778 980.967 290.398 979.227 293.798C977.487 297.198 979.507 292.988 979.707 292.448C980.547 290.178 981.317 287.878 981.997 285.558C982.307 284.508 985.577 273.008 984.857 272.708C984.427 276.108 984.357 276.558 984.647 274.048C984.727 273.278 984.797 272.498 984.857 271.728C984.957 270.448 985.037 269.158 985.087 267.868C985.187 265.308 985.187 262.738 985.087 260.168C984.999 257.903 984.745 255.648 984.585 253.383C984.448 252.558 984.312 251.733 984.157 250.908C983.117 245.348 981.637 239.878 979.797 234.538C979.457 233.558 979.107 232.588 978.747 231.618C978.607 231.238 976.967 226.458 978.157 229.978C979.347 233.498 977.617 228.788 977.427 228.378C976.987 227.438 976.547 226.498 976.087 225.558C973.557 220.378 970.697 215.368 967.557 210.538C966.267 208.558 964.927 206.598 963.537 204.678C963.127 204.103 962.725 203.489 962.302 202.896C962.107 202.69 961.914 202.479 961.767 202.308C954.727 194.028 947.327 186.248 938.907 179.338C938.408 178.929 938.053 178.633 937.81 178.427C936.914 177.77 936.035 177.105 935.137 176.458C932.817 174.788 930.467 173.168 928.077 171.598C923.547 168.628 918.907 165.828 914.177 163.198C908.947 160.288 903.607 157.578 898.177 155.058C895.614 153.861 893.031 152.525 890.379 151.566C891.103 151.829 894.789 153.362 890.987 151.838C889.657 151.308 888.327 150.768 886.997 150.238C865.567 141.778 843.337 135.528 821.047 129.778C772.017 117.128 722.607 105.958 672.937 96.1278C623.057 86.2578 572.897 77.7878 522.537 70.7278C519.077 70.2378 515.607 69.7578 512.147 69.2878C512.133 69.2878 511.365 69.1849 510.524 69.0717C510.101 69.017 506.809 68.5779 506.787 68.5779C500.797 67.7878 494.807 67.0179 488.817 66.2679C476.207 64.6879 463.577 63.1878 450.947 61.7878C425.677 58.9778 400.367 56.5279 375.027 54.4179C273.367 45.9678 171.227 43.1979 69.2473 46.1379C18.4174 47.6079 -32.3627 50.4879 -83.0327 54.7979C-108.363 56.9479 -133.673 59.4579 -158.933 62.3279C-171.563 63.7679 -184.183 65.2879 -196.793 66.8979C-199.953 67.3079 -203.103 67.7178 -206.253 68.1278C-207.504 68.2934 -208.755 68.4545 -210.007 68.6199C-210.325 68.6632 -210.84 68.733 -211.613 68.8379C-217.913 69.6979 -224.153 70.5679 -230.503 71.4679C-236.853 72.3679 -242.123 72.2178 -247.843 69.1978C-253.043 66.4478 -256.433 61.1579 -258.183 55.7479C-259.933 50.3379 -258.733 43.2279 -255.913 38.4079C-253.403 34.1279 -247.643 28.8079 -242.463 28.0679C-147.943 14.5879 -52.8326 5.72786 42.5674 2.03786C144.197 -1.89214 246.037 -0.132144 347.467 7.26786C450.887 14.8179 553.947 28.1479 655.877 47.1679C705.857 56.4879 755.587 67.2178 804.967 79.3478C851.317 90.7378 900.527 103.208 940.607 126.458C980.687 149.708 1014.99 187.058 1026.25 232.948C1031.77 255.428 1031.34 280.448 1024.09 301.708C1016.84 322.968 1004.39 342.038 988.407 357.798C954.457 391.278 908.777 407.548 862.517 414.968Z" fill="#88C890"/>
</svg>
