<svg width="1080" height="1940" viewBox="0 0 1080 1940" fill="none" xmlns="http://www.w3.org/2000/svg">
<path d="M518.757 7838.6C440.187 7885.13 358.307 7925.71 276.457 7966.08L276.397 7966.1C265.087 7971.68 252.607 7968.87 245.617 7958.03C239.347 7948.32 243.107 7932.47 253.687 7927.25C328.947 7890.13 404.197 7852.84 476.927 7810.91C516.037 7788.36 554.407 7764.48 591.407 7738.6C600.607 7732.16 609.737 7725.6 618.757 7718.91C623.267 7715.57 627.747 7712.2 632.207 7708.79C632.576 7708.5 633.799 7707.57 634.498 7707.04C634.882 7706.74 635.265 7706.44 635.647 7706.14C637.857 7704.41 640.057 7702.68 642.257 7700.94C659.837 7687.02 676.977 7672.55 693.567 7657.47C710.197 7642.36 726.277 7626.64 741.697 7610.29C749.337 7602.18 756.837 7593.93 764.087 7585.47C767.707 7581.25 771.267 7576.98 774.767 7572.66C776.517 7570.5 778.257 7568.32 779.977 7566.13C780.117 7565.95 783.457 7561.58 781.297 7564.44C779.137 7567.3 782.457 7562.91 782.587 7562.73C795.977 7545 808.277 7526.39 818.797 7506.8C821.397 7501.95 823.897 7497.05 826.277 7492.08C827.457 7489.61 828.617 7487.12 829.737 7484.62C830.284 7483.4 830.803 7482.17 831.347 7480.95C835.427 7470.86 839.097 7460.58 842.047 7450.14C844.997 7439.7 847.207 7429.12 848.867 7418.4C849.737 7412.83 848.337 7423.55 848.917 7417.93C849.057 7416.58 849.227 7415.23 849.357 7413.88C849.597 7411.44 849.807 7409 849.967 7406.56C850.327 7401.1 850.497 7395.62 850.457 7390.15C850.427 7385.27 850.227 7380.39 849.867 7375.53C849.697 7373.12 849.477 7370.71 849.217 7368.31L849.142 7367.64C849.05 7366.85 848.95 7366.06 848.859 7365.27C847.408 7356 845.507 7346.81 842.967 7337.78C841.687 7333.21 840.267 7328.69 838.717 7324.21C837.937 7321.97 837.127 7319.75 836.287 7317.53C835.657 7315.85 833.784 7312.81 833.671 7311C833.2 7309.93 832.718 7308.87 832.237 7307.81C831.347 7305.87 830.437 7303.93 829.497 7302.01C827.407 7297.73 825.197 7293.5 822.877 7289.33C818.207 7280.93 813.097 7272.78 807.617 7264.88C806.097 7262.7 804.547 7260.53 802.977 7258.38C802.007 7257.05 800.527 7253.89 799.047 7253.13C801.077 7255.75 801.357 7256.12 799.877 7254.22L798.967 7253.07C798.357 7252.3 797.747 7251.54 797.137 7250.78C795.607 7248.87 794.047 7246.99 792.467 7245.12C779.677 7229.98 765.597 7215.95 750.607 7202.98C746.627 7199.54 742.577 7196.17 738.477 7192.88C736.747 7191.49 735.037 7189.88 733.157 7188.68C738.637 7192.16 731.817 7187.68 730.507 7186.71C722.437 7180.69 714.157 7174.93 705.717 7169.44C688.917 7158.52 671.447 7148.63 653.467 7139.8C644.5 7135.4 635.408 7131.1 626.157 7127.31C625.364 7126.99 623.821 7126.37 623.267 7126.14C621.607 7125.45 619.947 7124.77 618.287 7124.1C615.797 7123.09 613.297 7122.1 610.797 7121.11C605.517 7119.03 600.207 7117 594.887 7115.02C503.857 7081.09 408.507 7060.22 319.037 7021.88C241.227 6988.54 160.717 6936.33 132.037 6852.3C118.327 6812.11 120.817 6767.55 137.027 6728.51C154.277 6687 183.157 6652.61 218.857 6625.63C255.447 6597.97 299.757 6581.12 344.217 6571.09C391.807 6560.35 440.787 6556.75 489.407 6554.4C513.497 6553.24 537.597 6552.34 561.667 6550.85C573.777 6550.09 585.867 6549.2 597.937 6548.05C604.557 6547.42 611.177 6546.72 617.777 6545.92C618.967 6545.78 620.167 6545.63 621.367 6545.48L622 6545.4C622.409 6545.34 622.96 6545.27 623.476 6545.2C624.51 6545.06 626.056 6544.85 626.137 6544.84C627.337 6544.67 628.527 6544.5 629.717 6544.32C653.727 6540.74 677.557 6535.7 700.717 6528.36C706.717 6526.46 712.667 6524.41 718.557 6522.19C721.367 6521.13 724.147 6520 726.947 6518.9C727.289 6518.76 727.552 6518.66 727.749 6518.59C727.992 6518.48 728.292 6518.35 728.657 6518.19C731.117 6517.12 733.557 6516 735.987 6514.84C754.587 6505.98 772.297 6495.18 788.937 6483.04C790.457 6481.93 791.967 6480.81 793.467 6479.68C793.714 6479.5 793.958 6479.31 794.201 6479.12C796.806 6477.06 799.4 6474.98 801.957 6472.86C807.847 6467.95 813.577 6462.85 819.117 6457.56C825.027 6451.92 830.727 6446.06 836.197 6439.98C839.187 6436.66 842.117 6433.26 844.967 6429.81C846.347 6428.13 847.717 6426.44 849.067 6424.73C849.607 6424.05 850.127 6423.33 850.687 6422.66C850.515 6422.86 850.355 6423.05 850.206 6423.23C850.133 6423.32 850.06 6423.42 849.987 6423.52C849.098 6424.7 846.956 6427.06 850.206 6423.23C861.296 6408.35 871.091 6392.56 879.237 6375.88C880.427 6373.44 881.587 6370.99 882.707 6368.52C883.283 6367.25 886.315 6359.42 884.085 6365.5C885.744 6360.98 887.673 6356.57 889.297 6352.05C893.247 6341.04 896.537 6329.8 899.137 6318.4C900.497 6312.45 901.667 6306.45 902.647 6300.43C902.907 6298.82 904.739 6290.08 903.318 6296.23C903.868 6293.83 903.909 6291.2 904.157 6288.76C905.247 6277.94 905.737 6267.06 905.637 6256.18C905.537 6245.84 904.917 6235.51 903.807 6225.23C903.67 6223.97 903.517 6222.71 903.367 6221.46C902.536 6219.73 902.541 6218.7 902.737 6218.66C902.561 6217.11 902.514 6215.42 902.327 6214.29C901.597 6209.79 900.777 6205.31 899.867 6200.84C896.367 6183.67 891.537 6166.78 885.507 6150.33C884.107 6146.5 882.637 6142.7 881.107 6138.92C880.896 6138.39 880.679 6137.87 880.465 6137.35L880.242 6136.83C879.726 6135.64 879.21 6134.45 878.677 6133.27C876.037 6127.37 873.247 6121.55 870.267 6115.82C866.047 6107.7 861.517 6099.67 856.307 6092.14C855.527 6091.01 854.687 6089.92 853.897 6088.79C860.047 6097.6 854.427 6089.74 852.527 6087.54C845.027 6078.85 837.427 6070.25 829.717 6061.75C799.117 6028 766.727 5995.82 731.947 5966.36C723.237 5958.99 714.357 5951.82 705.387 5944.77C705.24 5944.65 705.11 5944.55 704.995 5944.46C704.854 5944.35 704.692 5944.23 704.507 5944.09C703.597 5943.4 702.687 5942.7 701.777 5942.01C699.487 5940.28 697.197 5938.56 694.897 5936.85C690.287 5933.43 685.627 5930.05 680.937 5926.73C662.257 5913.5 643.037 5900.62 622.877 5889.73C618.067 5887.13 613.197 5884.66 608.257 5882.31C605.787 5881.14 603.307 5879.99 600.807 5878.88C599.807 5878.44 598.797 5878.01 597.797 5877.56C597.667 5877.5 597.546 5877.45 597.434 5877.4C597.335 5877.36 597.229 5877.31 597.117 5877.27C586.897 5873.16 576.587 5869.37 566.067 5866.09C544.727 5859.43 522.847 5854.56 500.777 5851.02C497.987 5850.57 495.187 5850.15 492.387 5849.74C491.339 5849.59 490.294 5849.43 489.248 5849.28C488.989 5849.25 488.657 5849.21 488.237 5849.16C482.577 5848.46 476.917 5847.79 471.247 5847.22C459.837 5846.07 448.397 5845.21 436.947 5844.59C413.927 5843.35 390.857 5843.06 367.807 5843.38C347.737 5843.65 327.667 5844.86 307.597 5844.48C288.317 5844.12 269.167 5842.41 250.067 5839.81C213.907 5834.9 178.567 5825.4 145.577 5809.61C113.807 5794.4 85.3874 5771.97 65.6974 5742.56C43.5074 5709.43 35.8474 5668.92 41.8474 5629.81C47.9474 5590.03 70.7173 5553.57 98.6073 5525.29C128.547 5494.93 165.827 5472.24 205.827 5457.8C251.847 5441.18 302.667 5437.83 351.217 5437.52C402.477 5437.19 453.677 5441.14 504.947 5440.36C517.727 5440.16 530.507 5439.67 543.257 5438.74C548.727 5438.34 554.197 5437.86 559.657 5437.25C561.687 5437.02 563.717 5436.66 565.747 5436.51C558.267 5437.05 566.077 5436.44 567.907 5436.16C586.207 5433.35 604.287 5429.13 621.927 5423.51C630.682 5420.73 639.299 5417.56 647.799 5414.09C647.802 5414.09 647.805 5414.09 647.807 5414.09C649.077 5413.53 650.347 5412.98 651.607 5412.41C653.497 5411.56 655.377 5410.69 657.247 5409.8C661.177 5407.94 665.067 5405.99 668.917 5403.95C676.927 5399.71 684.727 5395.08 692.267 5390.06C695.926 5387.62 699.496 5385.08 703.021 5382.46C706.137 5379.22 705.519 5380.34 704.348 5381.42C704.563 5381.26 704.773 5381.1 704.967 5380.95C706.687 5379.57 708.377 5378.16 710.057 5376.73C716.687 5371.07 722.977 5365 728.817 5358.53C730.547 5356.61 732.247 5354.65 733.897 5352.66C734.184 5352.32 734.95 5351.37 735.641 5350.51C736.262 5349.67 737.838 5347.58 738.247 5347.01C739.487 5345.26 740.697 5343.5 741.877 5341.71C746.519 5334.66 750.626 5327.26 754.103 5319.57C754.502 5318.12 755.046 5317.06 755.02 5317.3C755.176 5316.95 755.327 5316.59 755.457 5316.25C756.147 5314.43 756.807 5312.59 757.427 5310.74C758.757 5306.8 759.927 5302.81 760.927 5298.77C761.567 5296.19 762.137 5293.58 762.647 5290.97C763.001 5289.18 762.853 5285.73 763.769 5284.21C763.84 5283.57 763.908 5282.94 763.967 5282.3C764.177 5280.18 764.337 5278.06 764.447 5275.94C764.727 5270.82 764.737 5265.69 764.487 5260.57C764.387 5258.5 764.247 5256.43 764.057 5254.36C763.986 5253.61 763.906 5252.87 763.829 5252.13C761.73 5243.46 760.615 5234.71 757.867 5226.13C757.037 5223.52 756.127 5220.92 755.167 5218.35L754.873 5217.58C754.644 5216.97 754.416 5216.37 754.177 5215.78C754.174 5215.77 754.171 5215.76 754.168 5215.75C753.886 5215.04 753.355 5214.14 753.026 5213.65C751.598 5210.75 750.477 5207.56 749.047 5204.76C744.797 5196.41 739.927 5188.39 734.577 5180.7C733.213 5178.73 731.791 5176.79 730.366 5174.86C729.884 5174.4 727.967 5171.79 727.777 5171.56C725.047 5168.19 722.217 5164.9 719.317 5161.68C712.767 5154.42 705.807 5147.54 698.527 5141.02C694.477 5137.39 690.317 5133.87 686.067 5130.47C685.409 5129.94 684.75 5129.43 684.092 5128.91C682.311 5127.59 680.549 5126.24 678.747 5124.94C662.557 5113.19 645.277 5102.93 627.257 5094.25C624.567 5092.96 621.857 5091.69 619.137 5090.47C618.237 5090.06 617.327 5089.66 616.417 5089.26C615.507 5088.87 614.597 5088.47 613.687 5088.08L616.327 5089.19C613.197 5086.84 607.617 5085.66 603.957 5084.3C593.957 5080.58 583.777 5077.42 573.507 5074.54C480.587 5048.46 382.377 5047.62 290.277 5018.1C268.627 5011.17 247.297 5002.78 227.337 4991.84C208.437 4981.49 190.777 4968.91 174.347 4954.99C143.907 4929.19 117.427 4896.55 101.537 4859.76C85.1173 4821.74 78.9973 4779.86 90.3873 4739.44C101.177 4701.15 125.577 4669.51 157.497 4646.37C186.947 4625.01 222.937 4612.15 258.607 4606.07C298.507 4599.27 338.177 4599.92 378.037 4606.66C426.157 4614.8 472.627 4630.08 519.297 4643.94C542.467 4650.82 565.747 4657.38 589.367 4662.57C601.137 4665.15 612.977 4667.39 624.897 4669.15C626.187 4669.34 631.597 4670.45 626.077 4669.34C627.237 4669.57 628.487 4669.65 629.667 4669.79C632.667 4670.16 635.667 4670.49 638.667 4670.79C643.177 4671.24 647.697 4671.59 652.227 4671.81C661.067 4672.25 669.917 4672.25 678.757 4671.84C683.217 4671.63 687.677 4671.32 692.117 4670.9C694.337 4670.69 696.567 4670.45 698.787 4670.19C699.206 4670.14 699.636 4670.07 700.067 4670.01C698.217 4670.17 695.576 4670.15 701.184 4669.87C718.702 4667.28 735.99 4663.04 752.657 4657.05C754.727 4656.31 756.797 4655.53 758.847 4654.73C760.597 4654.04 767.037 4650.7 760.777 4654C764.617 4651.98 768.747 4650.44 772.637 4648.5C780.317 4644.67 787.777 4640.38 794.917 4635.61C796.687 4634.43 798.427 4633.23 800.147 4631.99C801.667 4630.91 806.957 4626.21 801.667 4630.96C804.777 4628.17 808.157 4625.68 811.257 4622.87C817.285 4617.39 822.783 4611.44 827.959 4605.16C828.373 4604.6 828.797 4604.03 829.207 4603.46C830.407 4601.78 831.567 4600.08 832.697 4598.36C834.957 4594.91 837.057 4591.35 838.997 4587.7C839.967 4585.86 840.897 4584.01 841.787 4582.13C842.737 4580.14 844.387 4573.97 842.547 4580.62C843.667 4576.58 845.527 4572.73 846.757 4568.64C847.987 4564.55 849.017 4560.4 849.857 4556.21C850.277 4554.14 850.647 4552.06 850.977 4549.98C851.107 4549.16 851.187 4548.29 851.357 4547.47C851.306 4547.72 851.258 4547.95 851.214 4548.17C851.205 4548.25 851.196 4548.33 851.187 4548.41C851.004 4550.05 850.012 4554.06 851.214 4548.17C852.133 4539.72 852.415 4531.43 852.207 4522.72C851.997 4513.93 851.277 4505.16 850.207 4496.43C850.011 4494.83 849.283 4490.41 850.265 4496.76C850.149 4495.99 850.051 4495.21 849.937 4494.44C849.617 4492.22 849.267 4490 848.907 4487.78C848.177 4483.31 847.377 4478.85 846.517 4474.41C843.215 4457.33 839.107 4440.41 835.003 4423.5L834.377 4420.93L834.361 4420.86C818.473 4355.41 798.517 4273.2 856.057 4221.5C882.207 4198 915.577 4188.29 950.317 4188.47C984.017 4188.64 1017.41 4196.34 1050.25 4203.11C1058.3 4204.76 1066.35 4206.4 1074.43 4207.89C1078.42 4208.62 1082.41 4209.33 1086.41 4209.98C1088.39 4210.3 1090.37 4210.61 1092.36 4210.91C1093.32 4211.05 1096.09 4211.37 1096.93 4211.46C1110.97 4212.93 1124.93 4214.04 1139.08 4212.91C1140.87 4212.76 1142.67 4212.51 1144.46 4212.33C1144.8 4212.28 1145.14 4212.23 1145.49 4212.17C1148.83 4211.59 1152.15 4210.88 1155.42 4210.01C1158.51 4209.19 1161.56 4208.24 1164.57 4207.14C1164.85 4207.01 1165.54 4206.73 1166.85 4206.23C1168.19 4205.6 1169.53 4204.97 1170.85 4204.28C1174.21 4202.52 1177.47 4200.55 1180.6 4198.4C1180.99 4198.13 1181.38 4197.85 1181.77 4197.57C1182.93 4196.58 1184.17 4195.66 1185.31 4194.65C1188.28 4192.01 1191.09 4189.21 1193.7 4186.22C1193.4 4186.4 1193.68 4185.84 1195.7 4183.77C1196.46 4182.69 1197.21 4181.61 1197.92 4180.5C1199.85 4177.45 1201.38 4174.25 1203.01 4171.06C1203.12 4170.78 1203.23 4170.5 1203.33 4170.22C1203.94 4168.54 1204.48 4166.85 1204.97 4165.13C1205.55 4163.08 1206.05 4161 1206.47 4158.91C1206.55 4158.51 1206.71 4157.57 1206.85 4156.7C1206.95 4155.78 1207.06 4154.74 1207.09 4154.31C1207.22 4152.52 1207.29 4150.72 1207.31 4148.93C1207.35 4145.14 1207.07 4141.39 1206.75 4137.62C1206.74 4137.56 1206.73 4137.5 1206.72 4137.44C1206.41 4135.6 1206.06 4133.76 1205.66 4131.93C1204 4124.28 1201.22 4117.2 1198.68 4109.84C1201.17 4117.07 1198.37 4109.31 1197.53 4107.54C1196.74 4105.89 1195.92 4104.26 1195.08 4102.64C1193.27 4099.16 1191.34 4095.75 1189.31 4092.41C1187.02 4088.64 1184.58 4084.95 1182.03 4081.35C1180.98 4079.86 1179.89 4078.42 1178.82 4076.95C1178.34 4076.36 1177.87 4075.75 1177.39 4075.16C1171.89 4068.39 1165.97 4061.96 1159.7 4055.89C1156.37 4052.67 1152.94 4049.55 1149.42 4046.54C1147.91 4045.25 1146.38 4043.97 1144.83 4042.72C1143.97 4042.02 1142.99 4041.38 1142.14 4040.64C1135.33 4035.67 1128.37 4030.95 1121.06 4026.74C1117.09 4024.45 1113.05 4022.29 1108.93 4020.28C1107.18 4019.42 1105.42 4018.59 1103.64 4017.79C1102.88 4017.45 1102.1 4017.14 1101.33 4016.81C1083.7 4010.11 1065.4 4006.24 1046.82 4003.17C1041.5 4002.3 1036.16 4001.52 1030.82 4000.76C1029.84 4000.63 1028.86 4000.5 1027.87 4000.38C1025.26 4000.05 1022.64 3999.73 1020.02 3999.42C1009.52 3998.18 998.987 3997.09 988.467 3996.04L986.972 3995.89C965.031 3993.7 943.101 3991.51 921.247 3988.53C879.687 3982.87 838.127 3973.34 801.297 3952.49C767.187 3933.18 739.267 3904.35 719.697 3870.5C682.637 3806.41 673.707 3730.91 657.907 3659.85C653.897 3641.85 649.487 3623.93 644.117 3606.28C641.467 3597.58 638.587 3588.94 635.397 3580.42C634.447 3577.88 633.477 3575.35 632.467 3572.83C631.797 3571.16 628.367 3564.37 631.637 3570.7C629.797 3567.12 628.387 3563.26 626.667 3559.62C619.197 3543.81 610.297 3528.7 599.967 3514.58C598.887 3513.1 593.317 3506.63 598.207 3512.16C596.847 3510.61 595.637 3508.91 594.327 3507.32C591.987 3504.47 589.587 3501.66 587.127 3498.91C581.587 3492.71 575.567 3486.59 569.687 3481.09C563.807 3475.59 557.657 3470.42 551.377 3465.39C551.353 3465.37 551.329 3465.35 551.306 3465.33C550.78 3464.93 550.253 3464.53 549.727 3464.14C548.117 3462.94 546.497 3461.75 544.867 3460.58C541.767 3458.35 538.617 3456.18 535.437 3454.07C521.907 3445.08 507.727 3437.1 493.147 3429.95C485.888 3426.39 478.505 3423.11 471.1 3419.86L470.797 3419.74L469.995 3419.41C469.489 3419.2 468.981 3418.99 468.477 3418.79C466.537 3418 464.597 3417.23 462.647 3416.46C458.927 3414.99 455.197 3413.57 451.447 3412.18C435.377 3406.24 419.067 3400.97 402.637 3396.14C333.957 3375.98 263.387 3363.29 194.147 3345.35C122.717 3326.84 50.7274 3302.56 -9.85266 3259.32C-77.1527 3211.28 -131.133 3144.89 -163.953 3068.94C-180.413 3030.86 -192.063 2992.8 -197.863 2950.12C-203.663 2907.44 -203.223 2865.1 -196.473 2822.55C-183.653 2741.71 -146.823 2665.57 -94.6927 2602.83C-68.5927 2571.42 -38.0927 2543.84 -4.53265 2520.59C31.4273 2495.67 71.4673 2476.97 113.037 2463.51C202.417 2434.58 297.877 2431.2 391.057 2431.24C438.177 2431.26 485.307 2432.2 532.427 2431.4C555.847 2431 579.257 2430.17 602.627 2428.57C613.967 2427.79 625.307 2426.86 636.607 2425.64C639.287 2425.35 641.957 2425.04 644.627 2424.7C645.527 2424.59 646.417 2424.47 647.307 2424.36C646.933 2424.4 646.592 2424.44 646.282 2424.48C646.194 2424.49 646.106 2424.51 646.017 2424.52C644.529 2424.73 641.229 2425.08 646.282 2424.48C650.463 2423.88 654.625 2423.23 658.787 2422.53C695.377 2416.33 731.277 2405.99 765.707 2392.16C768.191 2391.16 770.655 2389.95 773.181 2389.06C773.867 2388.76 774.554 2388.47 775.237 2388.17C779.317 2386.39 783.367 2384.55 787.397 2382.67C795.857 2378.72 804.207 2374.53 812.437 2370.12C828.707 2361.41 844.507 2351.79 859.667 2341.26C863.597 2338.53 867.477 2335.74 871.307 2332.89C872.927 2331.69 874.477 2330.28 876.187 2329.21C870.337 2332.88 876.627 2328.85 878.027 2327.73C885.017 2322.16 891.817 2316.37 898.407 2310.35C911.257 2298.61 923.307 2285.99 934.247 2272.46C935.047 2271.47 935.837 2270.46 936.637 2269.46C936.639 2269.46 936.64 2269.45 936.641 2269.45C937.652 2268.11 938.667 2266.76 939.667 2265.4C942.027 2262.17 944.317 2258.89 946.547 2255.57C951.177 2248.65 955.497 2241.53 959.467 2234.21C961.537 2230.41 963.497 2226.55 965.357 2222.65C966.157 2220.99 966.927 2219.31 967.687 2217.63C968.114 2216.68 968.482 2215.68 968.929 2214.74C971.733 2207.66 974.288 2200.5 976.407 2193.2C978.677 2185.38 980.517 2177.44 981.877 2169.41C982.207 2167.5 982.997 2158.91 982.337 2166.9C982.507 2164.86 982.827 2162.82 983.027 2160.78C983.387 2157.08 983.647 2153.37 983.807 2149.66C984.177 2141.28 984.027 2132.87 983.377 2124.5C983.187 2121.94 982.937 2119.38 982.647 2116.83C982.608 2116.49 982.558 2116.15 982.51 2115.81C982.677 2117.65 982.671 2120.23 982.358 2114.63C981.784 2110.88 981.116 2107.14 980.347 2103.42C978.637 2095.12 976.467 2086.91 973.837 2078.86C972.437 2074.57 970.907 2070.32 969.237 2066.12C969.066 2065.68 968.891 2065.25 968.716 2064.82C968.032 2063.32 967.394 2061.81 966.707 2060.32C960.069 2045.97 951.796 2032.56 942.382 2019.88C942.361 2019.85 942.339 2019.82 942.317 2019.8C941.697 2019.04 941.087 2018.26 940.457 2017.49C939.197 2015.95 937.927 2014.43 936.637 2012.93C934.307 2010.22 931.917 2007.57 929.477 2004.96C924.007 1999.13 918.267 1993.57 912.287 1988.27C908.967 1985.33 905.577 1982.47 902.127 1979.69C901.793 1979.42 900.891 1978.71 900.076 1978.06C899.169 1977.38 897.528 1976.13 897.037 1975.77C890.437 1970.89 883.637 1966.27 876.677 1961.9C862.407 1952.94 847.497 1945.05 832.177 1938.05C829.837 1936.99 827.487 1935.94 825.127 1934.91L823.367 1934.15C823.323 1934.13 823.279 1934.11 823.234 1934.09C819.669 1932.63 816.103 1931.18 812.507 1929.8C804.347 1926.65 796.107 1923.72 787.797 1921C753.897 1909.89 718.927 1902.12 683.657 1896.9C680.997 1896.5 678.327 1896.19 675.677 1895.76C683.167 1896.99 675.417 1895.74 673.677 1895.52C669.477 1894.99 665.267 1894.5 661.057 1894.04C652.247 1893.08 643.417 1892.28 634.577 1891.62C617.157 1890.32 599.707 1889.64 582.237 1889.46C501.227 1888.63 419.827 1891.03 339.207 1881.35C298.847 1876.5 258.667 1869.2 220.127 1855.98C181.147 1842.61 144.887 1823.84 112.367 1798.51C51.7373 1751.28 12.3973 1681.55 0.0973511 1605.95C-12.3627 1529.39 -1.74265 1450.02 26.4073 1377.96C40.7173 1341.33 58.7874 1306.27 81.4973 1274.12C105.947 1239.51 134.927 1208.23 166.487 1180.02C231.877 1121.57 307.647 1076.24 386.197 1037.86C465.33 999.189 547.434 967.168 628.586 933.098C628.815 933 629.233 932.823 629.907 932.538C631.147 932.018 632.377 931.488 633.617 930.968C635.847 930.018 638.077 929.078 640.297 928.128C645.247 926.018 650.187 923.898 655.127 921.758C665.017 917.488 674.877 913.158 684.717 908.758C704.397 899.958 723.957 890.898 743.337 881.438C781.837 862.648 819.627 842.328 855.937 819.568C873.887 808.318 891.467 796.458 908.547 783.908C912.835 780.754 917.086 777.546 921.318 774.317C921.419 774.237 921.529 774.151 921.647 774.058L924.137 772.108C926.207 770.478 928.267 768.838 930.317 767.188C938.507 760.588 946.547 753.808 954.427 746.838C970.187 732.898 985.267 718.188 999.517 702.708C1006.68 694.938 1013.62 686.958 1020.33 678.798C1022.35 676.338 1024.35 673.858 1026.33 671.368C1026.99 670.538 1027.64 669.698 1028.3 668.868C1028.36 668.792 1028.41 668.721 1028.47 668.652C1031.07 665.231 1033.64 661.807 1036.15 658.328C1046.58 643.818 1056.02 628.598 1064.48 612.858C1068.74 604.928 1072.75 596.858 1076.51 588.678C1077.64 586.218 1078.75 583.748 1079.83 581.268C1080.16 580.501 1080.5 579.725 1080.84 578.949C1082.36 575.262 1083.85 571.572 1085.28 567.848C1091.76 550.968 1097.22 533.688 1101.62 516.148C1103.81 507.398 1105.74 498.588 1107.4 489.718C1108.27 485.068 1109.06 480.418 1109.78 475.748C1110.06 473.9 1110.32 472.052 1110.59 470.204L1110.9 467.728C1113.03 450.058 1114.06 432.238 1113.89 414.438C1113.81 405.638 1113.43 396.838 1112.75 388.068C1112.4 383.488 1111.96 378.918 1111.43 374.358C1111.22 372.509 1110.94 370.67 1110.74 368.822C1111.49 376.012 1110.68 368.553 1110.41 366.758C1107.78 349.738 1103.91 332.908 1098.69 316.498C1096.13 308.484 1093.22 300.626 1090.07 292.837C1090.04 292.761 1090 292.681 1089.97 292.598C1089.53 291.628 1089.11 290.658 1088.68 289.688C1087.81 287.758 1086.92 285.828 1086.01 283.918C1084.37 280.468 1082.67 277.058 1080.89 273.688C1076.94 266.198 1072.65 258.878 1068.03 251.778C1065.48 247.858 1062.83 244.008 1060.08 240.238C1059.14 238.946 1058.17 237.682 1057.22 236.4C1056.75 235.818 1056.29 235.225 1055.82 234.648C1044.95 221.158 1032.73 208.758 1019.39 197.698C1002.96 184.068 986.127 170.878 969.447 157.558C961.067 150.868 952.667 144.188 944.237 137.558C939.617 133.928 934.997 130.308 930.367 126.708C928.579 125.31 926.774 123.921 924.975 122.524C924.931 122.49 924.885 122.454 924.837 122.418C923.997 121.768 923.157 121.128 922.317 120.478C856.817 70.1478 788.287 22.6178 712.677 -11.3221C709.897 -12.5721 707.097 -13.8022 704.297 -15.0122C703.392 -15.4072 702.486 -15.7927 701.59 -16.1781C701.482 -16.2223 701.364 -16.2703 701.237 -16.3221C696.987 -18.0521 692.747 -19.7921 688.477 -21.4622C678.957 -25.1821 669.347 -28.6622 659.647 -31.8922C639.767 -38.5122 619.527 -44.0621 599.027 -48.4421C588.697 -50.6521 578.297 -52.5623 567.857 -54.1622C564.988 -54.6074 562.08 -54.9155 559.219 -55.4159C565.765 -54.2655 556.871 -55.7029 555.507 -55.8622C550.387 -56.4722 545.257 -57.0022 540.127 -57.4722C519.097 -59.3822 498.167 -59.3523 477.087 -59.7922C457.307 -60.2023 437.197 -61.7922 417.767 -65.5422C396.137 -69.7123 378.177 -82.2422 366.427 -100.872C354.827 -119.272 350.367 -143.492 358.287 -164.612C366.207 -185.732 382.667 -199.992 403.097 -208.612C421.697 -216.462 441.587 -219.492 461.587 -221.362C487.017 -223.742 512.467 -225.862 537.887 -228.452C563.857 -231.092 589.797 -233.982 615.707 -237.102C628.667 -238.662 641.617 -240.282 654.557 -241.962C658.059 -242.416 661.57 -242.879 665.081 -243.343L665.227 -243.362L665.78 -243.437C667.214 -243.632 668.642 -243.826 670.077 -244.012C673.947 -244.522 664.427 -243.242 670.887 -244.122C677.347 -245.002 683.817 -245.892 690.277 -246.792C793.667 -261.262 896.517 -279.552 998.557 -301.612C1010.53 -304.202 1022.53 -306.712 1034.4 -309.722C1040.07 -311.162 1045.72 -312.722 1051.29 -314.522C1054.06 -315.412 1056.82 -316.362 1059.55 -317.382C1060.64 -317.782 1061.72 -318.222 1062.81 -318.632C1063.01 -318.708 1063.19 -318.776 1063.36 -318.835C1063.5 -318.907 1063.67 -318.985 1063.85 -319.072C1069.1 -321.592 1074.26 -324.152 1079.2 -327.262C1080.34 -327.98 1082.32 -328.978 1083.85 -330.058C1083.97 -330.281 1084.25 -330.619 1084.68 -331.002C1085.82 -332.022 1087 -332.982 1088.13 -334.022C1090.01 -335.742 1091.81 -337.542 1093.54 -339.422C1094.57 -340.542 1095.54 -341.722 1096.55 -342.872C1097.04 -343.424 1097.34 -343.669 1097.49 -343.713C1098.52 -345.265 1099.53 -347.337 1100.06 -348.202C1101.33 -350.328 1102.42 -352.543 1103.56 -354.749C1103.58 -354.813 1103.6 -354.881 1103.63 -354.952C1103.95 -355.892 1104.29 -356.812 1104.59 -357.762C1105.31 -360.029 1105.83 -362.332 1106.33 -364.655C1106.39 -365.711 1106.5 -366.766 1106.53 -367.822C1106.55 -368.577 1106.19 -371.767 1106.11 -373.723C1106.03 -374.204 1105.98 -374.727 1106.08 -375.041C1106.07 -375.055 1106.07 -375.068 1106.07 -375.082C1105.86 -376.022 1105.63 -376.972 1105.37 -377.912C1105.08 -378.97 1104.72 -380 1104.38 -381.039C1103.83 -381.985 1103.24 -384.85 1104.06 -382.082C1104.16 -381.733 1104.27 -381.385 1104.38 -381.039C1104.5 -380.833 1104.62 -380.719 1104.72 -380.772C1105.37 -381.117 1098.67 -391.556 1097.52 -393.304C1097.43 -393.394 1097.34 -393.493 1097.25 -393.602C1096.59 -394.342 1095.95 -395.102 1095.28 -395.842C1093.6 -397.692 1091.83 -399.462 1089.99 -401.152C1089.07 -401.989 1088.15 -402.796 1087.2 -403.594C1084.88 -404.822 1084.85 -405.004 1085.5 -404.693C1084.13 -405.661 1082.8 -406.764 1081.39 -407.652C1079.28 -408.982 1077.12 -410.222 1074.91 -411.382C1073.41 -412.162 1071.87 -412.852 1070.36 -413.622C1070 -413.799 1069.3 -414.136 1068.87 -414.348C1064.05 -416.35 1058.98 -417.811 1053.89 -419.202C1048.11 -420.782 1042.25 -422.042 1036.36 -423.112C1033.4 -423.642 1030.43 -424.132 1027.46 -424.582C1026.26 -424.762 1025.07 -424.922 1023.88 -425.102C1023.67 -425.133 1023.49 -425.161 1023.32 -425.186C1023.14 -425.208 1022.93 -425.234 1022.7 -425.262C1009.95 -426.832 997.177 -428.322 984.417 -429.832L905.157 -439.192C852.327 -445.432 799.487 -451.672 746.647 -457.912C651.063 -469.191 555.487 -480.478 459.904 -491.766L429.617 -495.342C376.787 -501.582 323.947 -507.822 271.107 -514.062C219.897 -520.112 168.257 -524.782 117.417 -533.552C71.5273 -541.472 24.2473 -554.742 -14.3427 -581.742C-50.8026 -607.242 -80.9827 -643.642 -93.1027 -687.022C-105.433 -731.152 -95.1027 -777.992 -67.8527 -814.462C-53.4227 -833.782 -37.1026 -849.332 -16.5226 -863.662C4.05734 -877.992 26.7673 -888.612 49.8773 -898.152C95.3052 -916.901 142.684 -931.631 189.588 -946.213L190.647 -946.542C239.087 -961.602 274.5 -971.5 274.5 -971.5C274.5 -971.5 279.5 -966.5 288 -950.5C292 -938 294 -928 294 -928C194.85 -905.08 216.627 -909.292 120.387 -876.222C108.877 -872.272 97.3773 -868.282 85.9573 -864.082C80.1073 -861.922 74.2773 -859.712 68.4774 -857.412C65.7723 -856.34 63.0093 -855.326 60.3595 -854.122C61.2776 -854.536 64.3247 -855.834 60.6873 -854.252C59.3373 -853.662 57.9773 -853.072 56.6173 -852.472C45.8073 -847.702 35.1873 -842.472 24.9373 -836.592C19.5674 -833.512 14.2974 -830.252 9.15735 -826.792C6.70734 -825.142 4.28735 -823.452 1.89734 -821.702C1.49777 -821.413 1.05399 -821.024 0.605225 -820.664C1.87259 -821.383 2.81 -821.502 -0.52887 -819.883C-8.79907 -813.253 -16.5555 -805.963 -23.5927 -798.042C-25.3226 -796.092 -27.0027 -794.112 -28.6427 -792.092C-29.1623 -791.445 -29.682 -790.797 -30.1965 -790.144C-30.4304 -789.782 -30.6389 -789.446 -30.7927 -789.232C-33.8127 -785.052 -36.6926 -780.602 -39.2126 -776.242C-41.2581 -772.703 -42.7568 -768.597 -44.7247 -764.957C-44.7008 -764.884 -45.0276 -764.259 -46.0631 -762.692C-46.5005 -761.579 -46.9203 -760.464 -47.3227 -759.332C-48.1827 -756.912 -48.9726 -754.482 -49.6826 -752.022C-50.8172 -748.091 -51.307 -743.943 -52.2078 -739.956C-52.2148 -739.743 -52.3899 -738.966 -52.8961 -737.27C-53.0074 -736.171 -53.1029 -735.07 -53.1826 -733.962C-53.3526 -731.492 -53.4527 -729.002 -53.4626 -726.522C-53.4925 -721.584 -52.779 -716.745 -52.6148 -711.837C-52.8398 -718.682 -52.3816 -710.777 -52.0427 -709.022C-51.5727 -706.612 -51.0426 -704.212 -50.4326 -701.832C-49.2126 -697.062 -47.7226 -692.352 -45.9926 -687.732C-45.8896 -687.456 -45.731 -686.879 -45.5387 -686.239C-45.4619 -686.104 -45.2576 -685.69 -44.8627 -684.852C-43.8027 -682.602 -42.7727 -680.332 -41.6427 -678.112C-37.6141 -670.193 -32.9595 -661.276 -27.072 -654.356C-26.5486 -653.82 -25.6035 -652.815 -25.2327 -652.362C-24.4227 -651.372 -23.6026 -650.402 -22.7726 -649.432C-21.2726 -647.692 -19.7527 -645.972 -18.1927 -644.282C-14.7227 -640.522 -11.0926 -636.902 -7.33264 -633.432C-4.26317 -630.609 -0.806946 -626.765 2.84558 -624.376C3.45987 -624.053 4.23557 -623.616 4.67734 -623.292C5.49734 -622.692 6.32736 -622.092 7.15735 -621.502C9.22736 -620.032 11.3273 -618.592 13.4573 -617.202C22.7073 -611.162 32.4873 -605.952 42.5173 -601.352C44.1073 -600.622 45.7073 -599.932 47.2973 -599.222C47.4466 -599.155 47.5841 -599.094 47.7106 -599.037C47.8952 -598.966 48.1066 -598.885 48.3474 -598.792C50.7874 -597.852 53.2073 -596.862 55.6573 -595.952C60.8373 -594.022 66.0573 -592.242 71.3273 -590.582C82.4673 -587.082 93.7874 -584.172 105.197 -581.672C116.687 -579.152 128.267 -577.072 139.877 -575.242C145.987 -574.282 152.117 -573.422 158.247 -572.562C161.877 -572.052 152.637 -573.292 158.397 -572.542C159.567 -572.382 160.737 -572.232 161.907 -572.082C164.827 -571.712 167.747 -571.342 170.667 -570.982C196.207 -567.832 221.787 -564.912 247.357 -561.892C300.517 -555.622 353.687 -549.342 406.857 -543.062C512.867 -530.542 618.867 -518.032 724.877 -505.512C777.078 -499.346 829.289 -493.181 881.5 -487.015L883.387 -486.792L962.647 -477.432C989.427 -474.272 1016.4 -471.762 1043.02 -467.442C1066.59 -463.622 1091.2 -456.452 1110.33 -442.262C1129.46 -428.072 1145.81 -408.252 1150.04 -384.162C1154.7 -357.592 1146.06 -332.862 1129.36 -312.222C1113.55 -292.682 1090.49 -280.482 1067.43 -272.492C1044.37 -264.502 1020.01 -260.172 996.187 -255.112C970.347 -249.612 944.447 -244.362 918.497 -239.352C867.247 -229.452 815.807 -220.502 764.227 -212.502C711.307 -204.302 658.227 -197.062 605.037 -190.792C579.117 -187.742 553.167 -184.922 527.197 -182.342C502.977 -179.942 478.607 -178.402 454.427 -175.582C454.382 -175.577 454.337 -175.572 454.294 -175.566C452.958 -175.343 452.052 -175.251 452.333 -175.306C451.929 -175.252 451.527 -175.196 451.127 -175.132C449.127 -174.822 447.127 -174.482 445.137 -174.112C440.957 -173.342 436.797 -172.432 432.677 -171.332C428.282 -170.161 423.811 -167.827 419.401 -166.899C418.913 -166.671 418.426 -166.442 417.947 -166.202C416.267 -165.362 414.627 -164.472 413.017 -163.512C411.977 -162.895 410.98 -162.206 409.966 -161.549C408.415 -159.919 407.877 -159.611 407.958 -159.84C407.318 -159.308 406.682 -158.771 406.107 -158.192C405.754 -157.835 404.846 -156.781 404.125 -155.955C403.495 -155.021 402.635 -153.77 402.367 -153.312C401.847 -152.423 401.431 -151.477 400.969 -150.561L400.868 -150.198C400.482 -148.808 400.099 -147.432 399.744 -146.04C399.967 -144.276 399.648 -143.346 399.432 -143.282C399.391 -141.514 399.511 -139.776 399.59 -138.017C399.612 -137.936 399.634 -137.851 399.657 -137.762C399.937 -136.702 400.127 -135.612 400.407 -134.552C400.846 -132.891 402.339 -130.323 402.471 -128.606C402.739 -128.066 403.009 -127.525 403.297 -126.992C404.247 -125.232 405.287 -123.522 406.407 -121.862C406.49 -121.739 406.574 -121.616 406.658 -121.493C407.387 -120.792 408.007 -119.899 408.697 -119.162C409.854 -117.922 411.087 -116.786 412.337 -115.658C413.62 -115.319 414.467 -114.382 414.513 -114.077C414.603 -114.011 414.688 -113.952 414.767 -113.902C416.059 -113.094 418.484 -112.397 419.67 -111.347C419.985 -111.245 420.301 -111.147 420.617 -111.052C421.257 -110.852 421.897 -110.672 422.547 -110.502C424.347 -110.022 426.157 -109.612 427.977 -109.232C430.017 -108.812 432.067 -108.442 434.117 -108.102C434.777 -107.995 437.124 -107.652 438.337 -107.469C439.245 -107.356 440.176 -107.24 440.437 -107.212C441.397 -107.102 442.347 -106.992 443.307 -106.892C445.727 -106.632 448.147 -106.402 450.567 -106.192C455.097 -105.802 459.627 -105.482 464.167 -105.232C484.017 -104.142 503.887 -104.862 523.737 -103.652C547.017 -102.232 570.257 -99.3822 593.207 -95.2722C633.887 -87.9922 673.637 -76.0122 711.817 -60.2322C789.697 -28.0521 860.237 17.7178 927.367 68.2278C962.687 94.8077 997.207 122.438 1031.65 150.148C1046.55 162.138 1061.45 173.908 1074.58 187.868C1087.26 201.338 1098.72 216.178 1108.64 231.808C1147.49 293.038 1162.36 364.928 1158.37 439.778C1154.38 514.628 1131.99 588.888 1093.39 653.188C1049.75 725.888 985.427 785.178 916.477 833.478C845.987 882.858 768.367 921.118 689.707 955.548C648.997 973.368 607.847 990.158 566.777 1007.12C556.717 1011.27 546.657 1015.44 536.617 1019.64C533.597 1020.9 530.587 1022.16 527.567 1023.43C526.684 1023.8 525.808 1024.17 524.927 1024.54C524.846 1024.57 524.753 1024.61 524.647 1024.66L524.547 1024.7C524.674 1024.65 524.801 1024.59 524.927 1024.54C527.304 1023.53 519.722 1026.73 524.547 1024.7L521.452 1026.01C517.741 1027.59 514.034 1029.16 510.327 1030.75C490.237 1039.35 470.227 1048.13 450.357 1057.22C410.817 1075.32 371.807 1094.66 334.047 1116.25C315.117 1127.07 296.507 1138.46 278.347 1150.53C269.427 1156.46 260.607 1162.56 251.917 1168.83C247.367 1172.12 242.847 1175.45 238.367 1178.84C237.181 1179.74 230.409 1184.73 235.125 1181.29C233.243 1182.66 231.435 1184.17 229.607 1185.62C196.057 1212.19 164.677 1241.82 137.307 1274.77C134.327 1278.36 131.467 1282.03 128.557 1285.67C132.947 1280.19 127.827 1286.69 126.987 1287.81C125.587 1289.68 124.207 1291.57 122.837 1293.47C117.337 1301.09 112.087 1308.89 107.087 1316.85C97.0173 1332.86 87.9474 1349.5 79.9073 1366.62C77.8919 1370.9 75.9461 1375.21 74.0701 1379.55C72.8976 1384.3 73.2031 1382.16 73.7562 1380.41C73.5106 1380.99 73.2106 1381.58 73.0074 1382.07C72.0974 1384.27 71.2173 1386.46 70.3474 1388.67C66.8673 1397.48 63.6573 1406.4 60.7274 1415.41C54.8974 1433.34 50.1473 1451.63 46.5773 1470.14C45.6473 1474.97 44.8073 1479.81 44.0374 1484.67C43.7237 1486.64 43.4281 1488.61 43.142 1490.59C42.9161 1496.12 42.8768 1493.61 43.0121 1491.75C42.9402 1492.25 42.856 1492.75 42.7973 1493.23C41.6673 1502.44 40.8474 1511.68 40.3373 1520.94C39.3373 1539.22 39.5974 1557.58 41.2574 1575.82C41.4973 1578.52 41.7773 1581.23 42.0873 1583.93C42.3073 1585.76 43.7274 1593.44 42.3073 1586.02C43.0674 1589.99 43.4873 1594.05 44.1873 1598.04C45.7373 1606.88 47.6474 1615.7 49.9174 1624.32C52.1873 1632.94 54.8173 1641.47 57.8273 1649.87C59.4242 1654.33 61.5614 1658.69 63.0113 1663.19C63.3537 1663.97 63.6964 1664.75 64.0473 1665.53C64.8673 1667.35 65.7074 1669.17 66.5674 1670.98C74.2574 1687.16 83.4973 1702.6 94.1974 1716.98C94.3492 1717.18 94.5542 1717.43 94.7803 1717.68C96.0688 1719.14 98.0435 1720.96 94.7803 1717.68C94.6569 1717.56 94.526 1717.43 94.3873 1717.29C94.9973 1717.9 95.5573 1718.77 96.0773 1719.43C97.4973 1721.21 98.9474 1722.97 100.407 1724.72C103.217 1728.06 106.097 1731.33 109.057 1734.53C115.607 1741.61 122.527 1748.35 129.757 1754.73C133.557 1758.09 137.437 1761.34 141.407 1764.5C141.791 1764.8 142.175 1765.11 142.56 1765.41L143.677 1766.25C145.587 1767.68 147.517 1769.08 149.457 1770.47C157.187 1775.98 165.207 1781.14 173.387 1785.9C181.567 1790.66 189.967 1795.05 198.517 1799.1C202.797 1801.13 207.157 1802.99 211.487 1804.92C205.007 1802.03 212.697 1805.38 214.017 1805.91C216.227 1806.79 218.447 1807.65 220.677 1808.49C238.697 1815.28 257.197 1820.75 275.937 1825.16C285.467 1827.41 295.067 1829.39 304.707 1831.13C309.567 1832.01 314.447 1832.83 319.327 1833.6C321.777 1833.99 324.227 1834.36 326.687 1834.72C327.794 1834.87 333.324 1835.59 332.29 1835.48C412.109 1845.13 492.353 1843.79 572.607 1844.39C645.797 1844.93 719.527 1852.91 789.717 1874.42C855.727 1894.64 919.677 1924.89 967.707 1980.24C1015.74 2035.59 1037.62 2108.89 1025.31 2181.39C1013.36 2251.75 967.347 2312.86 913.037 2357.03C853.277 2405.64 781.887 2439.92 707.167 2458.36C666.607 2468.37 625.077 2472.58 583.437 2474.73C536.447 2477.15 489.377 2476.84 442.337 2476.51L438.76 2476.48C392.781 2476.15 346.766 2475.82 300.817 2478.05C277.767 2479.17 254.737 2480.94 231.827 2483.72C229.837 2483.96 227.847 2484.22 225.857 2484.47C225.488 2484.51 224.899 2484.58 224.445 2484.63C222.376 2484.91 220.307 2485.24 218.237 2485.55C212.587 2486.39 206.957 2487.3 201.327 2488.28C190.107 2490.24 178.927 2492.49 167.837 2495.07C145.627 2500.25 123.727 2506.77 102.407 2514.88C99.7173 2515.9 97.0473 2516.94 94.3873 2518.01C92.7873 2518.66 91.1974 2519.32 89.5974 2519.97C89.2118 2520.13 88.5273 2520.38 88.0961 2520.53C83.4396 2522.41 78.882 2524.72 74.3773 2526.87C65.4774 2531.11 56.7273 2535.68 48.1773 2540.57C39.6273 2545.46 31.2674 2550.65 23.0974 2556.14C19.0174 2558.89 14.9774 2561.7 10.9973 2564.59C9.00735 2566.03 7.03735 2567.49 5.06735 2568.97C4.29187 2569.55 3.52866 2570.13 2.76337 2570.72C2.71036 2570.76 2.65503 2570.8 2.59735 2570.85C-12.8226 2583.11 -27.4827 2596.26 -41.1526 2610.45C-47.9926 2617.55 -54.5826 2624.87 -60.9326 2632.41C-64.1813 2636.26 -67.3542 2640.17 -70.4607 2644.12C-72.9933 2647.75 -72.1707 2646.45 -71.2952 2645.23C-71.5863 2645.6 -71.8802 2645.97 -72.1627 2646.35C-73.6527 2648.32 -75.1227 2650.3 -76.5727 2652.29C-88.1927 2668.23 -98.7527 2684.93 -108.163 2702.26C-112.873 2710.92 -117.283 2719.74 -121.403 2728.69C-122.633 2731.37 -123.843 2734.07 -125.023 2736.78C-125.046 2736.83 -125.104 2736.95 -125.183 2737.1C-125.282 2737.33 -125.435 2737.7 -125.643 2738.2L-126.203 2739.57C-127.883 2743.67 -129.513 2747.79 -131.073 2751.94C-138.013 2770.36 -143.693 2789.25 -148.023 2808.45C-150.193 2818.05 -152.013 2827.72 -153.483 2837.45C-153.681 2838.75 -153.868 2840.05 -154.052 2841.35C-154.064 2841.46 -154.078 2841.57 -154.093 2841.7C-154.373 2844.14 -154.683 2846.58 -154.943 2849.03C-155.433 2853.68 -155.853 2858.34 -156.183 2863.01C-157.593 2882.84 -157.493 2902.78 -155.913 2922.6C-155.493 2927.82 -154.983 2933.02 -154.363 2938.22C-154.253 2939.21 -154.123 2940.2 -154.003 2941.19C-154.001 2941.2 -153.999 2941.22 -153.997 2941.24C-153.682 2943.42 -153.367 2945.6 -153.023 2947.78C-151.433 2957.86 -149.473 2967.89 -147.153 2977.84C-142.623 2997.27 -136.723 3016.37 -129.563 3034.98C-128.663 3037.31 -127.753 3039.63 -126.813 3041.94C-126.343 3043.11 -125.903 3045.11 -125.113 3046.09C-125.383 3045.75 -127.233 3041.16 -125.633 3044.85C-123.653 3049.43 -121.633 3053.99 -119.513 3058.51C-115.283 3067.55 -110.733 3076.45 -105.903 3085.19C-96.2327 3102.66 -85.3927 3119.49 -73.4727 3135.51C-72.5827 3136.71 -71.6726 3137.9 -70.7726 3139.1C-70.7411 3139.14 -70.7106 3139.18 -70.6808 3139.22C-69.4296 3140.81 -68.1833 3142.4 -66.9127 3143.98C-63.7927 3147.86 -60.6026 3151.7 -57.3427 3155.48C-50.8327 3163.03 -44.0626 3170.37 -37.0526 3177.46C-30.0426 3184.55 -22.7926 3191.39 -15.3026 3197.97C-11.3727 3201.42 -7.38266 3204.8 -3.32266 3208.1C-1.58267 3209.51 0.167328 3210.91 1.92734 3212.3C2.16589 3212.49 2.43808 3212.74 2.70557 3213.01C3.29187 3213.47 4.01996 3213.92 4.47736 3214.26C20.4073 3226.27 37.2273 3237.1 54.7673 3246.6C62.4273 3250.75 70.2173 3254.66 78.1073 3258.37C82.2373 3260.32 86.3874 3262.2 90.5674 3264.03C92.3574 3264.81 94.1974 3265.53 95.9673 3266.36C89.3273 3263.25 96.2173 3266.45 97.8474 3267.12C130.697 3280.56 164.707 3290.99 198.997 3300.07C268.657 3318.52 339.737 3331.22 409.027 3351.11C475.487 3370.18 541.187 3396.59 593.957 3442.39C620.187 3465.16 642.527 3493.06 658.947 3523.67C676.867 3557.07 688.437 3593.54 697.307 3630.26C706.057 3666.49 712.397 3703.23 720.657 3739.57C724.697 3757.34 729.197 3775.03 734.767 3792.39C737.447 3800.74 740.367 3809.01 743.617 3817.15C743.909 3817.88 744.207 3818.61 744.507 3819.34C745.4 3821.15 746.102 3823.07 746.937 3824.91C748.717 3828.82 750.577 3832.69 752.527 3836.51C756.407 3844.1 760.667 3851.5 765.337 3858.63C767.616 3862.09 769.989 3865.49 772.457 3868.82C776.006 3872.55 774.29 3871 773.13 3869.67C773.374 3869.99 773.612 3870.31 773.847 3870.61C775.187 3872.28 776.557 3873.93 777.957 3875.55C783.627 3882.13 789.747 3888.34 796.267 3894.09C798.097 3895.7 799.967 3897.28 801.857 3898.83C802.231 3899.13 802.644 3899.54 803.072 3899.92C803.28 3900.03 803.515 3900.17 803.757 3900.35C807.877 3903.33 812.017 3906.26 816.327 3908.97C824.817 3914.3 833.707 3918.97 842.877 3923.02C843.222 3923.18 843.569 3923.33 843.917 3923.48C845.447 3924.13 846.028 3924.38 845.66 3924.22C845.982 3924.32 846.273 3924.41 846.497 3924.5C848.597 3925.32 850.697 3926.11 852.817 3926.88C857.537 3928.59 862.307 3930.16 867.117 3931.6C886.727 3937.49 906.887 3941.33 927.127 3944.25C928.297 3944.42 929.52 3944.69 930.723 3944.82C931.214 3944.85 931.686 3944.88 931.997 3944.92C934.337 3945.22 936.667 3945.51 939.007 3945.79C943.967 3946.39 948.927 3946.95 953.887 3947.49C964.387 3948.63 974.907 3949.65 985.417 3950.7C1007.9 3952.93 1030.37 3955.34 1052.7 3958.77C1071.73 3961.7 1091.06 3965.07 1109.18 3971.76C1127.19 3978.4 1144.33 3987.14 1160.04 3998.18C1190.51 4019.59 1217.57 4047.61 1234.61 4080.99C1250.22 4111.59 1259.2 4147.75 1246.83 4182.16C1234.46 4216.57 1205.39 4242.2 1170.54 4252.52C1138.19 4262.1 1103.63 4258.31 1070.96 4252.74C1054.76 4249.98 1038.69 4246.5 1022.6 4243.2C1014.55 4241.55 1006.49 4239.94 998.407 4238.48C994.027 4237.68 989.627 4236.94 985.227 4236.26C983.84 4236.05 982.446 4235.84 981.056 4235.64C976.707 4235.19 977.199 4235.18 978.413 4235.29C963.599 4233.52 948.581 4232.71 933.707 4234.13C932.863 4234.21 932.023 4234.31 931.184 4234.41C929.703 4234.65 928.218 4234.9 926.747 4235.19C923.407 4235.85 920.087 4236.64 916.817 4237.59C913.258 4238.62 909.854 4239.96 906.373 4241.22C913.39 4238.68 907.473 4240.79 905.687 4241.67C904.227 4242.39 902.787 4243.14 901.367 4243.93C897.987 4245.81 894.727 4247.88 891.607 4250.15C891.543 4250.19 891.482 4250.24 891.423 4250.28C891.249 4250.43 891.042 4250.6 890.797 4250.81C889.367 4252.01 887.967 4253.25 886.597 4254.52C883.537 4257.36 880.657 4260.39 877.987 4263.6C874.227 4268.12 880.737 4259.67 877.307 4264.49C876.327 4265.86 875.387 4267.26 874.487 4268.69C872.427 4271.96 870.577 4275.36 868.947 4278.87C866.507 4284.12 870.757 4274.05 868.667 4279.54C868.087 4281.07 867.537 4282.62 867.037 4284.18C865.857 4287.84 864.887 4291.56 864.117 4295.33C863.761 4297.02 863.484 4298.74 863.188 4300.44C863.144 4300.79 863.102 4301.14 863.067 4301.49C862.277 4309.18 862.157 4316.93 862.487 4324.65C862.657 4328.67 862.947 4332.68 863.337 4336.69C863.537 4338.73 863.757 4340.77 864.007 4342.81C864.049 4343.15 864.095 4343.49 864.141 4343.83C863.925 4342.05 863.688 4338.82 864.26 4344.68C866.79 4361.85 870.62 4378.81 874.637 4395.68C891.577 4466.77 914.927 4546.6 875.517 4614.7C837.027 4681.22 756.917 4711.89 683.517 4716.52C638.947 4719.33 594.067 4710.68 551.107 4699.54C504.207 4687.37 458.397 4671.31 411.367 4659.57C399.637 4656.65 387.847 4653.99 375.977 4651.74C370.047 4650.62 364.087 4649.59 358.117 4648.69C356.874 4648.5 355.602 4648.37 354.357 4648.16L354.274 4648.15C352.558 4647.95 350.846 4647.75 349.127 4647.57C331.177 4645.71 313.067 4645.38 295.067 4646.6C290.307 4646.92 285.567 4647.35 280.827 4647.89C280.218 4647.95 279.612 4648.03 279.005 4648.1C276.938 4648.53 274.768 4648.7 272.677 4649.04C263.797 4650.48 254.987 4652.35 246.287 4654.65C237.717 4656.92 229.257 4659.62 220.977 4662.8C219.85 4663.24 218.715 4663.68 217.587 4664.14C213.719 4666.26 214.537 4665.67 215.859 4664.95C214.728 4665.44 213.569 4665.88 212.467 4666.4C208.747 4668.13 205.067 4669.96 201.447 4671.91C193.937 4675.95 186.677 4680.48 179.787 4685.51C179.706 4685.57 179.557 4685.68 179.366 4685.82C179.504 4685.73 177.674 4687.12 177.317 4687.41C175.687 4688.74 174.077 4690.1 172.497 4691.49C169.667 4693.98 166.917 4696.58 164.267 4699.27C161.037 4702.56 157.947 4706 155.027 4709.57C154.972 4709.64 154.917 4709.71 154.863 4709.77C155.839 4708.69 156.752 4708.12 153.779 4711.2C152.838 4712.51 151.886 4713.81 150.977 4715.15C146.151 4722.23 142.164 4729.7 138.554 4737.45C138.503 4737.58 138.447 4737.73 138.387 4737.88C137.947 4738.99 137.527 4740.11 137.117 4741.23C136.307 4743.45 135.557 4745.69 134.857 4747.95C133.627 4751.95 132.567 4756.01 131.697 4760.1C131.232 4762.26 130.85 4764.43 130.484 4766.61C130.509 4767.8 130.138 4769.22 130.037 4770.37C129.647 4774.65 129.457 4778.94 129.457 4783.24C129.457 4787.98 129.687 4792.72 130.147 4797.43C130.223 4798.26 130.324 4799.11 130.411 4799.96C130.723 4801.82 131.015 4803.69 131.367 4805.55C133.077 4814.54 135.547 4823.37 138.657 4831.98C139.44 4834.16 140.282 4836.32 141.143 4838.48C141.585 4839.47 142.013 4840.47 142.467 4841.45C144.337 4845.52 146.337 4849.52 148.457 4853.46C153.007 4861.9 158.107 4870.03 163.667 4877.84C165.207 4880.01 166.937 4882.08 168.417 4884.29C164.697 4878.74 169.427 4885.51 170.347 4886.64C173.457 4890.45 176.677 4894.17 179.987 4897.8C186.677 4905.13 193.757 4912.09 201.177 4918.68C204.907 4921.99 208.717 4925.2 212.607 4928.32C212.947 4928.6 216.697 4931.78 213.857 4929.34C211.017 4926.9 214.787 4930.04 215.147 4930.31C217.137 4931.81 219.147 4933.28 221.177 4934.73C229.257 4940.49 237.627 4945.84 246.257 4950.75C254.776 4955.59 263.544 4959.89 272.482 4963.88C272.487 4963.88 272.492 4963.89 272.497 4963.89C273.677 4964.36 274.847 4964.84 276.027 4965.3C278.547 4966.29 281.077 4967.25 283.617 4968.19C289.247 4970.27 294.917 4972.24 300.627 4974.09C392.637 5003.95 490.847 5004.85 583.827 5030.6C624.407 5041.84 663.417 5059.11 697.897 5083.42C732.077 5107.51 762.857 5137.47 783.697 5174.03C804.727 5210.93 813.567 5252.53 807.517 5294.63C802.107 5332.25 783.257 5366.77 757.197 5394.11C703.487 5450.45 623.167 5477.34 547.177 5483.41C496.027 5487.5 444.697 5484.35 393.507 5483C367.677 5482.32 341.817 5482.08 316.007 5483.49C303.393 5484.17 290.839 5485.35 278.294 5486.86C277.392 5486.99 276.492 5487.12 275.587 5487.26L275.443 5487.28C274.231 5487.46 273.019 5487.65 271.817 5487.84C268.677 5488.33 265.547 5488.87 262.417 5489.44C256.687 5490.49 250.977 5491.65 245.307 5492.98C235.777 5495.22 226.387 5498.05 217.187 5501.4C214.627 5502.33 212.087 5503.3 209.557 5504.31C209.221 5504.44 208.822 5504.56 208.43 5504.65C207.793 5504.94 207.122 5505.31 206.687 5505.5C202.117 5507.51 197.607 5509.64 193.167 5511.9C184.257 5516.42 175.597 5521.44 167.247 5526.92C163.077 5529.66 158.987 5532.51 154.987 5535.47C154.197 5536.05 153.414 5536.65 152.631 5537.24C152.573 5537.29 152.512 5537.34 152.447 5537.39C150.517 5538.94 148.597 5540.49 146.707 5542.09C139.237 5548.4 132.117 5555.15 125.477 5562.34C122.207 5565.88 119.047 5569.52 116.017 5573.27C115.367 5574.07 113.797 5577.47 115.107 5574.37C116.417 5571.27 114.827 5574.75 114.267 5575.51C112.857 5577.42 111.477 5579.35 110.137 5581.3C104.847 5589 100.107 5597.07 96.0873 5605.5C95.6274 5606.47 95.1797 5607.45 94.7298 5608.43L94.3474 5609.26L94.3306 5609.29C94.329 5609.3 94.3274 5609.3 94.3258 5609.31C94.3329 5609.29 94.3401 5609.27 94.3474 5609.26L94.7173 5608.32C95.8931 5605.38 92.373 5613.54 94.3258 5609.31C94.3274 5609.3 94.329 5609.3 94.3306 5609.29L94.3474 5609.26C94.3401 5609.27 94.3329 5609.29 94.3258 5609.31C93.695 5610.89 93.0656 5612.48 92.4774 5614.08C90.9073 5618.35 89.5273 5622.71 88.3673 5627.1C87.23 5631.4 86.285 5635.75 85.5605 5640.15C85.7446 5644.92 85.324 5643.2 85.4245 5641.31C85.3584 5641.74 85.284 5642.17 85.2473 5642.53C85.0074 5644.8 84.8373 5647.07 84.7274 5649.35C84.4973 5653.94 84.5073 5658.54 84.7673 5663.13C84.8961 5665.43 85.1131 5667.71 85.331 5670.01L85.3318 5670.02C85.4604 5670.84 85.5865 5671.66 85.7274 5672.49C87.2274 5681.04 89.5573 5689.46 92.6273 5697.58C92.8051 5698.05 93.0017 5698.51 93.1974 5698.98C92.6467 5697.4 92.3493 5695.93 93.7925 5700.43C94.4872 5701.94 95.2003 5703.44 95.9474 5704.93C97.6374 5708.31 99.4673 5711.61 101.427 5714.83C103.469 5718.17 105.689 5721.38 107.953 5724.56C110.427 5727.41 109.942 5727.03 109.155 5726.13C110.273 5727.5 111.423 5728.86 112.597 5730.19C117.817 5736.12 123.507 5741.64 129.557 5746.73C130.967 5747.91 137.857 5752.81 131.557 5748.46C133.047 5749.49 134.457 5750.64 135.927 5751.69C139.057 5753.94 142.257 5756.09 145.517 5758.15C152.517 5762.56 159.777 5766.55 167.217 5770.16C169.487 5771.26 171.777 5772.33 174.077 5773.36C174.845 5773.71 175.622 5774.04 176.39 5774.38C179.732 5775.74 183.078 5777.06 186.467 5778.3C194.627 5781.28 202.787 5783.87 211.297 5786.2C219.807 5788.53 228.407 5790.54 237.067 5792.25C241.867 5793.19 246.677 5794.05 251.507 5794.82C253.487 5795.13 255.467 5795.43 257.447 5795.72C257.527 5795.73 257.607 5795.74 257.687 5795.75C256.58 5795.57 255.981 5795.4 259.886 5796.04C277.259 5798.1 294.7 5799.33 312.207 5799.49C332.777 5799.67 353.337 5798.44 373.897 5798.25C466.197 5797.42 563.057 5806.16 645.627 5850.81C686.927 5873.14 725.327 5902.15 761.197 5932.28C796.097 5961.6 828.587 5993.67 859.277 6027.34C871.217 6040.45 883.817 6053.47 894.177 6067.91C899.267 6075.01 903.647 6082.66 907.747 6090.37C922.837 6118.69 934.327 6149.32 941.517 6180.59C961.377 6266.95 947.837 6359.49 897.907 6433.52C864.937 6482.41 818.867 6522.9 766.397 6549.85C691.737 6588.19 605.917 6594.02 523.557 6597.8C499.737 6598.89 475.917 6599.84 452.137 6601.5C440.287 6602.33 428.447 6603.33 416.637 6604.59C411.569 6605.13 406.216 6605.37 401.138 6606.27C400.53 6606.41 399.451 6606.64 398.817 6606.73C397.347 6606.94 395.887 6607.15 394.427 6607.37C391.507 6607.81 388.587 6608.26 385.677 6608.74C362.527 6612.54 339.567 6617.78 317.297 6625.22C311.747 6627.07 306.247 6629.06 300.807 6631.19C299.167 6631.83 297.547 6632.5 295.917 6633.15C295.623 6633.27 295.138 6633.45 294.731 6633.59C292.595 6634.49 290.486 6635.53 288.407 6636.5C278.767 6640.98 269.347 6645.94 260.317 6651.56C256.027 6654.23 251.827 6657.03 247.717 6659.95C246.008 6661.16 244.348 6662.61 242.594 6663.8C243.96 6662.94 245.279 6662.24 241.865 6664.28C241.668 6664.41 241.492 6664.54 241.357 6664.65C240.567 6665.28 239.777 6665.92 238.997 6666.56C231.157 6672.97 223.717 6679.87 216.737 6687.21C213.087 6691.05 209.567 6695.01 206.187 6699.09C204.787 6700.78 203.057 6702.49 201.937 6704.38C205.227 6698.83 201.027 6705.69 200.057 6707.05C194.267 6715.13 189.037 6723.61 184.467 6732.44C183.107 6735.07 181.807 6737.73 180.577 6740.41C180.199 6741.24 179.829 6742.06 179.46 6742.89C177.837 6747.08 176.24 6751.25 174.877 6755.54C173.247 6760.64 171.867 6765.81 170.737 6771.04C170.277 6773.17 169.857 6775.32 169.487 6777.47C169.37 6778.14 169.262 6778.81 169.156 6779.48C169.798 6781.06 168.436 6786.34 168.327 6788.14C168.177 6790.58 168.077 6793.02 168.047 6795.46C167.987 6799.88 168.127 6804.31 168.467 6808.72C168.595 6810.29 168.746 6811.85 168.916 6813.42C169.705 6816.61 169.612 6816.69 169.38 6815.89C169.621 6817.41 169.811 6818.95 170.107 6820.44C170.977 6824.77 172.027 6829.07 173.257 6833.31C174.641 6838.06 176.306 6842.7 178.071 6847.32C178.245 6847.66 178.533 6848.38 178.739 6848.93C179.055 6849.64 179.36 6850.33 179.427 6850.48C180.337 6852.47 181.287 6854.44 182.277 6856.39C186.697 6865.11 191.847 6873.46 197.547 6881.4C198.467 6882.69 199.429 6883.95 200.372 6885.22L201.252 6886.31C202.486 6887.83 203.723 6889.36 204.997 6890.86C208.067 6894.47 211.247 6897.99 214.527 6901.42C221.507 6908.72 228.917 6915.61 236.647 6922.11C238.787 6923.91 240.957 6925.69 243.147 6927.43C243.218 6927.48 243.492 6927.7 243.831 6927.97C244.487 6928.47 245.693 6929.41 245.857 6929.53C249.747 6932.45 253.687 6935.28 257.687 6938.03C266.087 6943.81 274.737 6949.23 283.567 6954.33C293.007 6959.77 302.667 6964.81 312.467 6969.58C317.837 6972.19 323.237 6974.73 328.677 6977.19C331.387 6978.42 334.117 6979.63 336.847 6980.83L338.064 6981.36C338.749 6981.66 339.436 6981.96 340.127 6982.26C340.629 6982.48 342.9 6983.46 343.408 6983.68C430.881 7020.96 524.838 7040.25 613.587 7074.1C692.927 7104.35 768.877 7147.6 824.327 7213.25C851.167 7245.04 872.867 7281.01 885.007 7321C897.817 7363.21 898.447 7408.23 888.347 7451.06C867.287 7540.36 805.337 7613.87 739.007 7676.67C672.677 7739.47 597.217 7792.15 518.757 7838.6Z" fill="#88C890"/>
<path d="M862.517 -1030.03C836.747 -1025.9 794.24 -1020.46 769 -1018C769 -1018 770 -1029.03 768 -1040.5C766 -1051.97 758 -1058 758 -1058C777 -1062 799.43 -1065.67 811.5 -1067C823.57 -1068.33 832.6 -1070.23 838 -1071C843.4 -1071.77 856.13 -1074.53 861.5 -1075.5C873.37 -1077.64 882.247 -1079.65 893.777 -1083.19C900.127 -1085.14 906.337 -1087.41 912.517 -1089.84C912.793 -1089.95 913.075 -1090.03 913.333 -1090.09C913.988 -1090.42 914.641 -1090.81 915.217 -1091.07C917.237 -1092.01 919.247 -1092.98 921.227 -1094C926.107 -1096.49 930.867 -1099.22 935.477 -1102.17C938.817 -1104.31 943.957 -1106.81 946.507 -1109.88C943.927 -1107.88 943.587 -1107.63 945.477 -1109.13C946.057 -1109.6 946.637 -1110.07 947.207 -1110.55C948.167 -1111.35 949.117 -1112.15 950.047 -1112.97C951.907 -1114.6 953.737 -1116.28 955.517 -1118C958.707 -1121.08 961.757 -1124.31 964.637 -1127.68C965.267 -1128.42 969.317 -1132.08 966.587 -1129.96C964.007 -1127.96 966.897 -1130.39 967.477 -1131.19C968.907 -1133.16 970.277 -1135.17 971.587 -1137.22C973.927 -1140.89 976.067 -1144.69 977.977 -1148.61C978.277 -1149.22 980.967 -1154.6 979.227 -1151.2C977.487 -1147.8 979.507 -1152.01 979.707 -1152.55C980.547 -1154.82 981.317 -1157.12 981.997 -1159.44C982.307 -1160.49 985.577 -1171.99 984.857 -1172.29C984.427 -1168.89 984.357 -1168.44 984.647 -1170.95C984.727 -1171.72 984.797 -1172.5 984.857 -1173.27C984.957 -1174.55 985.037 -1175.84 985.087 -1177.13C985.187 -1179.69 985.187 -1182.26 985.087 -1184.83C984.999 -1187.1 984.745 -1189.35 984.585 -1191.62C984.448 -1192.44 984.312 -1193.27 984.157 -1194.09C983.117 -1199.65 981.637 -1205.12 979.797 -1210.46C979.457 -1211.44 979.107 -1212.41 978.747 -1213.38C978.607 -1213.76 976.967 -1218.54 978.157 -1215.02C979.347 -1211.5 977.617 -1216.21 977.427 -1216.62C976.987 -1217.56 976.547 -1218.5 976.087 -1219.44C973.557 -1224.62 970.697 -1229.63 967.557 -1234.46C966.267 -1236.44 964.927 -1238.4 963.537 -1240.32C963.127 -1240.9 962.725 -1241.51 962.302 -1242.1C962.107 -1242.31 961.914 -1242.52 961.767 -1242.69C954.727 -1250.97 947.327 -1258.75 938.907 -1265.66C938.408 -1266.07 938.053 -1266.37 937.81 -1266.57C936.914 -1267.23 936.035 -1267.9 935.137 -1268.54C932.817 -1270.21 930.467 -1271.83 928.077 -1273.4C923.547 -1276.37 918.907 -1279.17 914.177 -1281.8C908.947 -1284.71 903.607 -1287.42 898.177 -1289.94C895.614 -1291.14 893.031 -1292.47 890.379 -1293.43C891.103 -1293.17 894.789 -1291.64 890.987 -1293.16C889.657 -1293.69 888.327 -1294.23 886.997 -1294.76C865.567 -1303.22 843.337 -1309.47 821.047 -1315.22C772.017 -1327.87 722.607 -1339.04 672.937 -1348.87C623.057 -1358.74 572.897 -1367.21 522.537 -1374.27C519.077 -1374.76 515.607 -1375.24 512.147 -1375.71C512.133 -1375.71 511.365 -1375.82 510.524 -1375.93C510.101 -1375.98 506.809 -1376.42 506.787 -1376.42C500.797 -1377.21 494.807 -1377.98 488.817 -1378.73C476.207 -1380.31 463.577 -1381.81 450.947 -1383.21C425.677 -1386.02 400.367 -1388.47 375.027 -1390.58C273.367 -1399.03 171.227 -1401.8 69.2473 -1398.86C18.4174 -1397.39 -32.3627 -1394.51 -83.0327 -1390.2C-108.363 -1388.05 -133.673 -1385.54 -158.933 -1382.67C-171.563 -1381.23 -184.183 -1379.71 -196.793 -1378.1C-199.953 -1377.69 -203.103 -1377.28 -206.253 -1376.87C-207.504 -1376.71 -208.755 -1376.55 -210.007 -1376.38C-210.325 -1376.34 -210.84 -1376.27 -211.613 -1376.16C-217.913 -1375.3 -224.153 -1374.43 -230.503 -1373.53C-236.853 -1372.63 -242.123 -1372.78 -247.843 -1375.8C-253.043 -1378.55 -256.433 -1383.84 -258.183 -1389.25C-259.933 -1394.66 -258.733 -1401.77 -255.913 -1406.59C-253.403 -1410.87 -247.643 -1416.19 -242.463 -1416.93C-147.943 -1430.41 -52.8326 -1439.27 42.5674 -1442.96C144.197 -1446.89 246.037 -1445.13 347.467 -1437.73C450.887 -1430.18 553.947 -1416.85 655.877 -1397.83C705.857 -1388.51 755.587 -1377.78 804.967 -1365.65C851.317 -1354.26 900.527 -1341.79 940.607 -1318.54C980.687 -1295.29 1014.99 -1257.94 1026.25 -1212.05C1031.77 -1189.57 1031.34 -1164.55 1024.09 -1143.29C1016.84 -1122.03 1004.39 -1102.96 988.407 -1087.2C954.457 -1053.72 908.777 -1037.45 862.517 -1030.03Z" fill="#88C890"/>
</svg>
