<svg width="1080" height="1940" viewBox="0 0 1080 1940" fill="none" xmlns="http://www.w3.org/2000/svg">
<path d="M518.757 5908.6C440.187 5955.13 358.307 5995.71 276.457 6036.08L276.397 6036.1C265.087 6041.68 252.607 6038.87 245.617 6028.03C239.347 6018.32 243.107 6002.47 253.687 5997.25C328.947 5960.13 404.197 5922.84 476.927 5880.91C516.037 5858.36 554.407 5834.48 591.407 5808.6C600.607 5802.16 609.737 5795.6 618.757 5788.91C623.267 5785.57 627.747 5782.2 632.207 5778.79C632.576 5778.5 633.799 5777.57 634.498 5777.04C634.882 5776.74 635.265 5776.44 635.647 5776.14C637.857 5774.41 640.057 5772.68 642.257 5770.94C659.837 5757.02 676.977 5742.55 693.567 5727.47C710.197 5712.36 726.277 5696.64 741.697 5680.29C749.337 5672.18 756.837 5663.93 764.087 5655.47C767.707 5651.25 771.267 5646.98 774.767 5642.66C776.517 5640.5 778.257 5638.32 779.977 5636.13C780.117 5635.95 783.457 5631.58 781.297 5634.44C779.137 5637.3 782.457 5632.91 782.587 5632.73C795.977 5615 808.277 5596.39 818.797 5576.8C821.397 5571.95 823.897 5567.05 826.277 5562.08C827.457 5559.61 828.617 5557.12 829.737 5554.62C830.284 5553.4 830.803 5552.17 831.347 5550.95C835.427 5540.86 839.097 5530.58 842.047 5520.14C844.997 5509.7 847.207 5499.12 848.867 5488.4C849.737 5482.83 848.337 5493.55 848.917 5487.93C849.057 5486.58 849.227 5485.23 849.357 5483.88C849.597 5481.44 849.807 5479 849.967 5476.56C850.327 5471.1 850.497 5465.62 850.457 5460.15C850.427 5455.27 850.227 5450.39 849.867 5445.53C849.697 5443.12 849.477 5440.71 849.217 5438.31L849.142 5437.64C849.05 5436.85 848.95 5436.06 848.859 5435.27C847.408 5426 845.507 5416.81 842.967 5407.78C841.687 5403.21 840.267 5398.69 838.717 5394.21C837.937 5391.97 837.127 5389.75 836.287 5387.53C835.657 5385.85 833.784 5382.81 833.671 5381C833.2 5379.93 832.718 5378.87 832.237 5377.81C831.347 5375.87 830.437 5373.93 829.497 5372.01C827.407 5367.73 825.197 5363.5 822.877 5359.33C818.207 5350.93 813.097 5342.78 807.617 5334.88C806.097 5332.7 804.547 5330.53 802.977 5328.38C802.007 5327.05 800.527 5323.89 799.047 5323.13C801.077 5325.75 801.357 5326.12 799.877 5324.22L798.967 5323.07C798.357 5322.3 797.747 5321.54 797.137 5320.78C795.607 5318.87 794.047 5316.99 792.467 5315.12C779.677 5299.98 765.597 5285.95 750.607 5272.98C746.627 5269.54 742.577 5266.17 738.477 5262.88C736.747 5261.49 735.037 5259.88 733.157 5258.68C738.637 5262.16 731.817 5257.68 730.507 5256.71C722.437 5250.69 714.157 5244.93 705.717 5239.44C688.917 5228.52 671.447 5218.63 653.467 5209.8C644.5 5205.4 635.408 5201.1 626.157 5197.31C625.364 5196.99 623.821 5196.37 623.267 5196.14C621.607 5195.45 619.947 5194.77 618.287 5194.1C615.797 5193.09 613.297 5192.1 610.797 5191.11C605.517 5189.03 600.207 5187 594.887 5185.02C503.857 5151.09 408.507 5130.22 319.037 5091.88C241.227 5058.54 160.717 5006.33 132.037 4922.3C118.327 4882.11 120.817 4837.55 137.027 4798.51C154.277 4757 183.157 4722.61 218.857 4695.63C255.447 4667.97 299.757 4651.12 344.217 4641.09C391.807 4630.35 440.787 4626.75 489.407 4624.4C513.497 4623.24 537.597 4622.34 561.667 4620.85C573.777 4620.09 585.867 4619.2 597.937 4618.05C604.557 4617.42 611.177 4616.72 617.777 4615.92C618.967 4615.78 620.167 4615.63 621.367 4615.48L622 4615.4C622.409 4615.34 622.96 4615.27 623.476 4615.2C624.51 4615.06 626.056 4614.85 626.137 4614.84C627.337 4614.67 628.527 4614.5 629.717 4614.32C653.727 4610.74 677.557 4605.7 700.717 4598.36C706.717 4596.46 712.667 4594.41 718.557 4592.19C721.367 4591.13 724.147 4590 726.947 4588.9C727.289 4588.76 727.552 4588.66 727.749 4588.59C727.992 4588.48 728.292 4588.35 728.657 4588.19C731.117 4587.12 733.557 4586 735.987 4584.84C754.587 4575.98 772.297 4565.18 788.937 4553.04C790.457 4551.93 791.967 4550.81 793.467 4549.68C793.714 4549.5 793.958 4549.31 794.201 4549.12C796.806 4547.06 799.4 4544.98 801.957 4542.86C807.847 4537.95 813.577 4532.85 819.117 4527.56C825.027 4521.92 830.727 4516.06 836.197 4509.98C839.187 4506.66 842.117 4503.26 844.967 4499.81C846.347 4498.13 847.717 4496.44 849.067 4494.73C849.607 4494.05 850.127 4493.33 850.687 4492.66C850.515 4492.86 850.355 4493.05 850.206 4493.23C850.133 4493.32 850.06 4493.42 849.987 4493.52C849.098 4494.7 846.956 4497.06 850.206 4493.23C861.296 4478.35 871.091 4462.56 879.237 4445.88C880.427 4443.44 881.587 4440.99 882.707 4438.52C883.283 4437.25 886.315 4429.42 884.085 4435.5C885.744 4430.98 887.673 4426.57 889.297 4422.05C893.247 4411.04 896.537 4399.8 899.137 4388.4C900.497 4382.45 901.667 4376.45 902.647 4370.43C902.907 4368.82 904.739 4360.08 903.318 4366.23C903.868 4363.83 903.909 4361.2 904.157 4358.76C905.247 4347.94 905.737 4337.06 905.637 4326.18C905.537 4315.84 904.917 4305.51 903.807 4295.23C903.67 4293.97 903.517 4292.71 903.367 4291.46C902.536 4289.73 902.541 4288.7 902.737 4288.66C902.561 4287.11 902.514 4285.42 902.327 4284.29C901.597 4279.79 900.777 4275.31 899.867 4270.84C896.367 4253.67 891.537 4236.78 885.507 4220.33C884.107 4216.5 882.637 4212.7 881.107 4208.92C880.896 4208.39 880.679 4207.87 880.465 4207.35L880.242 4206.83C879.726 4205.64 879.21 4204.45 878.677 4203.27C876.037 4197.37 873.247 4191.55 870.267 4185.82C866.047 4177.7 861.517 4169.67 856.307 4162.14C855.527 4161.01 854.687 4159.92 853.897 4158.79C860.047 4167.6 854.427 4159.74 852.527 4157.54C845.027 4148.85 837.427 4140.25 829.717 4131.75C799.117 4098 766.727 4065.82 731.947 4036.36C723.237 4028.99 714.357 4021.82 705.387 4014.77C705.24 4014.65 705.11 4014.55 704.995 4014.46C704.854 4014.35 704.692 4014.23 704.507 4014.09C703.597 4013.4 702.687 4012.7 701.777 4012.01C699.487 4010.28 697.197 4008.56 694.897 4006.85C690.287 4003.43 685.627 4000.05 680.937 3996.73C662.257 3983.5 643.037 3970.62 622.877 3959.73C618.067 3957.13 613.197 3954.66 608.257 3952.31C605.787 3951.14 603.307 3949.99 600.807 3948.88C599.807 3948.44 598.797 3948.01 597.797 3947.56C597.667 3947.5 597.546 3947.45 597.434 3947.4C597.335 3947.36 597.229 3947.31 597.117 3947.27C586.897 3943.16 576.587 3939.37 566.067 3936.09C544.727 3929.43 522.847 3924.56 500.777 3921.02C497.987 3920.57 495.187 3920.15 492.387 3919.74C491.339 3919.59 490.294 3919.43 489.248 3919.28C488.989 3919.25 488.657 3919.21 488.237 3919.16C482.577 3918.46 476.917 3917.79 471.247 3917.22C459.837 3916.07 448.397 3915.21 436.947 3914.59C413.927 3913.35 390.857 3913.06 367.807 3913.38C347.737 3913.65 327.667 3914.86 307.597 3914.48C288.317 3914.12 269.167 3912.41 250.067 3909.81C213.907 3904.9 178.567 3895.4 145.577 3879.61C113.807 3864.4 85.3874 3841.97 65.6974 3812.56C43.5074 3779.43 35.8474 3738.92 41.8474 3699.81C47.9474 3660.03 70.7173 3623.57 98.6073 3595.29C128.547 3564.93 165.827 3542.24 205.827 3527.8C251.847 3511.18 302.667 3507.83 351.217 3507.52C402.477 3507.19 453.677 3511.14 504.947 3510.36C517.727 3510.16 530.507 3509.67 543.257 3508.74C548.727 3508.34 554.197 3507.86 559.657 3507.25C561.687 3507.02 563.717 3506.66 565.747 3506.51C558.267 3507.05 566.077 3506.44 567.907 3506.16C586.207 3503.35 604.287 3499.13 621.927 3493.51C630.682 3490.73 639.299 3487.56 647.799 3484.09C647.802 3484.09 647.805 3484.09 647.807 3484.09C649.077 3483.53 650.347 3482.98 651.607 3482.41C653.497 3481.56 655.377 3480.69 657.247 3479.8C661.177 3477.94 665.067 3475.99 668.917 3473.95C676.927 3469.71 684.727 3465.08 692.267 3460.06C695.926 3457.62 699.496 3455.08 703.021 3452.46C706.137 3449.22 705.519 3450.34 704.348 3451.42C704.563 3451.26 704.773 3451.1 704.967 3450.95C706.687 3449.57 708.377 3448.16 710.057 3446.73C716.687 3441.07 722.977 3435 728.817 3428.53C730.547 3426.61 732.247 3424.65 733.897 3422.66C734.184 3422.32 734.95 3421.37 735.641 3420.51C736.262 3419.67 737.838 3417.58 738.247 3417.01C739.487 3415.26 740.697 3413.5 741.877 3411.71C746.519 3404.66 750.626 3397.26 754.103 3389.57C754.502 3388.12 755.046 3387.06 755.02 3387.3C755.176 3386.95 755.327 3386.59 755.457 3386.25C756.147 3384.43 756.807 3382.59 757.427 3380.74C758.757 3376.8 759.927 3372.81 760.927 3368.77C761.567 3366.19 762.137 3363.58 762.647 3360.97C763.001 3359.18 762.853 3355.73 763.769 3354.21C763.84 3353.57 763.908 3352.94 763.967 3352.3C764.177 3350.18 764.337 3348.06 764.447 3345.94C764.727 3340.82 764.737 3335.69 764.487 3330.57C764.387 3328.5 764.247 3326.43 764.057 3324.36C763.986 3323.61 763.906 3322.87 763.829 3322.13C761.73 3313.46 760.615 3304.71 757.867 3296.13C757.037 3293.52 756.127 3290.92 755.167 3288.35L754.873 3287.58C754.644 3286.97 754.416 3286.37 754.177 3285.78C754.174 3285.77 754.171 3285.76 754.168 3285.75C753.886 3285.04 753.355 3284.14 753.026 3283.65C751.598 3280.75 750.477 3277.56 749.047 3274.76C744.797 3266.41 739.927 3258.39 734.577 3250.7C733.213 3248.73 731.791 3246.79 730.366 3244.86C729.884 3244.4 727.967 3241.79 727.777 3241.56C725.047 3238.19 722.217 3234.9 719.317 3231.68C712.767 3224.42 705.807 3217.54 698.527 3211.02C694.477 3207.39 690.317 3203.87 686.067 3200.47C685.409 3199.94 684.75 3199.43 684.092 3198.91C682.311 3197.59 680.549 3196.24 678.747 3194.94C662.557 3183.19 645.277 3172.93 627.257 3164.25C624.567 3162.96 621.857 3161.69 619.137 3160.47C618.237 3160.06 617.327 3159.66 616.417 3159.26C615.507 3158.87 614.597 3158.47 613.687 3158.08L616.327 3159.19C613.197 3156.84 607.617 3155.66 603.957 3154.3C593.957 3150.58 583.777 3147.42 573.507 3144.54C480.587 3118.46 382.377 3117.62 290.277 3088.1C268.627 3081.17 247.297 3072.78 227.337 3061.84C208.437 3051.49 190.777 3038.91 174.347 3024.99C143.907 2999.19 117.427 2966.55 101.537 2929.76C85.1173 2891.74 78.9973 2849.86 90.3873 2809.44C101.177 2771.15 125.577 2739.51 157.497 2716.37C186.947 2695.01 222.937 2682.15 258.607 2676.07C298.507 2669.27 338.177 2669.92 378.037 2676.66C426.157 2684.8 472.627 2700.08 519.297 2713.94C542.467 2720.82 565.747 2727.38 589.367 2732.57C601.137 2735.15 612.977 2737.39 624.897 2739.15C626.187 2739.34 631.597 2740.45 626.077 2739.34C627.237 2739.57 628.487 2739.65 629.667 2739.79C632.667 2740.16 635.667 2740.49 638.667 2740.79C643.177 2741.24 647.697 2741.59 652.227 2741.81C661.067 2742.25 669.917 2742.25 678.757 2741.84C683.217 2741.63 687.677 2741.32 692.117 2740.9C694.337 2740.69 696.567 2740.45 698.787 2740.19C699.206 2740.14 699.636 2740.07 700.067 2740.01C698.217 2740.17 695.576 2740.15 701.184 2739.87C718.702 2737.28 735.99 2733.04 752.657 2727.05C754.727 2726.31 756.797 2725.53 758.847 2724.73C760.597 2724.04 767.037 2720.7 760.777 2724C764.617 2721.98 768.747 2720.44 772.637 2718.5C780.317 2714.67 787.777 2710.38 794.917 2705.61C796.687 2704.43 798.427 2703.23 800.147 2701.99C801.667 2700.91 806.957 2696.21 801.667 2700.96C804.777 2698.17 808.157 2695.68 811.257 2692.87C817.285 2687.39 822.783 2681.44 827.959 2675.16C828.373 2674.6 828.797 2674.03 829.207 2673.46C830.407 2671.78 831.567 2670.08 832.697 2668.36C834.957 2664.91 837.057 2661.35 838.997 2657.7C839.967 2655.86 840.897 2654.01 841.787 2652.13C842.737 2650.14 844.387 2643.97 842.547 2650.62C843.667 2646.58 845.527 2642.73 846.757 2638.64C847.987 2634.55 849.017 2630.4 849.857 2626.21C850.277 2624.14 850.647 2622.06 850.977 2619.98C851.107 2619.16 851.187 2618.29 851.357 2617.47C851.306 2617.72 851.258 2617.95 851.214 2618.17C851.205 2618.25 851.196 2618.33 851.187 2618.41C851.004 2620.05 850.012 2624.06 851.214 2618.17C852.133 2609.72 852.415 2601.43 852.207 2592.72C851.997 2583.93 851.277 2575.16 850.207 2566.43C850.011 2564.83 849.283 2560.41 850.265 2566.76C850.149 2565.99 850.051 2565.21 849.937 2564.44C849.617 2562.22 849.267 2560 848.907 2557.78C848.177 2553.31 847.377 2548.85 846.517 2544.41C843.215 2527.33 839.107 2510.41 835.003 2493.5L834.377 2490.93L834.361 2490.86C818.473 2425.41 798.517 2343.2 856.057 2291.5C882.207 2268 915.577 2258.29 950.317 2258.47C984.017 2258.64 1017.41 2266.34 1050.25 2273.11C1058.3 2274.76 1066.35 2276.4 1074.43 2277.89C1078.42 2278.62 1082.41 2279.33 1086.41 2279.98C1088.39 2280.3 1090.37 2280.61 1092.36 2280.91C1093.32 2281.05 1096.09 2281.37 1096.93 2281.46C1110.97 2282.93 1124.93 2284.04 1139.08 2282.91C1140.87 2282.76 1142.67 2282.51 1144.46 2282.33C1144.8 2282.28 1145.14 2282.23 1145.49 2282.17C1148.83 2281.59 1152.15 2280.88 1155.42 2280.01C1158.51 2279.19 1161.56 2278.24 1164.57 2277.14C1164.85 2277.01 1165.54 2276.73 1166.85 2276.23C1168.19 2275.6 1169.53 2274.97 1170.85 2274.28C1174.21 2272.52 1177.47 2270.55 1180.6 2268.4C1180.99 2268.13 1181.38 2267.85 1181.77 2267.57C1182.93 2266.58 1184.17 2265.66 1185.31 2264.65C1188.28 2262.01 1191.09 2259.21 1193.7 2256.22C1193.4 2256.4 1193.68 2255.84 1195.7 2253.77C1196.46 2252.69 1197.21 2251.61 1197.92 2250.5C1199.85 2247.45 1201.38 2244.25 1203.01 2241.06C1203.12 2240.78 1203.23 2240.5 1203.33 2240.22C1203.94 2238.54 1204.48 2236.85 1204.97 2235.13C1205.55 2233.08 1206.05 2231 1206.47 2228.91C1206.55 2228.51 1206.71 2227.57 1206.85 2226.7C1206.95 2225.78 1207.06 2224.74 1207.09 2224.31C1207.22 2222.52 1207.29 2220.72 1207.31 2218.93C1207.35 2215.14 1207.07 2211.39 1206.75 2207.62C1206.74 2207.56 1206.73 2207.5 1206.72 2207.44C1206.41 2205.6 1206.06 2203.76 1205.66 2201.93C1204 2194.28 1201.22 2187.2 1198.68 2179.84C1201.17 2187.07 1198.37 2179.31 1197.53 2177.54C1196.74 2175.89 1195.92 2174.26 1195.08 2172.64C1193.27 2169.16 1191.34 2165.75 1189.31 2162.41C1187.02 2158.64 1184.58 2154.95 1182.03 2151.35C1180.98 2149.86 1179.89 2148.42 1178.82 2146.95C1178.34 2146.36 1177.87 2145.75 1177.39 2145.16C1171.89 2138.39 1165.97 2131.96 1159.7 2125.89C1156.37 2122.67 1152.94 2119.55 1149.42 2116.54C1147.91 2115.25 1146.38 2113.97 1144.83 2112.72C1143.97 2112.02 1142.99 2111.38 1142.14 2110.64C1135.33 2105.67 1128.37 2100.95 1121.06 2096.74C1117.09 2094.45 1113.05 2092.29 1108.93 2090.28C1107.18 2089.42 1105.42 2088.59 1103.64 2087.79C1102.88 2087.45 1102.1 2087.14 1101.33 2086.81C1083.7 2080.11 1065.4 2076.24 1046.82 2073.17C1041.5 2072.3 1036.16 2071.52 1030.82 2070.76C1029.84 2070.63 1028.86 2070.5 1027.87 2070.38C1025.26 2070.05 1022.64 2069.73 1020.02 2069.42C1009.52 2068.18 998.987 2067.09 988.467 2066.04L986.972 2065.89C965.031 2063.7 943.101 2061.51 921.247 2058.53C879.687 2052.87 838.127 2043.34 801.297 2022.49C767.187 2003.18 739.267 1974.35 719.697 1940.5C682.637 1876.41 673.707 1800.91 657.907 1729.85C653.897 1711.85 649.487 1693.93 644.117 1676.28C641.467 1667.58 638.587 1658.94 635.397 1650.42C634.447 1647.88 633.477 1645.35 632.467 1642.83C631.797 1641.16 628.367 1634.37 631.637 1640.7C629.797 1637.12 628.387 1633.26 626.667 1629.62C619.197 1613.81 610.297 1598.7 599.967 1584.58C598.887 1583.1 593.317 1576.63 598.207 1582.16C596.847 1580.61 595.637 1578.91 594.327 1577.32C591.987 1574.47 589.587 1571.66 587.127 1568.91C581.587 1562.71 575.567 1556.59 569.687 1551.09C563.807 1545.59 557.657 1540.42 551.377 1535.39C551.353 1535.37 551.329 1535.35 551.306 1535.33C550.78 1534.93 550.253 1534.53 549.727 1534.14C548.117 1532.94 546.497 1531.75 544.867 1530.58C541.767 1528.35 538.617 1526.18 535.437 1524.07C521.907 1515.08 507.727 1507.1 493.147 1499.95C485.888 1496.39 478.505 1493.11 471.1 1489.86L470.797 1489.74L469.995 1489.41C469.489 1489.2 468.981 1488.99 468.477 1488.79C466.537 1488 464.597 1487.23 462.647 1486.46C458.927 1484.99 455.197 1483.57 451.447 1482.18C435.377 1476.24 419.067 1470.97 402.637 1466.14C333.957 1445.98 263.387 1433.29 194.147 1415.35C122.717 1396.84 50.7274 1372.56 -9.85266 1329.32C-77.1527 1281.28 -131.133 1214.89 -163.953 1138.94C-180.413 1100.86 -192.063 1062.8 -197.863 1020.12C-203.663 977.438 -203.223 935.098 -196.473 892.548C-183.653 811.708 -146.823 735.568 -94.6927 672.828C-68.5927 641.418 -38.0927 613.838 -4.53265 590.588C31.4273 565.668 71.4673 546.968 113.037 533.508C202.417 504.578 297.877 501.198 391.057 501.238C438.177 501.258 485.307 502.198 532.427 501.398C555.847 500.998 579.257 500.168 602.627 498.568C613.967 497.788 625.307 496.858 636.607 495.638C639.287 495.348 641.957 495.038 644.627 494.698C645.527 494.588 646.417 494.468 647.307 494.358C646.933 494.402 646.592 494.443 646.282 494.48C646.194 494.493 646.106 494.505 646.017 494.518C644.529 494.725 641.229 495.083 646.282 494.48C650.463 493.88 654.625 493.233 658.787 492.528C695.377 486.328 731.277 475.988 765.707 462.158C768.191 461.161 770.655 459.952 773.181 459.061C773.867 458.764 774.554 458.468 775.237 458.168C779.317 456.388 783.367 454.548 787.397 452.668C795.857 448.718 804.207 444.528 812.437 440.118C828.707 431.408 844.507 421.788 859.667 411.258C863.597 408.528 867.477 405.738 871.307 402.888C872.927 401.688 874.477 400.278 876.187 399.208C870.337 402.878 876.627 398.848 878.027 397.728C885.017 392.158 891.817 386.368 898.407 380.348C911.257 368.608 923.307 355.988 934.247 342.458C935.047 341.468 935.837 340.458 936.637 339.458C936.639 339.456 936.64 339.455 936.641 339.453C937.652 338.108 938.667 336.76 939.667 335.398C942.027 332.168 944.317 328.888 946.547 325.568C951.177 318.648 955.497 311.528 959.467 304.208C961.537 300.408 963.497 296.548 965.357 292.648C966.157 290.988 966.927 289.308 967.687 287.628C968.114 286.681 968.482 285.683 968.929 284.74C971.733 277.661 974.288 270.499 976.407 263.198C978.677 255.378 980.517 247.438 981.877 239.408C982.207 237.498 982.997 228.908 982.337 236.898C982.507 234.858 982.827 232.818 983.027 230.778C983.387 227.078 983.647 223.368 983.807 219.658C984.177 211.278 984.027 202.868 983.377 194.498C983.187 191.938 982.937 189.378 982.647 186.828C982.608 186.493 982.558 186.151 982.51 185.808C982.677 187.647 982.671 190.231 982.358 184.632C981.784 180.875 981.116 177.137 980.347 173.418C978.637 165.118 976.467 156.908 973.837 148.858C972.437 144.568 970.907 140.318 969.237 136.118C969.066 135.683 968.891 135.251 968.716 134.819C968.032 133.324 967.394 131.809 966.707 130.318C960.069 115.972 951.796 102.557 942.382 89.877C942.361 89.8511 942.339 89.8247 942.317 89.7979C941.697 89.0378 941.087 88.2578 940.457 87.4878C939.197 85.9478 937.927 84.4277 936.637 82.9277C934.307 80.2178 931.917 77.5679 929.477 74.9578C924.007 69.1277 918.267 63.5679 912.287 58.2678C908.967 55.3279 905.577 52.4678 902.127 49.6877C901.793 49.4177 900.891 48.7061 900.076 48.0642C899.169 47.3782 897.528 46.1292 897.037 45.7678C890.437 40.8879 883.637 36.2678 876.677 31.8977C862.407 22.9377 847.497 15.0479 832.177 8.04785C829.837 6.98779 827.487 5.93774 825.127 4.90771L823.367 4.14771C823.323 4.12964 823.279 4.11133 823.234 4.09326C819.669 2.63159 816.103 1.18066 812.507 -0.202148C804.347 -3.35205 796.107 -6.28223 787.797 -9.0022C753.897 -20.1123 718.927 -27.8823 683.657 -33.1023C680.997 -33.5022 678.327 -33.8123 675.677 -34.2422C683.167 -33.0122 675.417 -34.2622 673.677 -34.4822C669.477 -35.0122 665.267 -35.5022 661.057 -35.9622C652.247 -36.9221 643.417 -37.7222 634.577 -38.3821C617.157 -39.6821 599.707 -40.3623 582.237 -40.5422C501.227 -41.3723 419.827 -38.9722 339.207 -48.6521C298.847 -53.5022 258.667 -60.8022 220.127 -74.0222C181.147 -87.3923 144.887 -106.162 112.367 -131.492C51.7373 -178.722 12.3973 -248.452 0.0973511 -324.052C-12.3627 -400.612 -1.74265 -479.982 26.4073 -552.042C40.7173 -588.672 58.7874 -623.732 81.4973 -655.882C105.947 -690.492 134.927 -721.772 166.487 -749.982C231.877 -808.432 307.647 -853.762 386.197 -892.142C465.33 -930.811 547.434 -962.832 628.586 -996.902C628.815 -997 629.233 -997.177 629.907 -997.462C631.147 -997.982 632.377 -998.512 633.617 -999.032C635.847 -999.982 638.077 -1000.92 640.297 -1001.87C645.247 -1003.98 650.187 -1006.1 655.127 -1008.24C665.017 -1012.51 674.877 -1016.84 684.717 -1021.24C704.397 -1030.04 723.957 -1039.1 743.337 -1048.56C781.837 -1067.35 819.627 -1087.67 855.937 -1110.43C873.887 -1121.68 891.467 -1133.54 908.547 -1146.09C912.835 -1149.25 917.086 -1152.45 921.318 -1155.68C921.419 -1155.76 921.529 -1155.85 921.647 -1155.94L924.137 -1157.89C926.207 -1159.52 928.267 -1161.16 930.317 -1162.81C938.507 -1169.41 946.547 -1176.19 954.427 -1183.16C970.187 -1197.1 985.267 -1211.81 999.517 -1227.29C1006.68 -1235.06 1013.62 -1243.04 1020.33 -1251.2C1022.35 -1253.66 1024.35 -1256.14 1026.33 -1258.63C1026.99 -1259.46 1027.64 -1260.3 1028.3 -1261.13C1028.36 -1261.21 1028.41 -1261.28 1028.47 -1261.35C1031.07 -1264.77 1033.64 -1268.19 1036.15 -1271.67C1046.58 -1286.18 1056.02 -1301.4 1064.48 -1317.14C1068.74 -1325.07 1072.75 -1333.14 1076.51 -1341.32C1077.64 -1343.78 1078.75 -1346.25 1079.83 -1348.73C1080.16 -1349.5 1080.5 -1350.27 1080.84 -1351.05C1082.36 -1354.74 1083.85 -1358.43 1085.28 -1362.15C1091.76 -1379.03 1097.22 -1396.31 1101.62 -1413.85C1103.81 -1422.6 1105.74 -1431.41 1107.4 -1440.28C1108.27 -1444.93 1109.06 -1449.58 1109.78 -1454.25C1110.06 -1456.1 1110.32 -1457.95 1110.59 -1459.8L1110.9 -1462.27C1113.03 -1479.94 1114.06 -1497.76 1113.89 -1515.56C1113.81 -1524.36 1113.43 -1533.16 1112.75 -1541.93C1112.4 -1546.51 1111.96 -1551.08 1111.43 -1555.64C1111.22 -1557.49 1110.94 -1559.33 1110.74 -1561.18C1111.49 -1553.99 1110.68 -1561.45 1110.41 -1563.24C1107.78 -1580.26 1103.91 -1597.09 1098.69 -1613.5C1096.13 -1621.52 1093.22 -1629.37 1090.07 -1637.16C1090.04 -1637.24 1090 -1637.32 1089.97 -1637.4C1089.53 -1638.37 1089.11 -1639.34 1088.68 -1640.31C1087.81 -1642.24 1086.92 -1644.17 1086.01 -1646.08C1084.37 -1649.53 1082.67 -1652.94 1080.89 -1656.31C1076.94 -1663.8 1072.65 -1671.12 1068.03 -1678.22C1065.48 -1682.14 1062.83 -1685.99 1060.08 -1689.76C1059.14 -1691.05 1058.17 -1692.32 1057.22 -1693.6C1056.75 -1694.18 1056.29 -1694.77 1055.82 -1695.35C1044.95 -1708.84 1032.73 -1721.24 1019.39 -1732.3C1002.96 -1745.93 986.127 -1759.12 969.447 -1772.44C961.067 -1779.13 952.667 -1785.81 944.237 -1792.44C939.617 -1796.07 934.997 -1799.69 930.367 -1803.29C928.579 -1804.69 926.774 -1806.08 924.975 -1807.48C924.931 -1807.51 924.885 -1807.55 924.837 -1807.58C923.997 -1808.23 923.157 -1808.87 922.317 -1809.52C856.817 -1859.85 788.287 -1907.38 712.677 -1941.32C709.897 -1942.57 707.097 -1943.8 704.297 -1945.01C703.392 -1945.41 702.486 -1945.79 701.59 -1946.18C701.482 -1946.22 701.364 -1946.27 701.237 -1946.32C696.987 -1948.05 692.747 -1949.79 688.477 -1951.46C678.957 -1955.18 669.347 -1958.66 659.647 -1961.89C639.767 -1968.51 619.527 -1974.06 599.027 -1978.44C588.697 -1980.65 578.297 -1982.56 567.857 -1984.16C564.988 -1984.61 562.08 -1984.92 559.219 -1985.42C565.765 -1984.27 556.871 -1985.7 555.507 -1985.86C550.387 -1986.47 545.257 -1987 540.127 -1987.47C519.097 -1989.38 498.167 -1989.35 477.087 -1989.79C457.307 -1990.2 437.197 -1991.79 417.767 -1995.54C396.137 -1999.71 378.177 -2012.24 366.427 -2030.87C354.827 -2049.27 350.367 -2073.49 358.287 -2094.61C366.207 -2115.73 382.667 -2129.99 403.097 -2138.61C421.697 -2146.46 441.587 -2149.49 461.587 -2151.36C487.017 -2153.74 512.467 -2155.86 537.887 -2158.45C563.857 -2161.09 589.797 -2163.98 615.707 -2167.1C628.667 -2168.66 641.617 -2170.28 654.557 -2171.96C658.059 -2172.42 661.57 -2172.88 665.081 -2173.34L665.227 -2173.36L665.78 -2173.44C667.214 -2173.63 668.642 -2173.83 670.077 -2174.01C673.947 -2174.52 664.427 -2173.24 670.887 -2174.12C677.347 -2175 683.817 -2175.89 690.277 -2176.79C793.667 -2191.26 896.517 -2209.55 998.557 -2231.61C1010.53 -2234.2 1022.53 -2236.71 1034.4 -2239.72C1040.07 -2241.16 1045.72 -2242.72 1051.29 -2244.52C1054.06 -2245.41 1056.82 -2246.36 1059.55 -2247.38C1060.64 -2247.78 1061.72 -2248.22 1062.81 -2248.63C1063.01 -2248.71 1063.19 -2248.78 1063.36 -2248.84C1063.5 -2248.91 1063.67 -2248.99 1063.85 -2249.07C1069.1 -2251.59 1074.26 -2254.15 1079.2 -2257.26C1080.34 -2257.98 1082.32 -2258.98 1083.85 -2260.06C1083.97 -2260.28 1084.25 -2260.62 1084.68 -2261C1085.82 -2262.02 1087 -2262.98 1088.13 -2264.02C1090.01 -2265.74 1091.81 -2267.54 1093.54 -2269.42C1094.57 -2270.54 1095.54 -2271.72 1096.55 -2272.87C1097.04 -2273.42 1097.34 -2273.67 1097.49 -2273.71C1098.52 -2275.27 1099.53 -2277.34 1100.06 -2278.2C1101.33 -2280.33 1102.42 -2282.54 1103.56 -2284.75C1103.58 -2284.81 1103.6 -2284.88 1103.63 -2284.95C1103.95 -2285.89 1104.29 -2286.81 1104.59 -2287.76C1105.31 -2290.03 1105.83 -2292.33 1106.33 -2294.65C1106.39 -2295.71 1106.5 -2296.77 1106.53 -2297.82C1106.55 -2298.58 1106.19 -2301.77 1106.11 -2303.72C1106.03 -2304.2 1105.98 -2304.73 1106.08 -2305.04C1106.07 -2305.05 1106.07 -2305.07 1106.07 -2305.08C1105.86 -2306.02 1105.63 -2306.97 1105.37 -2307.91C1105.08 -2308.97 1104.72 -2310 1104.38 -2311.04C1103.83 -2311.99 1103.24 -2314.85 1104.06 -2312.08C1104.16 -2311.73 1104.27 -2311.39 1104.38 -2311.04C1104.5 -2310.83 1104.62 -2310.72 1104.72 -2310.77C1105.37 -2311.12 1098.67 -2321.56 1097.52 -2323.3C1097.43 -2323.39 1097.34 -2323.49 1097.25 -2323.6C1096.59 -2324.34 1095.95 -2325.1 1095.28 -2325.84C1093.6 -2327.69 1091.83 -2329.46 1089.99 -2331.15C1089.07 -2331.99 1088.15 -2332.8 1087.2 -2333.59C1084.88 -2334.82 1084.85 -2335 1085.5 -2334.69C1084.13 -2335.66 1082.8 -2336.76 1081.39 -2337.65C1079.28 -2338.98 1077.12 -2340.22 1074.91 -2341.38C1073.41 -2342.16 1071.87 -2342.85 1070.36 -2343.62C1070 -2343.8 1069.3 -2344.14 1068.87 -2344.35C1064.05 -2346.35 1058.98 -2347.81 1053.89 -2349.2C1048.11 -2350.78 1042.25 -2352.04 1036.36 -2353.11C1033.4 -2353.64 1030.43 -2354.13 1027.46 -2354.58C1026.26 -2354.76 1025.07 -2354.92 1023.88 -2355.1C1023.67 -2355.13 1023.49 -2355.16 1023.32 -2355.19C1023.14 -2355.21 1022.93 -2355.23 1022.7 -2355.26C1009.95 -2356.83 997.177 -2358.32 984.417 -2359.83L905.157 -2369.19C852.327 -2375.43 799.487 -2381.67 746.647 -2387.91C651.063 -2399.19 555.487 -2410.48 459.904 -2421.77L429.617 -2425.34C376.787 -2431.58 323.947 -2437.82 271.107 -2444.06C219.897 -2450.11 168.257 -2454.78 117.417 -2463.55C71.5273 -2471.47 24.2473 -2484.74 -14.3427 -2511.74C-50.8026 -2537.24 -80.9827 -2573.64 -93.1027 -2617.02C-105.433 -2661.15 -95.1027 -2707.99 -67.8527 -2744.46C-53.4227 -2763.78 -37.1026 -2779.33 -16.5226 -2793.66C4.05734 -2807.99 26.7673 -2818.61 49.8773 -2828.15C95.3052 -2846.9 142.684 -2861.63 189.588 -2876.21L190.647 -2876.54C239.087 -2891.6 274.5 -2901.5 274.5 -2901.5C274.5 -2901.5 279.5 -2896.5 288 -2880.5C292 -2868 294 -2858 294 -2858C194.85 -2835.08 216.627 -2839.29 120.387 -2806.22C108.877 -2802.27 97.3773 -2798.28 85.9573 -2794.08C80.1073 -2791.92 74.2773 -2789.71 68.4774 -2787.41C65.7723 -2786.34 63.0093 -2785.33 60.3595 -2784.12C61.2776 -2784.54 64.3247 -2785.83 60.6873 -2784.25C59.3373 -2783.66 57.9773 -2783.07 56.6173 -2782.47C45.8073 -2777.7 35.1873 -2772.47 24.9373 -2766.59C19.5674 -2763.51 14.2974 -2760.25 9.15735 -2756.79C6.70734 -2755.14 4.28735 -2753.45 1.89734 -2751.7C1.49777 -2751.41 1.05399 -2751.02 0.605225 -2750.66C1.87259 -2751.38 2.81 -2751.5 -0.52887 -2749.88C-8.79907 -2743.25 -16.5555 -2735.96 -23.5927 -2728.04C-25.3226 -2726.09 -27.0027 -2724.11 -28.6427 -2722.09C-29.1623 -2721.44 -29.682 -2720.8 -30.1965 -2720.14C-30.4304 -2719.78 -30.6389 -2719.45 -30.7927 -2719.23C-33.8127 -2715.05 -36.6926 -2710.6 -39.2126 -2706.24C-41.2581 -2702.7 -42.7568 -2698.6 -44.7247 -2694.96C-44.7008 -2694.88 -45.0276 -2694.26 -46.0631 -2692.69C-46.5005 -2691.58 -46.9203 -2690.46 -47.3227 -2689.33C-48.1827 -2686.91 -48.9726 -2684.48 -49.6826 -2682.02C-50.8172 -2678.09 -51.307 -2673.94 -52.2078 -2669.96C-52.2148 -2669.74 -52.3899 -2668.97 -52.8961 -2667.27C-53.0074 -2666.17 -53.1029 -2665.07 -53.1826 -2663.96C-53.3526 -2661.49 -53.4527 -2659 -53.4626 -2656.52C-53.4925 -2651.58 -52.779 -2646.74 -52.6148 -2641.84C-52.8398 -2648.68 -52.3816 -2640.78 -52.0427 -2639.02C-51.5727 -2636.61 -51.0426 -2634.21 -50.4326 -2631.83C-49.2126 -2627.06 -47.7226 -2622.35 -45.9926 -2617.73C-45.8896 -2617.46 -45.731 -2616.88 -45.5387 -2616.24C-45.4619 -2616.1 -45.2576 -2615.69 -44.8627 -2614.85C-43.8027 -2612.6 -42.7727 -2610.33 -41.6427 -2608.11C-37.6141 -2600.19 -32.9595 -2591.28 -27.072 -2584.36C-26.5486 -2583.82 -25.6035 -2582.82 -25.2327 -2582.36C-24.4227 -2581.37 -23.6026 -2580.4 -22.7726 -2579.43C-21.2726 -2577.69 -19.7527 -2575.97 -18.1927 -2574.28C-14.7227 -2570.52 -11.0926 -2566.9 -7.33264 -2563.43C-4.26317 -2560.61 -0.806946 -2556.76 2.84558 -2554.38C3.45987 -2554.05 4.23557 -2553.62 4.67734 -2553.29C5.49734 -2552.69 6.32736 -2552.09 7.15735 -2551.5C9.22736 -2550.03 11.3273 -2548.59 13.4573 -2547.2C22.7073 -2541.16 32.4873 -2535.95 42.5173 -2531.35C44.1073 -2530.62 45.7073 -2529.93 47.2973 -2529.22C47.4466 -2529.16 47.5841 -2529.09 47.7106 -2529.04C47.8952 -2528.97 48.1066 -2528.89 48.3474 -2528.79C50.7874 -2527.85 53.2073 -2526.86 55.6573 -2525.95C60.8373 -2524.02 66.0573 -2522.24 71.3273 -2520.58C82.4673 -2517.08 93.7874 -2514.17 105.197 -2511.67C116.687 -2509.15 128.267 -2507.07 139.877 -2505.24C145.987 -2504.28 152.117 -2503.42 158.247 -2502.56C161.877 -2502.05 152.637 -2503.29 158.397 -2502.54C159.567 -2502.38 160.737 -2502.23 161.907 -2502.08C164.827 -2501.71 167.747 -2501.34 170.667 -2500.98C196.207 -2497.83 221.787 -2494.91 247.357 -2491.89C300.517 -2485.62 353.687 -2479.34 406.857 -2473.06C512.867 -2460.54 618.867 -2448.03 724.877 -2435.51C777.078 -2429.35 829.289 -2423.18 881.5 -2417.02L883.387 -2416.79L962.647 -2407.43C989.427 -2404.27 1016.4 -2401.76 1043.02 -2397.44C1066.59 -2393.62 1091.2 -2386.45 1110.33 -2372.26C1129.46 -2358.07 1145.81 -2338.25 1150.04 -2314.16C1154.7 -2287.59 1146.06 -2262.86 1129.36 -2242.22C1113.55 -2222.68 1090.49 -2210.48 1067.43 -2202.49C1044.37 -2194.5 1020.01 -2190.17 996.187 -2185.11C970.347 -2179.61 944.447 -2174.36 918.497 -2169.35C867.247 -2159.45 815.807 -2150.5 764.227 -2142.5C711.307 -2134.3 658.227 -2127.06 605.037 -2120.79C579.117 -2117.74 553.167 -2114.92 527.197 -2112.34C502.977 -2109.94 478.607 -2108.4 454.427 -2105.58C454.382 -2105.58 454.337 -2105.57 454.294 -2105.57C452.958 -2105.34 452.052 -2105.25 452.333 -2105.31C451.929 -2105.25 451.527 -2105.2 451.127 -2105.13C449.127 -2104.82 447.127 -2104.48 445.137 -2104.11C440.957 -2103.34 436.797 -2102.43 432.677 -2101.33C428.282 -2100.16 423.811 -2097.83 419.401 -2096.9C418.913 -2096.67 418.426 -2096.44 417.947 -2096.2C416.267 -2095.36 414.627 -2094.47 413.017 -2093.51C411.977 -2092.9 410.98 -2092.21 409.966 -2091.55C408.415 -2089.92 407.877 -2089.61 407.958 -2089.84C407.318 -2089.31 406.682 -2088.77 406.107 -2088.19C405.754 -2087.83 404.846 -2086.78 404.125 -2085.95C403.495 -2085.02 402.635 -2083.77 402.367 -2083.31C401.847 -2082.42 401.431 -2081.48 400.969 -2080.56L400.868 -2080.2C400.482 -2078.81 400.099 -2077.43 399.744 -2076.04C399.967 -2074.28 399.648 -2073.35 399.432 -2073.28C399.391 -2071.51 399.511 -2069.78 399.59 -2068.02C399.612 -2067.94 399.634 -2067.85 399.657 -2067.76C399.937 -2066.7 400.127 -2065.61 400.407 -2064.55C400.846 -2062.89 402.339 -2060.32 402.471 -2058.61C402.739 -2058.07 403.009 -2057.52 403.297 -2056.99C404.247 -2055.23 405.287 -2053.52 406.407 -2051.86C406.49 -2051.74 406.574 -2051.62 406.658 -2051.49C407.387 -2050.79 408.007 -2049.9 408.697 -2049.16C409.854 -2047.92 411.087 -2046.79 412.337 -2045.66C413.62 -2045.32 414.467 -2044.38 414.513 -2044.08C414.603 -2044.01 414.688 -2043.95 414.767 -2043.9C416.059 -2043.09 418.484 -2042.4 419.67 -2041.35C419.985 -2041.25 420.301 -2041.15 420.617 -2041.05C421.257 -2040.85 421.897 -2040.67 422.547 -2040.5C424.347 -2040.02 426.157 -2039.61 427.977 -2039.23C430.017 -2038.81 432.067 -2038.44 434.117 -2038.1C434.777 -2037.99 437.124 -2037.65 438.337 -2037.47C439.245 -2037.36 440.176 -2037.24 440.437 -2037.21C441.397 -2037.1 442.347 -2036.99 443.307 -2036.89C445.727 -2036.63 448.147 -2036.4 450.567 -2036.19C455.097 -2035.8 459.627 -2035.48 464.167 -2035.23C484.017 -2034.14 503.887 -2034.86 523.737 -2033.65C547.017 -2032.23 570.257 -2029.38 593.207 -2025.27C633.887 -2017.99 673.637 -2006.01 711.817 -1990.23C789.697 -1958.05 860.237 -1912.28 927.367 -1861.77C962.687 -1835.19 997.207 -1807.56 1031.65 -1779.85C1046.55 -1767.86 1061.45 -1756.09 1074.58 -1742.13C1087.26 -1728.66 1098.72 -1713.82 1108.64 -1698.19C1147.49 -1636.96 1162.36 -1565.07 1158.37 -1490.22C1154.38 -1415.37 1131.99 -1341.11 1093.39 -1276.81C1049.75 -1204.11 985.427 -1144.82 916.477 -1096.52C845.987 -1047.14 768.367 -1008.88 689.707 -974.452C648.997 -956.632 607.847 -939.842 566.777 -922.882C556.717 -918.732 546.657 -914.562 536.617 -910.362C533.597 -909.102 530.587 -907.842 527.567 -906.572C526.684 -906.205 525.808 -905.83 524.927 -905.461C524.846 -905.426 524.753 -905.387 524.647 -905.342L524.547 -905.302C524.674 -905.355 524.801 -905.408 524.927 -905.461C527.304 -906.468 519.722 -903.271 524.547 -905.302L521.452 -903.986C517.741 -902.411 514.034 -900.837 510.327 -899.252C490.237 -890.652 470.227 -881.872 450.357 -872.782C410.817 -854.682 371.807 -835.342 334.047 -813.752C315.117 -802.932 296.507 -791.542 278.347 -779.472C269.427 -773.542 260.607 -767.442 251.917 -761.172C247.367 -757.882 242.847 -754.552 238.367 -751.162C237.181 -750.262 230.409 -745.274 235.125 -748.714C233.243 -747.336 231.435 -745.83 229.607 -744.382C196.057 -717.812 164.677 -688.182 137.307 -655.232C134.327 -651.642 131.467 -647.972 128.557 -644.332C132.947 -649.812 127.827 -643.312 126.987 -642.192C125.587 -640.322 124.207 -638.432 122.837 -636.532C117.337 -628.912 112.087 -621.112 107.087 -613.152C97.0173 -597.142 87.9474 -580.502 79.9073 -563.382C77.8919 -559.102 75.9461 -554.792 74.0701 -550.452C72.8976 -545.701 73.2031 -547.842 73.7562 -549.592C73.5106 -549.011 73.2106 -548.421 73.0074 -547.932C72.0974 -545.732 71.2173 -543.542 70.3474 -541.332C66.8673 -532.522 63.6573 -523.602 60.7274 -514.592C54.8974 -496.662 50.1473 -478.372 46.5773 -459.862C45.6473 -455.032 44.8073 -450.192 44.0374 -445.332C43.7237 -443.365 43.4281 -441.389 43.142 -439.412C42.9161 -433.875 42.8768 -436.39 43.0121 -438.247C42.9402 -437.747 42.856 -437.247 42.7973 -436.772C41.6673 -427.562 40.8474 -418.322 40.3373 -409.062C39.3373 -390.782 39.5974 -372.422 41.2574 -354.182C41.4973 -351.482 41.7773 -348.772 42.0873 -346.072C42.3073 -344.242 43.7274 -336.562 42.3073 -343.982C43.0674 -340.012 43.4873 -335.952 44.1873 -331.962C45.7373 -323.122 47.6474 -314.302 49.9174 -305.682C52.1873 -297.062 54.8173 -288.532 57.8273 -280.132C59.4242 -275.673 61.5614 -271.308 63.0113 -266.807C63.3537 -266.029 63.6964 -265.25 64.0473 -264.472C64.8673 -262.652 65.7074 -260.832 66.5674 -259.022C74.2574 -242.842 83.4973 -227.402 94.1974 -213.022C94.3492 -212.818 94.5542 -212.573 94.7803 -212.318C96.0688 -210.859 98.0435 -209.036 94.7803 -212.318C94.6569 -212.442 94.526 -212.573 94.3873 -212.712C94.9973 -212.102 95.5573 -211.232 96.0773 -210.572C97.4973 -208.792 98.9474 -207.032 100.407 -205.282C103.217 -201.942 106.097 -198.672 109.057 -195.472C115.607 -188.392 122.527 -181.652 129.757 -175.272C133.557 -171.912 137.437 -168.662 141.407 -165.502C141.791 -165.195 142.175 -164.891 142.56 -164.588L143.677 -163.752C145.587 -162.322 147.517 -160.922 149.457 -159.532C157.187 -154.022 165.207 -148.862 173.387 -144.102C181.567 -139.342 189.967 -134.952 198.517 -130.902C202.797 -128.872 207.157 -127.012 211.487 -125.082C205.007 -127.972 212.697 -124.622 214.017 -124.092C216.227 -123.212 218.447 -122.352 220.677 -121.512C238.697 -114.722 257.197 -109.252 275.937 -104.842C285.467 -102.592 295.067 -100.612 304.707 -98.8721C309.567 -97.9922 314.447 -97.1721 319.327 -96.4021C321.777 -96.0122 324.227 -95.6423 326.687 -95.2822C327.794 -95.1262 333.324 -94.4055 332.29 -94.5215C412.109 -84.8726 492.353 -86.2053 572.607 -85.6121C645.797 -85.072 719.527 -77.0923 789.717 -55.5823C855.727 -35.3623 919.677 -5.1123 967.707 50.2378C1015.74 105.588 1037.62 178.888 1025.31 251.388C1013.36 321.748 967.347 382.858 913.037 427.028C853.277 475.638 781.887 509.918 707.167 528.358C666.607 538.368 625.077 542.578 583.437 544.728C536.447 547.148 489.377 546.838 442.337 546.508L438.76 546.482C392.781 546.149 346.766 545.815 300.817 548.048C277.767 549.168 254.737 550.938 231.827 553.718C229.837 553.958 227.847 554.218 225.857 554.468C225.488 554.513 224.899 554.58 224.445 554.629C222.376 554.912 220.307 555.24 218.237 555.548C212.587 556.388 206.957 557.298 201.327 558.278C190.107 560.238 178.927 562.488 167.837 565.068C145.627 570.248 123.727 576.768 102.407 584.878C99.7173 585.898 97.0473 586.938 94.3873 588.008C92.7873 588.658 91.1974 589.318 89.5974 589.968C89.2118 590.126 88.5273 590.378 88.0961 590.53C83.4396 592.406 78.882 594.72 74.3773 596.868C65.4774 601.108 56.7273 605.678 48.1773 610.568C39.6273 615.458 31.2674 620.648 23.0974 626.138C19.0174 628.888 14.9774 631.698 10.9973 634.588C9.00735 636.028 7.03735 637.488 5.06735 638.968C4.29187 639.548 3.52866 640.134 2.76337 640.716C2.71036 640.758 2.65503 640.802 2.59735 640.848C-12.8226 653.108 -27.4827 666.258 -41.1526 680.448C-47.9926 687.548 -54.5826 694.868 -60.9326 702.408C-64.1813 706.26 -67.3542 710.168 -70.4607 714.124C-72.9933 717.748 -72.1707 716.454 -71.2952 715.23C-71.5863 715.603 -71.8802 715.975 -72.1627 716.348C-73.6527 718.318 -75.1227 720.298 -76.5727 722.288C-88.1927 738.228 -98.7527 754.928 -108.163 772.258C-112.873 780.918 -117.283 789.738 -121.403 798.688C-122.633 801.368 -123.843 804.068 -125.023 806.778C-125.046 806.832 -125.104 806.945 -125.183 807.098C-125.282 807.333 -125.435 807.7 -125.643 808.198L-126.203 809.568C-127.883 813.668 -129.513 817.788 -131.073 821.938C-138.013 840.358 -143.693 859.248 -148.023 878.448C-150.193 888.048 -152.013 897.718 -153.483 907.448C-153.681 908.746 -153.868 910.048 -154.052 911.348C-154.064 911.456 -154.078 911.573 -154.093 911.698C-154.373 914.138 -154.683 916.578 -154.943 919.028C-155.433 923.678 -155.853 928.338 -156.183 933.008C-157.593 952.838 -157.493 972.778 -155.913 992.598C-155.493 997.818 -154.983 1003.02 -154.363 1008.22C-154.253 1009.21 -154.123 1010.2 -154.003 1011.19C-154.001 1011.2 -153.999 1011.22 -153.997 1011.24C-153.682 1013.42 -153.367 1015.6 -153.023 1017.78C-151.433 1027.86 -149.473 1037.89 -147.153 1047.84C-142.623 1067.27 -136.723 1086.37 -129.563 1104.98C-128.663 1107.31 -127.753 1109.63 -126.813 1111.94C-126.343 1113.11 -125.903 1115.11 -125.113 1116.09C-125.383 1115.75 -127.233 1111.16 -125.633 1114.85C-123.653 1119.43 -121.633 1123.99 -119.513 1128.51C-115.283 1137.55 -110.733 1146.45 -105.903 1155.19C-96.2327 1172.66 -85.3927 1189.49 -73.4727 1205.51C-72.5827 1206.71 -71.6726 1207.9 -70.7726 1209.1C-70.7411 1209.14 -70.7106 1209.18 -70.6808 1209.22C-69.4296 1210.81 -68.1833 1212.4 -66.9127 1213.98C-63.7927 1217.86 -60.6026 1221.7 -57.3427 1225.48C-50.8327 1233.03 -44.0626 1240.37 -37.0526 1247.46C-30.0426 1254.55 -22.7926 1261.39 -15.3026 1267.97C-11.3727 1271.42 -7.38266 1274.8 -3.32266 1278.1C-1.58267 1279.51 0.167328 1280.91 1.92734 1282.3C2.16589 1282.49 2.43808 1282.74 2.70557 1283.01C3.29187 1283.47 4.01996 1283.92 4.47736 1284.26C20.4073 1296.27 37.2273 1307.1 54.7673 1316.6C62.4273 1320.75 70.2173 1324.66 78.1073 1328.37C82.2373 1330.32 86.3874 1332.2 90.5674 1334.03C92.3574 1334.81 94.1974 1335.53 95.9673 1336.36C89.3273 1333.25 96.2173 1336.45 97.8474 1337.12C130.697 1350.56 164.707 1360.99 198.997 1370.07C268.657 1388.52 339.737 1401.22 409.027 1421.11C475.487 1440.18 541.187 1466.59 593.957 1512.39C620.187 1535.16 642.527 1563.06 658.947 1593.67C676.867 1627.07 688.437 1663.54 697.307 1700.26C706.057 1736.49 712.397 1773.23 720.657 1809.57C724.697 1827.34 729.197 1845.03 734.767 1862.39C737.447 1870.74 740.367 1879.01 743.617 1887.15C743.909 1887.88 744.207 1888.61 744.507 1889.34C745.4 1891.15 746.102 1893.07 746.937 1894.91C748.717 1898.82 750.577 1902.69 752.527 1906.51C756.407 1914.1 760.667 1921.5 765.337 1928.63C767.616 1932.09 769.989 1935.49 772.457 1938.82C776.006 1942.55 774.29 1941 773.13 1939.67C773.374 1939.99 773.612 1940.31 773.847 1940.61C775.187 1942.28 776.557 1943.93 777.957 1945.55C783.627 1952.13 789.747 1958.34 796.267 1964.09C798.097 1965.7 799.967 1967.28 801.857 1968.83C802.231 1969.13 802.644 1969.54 803.072 1969.92C803.28 1970.03 803.515 1970.17 803.757 1970.35C807.877 1973.33 812.017 1976.26 816.327 1978.97C824.817 1984.3 833.707 1988.97 842.877 1993.02C843.222 1993.18 843.569 1993.33 843.917 1993.48C845.447 1994.13 846.028 1994.38 845.66 1994.22C845.982 1994.32 846.273 1994.41 846.497 1994.5C848.597 1995.32 850.697 1996.11 852.817 1996.88C857.537 1998.59 862.307 2000.16 867.117 2001.6C886.727 2007.49 906.887 2011.33 927.127 2014.25C928.297 2014.42 929.52 2014.69 930.723 2014.82C931.214 2014.85 931.686 2014.88 931.997 2014.92C934.337 2015.22 936.667 2015.51 939.007 2015.79C943.967 2016.39 948.927 2016.95 953.887 2017.49C964.387 2018.63 974.907 2019.65 985.417 2020.7C1007.9 2022.93 1030.37 2025.34 1052.7 2028.77C1071.73 2031.7 1091.06 2035.07 1109.18 2041.76C1127.19 2048.4 1144.33 2057.14 1160.04 2068.18C1190.51 2089.59 1217.57 2117.61 1234.61 2150.99C1250.22 2181.59 1259.2 2217.75 1246.83 2252.16C1234.46 2286.57 1205.39 2312.2 1170.54 2322.52C1138.19 2332.1 1103.63 2328.31 1070.96 2322.74C1054.76 2319.98 1038.69 2316.5 1022.6 2313.2C1014.55 2311.55 1006.49 2309.94 998.407 2308.48C994.027 2307.68 989.627 2306.94 985.227 2306.26C983.84 2306.05 982.446 2305.84 981.056 2305.64C976.707 2305.19 977.199 2305.18 978.413 2305.29C963.599 2303.52 948.581 2302.71 933.707 2304.13C932.863 2304.21 932.023 2304.31 931.184 2304.41C929.703 2304.65 928.218 2304.9 926.747 2305.19C923.407 2305.85 920.087 2306.64 916.817 2307.59C913.258 2308.62 909.854 2309.96 906.373 2311.22C913.39 2308.68 907.473 2310.79 905.687 2311.67C904.227 2312.39 902.787 2313.14 901.367 2313.93C897.987 2315.81 894.727 2317.88 891.607 2320.15C891.543 2320.19 891.482 2320.24 891.423 2320.28C891.249 2320.43 891.042 2320.6 890.797 2320.81C889.367 2322.01 887.967 2323.25 886.597 2324.52C883.537 2327.36 880.657 2330.39 877.987 2333.6C874.227 2338.12 880.737 2329.67 877.307 2334.49C876.327 2335.86 875.387 2337.26 874.487 2338.69C872.427 2341.96 870.577 2345.36 868.947 2348.87C866.507 2354.12 870.757 2344.05 868.667 2349.54C868.087 2351.07 867.537 2352.62 867.037 2354.18C865.857 2357.84 864.887 2361.56 864.117 2365.33C863.761 2367.02 863.484 2368.74 863.188 2370.44C863.144 2370.79 863.102 2371.14 863.067 2371.49C862.277 2379.18 862.157 2386.93 862.487 2394.65C862.657 2398.67 862.947 2402.68 863.337 2406.69C863.537 2408.73 863.757 2410.77 864.007 2412.81C864.049 2413.15 864.095 2413.49 864.141 2413.83C863.925 2412.05 863.688 2408.82 864.26 2414.68C866.79 2431.85 870.62 2448.81 874.637 2465.68C891.577 2536.77 914.927 2616.6 875.517 2684.7C837.027 2751.22 756.917 2781.89 683.517 2786.52C638.947 2789.33 594.067 2780.68 551.107 2769.54C504.207 2757.37 458.397 2741.31 411.367 2729.57C399.637 2726.65 387.847 2723.99 375.977 2721.74C370.047 2720.62 364.087 2719.59 358.117 2718.69C356.874 2718.5 355.602 2718.37 354.357 2718.16L354.274 2718.15C352.558 2717.95 350.846 2717.75 349.127 2717.57C331.177 2715.71 313.067 2715.38 295.067 2716.6C290.307 2716.92 285.567 2717.35 280.827 2717.89C280.218 2717.95 279.612 2718.03 279.005 2718.1C276.938 2718.53 274.768 2718.7 272.677 2719.04C263.797 2720.48 254.987 2722.35 246.287 2724.65C237.717 2726.92 229.257 2729.62 220.977 2732.8C219.85 2733.24 218.715 2733.68 217.587 2734.14C213.719 2736.26 214.537 2735.67 215.859 2734.95C214.728 2735.44 213.569 2735.88 212.467 2736.4C208.747 2738.13 205.067 2739.96 201.447 2741.91C193.937 2745.95 186.677 2750.48 179.787 2755.51C179.706 2755.57 179.557 2755.68 179.366 2755.82C179.504 2755.73 177.674 2757.12 177.317 2757.41C175.687 2758.74 174.077 2760.1 172.497 2761.49C169.667 2763.98 166.917 2766.58 164.267 2769.27C161.037 2772.56 157.947 2776 155.027 2779.57C154.972 2779.64 154.917 2779.71 154.863 2779.77C155.839 2778.69 156.752 2778.12 153.779 2781.2C152.838 2782.51 151.886 2783.81 150.977 2785.15C146.151 2792.23 142.164 2799.7 138.554 2807.45C138.503 2807.58 138.447 2807.73 138.387 2807.88C137.947 2808.99 137.527 2810.11 137.117 2811.23C136.307 2813.45 135.557 2815.69 134.857 2817.95C133.627 2821.95 132.567 2826.01 131.697 2830.1C131.232 2832.26 130.85 2834.43 130.484 2836.61C130.509 2837.8 130.138 2839.22 130.037 2840.37C129.647 2844.65 129.457 2848.94 129.457 2853.24C129.457 2857.98 129.687 2862.72 130.147 2867.43C130.223 2868.26 130.324 2869.11 130.411 2869.96C130.723 2871.82 131.015 2873.69 131.367 2875.55C133.077 2884.54 135.547 2893.37 138.657 2901.98C139.44 2904.16 140.282 2906.32 141.143 2908.48C141.585 2909.47 142.013 2910.47 142.467 2911.45C144.337 2915.52 146.337 2919.52 148.457 2923.46C153.007 2931.9 158.107 2940.03 163.667 2947.84C165.207 2950.01 166.937 2952.08 168.417 2954.29C164.697 2948.74 169.427 2955.51 170.347 2956.64C173.457 2960.45 176.677 2964.17 179.987 2967.8C186.677 2975.13 193.757 2982.09 201.177 2988.68C204.907 2991.99 208.717 2995.2 212.607 2998.32C212.947 2998.6 216.697 3001.78 213.857 2999.34C211.017 2996.9 214.787 3000.04 215.147 3000.31C217.137 3001.81 219.147 3003.28 221.177 3004.73C229.257 3010.49 237.627 3015.84 246.257 3020.75C254.776 3025.59 263.544 3029.89 272.482 3033.88C272.487 3033.88 272.492 3033.89 272.497 3033.89C273.677 3034.36 274.847 3034.84 276.027 3035.3C278.547 3036.29 281.077 3037.25 283.617 3038.19C289.247 3040.27 294.917 3042.24 300.627 3044.09C392.637 3073.95 490.847 3074.85 583.827 3100.6C624.407 3111.84 663.417 3129.11 697.897 3153.42C732.077 3177.51 762.857 3207.47 783.697 3244.03C804.727 3280.93 813.567 3322.53 807.517 3364.63C802.107 3402.25 783.257 3436.77 757.197 3464.11C703.487 3520.45 623.167 3547.34 547.177 3553.41C496.027 3557.5 444.697 3554.35 393.507 3553C367.677 3552.32 341.817 3552.08 316.007 3553.49C303.393 3554.17 290.839 3555.35 278.294 3556.86C277.392 3556.99 276.492 3557.12 275.587 3557.26L275.443 3557.28C274.231 3557.46 273.019 3557.65 271.817 3557.84C268.677 3558.33 265.547 3558.87 262.417 3559.44C256.687 3560.49 250.977 3561.65 245.307 3562.98C235.777 3565.22 226.387 3568.05 217.187 3571.4C214.627 3572.33 212.087 3573.3 209.557 3574.31C209.221 3574.44 208.822 3574.56 208.43 3574.65C207.793 3574.94 207.122 3575.31 206.687 3575.5C202.117 3577.51 197.607 3579.64 193.167 3581.9C184.257 3586.42 175.597 3591.44 167.247 3596.92C163.077 3599.66 158.987 3602.51 154.987 3605.47C154.197 3606.05 153.414 3606.65 152.631 3607.24C152.573 3607.29 152.512 3607.34 152.447 3607.39C150.517 3608.94 148.597 3610.49 146.707 3612.09C139.237 3618.4 132.117 3625.15 125.477 3632.34C122.207 3635.88 119.047 3639.52 116.017 3643.27C115.367 3644.07 113.797 3647.47 115.107 3644.37C116.417 3641.27 114.827 3644.75 114.267 3645.51C112.857 3647.42 111.477 3649.35 110.137 3651.3C104.847 3659 100.107 3667.07 96.0873 3675.5C95.6274 3676.47 95.1797 3677.45 94.7298 3678.43L94.3474 3679.26L94.3306 3679.29C94.329 3679.3 94.3274 3679.3 94.3258 3679.31C94.3329 3679.29 94.3401 3679.27 94.3474 3679.26L94.7173 3678.32C95.8931 3675.38 92.373 3683.54 94.3258 3679.31C94.3274 3679.3 94.329 3679.3 94.3306 3679.29L94.3474 3679.26C94.3401 3679.27 94.3329 3679.29 94.3258 3679.31C93.695 3680.89 93.0656 3682.48 92.4774 3684.08C90.9073 3688.35 89.5273 3692.71 88.3673 3697.1C87.23 3701.4 86.285 3705.75 85.5605 3710.15C85.7446 3714.92 85.324 3713.2 85.4245 3711.31C85.3584 3711.74 85.284 3712.17 85.2473 3712.53C85.0074 3714.8 84.8373 3717.07 84.7274 3719.35C84.4973 3723.94 84.5073 3728.54 84.7673 3733.13C84.8961 3735.43 85.1131 3737.71 85.331 3740.01L85.3318 3740.02C85.4604 3740.84 85.5865 3741.66 85.7274 3742.49C87.2274 3751.04 89.5573 3759.46 92.6273 3767.58C92.8051 3768.05 93.0017 3768.51 93.1974 3768.98C92.6467 3767.4 92.3493 3765.93 93.7925 3770.43C94.4872 3771.94 95.2003 3773.44 95.9474 3774.93C97.6374 3778.31 99.4673 3781.61 101.427 3784.83C103.469 3788.17 105.689 3791.38 107.953 3794.56C110.427 3797.41 109.942 3797.03 109.155 3796.13C110.273 3797.5 111.423 3798.86 112.597 3800.19C117.817 3806.12 123.507 3811.64 129.557 3816.73C130.967 3817.91 137.857 3822.81 131.557 3818.46C133.047 3819.49 134.457 3820.64 135.927 3821.69C139.057 3823.94 142.257 3826.09 145.517 3828.15C152.517 3832.56 159.777 3836.55 167.217 3840.16C169.487 3841.26 171.777 3842.33 174.077 3843.36C174.845 3843.71 175.622 3844.04 176.39 3844.38C179.732 3845.74 183.078 3847.06 186.467 3848.3C194.627 3851.28 202.787 3853.87 211.297 3856.2C219.807 3858.53 228.407 3860.54 237.067 3862.25C241.867 3863.19 246.677 3864.05 251.507 3864.82C253.487 3865.13 255.467 3865.43 257.447 3865.72C257.527 3865.73 257.607 3865.74 257.687 3865.75C256.58 3865.57 255.981 3865.4 259.886 3866.04C277.259 3868.1 294.7 3869.33 312.207 3869.49C332.777 3869.67 353.337 3868.44 373.897 3868.25C466.197 3867.42 563.057 3876.16 645.627 3920.81C686.927 3943.14 725.327 3972.15 761.197 4002.28C796.097 4031.6 828.587 4063.67 859.277 4097.34C871.217 4110.45 883.817 4123.47 894.177 4137.91C899.267 4145.01 903.647 4152.66 907.747 4160.37C922.837 4188.69 934.327 4219.32 941.517 4250.59C961.377 4336.95 947.837 4429.49 897.907 4503.52C864.937 4552.41 818.867 4592.9 766.397 4619.85C691.737 4658.19 605.917 4664.02 523.557 4667.8C499.737 4668.89 475.917 4669.84 452.137 4671.5C440.287 4672.33 428.447 4673.33 416.637 4674.59C411.569 4675.13 406.216 4675.37 401.138 4676.27C400.53 4676.41 399.451 4676.64 398.817 4676.73C397.347 4676.94 395.887 4677.15 394.427 4677.37C391.507 4677.81 388.587 4678.26 385.677 4678.74C362.527 4682.54 339.567 4687.78 317.297 4695.22C311.747 4697.07 306.247 4699.06 300.807 4701.19C299.167 4701.83 297.547 4702.5 295.917 4703.15C295.623 4703.27 295.138 4703.45 294.731 4703.59C292.595 4704.49 290.486 4705.53 288.407 4706.5C278.767 4710.98 269.347 4715.94 260.317 4721.56C256.027 4724.23 251.827 4727.03 247.717 4729.95C246.008 4731.16 244.348 4732.61 242.594 4733.8C243.96 4732.94 245.279 4732.24 241.865 4734.28C241.668 4734.41 241.492 4734.54 241.357 4734.65C240.567 4735.28 239.777 4735.92 238.997 4736.56C231.157 4742.97 223.717 4749.87 216.737 4757.21C213.087 4761.05 209.567 4765.01 206.187 4769.09C204.787 4770.78 203.057 4772.49 201.937 4774.38C205.227 4768.83 201.027 4775.69 200.057 4777.05C194.267 4785.13 189.037 4793.61 184.467 4802.44C183.107 4805.07 181.807 4807.73 180.577 4810.41C180.199 4811.24 179.829 4812.06 179.46 4812.89C177.837 4817.08 176.24 4821.25 174.877 4825.54C173.247 4830.64 171.867 4835.81 170.737 4841.04C170.277 4843.17 169.857 4845.32 169.487 4847.47C169.37 4848.14 169.262 4848.81 169.156 4849.48C169.798 4851.06 168.436 4856.34 168.327 4858.14C168.177 4860.58 168.077 4863.02 168.047 4865.46C167.987 4869.88 168.127 4874.31 168.467 4878.72C168.595 4880.29 168.746 4881.85 168.916 4883.42C169.705 4886.61 169.612 4886.69 169.38 4885.89C169.621 4887.41 169.811 4888.95 170.107 4890.44C170.977 4894.77 172.027 4899.07 173.257 4903.31C174.641 4908.06 176.306 4912.7 178.071 4917.32C178.245 4917.66 178.533 4918.38 178.739 4918.93C179.055 4919.64 179.36 4920.33 179.427 4920.48C180.337 4922.47 181.287 4924.44 182.277 4926.39C186.697 4935.11 191.847 4943.46 197.547 4951.4C198.467 4952.69 199.429 4953.95 200.372 4955.22L201.252 4956.31C202.486 4957.83 203.723 4959.36 204.997 4960.86C208.067 4964.47 211.247 4967.99 214.527 4971.42C221.507 4978.72 228.917 4985.61 236.647 4992.11C238.787 4993.91 240.957 4995.69 243.147 4997.43C243.218 4997.48 243.492 4997.7 243.831 4997.97C244.487 4998.47 245.693 4999.41 245.857 4999.53C249.747 5002.45 253.687 5005.28 257.687 5008.03C266.087 5013.81 274.737 5019.23 283.567 5024.33C293.007 5029.77 302.667 5034.81 312.467 5039.58C317.837 5042.19 323.237 5044.73 328.677 5047.19C331.387 5048.42 334.117 5049.63 336.847 5050.83L338.064 5051.36C338.749 5051.66 339.436 5051.96 340.127 5052.26C340.629 5052.48 342.9 5053.46 343.408 5053.68C430.881 5090.96 524.838 5110.25 613.587 5144.1C692.927 5174.35 768.877 5217.6 824.327 5283.25C851.167 5315.04 872.867 5351.01 885.007 5391C897.817 5433.21 898.447 5478.23 888.347 5521.06C867.287 5610.36 805.337 5683.87 739.007 5746.67C672.677 5809.47 597.217 5862.15 518.757 5908.6Z" fill="#88C890"/>
<path d="M862.517 -2960.03C836.747 -2955.9 794.24 -2950.46 769 -2948C769 -2948 770 -2959.03 768 -2970.5C766 -2981.97 758 -2988 758 -2988C777 -2992 799.43 -2995.67 811.5 -2997C823.57 -2998.33 832.6 -3000.23 838 -3001C843.4 -3001.77 856.13 -3004.53 861.5 -3005.5C873.37 -3007.64 882.247 -3009.65 893.777 -3013.19C900.127 -3015.14 906.337 -3017.41 912.517 -3019.84C912.793 -3019.95 913.075 -3020.03 913.333 -3020.09C913.988 -3020.42 914.641 -3020.81 915.217 -3021.07C917.237 -3022.01 919.247 -3022.98 921.227 -3024C926.107 -3026.49 930.867 -3029.22 935.477 -3032.17C938.817 -3034.31 943.957 -3036.81 946.507 -3039.88C943.927 -3037.88 943.587 -3037.63 945.477 -3039.13C946.057 -3039.6 946.637 -3040.07 947.207 -3040.55C948.167 -3041.35 949.117 -3042.15 950.047 -3042.97C951.907 -3044.6 953.737 -3046.28 955.517 -3048C958.707 -3051.08 961.757 -3054.31 964.637 -3057.68C965.267 -3058.42 969.317 -3062.08 966.587 -3059.96C964.007 -3057.96 966.897 -3060.39 967.477 -3061.19C968.907 -3063.16 970.277 -3065.17 971.587 -3067.22C973.927 -3070.89 976.067 -3074.69 977.977 -3078.61C978.277 -3079.22 980.967 -3084.6 979.227 -3081.2C977.487 -3077.8 979.507 -3082.01 979.707 -3082.55C980.547 -3084.82 981.317 -3087.12 981.997 -3089.44C982.307 -3090.49 985.577 -3101.99 984.857 -3102.29C984.427 -3098.89 984.357 -3098.44 984.647 -3100.95C984.727 -3101.72 984.797 -3102.5 984.857 -3103.27C984.957 -3104.55 985.037 -3105.84 985.087 -3107.13C985.187 -3109.69 985.187 -3112.26 985.087 -3114.83C984.999 -3117.1 984.745 -3119.35 984.585 -3121.62C984.448 -3122.44 984.312 -3123.27 984.157 -3124.09C983.117 -3129.65 981.637 -3135.12 979.797 -3140.46C979.457 -3141.44 979.107 -3142.41 978.747 -3143.38C978.607 -3143.76 976.967 -3148.54 978.157 -3145.02C979.347 -3141.5 977.617 -3146.21 977.427 -3146.62C976.987 -3147.56 976.547 -3148.5 976.087 -3149.44C973.557 -3154.62 970.697 -3159.63 967.557 -3164.46C966.267 -3166.44 964.927 -3168.4 963.537 -3170.32C963.127 -3170.9 962.725 -3171.51 962.302 -3172.1C962.107 -3172.31 961.914 -3172.52 961.767 -3172.69C954.727 -3180.97 947.327 -3188.75 938.907 -3195.66C938.408 -3196.07 938.053 -3196.37 937.81 -3196.57C936.914 -3197.23 936.035 -3197.9 935.137 -3198.54C932.817 -3200.21 930.467 -3201.83 928.077 -3203.4C923.547 -3206.37 918.907 -3209.17 914.177 -3211.8C908.947 -3214.71 903.607 -3217.42 898.177 -3219.94C895.614 -3221.14 893.031 -3222.47 890.379 -3223.43C891.103 -3223.17 894.789 -3221.64 890.987 -3223.16C889.657 -3223.69 888.327 -3224.23 886.997 -3224.76C865.567 -3233.22 843.337 -3239.47 821.047 -3245.22C772.017 -3257.87 722.607 -3269.04 672.937 -3278.87C623.057 -3288.74 572.897 -3297.21 522.537 -3304.27C519.077 -3304.76 515.607 -3305.24 512.147 -3305.71C512.133 -3305.71 511.365 -3305.82 510.524 -3305.93C510.101 -3305.98 506.809 -3306.42 506.787 -3306.42C500.797 -3307.21 494.807 -3307.98 488.817 -3308.73C476.207 -3310.31 463.577 -3311.81 450.947 -3313.21C425.677 -3316.02 400.367 -3318.47 375.027 -3320.58C273.367 -3329.03 171.227 -3331.8 69.2473 -3328.86C18.4174 -3327.39 -32.3627 -3324.51 -83.0327 -3320.2C-108.363 -3318.05 -133.673 -3315.54 -158.933 -3312.67C-171.563 -3311.23 -184.183 -3309.71 -196.793 -3308.1C-199.953 -3307.69 -203.103 -3307.28 -206.253 -3306.87C-207.504 -3306.71 -208.755 -3306.55 -210.007 -3306.38C-210.325 -3306.34 -210.84 -3306.27 -211.613 -3306.16C-217.913 -3305.3 -224.153 -3304.43 -230.503 -3303.53C-236.853 -3302.63 -242.123 -3302.78 -247.843 -3305.8C-253.043 -3308.55 -256.433 -3313.84 -258.183 -3319.25C-259.933 -3324.66 -258.733 -3331.77 -255.913 -3336.59C-253.403 -3340.87 -247.643 -3346.19 -242.463 -3346.93C-147.943 -3360.41 -52.8326 -3369.27 42.5674 -3372.96C144.197 -3376.89 246.037 -3375.13 347.467 -3367.73C450.887 -3360.18 553.947 -3346.85 655.877 -3327.83C705.857 -3318.51 755.587 -3307.78 804.967 -3295.65C851.317 -3284.26 900.527 -3271.79 940.607 -3248.54C980.687 -3225.29 1014.99 -3187.94 1026.25 -3142.05C1031.77 -3119.57 1031.34 -3094.55 1024.09 -3073.29C1016.84 -3052.03 1004.39 -3032.96 988.407 -3017.2C954.457 -2983.72 908.777 -2967.45 862.517 -2960.03Z" fill="#88C890"/>
</svg>
