<svg width="1080" height="1940" viewBox="0 0 1080 1940" fill="none" xmlns="http://www.w3.org/2000/svg">
<path d="M518.757 4010.6C440.187 4057.13 358.307 4097.71 276.457 4138.08L276.397 4138.1C265.087 4143.68 252.607 4140.87 245.617 4130.03C239.347 4120.32 243.107 4104.47 253.687 4099.25C328.947 4062.13 404.197 4024.84 476.927 3982.91C516.037 3960.36 554.407 3936.48 591.407 3910.6C600.607 3904.16 609.737 3897.6 618.757 3890.91C623.267 3887.57 627.747 3884.2 632.207 3880.79C632.576 3880.5 633.799 3879.57 634.498 3879.04C634.882 3878.74 635.265 3878.44 635.647 3878.14C637.857 3876.41 640.057 3874.68 642.257 3872.94C659.837 3859.02 676.977 3844.55 693.567 3829.47C710.197 3814.36 726.277 3798.64 741.697 3782.29C749.337 3774.18 756.837 3765.93 764.087 3757.47C767.707 3753.25 771.267 3748.98 774.767 3744.66C776.517 3742.5 778.257 3740.32 779.977 3738.13C780.117 3737.95 783.457 3733.58 781.297 3736.44C779.137 3739.3 782.457 3734.91 782.587 3734.73C795.977 3717 808.277 3698.39 818.797 3678.8C821.397 3673.95 823.897 3669.05 826.277 3664.08C827.457 3661.61 828.617 3659.12 829.737 3656.62C830.284 3655.4 830.803 3654.17 831.347 3652.95C835.427 3642.86 839.097 3632.58 842.047 3622.14C844.997 3611.7 847.207 3601.12 848.867 3590.4C849.737 3584.83 848.337 3595.55 848.917 3589.93C849.057 3588.58 849.227 3587.23 849.357 3585.88C849.597 3583.44 849.807 3581 849.967 3578.56C850.327 3573.1 850.497 3567.62 850.457 3562.15C850.427 3557.27 850.227 3552.39 849.867 3547.53C849.697 3545.12 849.477 3542.71 849.217 3540.31L849.142 3539.64C849.05 3538.85 848.95 3538.06 848.859 3537.27C847.408 3528 845.507 3518.81 842.967 3509.78C841.687 3505.21 840.267 3500.69 838.717 3496.21C837.937 3493.97 837.127 3491.75 836.287 3489.53C835.657 3487.85 833.784 3484.81 833.671 3483C833.2 3481.93 832.718 3480.87 832.237 3479.81C831.347 3477.87 830.437 3475.93 829.497 3474.01C827.407 3469.73 825.197 3465.5 822.877 3461.33C818.207 3452.93 813.097 3444.78 807.617 3436.88C806.097 3434.7 804.547 3432.53 802.977 3430.38C802.007 3429.05 800.527 3425.89 799.047 3425.13C801.077 3427.75 801.357 3428.12 799.877 3426.22L798.967 3425.07C798.357 3424.3 797.747 3423.54 797.137 3422.78C795.607 3420.87 794.047 3418.99 792.467 3417.12C779.677 3401.98 765.597 3387.95 750.607 3374.98C746.627 3371.54 742.577 3368.17 738.477 3364.88C736.747 3363.49 735.037 3361.88 733.157 3360.68C738.637 3364.16 731.817 3359.68 730.507 3358.71C722.437 3352.69 714.157 3346.93 705.717 3341.44C688.917 3330.52 671.447 3320.63 653.467 3311.8C644.5 3307.4 635.408 3303.1 626.157 3299.31C625.364 3298.99 623.821 3298.37 623.267 3298.14C621.607 3297.45 619.947 3296.77 618.287 3296.1C615.797 3295.09 613.297 3294.1 610.797 3293.11C605.517 3291.03 600.207 3289 594.887 3287.02C503.857 3253.09 408.507 3232.22 319.037 3193.88C241.227 3160.54 160.717 3108.33 132.037 3024.3C118.327 2984.11 120.817 2939.55 137.027 2900.51C154.277 2859 183.157 2824.61 218.857 2797.63C255.447 2769.97 299.757 2753.12 344.217 2743.09C391.807 2732.35 440.787 2728.75 489.407 2726.4C513.497 2725.24 537.597 2724.34 561.667 2722.85C573.777 2722.09 585.867 2721.2 597.937 2720.05C604.557 2719.42 611.177 2718.72 617.777 2717.92C618.967 2717.78 620.167 2717.63 621.367 2717.48L622 2717.4C622.409 2717.34 622.96 2717.27 623.476 2717.2C624.51 2717.06 626.056 2716.85 626.137 2716.84C627.337 2716.67 628.527 2716.5 629.717 2716.32C653.727 2712.74 677.557 2707.7 700.717 2700.36C706.717 2698.46 712.667 2696.41 718.557 2694.19C721.367 2693.13 724.147 2692 726.947 2690.9C727.289 2690.76 727.552 2690.66 727.749 2690.59C727.992 2690.48 728.292 2690.35 728.657 2690.19C731.117 2689.12 733.557 2688 735.987 2686.84C754.587 2677.98 772.297 2667.18 788.937 2655.04C790.457 2653.93 791.967 2652.81 793.467 2651.68C793.714 2651.5 793.958 2651.31 794.201 2651.12C796.806 2649.06 799.4 2646.98 801.957 2644.86C807.847 2639.95 813.577 2634.85 819.117 2629.56C825.027 2623.92 830.727 2618.06 836.197 2611.98C839.187 2608.66 842.117 2605.26 844.967 2601.81C846.347 2600.13 847.717 2598.44 849.067 2596.73C849.607 2596.05 850.127 2595.33 850.687 2594.66C850.515 2594.86 850.355 2595.05 850.206 2595.23C850.133 2595.32 850.06 2595.42 849.987 2595.52C849.098 2596.7 846.956 2599.06 850.206 2595.23C861.296 2580.35 871.091 2564.56 879.237 2547.88C880.427 2545.44 881.587 2542.99 882.707 2540.52C883.283 2539.25 886.315 2531.42 884.085 2537.5C885.744 2532.98 887.673 2528.57 889.297 2524.05C893.247 2513.04 896.537 2501.8 899.137 2490.4C900.497 2484.45 901.667 2478.45 902.647 2472.43C902.907 2470.82 904.739 2462.08 903.318 2468.23C903.868 2465.83 903.909 2463.2 904.157 2460.76C905.247 2449.94 905.737 2439.06 905.637 2428.18C905.537 2417.84 904.917 2407.51 903.807 2397.23C903.67 2395.97 903.517 2394.71 903.367 2393.46C902.536 2391.73 902.541 2390.7 902.737 2390.66C902.561 2389.11 902.514 2387.42 902.327 2386.29C901.597 2381.79 900.777 2377.31 899.867 2372.84C896.367 2355.67 891.537 2338.78 885.507 2322.33C884.107 2318.5 882.637 2314.7 881.107 2310.92C880.896 2310.39 880.679 2309.87 880.465 2309.35L880.242 2308.83C879.726 2307.64 879.21 2306.45 878.677 2305.27C876.037 2299.37 873.247 2293.55 870.267 2287.82C866.047 2279.7 861.517 2271.67 856.307 2264.14C855.527 2263.01 854.687 2261.92 853.897 2260.79C860.047 2269.6 854.427 2261.74 852.527 2259.54C845.027 2250.85 837.427 2242.25 829.717 2233.75C799.117 2200 766.727 2167.82 731.947 2138.36C723.237 2130.99 714.357 2123.82 705.387 2116.77C705.24 2116.65 705.11 2116.55 704.995 2116.46C704.854 2116.35 704.692 2116.23 704.507 2116.09C703.597 2115.4 702.687 2114.7 701.777 2114.01C699.487 2112.28 697.197 2110.56 694.897 2108.85C690.287 2105.43 685.627 2102.05 680.937 2098.73C662.257 2085.5 643.037 2072.62 622.877 2061.73C618.067 2059.13 613.197 2056.66 608.257 2054.31C605.787 2053.14 603.307 2051.99 600.807 2050.88C599.807 2050.44 598.797 2050.01 597.797 2049.56C597.667 2049.5 597.546 2049.45 597.434 2049.4C597.335 2049.36 597.229 2049.31 597.117 2049.27C586.897 2045.16 576.587 2041.37 566.067 2038.09C544.727 2031.43 522.847 2026.56 500.777 2023.02C497.987 2022.57 495.187 2022.15 492.387 2021.74C491.339 2021.59 490.294 2021.43 489.248 2021.28C488.989 2021.25 488.657 2021.21 488.237 2021.16C482.577 2020.46 476.917 2019.79 471.247 2019.22C459.837 2018.07 448.397 2017.21 436.947 2016.59C413.927 2015.35 390.857 2015.06 367.807 2015.38C347.737 2015.65 327.667 2016.86 307.597 2016.48C288.317 2016.12 269.167 2014.41 250.067 2011.81C213.907 2006.9 178.567 1997.4 145.577 1981.61C113.807 1966.4 85.3874 1943.97 65.6974 1914.56C43.5074 1881.43 35.8474 1840.92 41.8474 1801.81C47.9474 1762.03 70.7173 1725.57 98.6073 1697.29C128.547 1666.93 165.827 1644.24 205.827 1629.8C251.847 1613.18 302.667 1609.83 351.217 1609.52C402.477 1609.19 453.677 1613.14 504.947 1612.36C517.727 1612.16 530.507 1611.67 543.257 1610.74C548.727 1610.34 554.197 1609.86 559.657 1609.25C561.687 1609.02 563.717 1608.66 565.747 1608.51C558.267 1609.05 566.077 1608.44 567.907 1608.16C586.207 1605.35 604.287 1601.13 621.927 1595.51C630.682 1592.73 639.299 1589.56 647.799 1586.09C647.802 1586.09 647.805 1586.09 647.807 1586.09C649.077 1585.53 650.347 1584.98 651.607 1584.41C653.497 1583.56 655.377 1582.69 657.247 1581.8C661.177 1579.94 665.067 1577.99 668.917 1575.95C676.927 1571.71 684.727 1567.08 692.267 1562.06C695.926 1559.62 699.496 1557.08 703.021 1554.46C706.137 1551.22 705.519 1552.34 704.348 1553.42C704.563 1553.26 704.773 1553.1 704.967 1552.95C706.687 1551.57 708.377 1550.16 710.057 1548.73C716.687 1543.07 722.977 1537 728.817 1530.53C730.547 1528.61 732.247 1526.65 733.897 1524.66C734.184 1524.32 734.95 1523.37 735.641 1522.51C736.262 1521.67 737.838 1519.58 738.247 1519.01C739.487 1517.26 740.697 1515.5 741.877 1513.71C746.519 1506.66 750.626 1499.26 754.103 1491.57C754.502 1490.12 755.046 1489.06 755.02 1489.3C755.176 1488.95 755.327 1488.59 755.457 1488.25C756.147 1486.43 756.807 1484.59 757.427 1482.74C758.757 1478.8 759.927 1474.81 760.927 1470.77C761.567 1468.19 762.137 1465.58 762.647 1462.97C763.001 1461.18 762.853 1457.73 763.769 1456.21C763.84 1455.57 763.908 1454.94 763.967 1454.3C764.177 1452.18 764.337 1450.06 764.447 1447.94C764.727 1442.82 764.737 1437.69 764.487 1432.57C764.387 1430.5 764.247 1428.43 764.057 1426.36C763.986 1425.61 763.906 1424.87 763.829 1424.13C761.73 1415.46 760.615 1406.71 757.867 1398.13C757.037 1395.52 756.127 1392.92 755.167 1390.35L754.873 1389.58C754.644 1388.97 754.416 1388.37 754.177 1387.78C754.174 1387.77 754.171 1387.76 754.168 1387.75C753.886 1387.04 753.355 1386.14 753.026 1385.65C751.598 1382.75 750.477 1379.56 749.047 1376.76C744.797 1368.41 739.927 1360.39 734.577 1352.7C733.213 1350.73 731.791 1348.79 730.366 1346.86C729.884 1346.4 727.967 1343.79 727.777 1343.56C725.047 1340.19 722.217 1336.9 719.317 1333.68C712.767 1326.42 705.807 1319.54 698.527 1313.02C694.477 1309.39 690.317 1305.87 686.067 1302.47C685.409 1301.94 684.75 1301.43 684.092 1300.91C682.311 1299.59 680.549 1298.24 678.747 1296.94C662.557 1285.19 645.277 1274.93 627.257 1266.25C624.567 1264.96 621.857 1263.69 619.137 1262.47C618.237 1262.06 617.327 1261.66 616.417 1261.26C615.507 1260.87 614.597 1260.47 613.687 1260.08L616.327 1261.19C613.197 1258.84 607.617 1257.66 603.957 1256.3C593.957 1252.58 583.777 1249.42 573.507 1246.54C480.587 1220.46 382.377 1219.62 290.277 1190.1C268.627 1183.17 247.297 1174.78 227.337 1163.84C208.437 1153.49 190.777 1140.91 174.347 1126.99C143.907 1101.19 117.427 1068.55 101.537 1031.76C85.1173 993.738 78.9973 951.858 90.3873 911.438C101.177 873.148 125.577 841.508 157.497 818.368C186.947 797.008 222.937 784.148 258.607 778.068C298.507 771.268 338.177 771.918 378.037 778.658C426.157 786.798 472.627 802.078 519.297 815.938C542.467 822.818 565.747 829.378 589.367 834.568C601.137 837.148 612.977 839.388 624.897 841.148C626.187 841.338 631.597 842.448 626.077 841.338C627.237 841.568 628.487 841.648 629.667 841.788C632.667 842.158 635.667 842.488 638.667 842.788C643.177 843.238 647.697 843.588 652.227 843.808C661.067 844.248 669.917 844.248 678.757 843.838C683.217 843.628 687.677 843.318 692.117 842.898C694.337 842.688 696.567 842.448 698.787 842.188C699.206 842.14 699.636 842.071 700.067 842.008C698.217 842.165 695.576 842.147 701.184 841.871C718.702 839.276 735.99 835.044 752.657 829.048C754.727 828.308 756.797 827.528 758.847 826.728C760.597 826.038 767.037 822.698 760.777 825.998C764.617 823.978 768.747 822.438 772.637 820.498C780.317 816.668 787.777 812.378 794.917 807.608C796.687 806.428 798.427 805.229 800.147 803.988C801.667 802.908 806.957 798.208 801.667 802.958C804.777 800.168 808.157 797.678 811.257 794.868C817.285 789.39 822.783 783.44 827.959 777.159C828.373 776.595 828.797 776.03 829.207 775.458C830.407 773.778 831.567 772.078 832.697 770.358C834.957 766.908 837.057 763.348 838.997 759.698C839.967 757.858 840.897 756.008 841.787 754.128C842.737 752.138 844.387 745.968 842.547 752.618C843.667 748.578 845.527 744.728 846.757 740.638C847.987 736.548 849.017 732.398 849.857 728.208C850.277 726.138 850.647 724.058 850.977 721.978C851.107 721.158 851.187 720.288 851.357 719.468C851.306 719.716 851.258 719.949 851.214 720.169C851.205 720.249 851.196 720.329 851.187 720.408C851.004 722.047 850.012 726.056 851.214 720.169C852.133 711.722 852.415 703.426 852.207 694.718C851.997 685.928 851.277 677.158 850.207 668.428C850.011 666.826 849.283 662.411 850.265 668.758C850.149 667.989 850.051 667.214 849.937 666.438C849.617 664.218 849.267 661.998 848.907 659.778C848.177 655.308 847.377 650.848 846.517 646.408C843.215 629.326 839.107 612.406 835.003 595.504L834.377 592.928L834.361 592.861C818.473 527.412 798.517 445.2 856.057 393.498C882.207 369.998 915.577 360.288 950.317 360.468C984.017 360.638 1017.41 368.338 1050.25 375.108C1058.3 376.758 1066.35 378.398 1074.43 379.888C1078.42 380.618 1082.41 381.328 1086.41 381.978C1088.39 382.298 1090.37 382.608 1092.36 382.908C1093.32 383.053 1096.09 383.368 1096.93 383.464C1110.97 384.926 1124.93 386.036 1139.08 384.908C1140.87 384.759 1142.67 384.508 1144.46 384.335C1144.8 384.281 1145.14 384.226 1145.49 384.168C1148.83 383.588 1152.15 382.878 1155.42 382.008C1158.51 381.191 1161.56 380.241 1164.57 379.145C1164.85 379.012 1165.54 378.73 1166.85 378.232C1168.19 377.597 1169.53 376.968 1170.85 376.278C1174.21 374.518 1177.47 372.548 1180.6 370.398C1180.99 370.127 1181.38 369.847 1181.77 369.567C1182.93 368.576 1184.17 367.658 1185.31 366.648C1188.28 364.015 1191.09 361.207 1193.7 358.225C1193.4 358.401 1193.68 357.841 1195.7 355.772C1196.46 354.694 1197.21 353.611 1197.92 352.498C1199.85 349.45 1201.38 346.254 1203.01 343.064C1203.12 342.782 1203.23 342.5 1203.33 342.218C1203.94 340.538 1204.48 338.848 1204.97 337.128C1205.55 335.078 1206.05 332.998 1206.47 330.908C1206.55 330.507 1206.71 329.569 1206.85 328.7C1206.95 327.78 1207.06 326.74 1207.09 326.308C1207.22 324.518 1207.29 322.718 1207.31 320.928C1207.35 317.139 1207.07 313.39 1206.75 309.621C1206.74 309.562 1206.73 309.501 1206.72 309.438C1206.41 307.598 1206.06 305.758 1205.66 303.928C1204 296.278 1201.22 289.198 1198.68 281.838C1201.17 289.068 1198.37 281.308 1197.53 279.538C1196.74 277.888 1195.92 276.258 1195.08 274.638C1193.27 271.158 1191.34 267.748 1189.31 264.408C1187.02 260.638 1184.58 256.948 1182.03 253.348C1180.98 251.865 1179.89 250.417 1178.82 248.954C1178.34 248.357 1177.87 247.753 1177.39 247.158C1171.89 240.388 1165.97 233.958 1159.7 227.888C1156.37 224.668 1152.94 221.548 1149.42 218.538C1147.91 217.248 1146.38 215.968 1144.83 214.718C1143.97 214.022 1142.99 213.376 1142.14 212.639C1135.33 207.666 1128.37 202.952 1121.06 198.738C1117.09 196.448 1113.05 194.288 1108.93 192.278C1107.18 191.418 1105.42 190.588 1103.64 189.788C1102.88 189.446 1102.1 189.137 1101.33 188.806C1083.7 182.106 1065.4 178.236 1046.82 175.168C1041.5 174.296 1036.16 173.52 1030.82 172.755C1029.84 172.632 1028.86 172.5 1027.87 172.378C1025.26 172.048 1022.64 171.728 1020.02 171.418C1009.52 170.178 998.987 169.088 988.467 168.038L986.972 167.889C965.031 165.699 943.101 163.51 921.247 160.528C879.687 154.868 838.127 145.338 801.297 124.488C767.187 105.178 739.267 76.3481 719.697 42.498C682.637 -21.5918 673.707 -97.0918 657.907 -168.152C653.897 -186.152 649.487 -204.072 644.117 -221.722C641.467 -230.422 638.587 -239.062 635.397 -247.582C634.447 -250.122 633.477 -252.652 632.467 -255.172C631.797 -256.842 628.367 -263.632 631.637 -257.302C629.797 -260.882 628.387 -264.742 626.667 -268.382C619.197 -284.192 610.297 -299.302 599.967 -313.422C598.887 -314.902 593.317 -321.372 598.207 -315.842C596.847 -317.392 595.637 -319.092 594.327 -320.682C591.987 -323.532 589.587 -326.342 587.127 -329.092C581.587 -335.292 575.567 -341.412 569.687 -346.912C563.807 -352.412 557.657 -357.582 551.377 -362.612C551.353 -362.631 551.329 -362.65 551.306 -362.669C550.78 -363.066 550.253 -363.467 549.727 -363.862C548.117 -365.062 546.497 -366.252 544.867 -367.422C541.767 -369.652 538.617 -371.822 535.437 -373.932C521.907 -382.922 507.727 -390.902 493.147 -398.052C485.888 -401.613 478.505 -404.887 471.1 -408.136L470.797 -408.262L469.995 -408.594C469.489 -408.802 468.981 -409.009 468.477 -409.212C466.537 -410.002 464.597 -410.772 462.647 -411.542C458.927 -413.012 455.197 -414.432 451.447 -415.822C435.377 -421.762 419.067 -427.032 402.637 -431.862C333.957 -452.022 263.387 -464.712 194.147 -482.652C122.717 -501.162 50.7274 -525.442 -9.85266 -568.682C-77.1527 -616.722 -131.133 -683.112 -163.953 -759.062C-180.413 -797.142 -192.063 -835.202 -197.863 -877.882C-203.663 -920.562 -203.223 -962.902 -196.473 -1005.45C-183.653 -1086.29 -146.823 -1162.43 -94.6927 -1225.17C-68.5927 -1256.58 -38.0927 -1284.16 -4.53265 -1307.41C31.4273 -1332.33 71.4673 -1351.03 113.037 -1364.49C202.417 -1393.42 297.877 -1396.8 391.057 -1396.76C438.177 -1396.74 485.307 -1395.8 532.427 -1396.6C555.847 -1397 579.257 -1397.83 602.627 -1399.43C613.967 -1400.21 625.307 -1401.14 636.607 -1402.36C639.287 -1402.65 641.957 -1402.96 644.627 -1403.3C645.527 -1403.41 646.417 -1403.53 647.307 -1403.64C646.933 -1403.6 646.592 -1403.56 646.282 -1403.52C646.194 -1403.51 646.106 -1403.49 646.017 -1403.48C644.529 -1403.27 641.229 -1402.92 646.282 -1403.52C650.463 -1404.12 654.625 -1404.77 658.787 -1405.47C695.377 -1411.67 731.277 -1422.01 765.707 -1435.84C768.191 -1436.84 770.655 -1438.05 773.181 -1438.94C773.867 -1439.24 774.554 -1439.53 775.237 -1439.83C779.317 -1441.61 783.367 -1443.45 787.397 -1445.33C795.857 -1449.28 804.207 -1453.47 812.437 -1457.88C828.707 -1466.59 844.507 -1476.21 859.667 -1486.74C863.597 -1489.47 867.477 -1492.26 871.307 -1495.11C872.927 -1496.31 874.477 -1497.72 876.187 -1498.79C870.337 -1495.12 876.627 -1499.15 878.027 -1500.27C885.017 -1505.84 891.817 -1511.63 898.407 -1517.65C911.257 -1529.39 923.307 -1542.01 934.247 -1555.54C935.047 -1556.53 935.837 -1557.54 936.637 -1558.54C936.639 -1558.54 936.64 -1558.55 936.641 -1558.55C937.652 -1559.89 938.667 -1561.24 939.667 -1562.6C942.027 -1565.83 944.317 -1569.11 946.547 -1572.43C951.177 -1579.35 955.497 -1586.47 959.467 -1593.79C961.537 -1597.59 963.497 -1601.45 965.357 -1605.35C966.157 -1607.01 966.927 -1608.69 967.687 -1610.37C968.114 -1611.32 968.482 -1612.32 968.929 -1613.26C971.733 -1620.34 974.288 -1627.5 976.407 -1634.8C978.677 -1642.62 980.517 -1650.56 981.877 -1658.59C982.207 -1660.5 982.997 -1669.09 982.337 -1661.1C982.507 -1663.14 982.827 -1665.18 983.027 -1667.22C983.387 -1670.92 983.647 -1674.63 983.807 -1678.34C984.177 -1686.72 984.027 -1695.13 983.377 -1703.5C983.187 -1706.06 982.937 -1708.62 982.647 -1711.17C982.608 -1711.51 982.558 -1711.85 982.51 -1712.19C982.677 -1710.35 982.671 -1707.77 982.358 -1713.37C981.784 -1717.12 981.116 -1720.86 980.347 -1724.58C978.637 -1732.88 976.467 -1741.09 973.837 -1749.14C972.437 -1753.43 970.907 -1757.68 969.237 -1761.88C969.066 -1762.32 968.891 -1762.75 968.716 -1763.18C968.032 -1764.68 967.394 -1766.19 966.707 -1767.68C960.069 -1782.03 951.796 -1795.44 942.382 -1808.12C942.361 -1808.15 942.339 -1808.18 942.317 -1808.2C941.697 -1808.96 941.087 -1809.74 940.457 -1810.51C939.197 -1812.05 937.927 -1813.57 936.637 -1815.07C934.307 -1817.78 931.917 -1820.43 929.477 -1823.04C924.007 -1828.87 918.267 -1834.43 912.287 -1839.73C908.967 -1842.67 905.577 -1845.53 902.127 -1848.31C901.793 -1848.58 900.891 -1849.29 900.076 -1849.94C899.169 -1850.62 897.528 -1851.87 897.037 -1852.23C890.437 -1857.11 883.637 -1861.73 876.677 -1866.1C862.407 -1875.06 847.497 -1882.95 832.177 -1889.95C829.837 -1891.01 827.487 -1892.06 825.127 -1893.09L823.367 -1893.85C823.323 -1893.87 823.279 -1893.89 823.234 -1893.91C819.669 -1895.37 816.103 -1896.82 812.507 -1898.2C804.347 -1901.35 796.107 -1904.28 787.797 -1907C753.897 -1918.11 718.927 -1925.88 683.657 -1931.1C680.997 -1931.5 678.327 -1931.81 675.677 -1932.24C683.167 -1931.01 675.417 -1932.26 673.677 -1932.48C669.477 -1933.01 665.267 -1933.5 661.057 -1933.96C652.247 -1934.92 643.417 -1935.72 634.577 -1936.38C617.157 -1937.68 599.707 -1938.36 582.237 -1938.54C501.227 -1939.37 419.827 -1936.97 339.207 -1946.65C298.847 -1951.5 258.667 -1958.8 220.127 -1972.02C181.147 -1985.39 144.887 -2004.16 112.367 -2029.49C51.7373 -2076.72 12.3973 -2146.45 0.0973511 -2222.05C-12.3627 -2298.61 -1.74265 -2377.98 26.4073 -2450.04C40.7173 -2486.67 58.7874 -2521.73 81.4973 -2553.88C105.947 -2588.49 134.927 -2619.77 166.487 -2647.98C231.877 -2706.43 307.647 -2751.76 386.197 -2790.14C465.33 -2828.81 547.434 -2860.83 628.586 -2894.9C628.815 -2895 629.233 -2895.18 629.907 -2895.46C631.147 -2895.98 632.377 -2896.51 633.617 -2897.03C635.847 -2897.98 638.077 -2898.92 640.297 -2899.87C645.247 -2901.98 650.187 -2904.1 655.127 -2906.24C665.017 -2910.51 674.877 -2914.84 684.717 -2919.24C704.397 -2928.04 723.957 -2937.1 743.337 -2946.56C781.837 -2965.35 819.627 -2985.67 855.937 -3008.43C873.887 -3019.68 891.467 -3031.54 908.547 -3044.09C912.835 -3047.25 917.086 -3050.45 921.318 -3053.68C921.419 -3053.76 921.529 -3053.85 921.647 -3053.94L924.137 -3055.89C926.207 -3057.52 928.267 -3059.16 930.317 -3060.81C938.507 -3067.41 946.547 -3074.19 954.427 -3081.16C970.187 -3095.1 985.267 -3109.81 999.517 -3125.29C1006.68 -3133.06 1013.62 -3141.04 1020.33 -3149.2C1022.35 -3151.66 1024.35 -3154.14 1026.33 -3156.63C1026.99 -3157.46 1027.64 -3158.3 1028.3 -3159.13C1028.36 -3159.21 1028.41 -3159.28 1028.47 -3159.35C1031.07 -3162.77 1033.64 -3166.19 1036.15 -3169.67C1046.58 -3184.18 1056.02 -3199.4 1064.48 -3215.14C1068.74 -3223.07 1072.75 -3231.14 1076.51 -3239.32C1077.64 -3241.78 1078.75 -3244.25 1079.83 -3246.73C1080.16 -3247.5 1080.5 -3248.27 1080.84 -3249.05C1082.36 -3252.74 1083.85 -3256.43 1085.28 -3260.15C1091.76 -3277.03 1097.22 -3294.31 1101.62 -3311.85C1103.81 -3320.6 1105.74 -3329.41 1107.4 -3338.28C1108.27 -3342.93 1109.06 -3347.58 1109.78 -3352.25C1110.06 -3354.1 1110.32 -3355.95 1110.59 -3357.8L1110.9 -3360.27C1113.03 -3377.94 1114.06 -3395.76 1113.89 -3413.56C1113.81 -3422.36 1113.43 -3431.16 1112.75 -3439.93C1112.4 -3444.51 1111.96 -3449.08 1111.43 -3453.64C1111.22 -3455.49 1110.94 -3457.33 1110.74 -3459.18C1111.49 -3451.99 1110.68 -3459.45 1110.41 -3461.24C1107.78 -3478.26 1103.91 -3495.09 1098.69 -3511.5C1096.13 -3519.52 1093.22 -3527.37 1090.07 -3535.16C1090.04 -3535.24 1090 -3535.32 1089.97 -3535.4C1089.53 -3536.37 1089.11 -3537.34 1088.68 -3538.31C1087.81 -3540.24 1086.92 -3542.17 1086.01 -3544.08C1084.37 -3547.53 1082.67 -3550.94 1080.89 -3554.31C1076.94 -3561.8 1072.65 -3569.12 1068.03 -3576.22C1065.48 -3580.14 1062.83 -3583.99 1060.08 -3587.76C1059.14 -3589.05 1058.17 -3590.32 1057.22 -3591.6C1056.75 -3592.18 1056.29 -3592.77 1055.82 -3593.35C1044.95 -3606.84 1032.73 -3619.24 1019.39 -3630.3C1002.96 -3643.93 986.127 -3657.12 969.447 -3670.44C961.067 -3677.13 952.667 -3683.81 944.237 -3690.44C939.617 -3694.07 934.997 -3697.69 930.367 -3701.29C928.579 -3702.69 926.774 -3704.08 924.975 -3705.48C924.931 -3705.51 924.885 -3705.55 924.837 -3705.58C923.997 -3706.23 923.157 -3706.87 922.317 -3707.52C856.817 -3757.85 788.287 -3805.38 712.677 -3839.32C709.897 -3840.57 707.097 -3841.8 704.297 -3843.01C703.392 -3843.41 702.486 -3843.79 701.59 -3844.18C701.482 -3844.22 701.364 -3844.27 701.237 -3844.32C696.987 -3846.05 692.747 -3847.79 688.477 -3849.46C678.957 -3853.18 669.347 -3856.66 659.647 -3859.89C639.767 -3866.51 619.527 -3872.06 599.027 -3876.44C588.697 -3878.65 578.297 -3880.56 567.857 -3882.16C564.988 -3882.61 562.08 -3882.92 559.219 -3883.42C565.765 -3882.27 556.871 -3883.7 555.507 -3883.86C550.387 -3884.47 545.257 -3885 540.127 -3885.47C519.097 -3887.38 498.167 -3887.35 477.087 -3887.79C457.307 -3888.2 437.197 -3889.79 417.767 -3893.54C396.137 -3897.71 378.177 -3910.24 366.427 -3928.87C354.827 -3947.27 350.367 -3971.49 358.287 -3992.61C366.207 -4013.73 382.667 -4027.99 403.097 -4036.61C421.697 -4044.46 441.587 -4047.49 461.587 -4049.36C487.017 -4051.74 512.467 -4053.86 537.887 -4056.45C563.857 -4059.09 589.797 -4061.98 615.707 -4065.1C628.667 -4066.66 641.617 -4068.28 654.557 -4069.96C658.059 -4070.42 661.57 -4070.88 665.081 -4071.34L665.227 -4071.36L665.78 -4071.44C667.214 -4071.63 668.642 -4071.83 670.077 -4072.01C673.947 -4072.52 664.427 -4071.24 670.887 -4072.12C677.347 -4073 683.817 -4073.89 690.277 -4074.79C793.667 -4089.26 896.517 -4107.55 998.557 -4129.61C1010.53 -4132.2 1022.53 -4134.71 1034.4 -4137.72C1040.07 -4139.16 1045.72 -4140.72 1051.29 -4142.52C1054.06 -4143.41 1056.82 -4144.36 1059.55 -4145.38C1060.64 -4145.78 1061.72 -4146.22 1062.81 -4146.63C1063.01 -4146.71 1063.19 -4146.78 1063.36 -4146.84C1063.5 -4146.91 1063.67 -4146.99 1063.85 -4147.07C1069.1 -4149.59 1074.26 -4152.15 1079.2 -4155.26C1080.34 -4155.98 1082.32 -4156.98 1083.85 -4158.06C1083.97 -4158.28 1084.25 -4158.62 1084.68 -4159C1085.82 -4160.02 1087 -4160.98 1088.13 -4162.02C1090.01 -4163.74 1091.81 -4165.54 1093.54 -4167.42C1094.57 -4168.54 1095.54 -4169.72 1096.55 -4170.87C1097.04 -4171.42 1097.34 -4171.67 1097.49 -4171.71C1098.52 -4173.27 1099.53 -4175.34 1100.06 -4176.2C1101.33 -4178.33 1102.42 -4180.54 1103.56 -4182.75C1103.58 -4182.81 1103.6 -4182.88 1103.63 -4182.95C1103.95 -4183.89 1104.29 -4184.81 1104.59 -4185.76C1105.31 -4188.03 1105.83 -4190.33 1106.33 -4192.65C1106.39 -4193.71 1106.5 -4194.77 1106.53 -4195.82C1106.55 -4196.58 1106.19 -4199.77 1106.11 -4201.72C1106.03 -4202.2 1105.98 -4202.73 1106.08 -4203.04C1106.07 -4203.05 1106.07 -4203.07 1106.07 -4203.08C1105.86 -4204.02 1105.63 -4204.97 1105.37 -4205.91C1105.08 -4206.97 1104.72 -4208 1104.38 -4209.04C1103.83 -4209.99 1103.24 -4212.85 1104.06 -4210.08C1104.16 -4209.73 1104.27 -4209.39 1104.38 -4209.04C1104.5 -4208.83 1104.62 -4208.72 1104.72 -4208.77C1105.37 -4209.12 1098.67 -4219.56 1097.52 -4221.3C1097.43 -4221.39 1097.34 -4221.49 1097.25 -4221.6C1096.59 -4222.34 1095.95 -4223.1 1095.28 -4223.84C1093.6 -4225.69 1091.83 -4227.46 1089.99 -4229.15C1089.07 -4229.99 1088.15 -4230.8 1087.2 -4231.59C1084.88 -4232.82 1084.85 -4233 1085.5 -4232.69C1084.13 -4233.66 1082.8 -4234.76 1081.39 -4235.65C1079.28 -4236.98 1077.12 -4238.22 1074.91 -4239.38C1073.41 -4240.16 1071.87 -4240.85 1070.36 -4241.62C1070 -4241.8 1069.3 -4242.14 1068.87 -4242.35C1064.05 -4244.35 1058.98 -4245.81 1053.89 -4247.2C1048.11 -4248.78 1042.25 -4250.04 1036.36 -4251.11C1033.4 -4251.64 1030.43 -4252.13 1027.46 -4252.58C1026.26 -4252.76 1025.07 -4252.92 1023.88 -4253.1C1023.67 -4253.13 1023.49 -4253.16 1023.32 -4253.19C1023.14 -4253.21 1022.93 -4253.23 1022.7 -4253.26C1009.95 -4254.83 997.177 -4256.32 984.417 -4257.83L905.157 -4267.19C852.327 -4273.43 799.487 -4279.67 746.647 -4285.91C651.063 -4297.19 555.487 -4308.48 459.904 -4319.77L429.617 -4323.34C376.787 -4329.58 323.947 -4335.82 271.107 -4342.06C219.897 -4348.11 168.257 -4352.78 117.417 -4361.55C71.5273 -4369.47 24.2473 -4382.74 -14.3427 -4409.74C-50.8026 -4435.24 -80.9827 -4471.64 -93.1027 -4515.02C-105.433 -4559.15 -95.1027 -4605.99 -67.8527 -4642.46C-53.4227 -4661.78 -37.1026 -4677.33 -16.5226 -4691.66C4.05734 -4705.99 26.7673 -4716.61 49.8773 -4726.15C95.3052 -4744.9 142.684 -4759.63 189.588 -4774.21L190.647 -4774.54C239.087 -4789.6 274.5 -4799.5 274.5 -4799.5C274.5 -4799.5 279.5 -4794.5 288 -4778.5C292 -4766 294 -4756 294 -4756C194.85 -4733.08 216.627 -4737.29 120.387 -4704.22C108.877 -4700.27 97.3773 -4696.28 85.9573 -4692.08C80.1073 -4689.92 74.2773 -4687.71 68.4774 -4685.41C65.7723 -4684.34 63.0093 -4683.33 60.3595 -4682.12C61.2776 -4682.54 64.3247 -4683.83 60.6873 -4682.25C59.3373 -4681.66 57.9773 -4681.07 56.6173 -4680.47C45.8073 -4675.7 35.1873 -4670.47 24.9373 -4664.59C19.5674 -4661.51 14.2974 -4658.25 9.15735 -4654.79C6.70734 -4653.14 4.28735 -4651.45 1.89734 -4649.7C1.49777 -4649.41 1.05399 -4649.02 0.605225 -4648.66C1.87259 -4649.38 2.81 -4649.5 -0.52887 -4647.88C-8.79907 -4641.25 -16.5555 -4633.96 -23.5927 -4626.04C-25.3226 -4624.09 -27.0027 -4622.11 -28.6427 -4620.09C-29.1623 -4619.44 -29.682 -4618.8 -30.1965 -4618.14C-30.4304 -4617.78 -30.6389 -4617.45 -30.7927 -4617.23C-33.8127 -4613.05 -36.6926 -4608.6 -39.2126 -4604.24C-41.2581 -4600.7 -42.7568 -4596.6 -44.7247 -4592.96C-44.7008 -4592.88 -45.0276 -4592.26 -46.0631 -4590.69C-46.5005 -4589.58 -46.9203 -4588.46 -47.3227 -4587.33C-48.1827 -4584.91 -48.9726 -4582.48 -49.6826 -4580.02C-50.8172 -4576.09 -51.307 -4571.94 -52.2078 -4567.96C-52.2148 -4567.74 -52.3899 -4566.97 -52.8961 -4565.27C-53.0074 -4564.17 -53.1029 -4563.07 -53.1826 -4561.96C-53.3526 -4559.49 -53.4527 -4557 -53.4626 -4554.52C-53.4925 -4549.58 -52.779 -4544.74 -52.6148 -4539.84C-52.8398 -4546.68 -52.3816 -4538.78 -52.0427 -4537.02C-51.5727 -4534.61 -51.0426 -4532.21 -50.4326 -4529.83C-49.2126 -4525.06 -47.7226 -4520.35 -45.9926 -4515.73C-45.8896 -4515.46 -45.731 -4514.88 -45.5387 -4514.24C-45.4619 -4514.1 -45.2576 -4513.69 -44.8627 -4512.85C-43.8027 -4510.6 -42.7727 -4508.33 -41.6427 -4506.11C-37.6141 -4498.19 -32.9595 -4489.28 -27.072 -4482.36C-26.5486 -4481.82 -25.6035 -4480.82 -25.2327 -4480.36C-24.4227 -4479.37 -23.6026 -4478.4 -22.7726 -4477.43C-21.2726 -4475.69 -19.7527 -4473.97 -18.1927 -4472.28C-14.7227 -4468.52 -11.0926 -4464.9 -7.33264 -4461.43C-4.26317 -4458.61 -0.806946 -4454.76 2.84558 -4452.38C3.45987 -4452.05 4.23557 -4451.62 4.67734 -4451.29C5.49734 -4450.69 6.32736 -4450.09 7.15735 -4449.5C9.22736 -4448.03 11.3273 -4446.59 13.4573 -4445.2C22.7073 -4439.16 32.4873 -4433.95 42.5173 -4429.35C44.1073 -4428.62 45.7073 -4427.93 47.2973 -4427.22C47.4466 -4427.16 47.5841 -4427.09 47.7106 -4427.04C47.8952 -4426.97 48.1066 -4426.89 48.3474 -4426.79C50.7874 -4425.85 53.2073 -4424.86 55.6573 -4423.95C60.8373 -4422.02 66.0573 -4420.24 71.3273 -4418.58C82.4673 -4415.08 93.7874 -4412.17 105.197 -4409.67C116.687 -4407.15 128.267 -4405.07 139.877 -4403.24C145.987 -4402.28 152.117 -4401.42 158.247 -4400.56C161.877 -4400.05 152.637 -4401.29 158.397 -4400.54C159.567 -4400.38 160.737 -4400.23 161.907 -4400.08C164.827 -4399.71 167.747 -4399.34 170.667 -4398.98C196.207 -4395.83 221.787 -4392.91 247.357 -4389.89C300.517 -4383.62 353.687 -4377.34 406.857 -4371.06C512.867 -4358.54 618.867 -4346.03 724.877 -4333.51C777.078 -4327.35 829.289 -4321.18 881.5 -4315.02L883.387 -4314.79L962.647 -4305.43C989.427 -4302.27 1016.4 -4299.76 1043.02 -4295.44C1066.59 -4291.62 1091.2 -4284.45 1110.33 -4270.26C1129.46 -4256.07 1145.81 -4236.25 1150.04 -4212.16C1154.7 -4185.59 1146.06 -4160.86 1129.36 -4140.22C1113.55 -4120.68 1090.49 -4108.48 1067.43 -4100.49C1044.37 -4092.5 1020.01 -4088.17 996.187 -4083.11C970.347 -4077.61 944.447 -4072.36 918.497 -4067.35C867.247 -4057.45 815.807 -4048.5 764.227 -4040.5C711.307 -4032.3 658.227 -4025.06 605.037 -4018.79C579.117 -4015.74 553.167 -4012.92 527.197 -4010.34C502.977 -4007.94 478.607 -4006.4 454.427 -4003.58C454.382 -4003.58 454.337 -4003.57 454.294 -4003.57C452.958 -4003.34 452.052 -4003.25 452.333 -4003.31C451.929 -4003.25 451.527 -4003.2 451.127 -4003.13C449.127 -4002.82 447.127 -4002.48 445.137 -4002.11C440.957 -4001.34 436.797 -4000.43 432.677 -3999.33C428.282 -3998.16 423.811 -3995.83 419.401 -3994.9C418.913 -3994.67 418.426 -3994.44 417.947 -3994.2C416.267 -3993.36 414.627 -3992.47 413.017 -3991.51C411.977 -3990.9 410.98 -3990.21 409.966 -3989.55C408.415 -3987.92 407.877 -3987.61 407.958 -3987.84C407.318 -3987.31 406.682 -3986.77 406.107 -3986.19C405.754 -3985.83 404.846 -3984.78 404.125 -3983.95C403.495 -3983.02 402.635 -3981.77 402.367 -3981.31C401.847 -3980.42 401.431 -3979.48 400.969 -3978.56L400.868 -3978.2C400.482 -3976.81 400.099 -3975.43 399.744 -3974.04C399.967 -3972.28 399.648 -3971.35 399.432 -3971.28C399.391 -3969.51 399.511 -3967.78 399.59 -3966.02C399.612 -3965.94 399.634 -3965.85 399.657 -3965.76C399.937 -3964.7 400.127 -3963.61 400.407 -3962.55C400.846 -3960.89 402.339 -3958.32 402.471 -3956.61C402.739 -3956.07 403.009 -3955.52 403.297 -3954.99C404.247 -3953.23 405.287 -3951.52 406.407 -3949.86C406.49 -3949.74 406.574 -3949.62 406.658 -3949.49C407.387 -3948.79 408.007 -3947.9 408.697 -3947.16C409.854 -3945.92 411.087 -3944.79 412.337 -3943.66C413.62 -3943.32 414.467 -3942.38 414.513 -3942.08C414.603 -3942.01 414.688 -3941.95 414.767 -3941.9C416.059 -3941.09 418.484 -3940.4 419.67 -3939.35C419.985 -3939.25 420.301 -3939.15 420.617 -3939.05C421.257 -3938.85 421.897 -3938.67 422.547 -3938.5C424.347 -3938.02 426.157 -3937.61 427.977 -3937.23C430.017 -3936.81 432.067 -3936.44 434.117 -3936.1C434.777 -3935.99 437.124 -3935.65 438.337 -3935.47C439.245 -3935.36 440.176 -3935.24 440.437 -3935.21C441.397 -3935.1 442.347 -3934.99 443.307 -3934.89C445.727 -3934.63 448.147 -3934.4 450.567 -3934.19C455.097 -3933.8 459.627 -3933.48 464.167 -3933.23C484.017 -3932.14 503.887 -3932.86 523.737 -3931.65C547.017 -3930.23 570.257 -3927.38 593.207 -3923.27C633.887 -3915.99 673.637 -3904.01 711.817 -3888.23C789.697 -3856.05 860.237 -3810.28 927.367 -3759.77C962.687 -3733.19 997.207 -3705.56 1031.65 -3677.85C1046.55 -3665.86 1061.45 -3654.09 1074.58 -3640.13C1087.26 -3626.66 1098.72 -3611.82 1108.64 -3596.19C1147.49 -3534.96 1162.36 -3463.07 1158.37 -3388.22C1154.38 -3313.37 1131.99 -3239.11 1093.39 -3174.81C1049.75 -3102.11 985.427 -3042.82 916.477 -2994.52C845.987 -2945.14 768.367 -2906.88 689.707 -2872.45C648.997 -2854.63 607.847 -2837.84 566.777 -2820.88C556.717 -2816.73 546.657 -2812.56 536.617 -2808.36C533.597 -2807.1 530.587 -2805.84 527.567 -2804.57C526.684 -2804.2 525.808 -2803.83 524.927 -2803.46C524.846 -2803.43 524.753 -2803.39 524.647 -2803.34L524.547 -2803.3C524.674 -2803.35 524.801 -2803.41 524.927 -2803.46C527.304 -2804.47 519.722 -2801.27 524.547 -2803.3L521.452 -2801.99C517.741 -2800.41 514.034 -2798.84 510.327 -2797.25C490.237 -2788.65 470.227 -2779.87 450.357 -2770.78C410.817 -2752.68 371.807 -2733.34 334.047 -2711.75C315.117 -2700.93 296.507 -2689.54 278.347 -2677.47C269.427 -2671.54 260.607 -2665.44 251.917 -2659.17C247.367 -2655.88 242.847 -2652.55 238.367 -2649.16C237.181 -2648.26 230.409 -2643.27 235.125 -2646.71C233.243 -2645.34 231.435 -2643.83 229.607 -2642.38C196.057 -2615.81 164.677 -2586.18 137.307 -2553.23C134.327 -2549.64 131.467 -2545.97 128.557 -2542.33C132.947 -2547.81 127.827 -2541.31 126.987 -2540.19C125.587 -2538.32 124.207 -2536.43 122.837 -2534.53C117.337 -2526.91 112.087 -2519.11 107.087 -2511.15C97.0173 -2495.14 87.9474 -2478.5 79.9073 -2461.38C77.8919 -2457.1 75.9461 -2452.79 74.0701 -2448.45C72.8976 -2443.7 73.2031 -2445.84 73.7562 -2447.59C73.5106 -2447.01 73.2106 -2446.42 73.0074 -2445.93C72.0974 -2443.73 71.2173 -2441.54 70.3474 -2439.33C66.8673 -2430.52 63.6573 -2421.6 60.7274 -2412.59C54.8974 -2394.66 50.1473 -2376.37 46.5773 -2357.86C45.6473 -2353.03 44.8073 -2348.19 44.0374 -2343.33C43.7237 -2341.36 43.4281 -2339.39 43.142 -2337.41C42.9161 -2331.88 42.8768 -2334.39 43.0121 -2336.25C42.9402 -2335.75 42.856 -2335.25 42.7973 -2334.77C41.6673 -2325.56 40.8474 -2316.32 40.3373 -2307.06C39.3373 -2288.78 39.5974 -2270.42 41.2574 -2252.18C41.4973 -2249.48 41.7773 -2246.77 42.0873 -2244.07C42.3073 -2242.24 43.7274 -2234.56 42.3073 -2241.98C43.0674 -2238.01 43.4873 -2233.95 44.1873 -2229.96C45.7373 -2221.12 47.6474 -2212.3 49.9174 -2203.68C52.1873 -2195.06 54.8173 -2186.53 57.8273 -2178.13C59.4242 -2173.67 61.5614 -2169.31 63.0113 -2164.81C63.3537 -2164.03 63.6964 -2163.25 64.0473 -2162.47C64.8673 -2160.65 65.7074 -2158.83 66.5674 -2157.02C74.2574 -2140.84 83.4973 -2125.4 94.1974 -2111.02C94.3492 -2110.82 94.5542 -2110.57 94.7803 -2110.32C96.0688 -2108.86 98.0435 -2107.04 94.7803 -2110.32C94.6569 -2110.44 94.526 -2110.57 94.3873 -2110.71C94.9973 -2110.1 95.5573 -2109.23 96.0773 -2108.57C97.4973 -2106.79 98.9474 -2105.03 100.407 -2103.28C103.217 -2099.94 106.097 -2096.67 109.057 -2093.47C115.607 -2086.39 122.527 -2079.65 129.757 -2073.27C133.557 -2069.91 137.437 -2066.66 141.407 -2063.5C141.791 -2063.2 142.175 -2062.89 142.56 -2062.59L143.677 -2061.75C145.587 -2060.32 147.517 -2058.92 149.457 -2057.53C157.187 -2052.02 165.207 -2046.86 173.387 -2042.1C181.567 -2037.34 189.967 -2032.95 198.517 -2028.9C202.797 -2026.87 207.157 -2025.01 211.487 -2023.08C205.007 -2025.97 212.697 -2022.62 214.017 -2022.09C216.227 -2021.21 218.447 -2020.35 220.677 -2019.51C238.697 -2012.72 257.197 -2007.25 275.937 -2002.84C285.467 -2000.59 295.067 -1998.61 304.707 -1996.87C309.567 -1995.99 314.447 -1995.17 319.327 -1994.4C321.777 -1994.01 324.227 -1993.64 326.687 -1993.28C327.794 -1993.13 333.324 -1992.41 332.29 -1992.52C412.109 -1982.87 492.353 -1984.21 572.607 -1983.61C645.797 -1983.07 719.527 -1975.09 789.717 -1953.58C855.727 -1933.36 919.677 -1903.11 967.707 -1847.76C1015.74 -1792.41 1037.62 -1719.11 1025.31 -1646.61C1013.36 -1576.25 967.347 -1515.14 913.037 -1470.97C853.277 -1422.36 781.887 -1388.08 707.167 -1369.64C666.607 -1359.63 625.077 -1355.42 583.437 -1353.27C536.447 -1350.85 489.377 -1351.16 442.337 -1351.49L438.76 -1351.52C392.781 -1351.85 346.766 -1352.18 300.817 -1349.95C277.767 -1348.83 254.737 -1347.06 231.827 -1344.28C229.837 -1344.04 227.847 -1343.78 225.857 -1343.53C225.488 -1343.49 224.899 -1343.42 224.445 -1343.37C222.376 -1343.09 220.307 -1342.76 218.237 -1342.45C212.587 -1341.61 206.957 -1340.7 201.327 -1339.72C190.107 -1337.76 178.927 -1335.51 167.837 -1332.93C145.627 -1327.75 123.727 -1321.23 102.407 -1313.12C99.7173 -1312.1 97.0473 -1311.06 94.3873 -1309.99C92.7873 -1309.34 91.1974 -1308.68 89.5974 -1308.03C89.2118 -1307.87 88.5273 -1307.62 88.0961 -1307.47C83.4396 -1305.59 78.882 -1303.28 74.3773 -1301.13C65.4774 -1296.89 56.7273 -1292.32 48.1773 -1287.43C39.6273 -1282.54 31.2674 -1277.35 23.0974 -1271.86C19.0174 -1269.11 14.9774 -1266.3 10.9973 -1263.41C9.00735 -1261.97 7.03735 -1260.51 5.06735 -1259.03C4.29187 -1258.45 3.52866 -1257.87 2.76337 -1257.28C2.71036 -1257.24 2.65503 -1257.2 2.59735 -1257.15C-12.8226 -1244.89 -27.4827 -1231.74 -41.1526 -1217.55C-47.9926 -1210.45 -54.5826 -1203.13 -60.9326 -1195.59C-64.1813 -1191.74 -67.3542 -1187.83 -70.4607 -1183.88C-72.9933 -1180.25 -72.1707 -1181.55 -71.2952 -1182.77C-71.5863 -1182.4 -71.8802 -1182.03 -72.1627 -1181.65C-73.6527 -1179.68 -75.1227 -1177.7 -76.5727 -1175.71C-88.1927 -1159.77 -98.7527 -1143.07 -108.163 -1125.74C-112.873 -1117.08 -117.283 -1108.26 -121.403 -1099.31C-122.633 -1096.63 -123.843 -1093.93 -125.023 -1091.22C-125.046 -1091.17 -125.104 -1091.05 -125.183 -1090.9C-125.282 -1090.67 -125.435 -1090.3 -125.643 -1089.8L-126.203 -1088.43C-127.883 -1084.33 -129.513 -1080.21 -131.073 -1076.06C-138.013 -1057.64 -143.693 -1038.75 -148.023 -1019.55C-150.193 -1009.95 -152.013 -1000.28 -153.483 -990.552C-153.681 -989.254 -153.868 -987.952 -154.052 -986.652C-154.064 -986.544 -154.078 -986.427 -154.093 -986.302C-154.373 -983.862 -154.683 -981.422 -154.943 -978.972C-155.433 -974.322 -155.853 -969.662 -156.183 -964.992C-157.593 -945.162 -157.493 -925.222 -155.913 -905.402C-155.493 -900.182 -154.983 -894.982 -154.363 -889.782C-154.253 -888.792 -154.123 -887.802 -154.003 -886.812C-154.001 -886.795 -153.999 -886.779 -153.997 -886.763C-153.682 -884.579 -153.367 -882.396 -153.023 -880.222C-151.433 -870.142 -149.473 -860.112 -147.153 -850.162C-142.623 -830.732 -136.723 -811.632 -129.563 -793.022C-128.663 -790.692 -127.753 -788.372 -126.813 -786.062C-126.343 -784.892 -125.903 -782.892 -125.113 -781.912C-125.383 -782.252 -127.233 -786.842 -125.633 -783.152C-123.653 -778.572 -121.633 -774.012 -119.513 -769.492C-115.283 -760.452 -110.733 -751.552 -105.903 -742.812C-96.2327 -725.342 -85.3927 -708.512 -73.4727 -692.492C-72.5827 -691.292 -71.6726 -690.102 -70.7726 -688.902C-70.7411 -688.86 -70.7106 -688.819 -70.6808 -688.78C-69.4296 -687.192 -68.1833 -685.599 -66.9127 -684.022C-63.7927 -680.142 -60.6026 -676.302 -57.3427 -672.522C-50.8327 -664.972 -44.0626 -657.632 -37.0526 -650.542C-30.0426 -643.452 -22.7926 -636.612 -15.3026 -630.032C-11.3727 -626.582 -7.38266 -623.202 -3.32266 -619.902C-1.58267 -618.492 0.167328 -617.092 1.92734 -615.702C2.16589 -615.514 2.43808 -615.261 2.70557 -614.994C3.29187 -614.53 4.01996 -614.085 4.47736 -613.742C20.4073 -601.732 37.2273 -590.902 54.7673 -581.402C62.4273 -577.252 70.2173 -573.342 78.1073 -569.632C82.2373 -567.682 86.3874 -565.802 90.5674 -563.972C92.3574 -563.192 94.1974 -562.472 95.9673 -561.642C89.3273 -564.752 96.2173 -561.552 97.8474 -560.882C130.697 -547.442 164.707 -537.012 198.997 -527.932C268.657 -509.482 339.737 -496.782 409.027 -476.892C475.487 -457.822 541.187 -431.412 593.957 -385.612C620.187 -362.842 642.527 -334.942 658.947 -304.332C676.867 -270.932 688.437 -234.462 697.307 -197.742C706.057 -161.512 712.397 -124.772 720.657 -88.4321C724.697 -70.6621 729.197 -52.9717 734.767 -35.6118C737.447 -27.2617 740.367 -18.9922 743.617 -10.8521C743.909 -10.1177 744.207 -9.38672 744.507 -8.65527C745.4 -6.84814 746.102 -4.93018 746.937 -3.0918C748.717 0.818359 750.577 4.68848 752.527 8.5083C756.407 16.0981 760.667 23.498 765.337 30.6279C767.616 34.0947 769.989 37.4941 772.457 40.8188C776.006 44.5547 774.29 43.0049 773.13 41.6675C773.374 41.9888 773.612 42.312 773.847 42.6079C775.187 44.2778 776.557 45.9277 777.957 47.5479C783.627 54.1279 789.747 60.3379 796.267 66.0879C798.097 67.6978 799.967 69.2783 801.857 70.8281C802.231 71.1333 802.644 71.5356 803.072 71.9238C803.28 72.0308 803.515 72.1724 803.757 72.3481C807.877 75.3281 812.017 78.2583 816.327 80.9683C824.817 86.2983 833.707 90.9683 842.877 95.0181C843.222 95.1753 843.569 95.3296 843.917 95.4814C845.447 96.1328 846.028 96.3794 845.66 96.2241C845.982 96.3203 846.273 96.4102 846.497 96.498C848.597 97.3179 850.697 98.1079 852.817 98.8779C857.537 100.588 862.307 102.158 867.117 103.598C886.727 109.488 906.887 113.328 927.127 116.248C928.297 116.418 929.52 116.69 930.723 116.824C931.214 116.847 931.686 116.877 931.997 116.918C934.337 117.218 936.667 117.508 939.007 117.788C943.967 118.388 948.927 118.948 953.887 119.488C964.387 120.628 974.907 121.648 985.417 122.698C1007.9 124.928 1030.37 127.338 1052.7 130.768C1071.73 133.698 1091.06 137.068 1109.18 143.758C1127.19 150.398 1144.33 159.138 1160.04 170.178C1190.51 191.588 1217.57 219.608 1234.61 252.988C1250.22 283.588 1259.2 319.748 1246.83 354.158C1234.46 388.568 1205.39 414.198 1170.54 424.518C1138.19 434.098 1103.63 430.308 1070.96 424.738C1054.76 421.979 1038.69 418.498 1022.6 415.198C1014.55 413.548 1006.49 411.938 998.407 410.478C994.027 409.678 989.627 408.938 985.227 408.258C983.84 408.048 982.446 407.843 981.056 407.64C976.707 407.191 977.199 407.176 978.413 407.294C963.599 405.522 948.581 404.708 933.707 406.128C932.863 406.207 932.023 406.312 931.184 406.409C929.703 406.655 928.218 406.897 926.747 407.188C923.407 407.848 920.087 408.638 916.817 409.588C913.258 410.62 909.854 411.962 906.373 413.225C913.39 410.683 907.473 412.785 905.687 413.668C904.227 414.388 902.787 415.138 901.367 415.928C897.987 417.808 894.727 419.878 891.607 422.148C891.543 422.194 891.482 422.239 891.423 422.281C891.249 422.429 891.042 422.604 890.797 422.808C889.367 424.008 887.967 425.248 886.597 426.518C883.537 429.358 880.657 432.388 877.987 435.598C874.227 440.118 880.737 431.668 877.307 436.488C876.327 437.858 875.387 439.258 874.487 440.688C872.427 443.958 870.577 447.358 868.947 450.868C866.507 456.118 870.757 446.048 868.667 451.538C868.087 453.068 867.537 454.618 867.037 456.178C865.857 459.838 864.887 463.558 864.117 467.328C863.761 469.023 863.484 470.736 863.188 472.441C863.144 472.79 863.102 473.139 863.067 473.488C862.277 481.178 862.157 488.928 862.487 496.648C862.657 500.668 862.947 504.678 863.337 508.688C863.537 510.728 863.757 512.768 864.007 514.808C864.049 515.146 864.095 515.486 864.141 515.826C863.925 514.055 863.688 510.824 864.26 516.681C866.79 533.847 870.62 550.807 874.637 567.678C891.577 638.768 914.927 718.598 875.517 786.698C837.027 853.218 756.917 883.888 683.517 888.518C638.947 891.328 594.067 882.678 551.107 871.538C504.207 859.368 458.397 843.308 411.367 831.568C399.637 828.648 387.847 825.988 375.977 823.738C370.047 822.618 364.087 821.588 358.117 820.688C356.874 820.5 355.602 820.371 354.357 820.164L354.274 820.154C352.558 819.95 350.846 819.747 349.127 819.568C331.177 817.708 313.067 817.378 295.067 818.598C290.307 818.918 285.567 819.348 280.827 819.888C280.218 819.953 279.612 820.026 279.005 820.101C276.938 820.528 274.768 820.699 272.677 821.038C263.797 822.478 254.987 824.348 246.287 826.648C237.717 828.918 229.257 831.618 220.977 834.798C219.85 835.241 218.715 835.685 217.587 836.136C213.719 838.263 214.537 837.668 215.859 836.953C214.728 837.442 213.569 837.885 212.467 838.398C208.747 840.128 205.067 841.958 201.447 843.908C193.937 847.948 186.677 852.479 179.787 857.508C179.706 857.568 179.557 857.678 179.366 857.818C179.504 857.73 177.674 859.116 177.317 859.408C175.687 860.738 174.077 862.098 172.497 863.488C169.667 865.979 166.917 868.578 164.267 871.268C161.037 874.558 157.947 877.998 155.027 881.568C154.972 881.636 154.917 881.705 154.863 881.775C155.839 880.687 156.752 880.125 153.779 883.197C152.838 884.51 151.886 885.814 150.977 887.148C146.151 894.228 142.164 901.703 138.554 909.454C138.503 909.584 138.447 909.726 138.387 909.878C137.947 910.988 137.527 912.108 137.117 913.228C136.307 915.448 135.557 917.688 134.857 919.948C133.627 923.948 132.567 928.008 131.697 932.098C131.232 934.259 130.85 936.432 130.484 938.613C130.509 939.805 130.138 941.221 130.037 942.368C129.647 946.648 129.457 950.938 129.457 955.238C129.457 959.979 129.687 964.718 130.147 969.428C130.223 970.265 130.324 971.109 130.411 971.955C130.723 973.82 131.015 975.693 131.367 977.548C133.077 986.538 135.547 995.368 138.657 1003.98C139.44 1006.16 140.282 1008.32 141.143 1010.48C141.585 1011.47 142.013 1012.47 142.467 1013.45C144.337 1017.52 146.337 1021.52 148.457 1025.46C153.007 1033.9 158.107 1042.03 163.667 1049.84C165.207 1052.01 166.937 1054.08 168.417 1056.29C164.697 1050.74 169.427 1057.51 170.347 1058.64C173.457 1062.45 176.677 1066.17 179.987 1069.8C186.677 1077.13 193.757 1084.09 201.177 1090.68C204.907 1093.99 208.717 1097.2 212.607 1100.32C212.947 1100.6 216.697 1103.78 213.857 1101.34C211.017 1098.9 214.787 1102.04 215.147 1102.31C217.137 1103.81 219.147 1105.28 221.177 1106.73C229.257 1112.49 237.627 1117.84 246.257 1122.75C254.776 1127.59 263.544 1131.89 272.482 1135.88C272.487 1135.88 272.492 1135.89 272.497 1135.89C273.677 1136.36 274.847 1136.84 276.027 1137.3C278.547 1138.29 281.077 1139.25 283.617 1140.19C289.247 1142.27 294.917 1144.24 300.627 1146.09C392.637 1175.95 490.847 1176.85 583.827 1202.6C624.407 1213.84 663.417 1231.11 697.897 1255.42C732.077 1279.51 762.857 1309.47 783.697 1346.03C804.727 1382.93 813.567 1424.53 807.517 1466.63C802.107 1504.25 783.257 1538.77 757.197 1566.11C703.487 1622.45 623.167 1649.34 547.177 1655.41C496.027 1659.5 444.697 1656.35 393.507 1655C367.677 1654.32 341.817 1654.08 316.007 1655.49C303.393 1656.17 290.839 1657.35 278.294 1658.86C277.392 1658.99 276.492 1659.12 275.587 1659.26L275.443 1659.28C274.231 1659.46 273.019 1659.65 271.817 1659.84C268.677 1660.33 265.547 1660.87 262.417 1661.44C256.687 1662.49 250.977 1663.65 245.307 1664.98C235.777 1667.22 226.387 1670.05 217.187 1673.4C214.627 1674.33 212.087 1675.3 209.557 1676.31C209.221 1676.44 208.822 1676.56 208.43 1676.65C207.793 1676.94 207.122 1677.31 206.687 1677.5C202.117 1679.51 197.607 1681.64 193.167 1683.9C184.257 1688.42 175.597 1693.44 167.247 1698.92C163.077 1701.66 158.987 1704.51 154.987 1707.47C154.197 1708.05 153.414 1708.65 152.631 1709.24C152.573 1709.29 152.512 1709.34 152.447 1709.39C150.517 1710.94 148.597 1712.49 146.707 1714.09C139.237 1720.4 132.117 1727.15 125.477 1734.34C122.207 1737.88 119.047 1741.52 116.017 1745.27C115.367 1746.07 113.797 1749.47 115.107 1746.37C116.417 1743.27 114.827 1746.75 114.267 1747.51C112.857 1749.42 111.477 1751.35 110.137 1753.3C104.847 1761 100.107 1769.07 96.0873 1777.5C95.6274 1778.47 95.1797 1779.45 94.7298 1780.43L94.3474 1781.26L94.3306 1781.29C94.329 1781.3 94.3274 1781.3 94.3258 1781.31C94.3329 1781.29 94.3401 1781.27 94.3474 1781.26L94.7173 1780.32C95.8931 1777.38 92.373 1785.54 94.3258 1781.31C94.3274 1781.3 94.329 1781.3 94.3306 1781.29L94.3474 1781.26C94.3401 1781.27 94.3329 1781.29 94.3258 1781.31C93.695 1782.89 93.0656 1784.48 92.4774 1786.08C90.9073 1790.35 89.5273 1794.71 88.3673 1799.1C87.23 1803.4 86.285 1807.75 85.5605 1812.15C85.7446 1816.92 85.324 1815.2 85.4245 1813.31C85.3584 1813.74 85.284 1814.17 85.2473 1814.53C85.0074 1816.8 84.8373 1819.07 84.7274 1821.35C84.4973 1825.94 84.5073 1830.54 84.7673 1835.13C84.8961 1837.43 85.1131 1839.71 85.331 1842.01L85.3318 1842.02C85.4604 1842.84 85.5865 1843.66 85.7274 1844.49C87.2274 1853.04 89.5573 1861.46 92.6273 1869.58C92.8051 1870.05 93.0017 1870.51 93.1974 1870.98C92.6467 1869.4 92.3493 1867.93 93.7925 1872.43C94.4872 1873.94 95.2003 1875.44 95.9474 1876.93C97.6374 1880.31 99.4673 1883.61 101.427 1886.83C103.469 1890.17 105.689 1893.38 107.953 1896.56C110.427 1899.41 109.942 1899.03 109.155 1898.13C110.273 1899.5 111.423 1900.86 112.597 1902.19C117.817 1908.12 123.507 1913.64 129.557 1918.73C130.967 1919.91 137.857 1924.81 131.557 1920.46C133.047 1921.49 134.457 1922.64 135.927 1923.69C139.057 1925.94 142.257 1928.09 145.517 1930.15C152.517 1934.56 159.777 1938.55 167.217 1942.16C169.487 1943.26 171.777 1944.33 174.077 1945.36C174.845 1945.71 175.622 1946.04 176.39 1946.38C179.732 1947.74 183.078 1949.06 186.467 1950.3C194.627 1953.28 202.787 1955.87 211.297 1958.2C219.807 1960.53 228.407 1962.54 237.067 1964.25C241.867 1965.19 246.677 1966.05 251.507 1966.82C253.487 1967.13 255.467 1967.43 257.447 1967.72C257.527 1967.73 257.607 1967.74 257.687 1967.75C256.58 1967.57 255.981 1967.4 259.886 1968.04C277.259 1970.1 294.7 1971.33 312.207 1971.49C332.777 1971.67 353.337 1970.44 373.897 1970.25C466.197 1969.42 563.057 1978.16 645.627 2022.81C686.927 2045.14 725.327 2074.15 761.197 2104.28C796.097 2133.6 828.587 2165.67 859.277 2199.34C871.217 2212.45 883.817 2225.47 894.177 2239.91C899.267 2247.01 903.647 2254.66 907.747 2262.37C922.837 2290.69 934.327 2321.32 941.517 2352.59C961.377 2438.95 947.837 2531.49 897.907 2605.52C864.937 2654.41 818.867 2694.9 766.397 2721.85C691.737 2760.19 605.917 2766.02 523.557 2769.8C499.737 2770.89 475.917 2771.84 452.137 2773.5C440.287 2774.33 428.447 2775.33 416.637 2776.59C411.569 2777.13 406.216 2777.37 401.138 2778.27C400.53 2778.41 399.451 2778.64 398.817 2778.73C397.347 2778.94 395.887 2779.15 394.427 2779.37C391.507 2779.81 388.587 2780.26 385.677 2780.74C362.527 2784.54 339.567 2789.78 317.297 2797.22C311.747 2799.07 306.247 2801.06 300.807 2803.19C299.167 2803.83 297.547 2804.5 295.917 2805.15C295.623 2805.27 295.138 2805.45 294.731 2805.59C292.595 2806.49 290.486 2807.53 288.407 2808.5C278.767 2812.98 269.347 2817.94 260.317 2823.56C256.027 2826.23 251.827 2829.03 247.717 2831.95C246.008 2833.16 244.348 2834.61 242.594 2835.8C243.96 2834.94 245.279 2834.24 241.865 2836.28C241.668 2836.41 241.492 2836.54 241.357 2836.65C240.567 2837.28 239.777 2837.92 238.997 2838.56C231.157 2844.97 223.717 2851.87 216.737 2859.21C213.087 2863.05 209.567 2867.01 206.187 2871.09C204.787 2872.78 203.057 2874.49 201.937 2876.38C205.227 2870.83 201.027 2877.69 200.057 2879.05C194.267 2887.13 189.037 2895.61 184.467 2904.44C183.107 2907.07 181.807 2909.73 180.577 2912.41C180.199 2913.24 179.829 2914.06 179.46 2914.89C177.837 2919.08 176.24 2923.25 174.877 2927.54C173.247 2932.64 171.867 2937.81 170.737 2943.04C170.277 2945.17 169.857 2947.32 169.487 2949.47C169.37 2950.14 169.262 2950.81 169.156 2951.48C169.798 2953.06 168.436 2958.34 168.327 2960.14C168.177 2962.58 168.077 2965.02 168.047 2967.46C167.987 2971.88 168.127 2976.31 168.467 2980.72C168.595 2982.29 168.746 2983.85 168.916 2985.42C169.705 2988.61 169.612 2988.69 169.38 2987.89C169.621 2989.41 169.811 2990.95 170.107 2992.44C170.977 2996.77 172.027 3001.07 173.257 3005.31C174.641 3010.06 176.306 3014.7 178.071 3019.32C178.245 3019.66 178.533 3020.38 178.739 3020.93C179.055 3021.64 179.36 3022.33 179.427 3022.48C180.337 3024.47 181.287 3026.44 182.277 3028.39C186.697 3037.11 191.847 3045.46 197.547 3053.4C198.467 3054.69 199.429 3055.95 200.372 3057.22L201.252 3058.31C202.486 3059.83 203.723 3061.36 204.997 3062.86C208.067 3066.47 211.247 3069.99 214.527 3073.42C221.507 3080.72 228.917 3087.61 236.647 3094.11C238.787 3095.91 240.957 3097.69 243.147 3099.43C243.218 3099.48 243.492 3099.7 243.831 3099.97C244.487 3100.47 245.693 3101.41 245.857 3101.53C249.747 3104.45 253.687 3107.28 257.687 3110.03C266.087 3115.81 274.737 3121.23 283.567 3126.33C293.007 3131.77 302.667 3136.81 312.467 3141.58C317.837 3144.19 323.237 3146.73 328.677 3149.19C331.387 3150.42 334.117 3151.63 336.847 3152.83L338.064 3153.36C338.749 3153.66 339.436 3153.96 340.127 3154.26C340.629 3154.48 342.9 3155.46 343.408 3155.68C430.881 3192.96 524.838 3212.25 613.587 3246.1C692.927 3276.35 768.877 3319.6 824.327 3385.25C851.167 3417.04 872.867 3453.01 885.007 3493C897.817 3535.21 898.447 3580.23 888.347 3623.06C867.287 3712.36 805.337 3785.87 739.007 3848.67C672.677 3911.47 597.217 3964.15 518.757 4010.6Z" fill="#88C890"/>
<path d="M862.517 -4858.03C836.747 -4853.9 794.24 -4848.46 769 -4846C769 -4846 770 -4857.03 768 -4868.5C766 -4879.97 758 -4886 758 -4886C777 -4890 799.43 -4893.67 811.5 -4895C823.57 -4896.33 832.6 -4898.23 838 -4899C843.4 -4899.77 856.13 -4902.53 861.5 -4903.5C873.37 -4905.64 882.247 -4907.65 893.777 -4911.19C900.127 -4913.14 906.337 -4915.41 912.517 -4917.84C912.793 -4917.95 913.075 -4918.03 913.333 -4918.09C913.988 -4918.42 914.641 -4918.81 915.217 -4919.07C917.237 -4920.01 919.247 -4920.98 921.227 -4922C926.107 -4924.49 930.867 -4927.22 935.477 -4930.17C938.817 -4932.31 943.957 -4934.81 946.507 -4937.88C943.927 -4935.88 943.587 -4935.63 945.477 -4937.13C946.057 -4937.6 946.637 -4938.07 947.207 -4938.55C948.167 -4939.35 949.117 -4940.15 950.047 -4940.97C951.907 -4942.6 953.737 -4944.28 955.517 -4946C958.707 -4949.08 961.757 -4952.31 964.637 -4955.68C965.267 -4956.42 969.317 -4960.08 966.587 -4957.96C964.007 -4955.96 966.897 -4958.39 967.477 -4959.19C968.907 -4961.16 970.277 -4963.17 971.587 -4965.22C973.927 -4968.89 976.067 -4972.69 977.977 -4976.61C978.277 -4977.22 980.967 -4982.6 979.227 -4979.2C977.487 -4975.8 979.507 -4980.01 979.707 -4980.55C980.547 -4982.82 981.317 -4985.12 981.997 -4987.44C982.307 -4988.49 985.577 -4999.99 984.857 -5000.29C984.427 -4996.89 984.357 -4996.44 984.647 -4998.95C984.727 -4999.72 984.797 -5000.5 984.857 -5001.27C984.957 -5002.55 985.037 -5003.84 985.087 -5005.13C985.187 -5007.69 985.187 -5010.26 985.087 -5012.83C984.999 -5015.1 984.745 -5017.35 984.585 -5019.62C984.448 -5020.44 984.312 -5021.27 984.157 -5022.09C983.117 -5027.65 981.637 -5033.12 979.797 -5038.46C979.457 -5039.44 979.107 -5040.41 978.747 -5041.38C978.607 -5041.76 976.967 -5046.54 978.157 -5043.02C979.347 -5039.5 977.617 -5044.21 977.427 -5044.62C976.987 -5045.56 976.547 -5046.5 976.087 -5047.44C973.557 -5052.62 970.697 -5057.63 967.557 -5062.46C966.267 -5064.44 964.927 -5066.4 963.537 -5068.32C963.127 -5068.9 962.725 -5069.51 962.302 -5070.1C962.107 -5070.31 961.914 -5070.52 961.767 -5070.69C954.727 -5078.97 947.327 -5086.75 938.907 -5093.66C938.408 -5094.07 938.053 -5094.37 937.81 -5094.57C936.914 -5095.23 936.035 -5095.9 935.137 -5096.54C932.817 -5098.21 930.467 -5099.83 928.077 -5101.4C923.547 -5104.37 918.907 -5107.17 914.177 -5109.8C908.947 -5112.71 903.607 -5115.42 898.177 -5117.94C895.614 -5119.14 893.031 -5120.47 890.379 -5121.43C891.103 -5121.17 894.789 -5119.64 890.987 -5121.16C889.657 -5121.69 888.327 -5122.23 886.997 -5122.76C865.567 -5131.22 843.337 -5137.47 821.047 -5143.22C772.017 -5155.87 722.607 -5167.04 672.937 -5176.87C623.057 -5186.74 572.897 -5195.21 522.537 -5202.27C519.077 -5202.76 515.607 -5203.24 512.147 -5203.71C512.133 -5203.71 511.365 -5203.82 510.524 -5203.93C510.101 -5203.98 506.809 -5204.42 506.787 -5204.42C500.797 -5205.21 494.807 -5205.98 488.817 -5206.73C476.207 -5208.31 463.577 -5209.81 450.947 -5211.21C425.677 -5214.02 400.367 -5216.47 375.027 -5218.58C273.367 -5227.03 171.227 -5229.8 69.2473 -5226.86C18.4174 -5225.39 -32.3627 -5222.51 -83.0327 -5218.2C-108.363 -5216.05 -133.673 -5213.54 -158.933 -5210.67C-171.563 -5209.23 -184.183 -5207.71 -196.793 -5206.1C-199.953 -5205.69 -203.103 -5205.28 -206.253 -5204.87C-207.504 -5204.71 -208.755 -5204.55 -210.007 -5204.38C-210.325 -5204.34 -210.84 -5204.27 -211.613 -5204.16C-217.913 -5203.3 -224.153 -5202.43 -230.503 -5201.53C-236.853 -5200.63 -242.123 -5200.78 -247.843 -5203.8C-253.043 -5206.55 -256.433 -5211.84 -258.183 -5217.25C-259.933 -5222.66 -258.733 -5229.77 -255.913 -5234.59C-253.403 -5238.87 -247.643 -5244.19 -242.463 -5244.93C-147.943 -5258.41 -52.8326 -5267.27 42.5674 -5270.96C144.197 -5274.89 246.037 -5273.13 347.467 -5265.73C450.887 -5258.18 553.947 -5244.85 655.877 -5225.83C705.857 -5216.51 755.587 -5205.78 804.967 -5193.65C851.317 -5182.26 900.527 -5169.79 940.607 -5146.54C980.687 -5123.29 1014.99 -5085.94 1026.25 -5040.05C1031.77 -5017.57 1031.34 -4992.55 1024.09 -4971.29C1016.84 -4950.03 1004.39 -4930.96 988.407 -4915.2C954.457 -4881.72 908.777 -4865.45 862.517 -4858.03Z" fill="#88C890"/>
</svg>
