<svg width="1440" height="619" viewBox="0 0 1440 619" fill="none" xmlns="http://www.w3.org/2000/svg">
<path d="M283.474 296.387L276.392 301.779C269.31 292.956 260.192 288.545 249.04 288.545C239.352 288.545 231.049 292.017 224.13 298.96C217.292 305.823 213.873 314.114 213.873 323.836C213.873 333.557 217.292 341.89 224.13 348.834C231.049 355.696 239.352 359.127 249.04 359.127C254.494 359.127 259.582 357.942 264.303 355.573C269.106 353.204 273.176 349.937 276.514 345.77L283.352 351.53C279.282 356.676 274.235 360.72 268.211 363.661C262.187 366.52 255.796 367.95 249.04 367.95C236.91 367.95 226.531 363.661 217.902 355.083C209.355 346.424 205.081 336.008 205.081 323.836C205.081 311.664 209.355 301.289 217.902 292.711C226.531 284.052 236.91 279.722 249.04 279.722C255.878 279.722 262.309 281.233 268.333 284.256C274.357 287.197 279.404 291.241 283.474 296.387ZM297.15 285.359L290.19 290.75C285.306 284.542 279.241 279.681 271.996 276.168C264.832 272.656 257.18 270.899 249.04 270.899C234.468 270.899 222.013 276.087 211.675 286.462C201.418 296.836 196.289 309.295 196.289 323.836C196.289 338.377 201.418 350.835 211.675 361.21C222.013 371.585 234.468 376.773 249.04 376.773C257.18 376.773 264.873 375.016 272.118 371.503C279.363 367.909 285.428 363.007 290.312 356.799L297.028 362.436C291.33 369.624 284.288 375.302 275.903 379.468C267.519 383.553 258.564 385.595 249.04 385.595C237.887 385.595 227.589 382.859 218.146 377.385C208.704 371.83 201.214 364.314 195.679 354.838C190.225 345.362 187.498 335.028 187.498 323.836C187.498 312.644 190.225 302.31 195.679 292.834C201.214 283.357 208.704 275.882 218.146 270.409C227.589 264.854 237.887 262.076 249.04 262.076C258.564 262.076 267.519 264.159 275.903 268.326C284.369 272.41 291.452 278.088 297.15 285.359ZM310.948 274.33L304.11 279.844C297.516 271.594 289.417 265.099 279.811 260.361C270.205 255.623 259.948 253.254 249.04 253.254C239.515 253.254 230.398 255.132 221.688 258.89C213.059 262.566 205.569 267.591 199.22 273.963C192.952 280.253 187.945 287.769 184.201 296.51C180.537 305.169 178.706 314.278 178.706 323.836C178.706 333.394 180.537 342.543 184.201 351.285C187.945 359.944 192.952 367.46 199.22 373.832C205.569 380.122 213.059 385.146 221.688 388.904C230.398 392.58 239.515 394.418 249.04 394.418C259.948 394.418 270.205 392.049 279.811 387.311C289.417 382.573 297.516 376.078 304.11 367.827L310.704 373.587C303.296 382.818 294.219 390.088 283.474 395.398C272.729 400.627 261.25 403.241 249.04 403.241C238.294 403.241 228.037 401.158 218.269 396.991C208.5 392.743 200.075 387.107 192.992 380.081C185.992 372.974 180.375 364.519 176.142 354.716C171.99 344.912 169.914 334.619 169.914 323.836C169.914 313.052 171.99 302.759 176.142 292.956C180.375 283.153 185.992 274.739 192.992 267.713C200.075 260.606 208.5 254.969 218.269 250.803C228.037 246.555 238.294 244.431 249.04 244.431C261.332 244.431 272.851 247.086 283.596 252.396C294.423 257.706 303.54 265.017 310.948 274.33ZM324.624 263.302L317.542 268.571C309.32 258.359 299.226 250.313 287.259 244.431C275.374 238.549 262.634 235.608 249.04 235.608C237.155 235.608 225.758 237.936 214.85 242.593C204.023 247.249 194.661 253.539 186.765 261.464C178.95 269.306 172.723 278.701 168.082 289.648C163.442 300.513 161.122 311.909 161.122 323.836C161.122 335.763 163.442 347.2 168.082 358.147C172.723 369.012 178.95 378.406 186.765 386.331C194.661 394.173 204.023 400.423 214.85 405.079C225.758 409.735 237.155 412.064 249.04 412.064C262.634 412.064 275.374 409.123 287.259 403.241C299.226 397.359 309.32 389.312 317.542 379.101L324.502 384.492C315.466 395.766 304.354 404.671 291.167 411.206C278.061 417.66 264.018 420.886 249.04 420.886C235.933 420.886 223.397 418.313 211.431 413.167C199.545 408.02 189.288 401.117 180.66 392.458C172.031 383.798 165.152 373.505 160.023 361.578C154.895 349.569 152.331 336.988 152.331 323.836C152.331 310.683 154.895 298.144 160.023 286.216C165.152 274.208 172.031 263.874 180.66 255.214C189.288 246.555 199.545 239.652 211.431 234.505C223.397 229.358 235.933 226.785 249.04 226.785C264.018 226.785 278.101 230.053 291.289 236.588C304.476 243.042 315.588 251.946 324.624 263.302Z" fill="#2A1A6E"/>
<path d="M388.506 298.96C381.668 305.823 378.249 314.114 378.249 323.836C378.249 333.557 381.668 341.89 388.506 348.834C395.425 355.696 403.729 359.127 413.416 359.127C423.103 359.127 431.366 355.696 438.204 348.834C445.123 341.89 448.583 333.557 448.583 323.836C448.583 314.114 445.123 305.823 438.204 298.96C431.366 292.017 423.103 288.545 413.416 288.545C403.729 288.545 395.425 292.017 388.506 298.96ZM382.278 355.083C373.731 346.424 369.457 336.008 369.457 323.836C369.457 311.664 373.731 301.289 382.278 292.711C390.907 284.052 401.287 279.722 413.416 279.722C425.545 279.722 435.884 284.052 444.431 292.711C453.06 301.289 457.375 311.664 457.375 323.836C457.375 336.008 453.06 346.424 444.431 355.083C435.884 363.661 425.545 367.95 413.416 367.95C401.287 367.95 390.907 363.661 382.278 355.083ZM376.051 286.462C365.794 296.836 360.665 309.295 360.665 323.836C360.665 338.377 365.794 350.835 376.051 361.21C386.389 371.585 398.844 376.773 413.416 376.773C427.987 376.773 440.402 371.585 450.659 361.21C460.997 350.835 466.166 338.377 466.166 323.836C466.166 309.295 460.997 296.836 450.659 286.462C440.402 276.087 427.987 270.899 413.416 270.899C398.844 270.899 386.389 276.087 376.051 286.462ZM360.055 354.838C354.601 345.362 351.874 335.028 351.874 323.836C351.874 312.644 354.601 302.31 360.055 292.834C365.59 283.357 373.08 275.882 382.523 270.409C391.966 264.854 402.263 262.076 413.416 262.076C424.568 262.076 434.866 264.854 444.309 270.409C453.752 275.882 461.201 283.357 466.655 292.834C472.19 302.31 474.958 312.644 474.958 323.836C474.958 335.028 472.19 345.362 466.655 354.838C461.201 364.314 453.752 371.83 444.309 377.385C434.866 382.859 424.568 385.595 413.416 385.595C402.263 385.595 391.966 382.859 382.523 377.385C373.08 371.83 365.59 364.314 360.055 354.838ZM348.577 296.51C344.914 305.169 343.082 314.278 343.082 323.836C343.082 333.394 344.914 342.543 348.577 351.285C352.321 359.944 357.328 367.46 363.596 373.832C369.946 380.122 377.435 385.146 386.064 388.904C394.774 392.58 403.891 394.418 413.416 394.418C422.94 394.418 432.017 392.58 440.646 388.904C449.356 385.146 456.845 380.122 463.114 373.832C469.463 367.46 474.47 359.944 478.133 351.285C481.877 342.543 483.75 333.394 483.75 323.836C483.75 314.278 481.877 305.169 478.133 296.51C474.47 287.769 469.463 280.253 463.114 273.963C456.845 267.591 449.356 262.566 440.646 258.89C432.017 255.132 422.94 253.254 413.416 253.254C403.891 253.254 394.774 255.132 386.064 258.89C377.435 262.566 369.946 267.591 363.596 273.963C357.328 280.253 352.321 287.769 348.577 296.51ZM340.518 354.716C336.366 344.912 334.29 334.619 334.29 323.836C334.29 313.052 336.366 302.759 340.518 292.956C344.751 283.153 350.368 274.739 357.369 267.713C364.451 260.606 372.876 254.969 382.645 250.803C392.413 246.555 402.67 244.431 413.416 244.431C424.161 244.431 434.418 246.555 444.187 250.803C453.956 254.969 462.34 260.606 469.341 267.713C476.423 274.739 482.04 283.153 486.192 292.956C490.425 302.759 492.542 313.052 492.542 323.836C492.542 334.619 490.425 344.912 486.192 354.716C482.04 364.519 476.423 372.974 469.341 380.081C462.34 387.107 453.956 392.743 444.187 396.991C434.418 401.158 424.161 403.241 413.416 403.241C402.67 403.241 392.413 401.158 382.645 396.991C372.876 392.743 364.451 387.107 357.369 380.081C350.368 372.974 344.751 364.519 340.518 354.716ZM332.459 289.648C327.819 300.513 325.499 311.909 325.499 323.836C325.499 335.763 327.819 347.2 332.459 358.147C337.099 369.012 343.326 378.406 351.141 386.331C359.037 394.173 368.399 400.423 379.226 405.079C390.134 409.735 401.531 412.064 413.416 412.064C425.301 412.064 436.657 409.735 447.484 405.079C458.392 400.423 467.754 394.173 475.569 386.331C483.465 378.406 489.733 369.012 494.373 358.147C499.013 347.2 501.333 335.763 501.333 323.836C501.333 311.909 499.013 300.513 494.373 289.648C489.733 278.701 483.465 269.306 475.569 261.464C467.754 253.539 458.392 247.249 447.484 242.593C436.657 237.936 425.301 235.608 413.416 235.608C401.531 235.608 390.134 237.936 379.226 242.593C368.399 247.249 359.037 253.539 351.141 261.464C343.326 269.306 337.099 278.701 332.459 289.648ZM324.4 361.578C319.271 349.569 316.707 336.988 316.707 323.836C316.707 310.683 319.271 298.144 324.4 286.216C329.528 274.208 336.407 263.874 345.036 255.214C353.665 246.555 363.922 239.652 375.807 234.505C387.773 229.358 400.31 226.785 413.416 226.785C426.522 226.785 439.018 229.358 450.903 234.505C462.869 239.652 473.167 246.555 481.796 255.214C490.425 263.874 497.304 274.208 502.432 286.216C507.561 298.144 510.125 310.683 510.125 323.836C510.125 336.988 507.561 349.569 502.432 361.578C497.304 373.505 490.425 383.798 481.796 392.458C473.167 401.117 462.869 408.02 450.903 413.167C439.018 418.313 426.522 420.886 413.416 420.886C400.31 420.886 387.773 418.313 375.807 413.167C363.922 408.02 353.665 401.117 345.036 392.458C336.407 383.798 329.528 373.505 324.4 361.578Z" fill="#2A1A6E"/>
<path d="M609.656 279.702C591.368 279.702 579.088 285.677 572.814 297.628C569.306 304.35 567.551 314.7 567.551 328.677V412.064H521.778V237.609H565.159V268.018C572.176 256.388 578.29 248.439 583.5 244.171C592.006 237.022 603.064 233.447 616.673 233.447C617.524 233.447 618.215 233.501 618.747 233.607C619.385 233.607 620.714 233.661 622.734 233.767V280.502C619.863 280.182 617.311 279.969 615.079 279.862C612.846 279.755 611.038 279.702 609.656 279.702Z" fill="#C8251A"/>
<path d="M735.645 379.573V413.664L714.114 414.464C692.636 415.211 677.963 411.477 670.095 403.261C664.992 398.033 662.44 389.977 662.44 379.093V271.699H638.198V239.209H662.44V190.554H707.415V239.209H735.645V271.699H707.415V363.888C707.415 371.037 708.319 375.519 710.127 377.333C711.934 379.04 717.463 379.894 726.713 379.894C728.095 379.894 729.531 379.894 731.019 379.894C732.614 379.787 734.156 379.68 735.645 379.573Z" fill="#C8251A"/>
<path d="M829.525 363.664H848.281V378.453C848.281 390.105 844.708 399.337 837.563 406.148C830.418 412.781 819.343 416.097 804.339 416.097C789.334 416.097 778.17 412.781 770.847 406.148C763.523 399.337 759.861 390.105 759.861 378.453V270.899C759.861 259.247 763.434 250.105 770.579 243.473C777.724 236.661 788.798 233.255 803.803 233.255C818.808 233.255 829.972 236.661 837.295 243.473C844.619 250.105 848.281 259.247 848.281 270.899V330.054H778.617V378.453C778.617 385.086 780.671 390.374 784.779 394.317C789.066 398.082 795.586 399.964 804.339 399.964C812.913 399.964 819.254 398.082 823.363 394.317C827.471 390.374 829.525 385.086 829.525 378.453V363.664ZM778.617 313.921H829.525V270.899C829.525 264.087 827.382 258.799 823.095 255.035C818.986 251.271 812.556 249.388 803.803 249.388C795.229 249.388 788.888 251.271 784.779 255.035C780.671 258.799 778.617 264.087 778.617 270.899V313.921Z" fill="#3A8A3A"/>
<path d="M961.887 412.064L931.61 344.036L901.333 412.064H881.773L921.964 321.987L884.453 237.288H904.012L932.681 302.359L961.887 237.288H981.446L942.595 324.407L981.446 412.064H961.887Z" fill="#3A8A3A"/>
<path d="M1028.4 409.3C1020.14 413.552 1015.06 415.465 1010.19 415.465C1006.59 415.465 1003.2 414.402 998.536 412.701C988.369 408.663 982.862 397.822 982.862 382.092V378.478C983.709 363.173 985.404 352.545 987.522 348.506C988.369 346.806 989.004 343.83 989.004 341.917C989.004 337.028 998.96 313.007 1002.35 309.606C1003.62 308.544 1004.26 307.693 1004.26 307.268C1004.26 307.056 1004.04 307.056 1003.83 307.056C1003.83 307.056 1003.62 306.843 1003.62 306.63C1003.62 305.568 1005.31 301.954 1007.86 297.277C1010.4 292.814 1014 287.074 1017.6 281.76C1028.4 266.243 1031.16 263.267 1037.3 263.267H1039.42C1041.11 263.479 1041.96 264.542 1041.96 266.668C1041.96 269.644 1040.26 274.533 1036.66 280.91C1016.54 319.172 1003.62 355.308 1002.14 377.628V381.879C1002.14 392.72 1004.89 399.31 1009.76 399.31C1015.27 399.31 1024.8 394.421 1033.49 387.193C1038.15 383.155 1042.81 379.328 1043.65 378.691C1049.16 374.014 1076.7 340.216 1084.11 329.163C1086.23 326.187 1088.77 323.848 1089.83 323.848H1090.04C1090.47 324.061 1090.68 324.061 1090.89 324.061C1091.1 324.061 1091.1 324.061 1091.1 323.848C1091.1 323.636 1091.1 323.423 1090.89 323.211C1090.89 322.998 1090.68 322.786 1090.68 322.36C1090.68 318.534 1099.57 305.78 1107.2 297.277C1111.22 292.814 1115.04 289.625 1116.73 289.625C1118 289.625 1118.64 289.838 1118.64 290.263C1118.64 290.688 1118.21 291.113 1117.37 292.176C1116.52 293.239 1116.1 294.302 1116.1 295.152C1116.1 295.577 1116.1 295.789 1116.31 296.002C1116.52 296.215 1116.73 296.215 1116.94 296.215C1117.16 296.215 1117.37 295.789 1117.37 295.152C1117.37 294.089 1118.21 293.026 1119.06 293.026C1119.7 293.026 1119.91 293.451 1119.91 294.302C1119.91 296.64 1118.21 301.529 1115.46 308.331C1112.07 316.408 1084.75 352.757 1082.2 352.757C1081.78 352.545 1081.57 352.545 1081.57 352.545C1081.36 352.545 1081.36 352.545 1081.36 352.757L1081.57 353.608C1081.78 353.82 1081.78 353.82 1081.78 354.245C1081.78 360.835 1041.32 402.923 1028.4 409.3ZM1062.08 208.637C1057.21 213.526 1053.19 216.077 1050.01 216.077C1047.25 216.077 1045.14 213.951 1044.08 209.912V209.062C1044.08 203.323 1055.52 185.892 1059.12 185.892H1059.33C1059.75 186.105 1060.18 186.105 1060.6 186.105C1061.45 186.105 1062.08 185.892 1062.29 185.255C1062.51 184.617 1063.56 184.404 1065.05 184.404C1065.89 184.404 1066.53 184.404 1067.38 184.617C1071.4 185.467 1073.52 187.593 1073.52 190.781C1073.52 195.033 1069.71 201.41 1062.08 208.637Z" fill="#C08830"/>
<path d="M1188.54 427.794C1184.51 431.62 1176.46 434.596 1171.8 434.596C1170.53 434.596 1169.47 434.383 1168.84 433.958C1167.99 433.533 1166.93 433.32 1165.87 433.32C1165.24 433.32 1164.6 433.32 1164.18 433.533C1163.97 433.746 1163.54 433.746 1163.33 433.746C1162.48 433.746 1161.85 433.32 1161.85 432.47C1161.85 431.407 1160.79 430.557 1159.52 430.557C1158.04 430.557 1156.55 429.069 1155.92 427.156C1155.28 425.243 1153.8 423.542 1152.74 423.542C1152.32 423.542 1151.89 423.33 1151.89 423.117C1151.89 422.905 1152.32 422.479 1153.16 421.842C1154.44 421.204 1154.86 420.779 1154.86 420.354C1154.86 420.141 1154.22 420.141 1152.95 420.141C1149.99 420.141 1148.29 411.851 1148.29 401.648C1148.29 394.846 1148.93 387.193 1150.41 380.179C1155.28 357.647 1166.51 323.211 1172.23 312.582C1173.5 310.244 1174.13 308.544 1174.13 307.693C1174.13 307.056 1173.92 306.63 1173.5 306.63C1172.23 306.63 1169.69 309.181 1166.72 313.858C1161.21 323.423 1143.42 349.144 1139.82 353.183C1138.13 355.096 1135.58 358.497 1133.89 361.048C1124.99 375.077 1105.72 393.57 1097.88 395.696C1096.4 396.121 1094.91 396.334 1093.64 396.334C1087.08 396.334 1081.57 391.87 1078.39 383.58C1077.12 379.754 1076.27 376.352 1076.27 371.889C1076.27 366.787 1077.33 360.41 1079.45 350.632C1080.93 343.192 1089.41 323.848 1091.1 322.998C1091.95 322.573 1092.58 321.51 1092.58 320.66C1092.58 319.597 1096.18 313.22 1100.63 306.418C1102.12 304.08 1103.6 300.891 1106.56 297.277C1119.06 282.61 1141.3 260.503 1143.84 260.503H1144.27C1145.12 260.503 1147.23 259.228 1149.35 257.315C1151.68 254.977 1154.86 253.063 1156.13 253.063C1157.4 253.063 1160.58 251.788 1162.91 250.3C1166.3 248.174 1174.35 246.899 1180.7 246.899C1183.88 246.899 1186.63 247.112 1188.11 247.962C1188.75 248.174 1189.17 248.387 1189.6 248.387C1191.72 248.387 1194.05 246.049 1199.34 239.247C1206.33 230.531 1208.87 227.768 1212.47 227.768C1213.32 227.768 1214.38 227.981 1215.44 228.193C1218.83 229.043 1220.95 233.082 1221.79 239.884V240.097C1221.79 244.561 1209.3 279.422 1207.18 280.91C1206.33 281.335 1205.27 284.311 1204.64 287.499C1204.21 290.688 1201.25 297.915 1198.28 303.654C1195.53 309.606 1193.2 315.133 1193.2 315.983C1193.2 317.046 1191.93 320.66 1190.44 324.273C1182.4 342.342 1169.47 383.367 1167.78 395.483C1167.14 399.947 1166.51 405.049 1166.09 406.537V407.6C1166.09 409.513 1166.51 412.064 1166.93 414.402C1167.78 417.59 1168.42 418.866 1171.8 418.866C1173.5 418.866 1176.04 418.441 1179.64 418.016C1181.34 417.803 1182.82 416.953 1182.82 416.315C1182.82 415.465 1184.09 414.402 1185.78 413.764C1187.48 413.127 1190.23 411.001 1191.93 409.088C1193.2 407.6 1194.26 406.75 1194.68 406.75C1194.89 406.75 1194.89 406.962 1194.89 407.175C1194.89 407.387 1195.1 407.387 1195.1 407.387C1195.53 407.387 1197.22 405.687 1198.92 403.136C1201.25 399.947 1207.39 392.933 1212.47 387.193C1224.12 374.227 1226.03 371.889 1226.03 370.401C1226.03 369.763 1227.72 367.85 1229.63 366.149C1231.54 364.449 1233.02 362.748 1233.02 362.11V361.898C1233.02 361.26 1237.04 354.883 1242.34 347.443C1250.81 335.327 1260.77 318.109 1270.3 299.191C1270.72 298.34 1271.15 297.703 1271.57 297.065C1273.27 294.514 1274.96 292.814 1276.02 292.814H1276.23C1276.65 292.814 1277.08 293.026 1277.29 293.026C1277.71 293.026 1277.93 292.814 1277.93 292.601C1277.93 292.176 1277.5 291.751 1276.65 290.688C1276.02 289.838 1275.6 289.2 1275.6 288.562C1275.6 287.712 1276.44 287.074 1278.14 286.224C1279.41 285.586 1281.31 285.161 1283.01 285.161C1283.86 285.161 1284.49 285.161 1285.13 285.374C1286.82 285.799 1287.67 286.437 1287.67 287.287C1287.67 287.924 1287.25 288.775 1286.61 289.838C1285.97 291.113 1285.55 292.601 1285.55 293.451C1285.55 293.876 1285.55 294.089 1285.76 294.302C1285.97 294.514 1285.97 294.727 1285.97 295.152C1285.97 296.215 1285.55 297.915 1284.49 299.828C1283.22 302.379 1280.26 308.331 1277.93 313.22C1275.6 317.896 1273.48 322.148 1272.84 322.786C1271.57 324.061 1267.76 330.225 1266.49 333.201C1266.06 334.477 1263.52 338.515 1260.98 341.917C1258.44 345.105 1256.53 348.506 1256.53 348.931C1256.53 350.419 1240.22 373.802 1233.23 382.517C1230.27 386.131 1226.88 389.319 1225.82 389.319H1225.61L1225.18 389.106C1224.97 389.106 1224.97 389.319 1224.97 389.532C1224.97 389.744 1224.97 389.957 1225.18 390.382V390.594C1225.18 393.145 1197.22 423.542 1194.68 423.542C1193.62 423.542 1190.87 425.455 1188.54 427.794ZM1095.13 378.691H1095.55C1097.88 378.691 1109.53 366.787 1119.49 354.458C1124.57 347.868 1129.44 343.617 1131.56 343.405C1132.83 343.405 1133.47 343.192 1133.47 342.979C1133.47 342.767 1133.25 342.554 1132.83 342.342C1132.19 342.129 1131.77 341.704 1131.77 340.854C1131.77 340.003 1132.41 338.515 1133.47 336.39C1134.74 334.052 1136.43 332.138 1137.49 332.138L1137.7 332.351C1138.13 332.564 1138.55 332.776 1138.76 332.776C1139.18 332.776 1139.4 332.564 1139.4 332.138L1139.18 331.926V330.225C1139.18 327.462 1140.67 325.124 1144.69 320.235C1147.66 317.046 1149.78 313.858 1149.78 313.22C1149.78 311.945 1153.16 306.205 1162.27 292.601C1165.87 287.074 1168.84 281.76 1168.84 280.91C1168.84 280.06 1170.53 278.146 1172.65 276.658C1174.98 275.17 1176.46 273.47 1176.46 272.832V272.62C1176.46 271.982 1178.16 269.006 1180.28 266.03C1182.82 262.629 1184.3 260.716 1184.3 259.653C1184.3 259.44 1183.88 259.228 1183.45 259.228C1182.61 259.228 1181.12 259.653 1178.58 260.716C1176.25 261.779 1173.92 262.416 1172.65 262.416C1172.23 262.416 1171.8 262.416 1171.59 262.204C1171.38 261.991 1171.38 261.991 1171.17 261.991C1170.75 261.991 1170.53 262.416 1170.53 263.054C1170.53 263.904 1168.63 265.605 1166.09 266.668C1161.43 268.793 1159.52 270.281 1151.05 277.934C1147.87 280.697 1144.69 283.461 1143.63 284.098C1141.73 285.374 1123.3 308.331 1117.37 316.621C1105.72 333.414 1094.28 363.386 1094.28 374.864C1094.28 376.565 1094.49 378.053 1095.13 378.691Z" fill="#C08830"/>
</svg>
